<svg width="18" height="18" viewBox="0 0 18 18" fill="none" xmlns="http://www.w3.org/2000/svg">
<path d="M16.6159 12.9145C16.6159 13.2049 16.3751 13.4458 16.0846 13.4458H11.1263V13.6228C11.1263 14.6853 10.4888 15.0395 9.70964 15.0395H5.45964C4.68047 15.0395 4.04297 14.6853 4.04297 13.6228V13.4458H1.91797C1.62755 13.4458 1.38672 13.2049 1.38672 12.9145C1.38672 12.6241 1.62755 12.3833 1.91797 12.3833H4.04297V12.2062C4.04297 11.1437 4.68047 10.7895 5.45964 10.7895H9.70964C10.4888 10.7895 11.1263 11.1437 11.1263 12.2062V12.3833H16.0846C16.3751 12.3833 16.6159 12.6241 16.6159 12.9145Z" fill="#C4C4C4"/>
<path opacity="0.4" d="M16.6159 5.12284C16.6159 5.41326 16.3751 5.65409 16.0846 5.65409H13.9596V5.83117C13.9596 6.89367 13.3221 7.24784 12.543 7.24784H8.29297C7.5138 7.24784 6.8763 6.89367 6.8763 5.83117V5.65409H1.91797C1.62755 5.65409 1.38672 5.41326 1.38672 5.12284C1.38672 4.83242 1.62755 4.59159 1.91797 4.59159H6.8763V4.41451C6.8763 3.35201 7.5138 2.99784 8.29297 2.99784H12.543C13.3221 2.99784 13.9596 3.35201 13.9596 4.41451V4.59159H16.0846C16.3751 4.59159 16.6159 4.83242 16.6159 5.12284Z" fill="#C4C4C4"/>
</svg>
