<svg width="17" height="18" viewBox="0 0 17 18" fill="none" xmlns="http://www.w3.org/2000/svg">
<path d="M14.8524 1.22701H12.7699C11.8704 1.22701 11.332 1.76535 11.332 2.66493V4.74743C11.332 5.64701 11.8704 6.18535 12.7699 6.18535H14.8524C15.752 6.18535 16.2904 5.64701 16.2904 4.74743V2.66493C16.2904 1.76535 15.752 1.22701 14.8524 1.22701ZM15.0083 3.5716C14.9673 3.61231 14.9186 3.64453 14.8652 3.6664C14.8117 3.68828 14.7544 3.69939 14.6966 3.6991C14.6388 3.69939 14.5816 3.68828 14.5281 3.6664C14.4746 3.64453 14.426 3.61231 14.3849 3.5716L14.2574 3.4441V5.03076C14.2574 5.27868 14.0591 5.47701 13.8112 5.47701C13.5633 5.47701 13.3649 5.27868 13.3649 5.03076V3.4441L13.2374 3.5716C13.0674 3.7416 12.7841 3.7416 12.6141 3.5716C12.5324 3.48842 12.4867 3.3765 12.4867 3.25993C12.4867 3.14336 12.5324 3.03144 12.6141 2.94826L13.4995 2.06285C13.5349 2.02743 13.5845 1.9991 13.6341 1.97785C13.6483 1.97076 13.6624 1.97076 13.6766 1.96368C13.712 1.94951 13.7474 1.94243 13.7899 1.94243H13.8324C13.882 1.94243 13.9245 1.94951 13.9741 1.97076H13.9883C14.0379 1.99201 14.0804 2.02035 14.1158 2.05576C14.1229 2.06285 14.1229 2.06285 14.1299 2.06285L15.0154 2.94826C15.1854 3.11826 15.1854 3.4016 15.0083 3.5716Z" fill="#C4C4C4"/>
<path opacity="0.4" d="M15.5846 6.02101V6.89226H1.41797V5.85809C1.41797 4.23601 2.73547 2.92559 4.35755 2.92559H11.3346V4.74601C11.3346 5.64559 11.873 6.18392 12.7726 6.18392H14.8551C15.1384 6.18392 15.3792 6.13434 15.5846 6.02101Z" fill="#C4C4C4"/>
<path d="M1.41797 6.89368V12.1778C1.41797 13.7999 2.73547 15.1103 4.35755 15.1103H12.6451C14.2671 15.1103 15.5846 13.7999 15.5846 12.1778V6.89368H1.41797ZM5.66797 12.7374H4.2513C3.96089 12.7374 3.72005 12.4966 3.72005 12.2062C3.72005 11.9158 3.96089 11.6749 4.2513 11.6749H5.66797C5.95839 11.6749 6.19922 11.9158 6.19922 12.2062C6.19922 12.4966 5.95839 12.7374 5.66797 12.7374ZM10.2721 12.7374H7.4388C7.14839 12.7374 6.90755 12.4966 6.90755 12.2062C6.90755 11.9158 7.14839 11.6749 7.4388 11.6749H10.2721C10.5626 11.6749 10.8034 11.9158 10.8034 12.2062C10.8034 12.4966 10.5626 12.7374 10.2721 12.7374Z" fill="#C4C4C4"/>
</svg>
