<svg width="18" height="18" viewBox="0 0 18 18" fill="none" xmlns="http://www.w3.org/2000/svg">
<path d="M12.3644 3.04034V1.93534C12.3644 1.64492 12.1236 1.40409 11.8332 1.40409C11.5428 1.40409 11.3019 1.64492 11.3019 1.93534V2.99784H6.69775V1.93534C6.69775 1.64492 6.45692 1.40409 6.1665 1.40409C5.87609 1.40409 5.63525 1.64492 5.63525 1.93534V3.04034C3.72275 3.21742 2.79484 4.35784 2.65317 6.05076C2.639 6.25617 2.809 6.42617 3.00734 6.42617H14.9923C15.1978 6.42617 15.3678 6.24909 15.3465 6.05076C15.2048 4.35784 14.2769 3.21742 12.3644 3.04034Z" fill="#C4C4C4"/>
<path opacity="0.4" d="M14.6667 7.48868C15.0562 7.48868 15.375 7.80743 15.375 8.19701V12.5603C15.375 14.6853 14.3125 16.102 11.8333 16.102H6.16667C3.6875 16.102 2.625 14.6853 2.625 12.5603V8.19701C2.625 7.80743 2.94375 7.48868 3.33333 7.48868H14.6667Z" fill="#C4C4C4"/>
<path d="M6.52083 11.143C6.33667 11.143 6.1525 11.0651 6.01792 10.9376C5.89042 10.803 5.8125 10.6188 5.8125 10.4346C5.8125 10.2505 5.89042 10.0663 6.01792 9.93172C6.21625 9.73339 6.52792 9.66964 6.79 9.78297C6.88208 9.81839 6.96 9.86797 7.02375 9.93172C7.15125 10.0663 7.22917 10.2505 7.22917 10.4346C7.22917 10.6188 7.15125 10.803 7.02375 10.9376C6.88917 11.0651 6.705 11.143 6.52083 11.143ZM9 11.143C8.81583 11.143 8.63167 11.0651 8.49708 10.9376C8.36958 10.803 8.29167 10.6188 8.29167 10.4346C8.29167 10.2505 8.36958 10.0663 8.49708 9.93172C8.56083 9.86797 8.63875 9.81839 8.73083 9.78297C8.99292 9.66964 9.30458 9.73339 9.50292 9.93172C9.63042 10.0663 9.70833 10.2505 9.70833 10.4346C9.70833 10.6188 9.63042 10.803 9.50292 10.9376L9.39667 11.0226C9.35417 11.0509 9.31167 11.0721 9.26917 11.0863C9.22667 11.1076 9.18417 11.1217 9.14167 11.1288C9.09208 11.1359 9.04958 11.143 9 11.143ZM11.4792 11.1437C11.295 11.1437 11.1108 11.0658 10.9762 10.9383C10.8487 10.8037 10.7708 10.6195 10.7708 10.4353C10.7708 10.2512 10.8487 10.067 10.9762 9.93243C11.0471 9.86868 11.1179 9.8191 11.21 9.78368C11.3375 9.72701 11.4792 9.71285 11.6208 9.74118C11.6633 9.74826 11.7058 9.76243 11.7483 9.78368C11.7908 9.79785 11.8333 9.8191 11.8758 9.84743L11.9821 9.93243C12.1096 10.067 12.1875 10.2512 12.1875 10.4353C12.1875 10.6195 12.1096 10.8037 11.9821 10.9383L11.8758 11.0233C11.8333 11.0516 11.7908 11.0728 11.7483 11.087C11.7058 11.1083 11.6633 11.1224 11.6208 11.1295C11.5712 11.1366 11.5217 11.1437 11.4792 11.1437ZM6.52083 13.6228C6.42875 13.6228 6.33667 13.6016 6.25167 13.5662C6.15958 13.5308 6.08875 13.4812 6.01792 13.4174C5.89042 13.2828 5.8125 13.0987 5.8125 12.9145C5.8125 12.7303 5.89042 12.5462 6.01792 12.4116C6.08875 12.3478 6.15958 12.2983 6.25167 12.2628C6.37917 12.2062 6.52083 12.192 6.6625 12.2203C6.705 12.2274 6.7475 12.2416 6.79 12.2628C6.8325 12.277 6.875 12.2983 6.9175 12.3266L7.02375 12.4116C7.15125 12.5462 7.22917 12.7303 7.22917 12.9145C7.22917 13.0987 7.15125 13.2828 7.02375 13.4174C6.98833 13.4458 6.95292 13.4812 6.9175 13.5024C6.875 13.5308 6.8325 13.552 6.79 13.5662C6.7475 13.5874 6.705 13.6016 6.6625 13.6087C6.61292 13.6158 6.57042 13.6228 6.52083 13.6228ZM9 13.6228C8.81583 13.6228 8.63167 13.5449 8.49708 13.4174C8.36958 13.2828 8.29167 13.0987 8.29167 12.9145C8.29167 12.7303 8.36958 12.5462 8.49708 12.4116C8.75917 12.1495 9.24083 12.1495 9.50292 12.4116C9.63042 12.5462 9.70833 12.7303 9.70833 12.9145C9.70833 13.0987 9.63042 13.2828 9.50292 13.4174C9.36833 13.5449 9.18417 13.6228 9 13.6228ZM11.4792 13.6228C11.295 13.6228 11.1108 13.5449 10.9762 13.4174C10.8487 13.2828 10.7708 13.0987 10.7708 12.9145C10.7708 12.7303 10.8487 12.5462 10.9762 12.4116C11.2383 12.1495 11.72 12.1495 11.9821 12.4116C12.1096 12.5462 12.1875 12.7303 12.1875 12.9145C12.1875 13.0987 12.1096 13.2828 11.9821 13.4174C11.8475 13.5449 11.6633 13.6228 11.4792 13.6228Z" fill="#C4C4C4"/>
</svg>
