<svg width="18" height="18" viewBox="0 0 18 18" fill="none" xmlns="http://www.w3.org/2000/svg">
<path opacity="0.4" d="M15.375 16.6333H2.625C2.33458 16.6333 2.09375 16.3924 2.09375 16.102C2.09375 15.8116 2.33458 15.5708 2.625 15.5708H15.375C15.6654 15.5708 15.9062 15.8116 15.9062 16.102C15.9062 16.3924 15.6654 16.6333 15.375 16.6333Z" fill="#C4C4C4"/>
<path d="M4.46667 6.4538H3.33333C2.94375 6.4538 2.625 6.77255 2.625 7.16213V13.268C2.625 13.6575 2.94375 13.9763 3.33333 13.9763H4.46667C4.85625 13.9763 5.175 13.6575 5.175 13.268V7.16213C5.175 6.76547 4.85625 6.4538 4.46667 6.4538ZM9.56667 4.19563H8.43333C8.04375 4.19563 7.725 4.51438 7.725 4.90397V13.2694C7.725 13.659 8.04375 13.9777 8.43333 13.9777H9.56667C9.95625 13.9777 10.275 13.659 10.275 13.2694V4.90397C10.275 4.51438 9.95625 4.19563 9.56667 4.19563ZM14.6667 1.93534H13.5333C13.1437 1.93534 12.825 2.25409 12.825 2.64367V13.2687C12.825 13.6583 13.1437 13.977 13.5333 13.977H14.6667C15.0562 13.977 15.375 13.6583 15.375 13.2687V2.64367C15.375 2.25409 15.0562 1.93534 14.6667 1.93534Z" fill="#C4C4C4"/>
</svg>
