<svg width="55" height="55" viewBox="0 0 55 55" fill="none" xmlns="http://www.w3.org/2000/svg">
<path opacity="0.4" d="M22.8924 41.2042C27.7487 41.2042 32.406 39.2751 35.8399 35.8412C39.2737 32.4073 41.2029 27.75 41.2029 22.8938C41.2029 18.0375 39.2737 13.3802 35.8399 9.94634C32.406 6.51247 27.7487 4.58334 22.8924 4.58334C18.0362 4.58334 13.3789 6.51247 9.94503 9.94634C6.51116 13.3802 4.58203 18.0375 4.58203 22.8938C4.58203 27.75 6.51116 32.4073 9.94503 35.8412C13.3789 39.2751 18.0362 41.2042 22.8924 41.2042Z" fill="#5381D3"/>
<path d="M50.342 36.6392C50.342 44.2017 44.2004 50.3433 36.6379 50.3433C34.4259 50.3444 32.2467 49.8091 30.287 48.7833C28.3273 47.7575 26.6455 46.2719 25.3858 44.4537C30.2503 43.8964 34.7828 41.7085 38.245 38.2463C41.7072 34.784 43.8951 30.2516 44.4524 25.3871C46.2706 26.6468 47.7562 28.3286 48.782 30.2883C49.8078 32.248 50.3431 34.4272 50.342 36.6392ZM26.2383 22.2521L20.7383 20.3271C20.1883 20.1437 20.0737 20.0979 20.0737 19.2958C20.0737 18.7 20.4862 18.2187 21.0133 18.2187H24.4508C25.1841 18.2187 25.7799 18.8833 25.7799 19.7083C25.7799 20.6479 26.5591 21.4271 27.4987 21.4271C28.4383 21.4271 29.2174 20.6479 29.2174 19.7083C29.2174 17.0729 27.1779 14.9187 24.6341 14.8042V14.6896C24.6341 14.2337 24.453 13.7966 24.1307 13.4742C23.8084 13.1519 23.3712 12.9708 22.9154 12.9708C22.4595 12.9708 22.0224 13.1519 21.7 13.4742C21.3777 13.7966 21.1966 14.2337 21.1966 14.6896V14.8042H20.9904C18.5841 14.8042 16.6133 16.8208 16.6133 19.3187C16.6133 21.4958 17.5758 22.8937 19.5695 23.5812L25.0924 25.5062C25.6424 25.6896 25.757 25.7354 25.757 26.5375C25.757 27.1333 25.3445 27.6146 24.8174 27.6146H21.3799C20.6466 27.6146 20.0508 26.95 20.0508 26.125C20.0508 25.1854 19.2716 24.4062 18.332 24.4062C17.3924 24.4062 16.6133 25.1854 16.6133 26.125C16.6133 28.7604 18.6529 30.9146 21.1966 31.0292V31.1667C21.1966 32.1062 21.9758 32.8854 22.9154 32.8854C23.8549 32.8854 24.6341 32.1062 24.6341 31.1667V31.0521H24.8404C27.2466 31.0521 29.2174 29.0354 29.2174 26.5375C29.2174 24.3604 28.232 22.9625 26.2383 22.2521Z" fill="#5381D3"/>
</svg>
