<svg width="45" height="46" viewBox="0 0 45 46" fill="none" xmlns="http://www.w3.org/2000/svg">
<path opacity="0.4" d="M33.825 25.9063C33.0375 26.675 32.5875 27.7813 32.7 28.9625C32.8688 30.9875 34.725 32.4687 36.75 32.4687H40.3125V34.7C40.3125 38.5812 37.1437 41.75 33.2625 41.75H11.7375C7.85625 41.75 4.6875 38.5812 4.6875 34.7V22.0813C4.6875 18.2 7.85625 15.0312 11.7375 15.0312H33.2625C37.1437 15.0312 40.3125 18.2 40.3125 22.0813V24.7812H36.525C35.475 24.7812 34.5188 25.1938 33.825 25.9063Z" fill="#5381D3"/>
<path d="M27.8438 7.91V15.035H11.7375C7.85625 15.035 4.6875 18.2038 4.6875 22.085V15.2038C4.6875 12.9725 6.05625 10.985 8.1375 10.1975L23.025 4.5725C25.35 3.71 27.8438 5.41625 27.8438 7.91ZM42.2981 26.6938V30.5563C42.2981 31.5875 41.4731 32.4313 40.4231 32.4688H36.7481C34.7231 32.4688 32.8669 30.9875 32.6981 28.9625C32.5856 27.7813 33.0356 26.675 33.8231 25.9063C34.5169 25.1938 35.4731 24.7813 36.5231 24.7813H40.4231C41.4731 24.8188 42.2981 25.6625 42.2981 26.6938ZM26.25 24.4063H13.125C12.3563 24.4063 11.7188 23.7688 11.7188 23C11.7188 22.2313 12.3563 21.5938 13.125 21.5938H26.25C27.0187 21.5938 27.6562 22.2313 27.6562 23C27.6562 23.7688 27.0187 24.4063 26.25 24.4063Z" fill="#5381D3"/>
</svg>
