<svg width="46" height="46" viewBox="0 0 46 46" fill="none" xmlns="http://www.w3.org/2000/svg">
<path d="M26.3311 7.18262C22.1926 6.30416 18.114 8.95449 17.2355 13.093C16.3738 17.1525 18.8514 21.1119 22.9597 22.1325C23.0894 22.1436 23.2157 22.1704 23.3072 22.2063L23.4177 22.2298C25.3733 22.5772 27.3874 22.1504 29.0341 21.0397C30.6807 19.9291 31.8309 18.2216 32.2415 16.2782C33.1199 12.1397 30.4696 8.06108 26.3311 7.18262Z" fill="#E946DA"/>
<path opacity="0.4" d="M30.2822 28.0761C26.4988 24.2027 19.3117 22.6771 14.2495 24.673C11.9584 25.5898 10.4672 27.1716 10.0548 29.1145C9.64235 31.0573 10.3658 33.0927 12.0744 34.8421C13.9707 36.7963 16.7195 38.1556 19.6259 38.7725C22.5323 39.3895 25.5963 39.264 28.1229 38.2486C30.3982 37.3284 31.8861 35.7624 32.3019 33.8037C32.6985 31.8575 31.9908 29.8254 30.2822 28.0761Z" fill="#E946DA"/>
<path d="M24.5863 30.9608L22.6118 30.5417L23.0309 28.5672C23.1684 27.9196 22.7454 27.2685 22.0977 27.1311C21.4501 26.9936 20.7991 27.4166 20.6616 28.0643L20.2425 30.0387L18.268 29.6196C17.6204 29.4822 16.9693 29.9052 16.8319 30.5528C16.6944 31.2005 17.1174 31.8515 17.7651 31.989L19.7395 32.4081L19.3204 34.3826C19.183 35.0302 19.606 35.6812 20.2536 35.8187C20.9013 35.9562 21.5523 35.5331 21.6898 34.8855L22.1089 32.911L24.0834 33.3301C24.731 33.4676 25.382 33.0446 25.5195 32.3969C25.657 31.7493 25.2339 31.0983 24.5863 30.9608Z" fill="#E946DA"/>
</svg>
