<svg width="18" height="18" viewBox="0 0 18 18" fill="none" xmlns="http://www.w3.org/2000/svg">
<path opacity="0.4" d="M8.26437 2.01326L4.36854 3.47242C3.62479 3.75576 3.01562 4.63409 3.01562 5.43451V11.172C3.01562 11.7458 3.39104 12.5037 3.85146 12.8437L7.74729 15.7549C8.43437 16.272 9.56062 16.272 10.2477 15.7549L14.1435 12.8437C14.604 12.4966 14.9794 11.7458 14.9794 11.172V5.43451C14.9794 4.64117 14.3702 3.75576 13.6265 3.47951L9.73062 2.02034C9.33396 1.86451 8.66812 1.86451 8.26437 2.01326Z" fill="#C4C4C4"/>
<path d="M9.0013 12.0291C7.14547 12.0291 5.63672 10.5203 5.63672 8.66451C5.63672 6.80868 7.14547 5.29993 9.0013 5.29993C10.8571 5.29993 12.3659 6.80868 12.3659 8.66451C12.3659 10.5203 10.8571 12.0291 9.0013 12.0291ZM9.0013 6.36243C7.73339 6.36243 6.69922 7.39659 6.69922 8.66451C6.69922 9.93243 7.73339 10.9666 9.0013 10.9666C10.2692 10.9666 11.3034 9.93243 11.3034 8.66451C11.3034 7.39659 10.2692 6.36243 9.0013 6.36243Z" fill="#C4C4C4"/>
<path d="M8.29012 9.90551C8.11304 9.90551 7.93595 9.81342 7.83678 9.65051C7.68803 9.39551 7.76595 9.06967 8.02095 8.92092L8.55929 8.59509C8.61595 8.55967 8.64429 8.50301 8.64429 8.44634V7.78759C8.64429 7.49717 8.88512 7.25634 9.17554 7.25634C9.46595 7.25634 9.70679 7.49009 9.70679 7.78051V8.43926C9.70679 8.87134 9.47303 9.28217 9.1047 9.50176L8.55929 9.82759C8.48137 9.88426 8.3822 9.90551 8.29012 9.90551Z" fill="#C4C4C4"/>
</svg>
