<svg width="17" height="18" viewBox="0 0 17 18" fill="none" xmlns="http://www.w3.org/2000/svg">
<path opacity="0.4" d="M8.4987 9.01867C9.43801 9.01867 10.3388 8.64554 11.003 7.98134C11.6672 7.31715 12.0404 6.41632 12.0404 5.47701C12.0404 4.5377 11.6672 3.63686 11.003 2.97267C10.3388 2.30848 9.43801 1.93534 8.4987 1.93534C7.55939 1.93534 6.65855 2.30848 5.99436 2.97267C5.33017 3.63686 4.95703 4.5377 4.95703 5.47701C4.95703 6.41632 5.33017 7.31715 5.99436 7.98134C6.65855 8.64554 7.55939 9.01867 8.4987 9.01867Z" fill="#C4C4C4"/>
<path d="M8.50125 10.7895C4.9525 10.7895 2.0625 13.1695 2.0625 16.102C2.0625 16.3003 2.21833 16.4562 2.41667 16.4562H14.5858C14.7842 16.4562 14.94 16.3003 14.94 16.102C14.94 13.1695 12.05 10.7895 8.50125 10.7895Z" fill="#C4C4C4"/>
</svg>
