<svg width="50" height="50" viewBox="0 0 50 50" fill="none" xmlns="http://www.w3.org/2000/svg">
<path fill-rule="evenodd" clip-rule="evenodd" d="M25 16C22.5556 16 22.2496 16.0108 21.2893 16.054C20.3317 16.0981 19.6774 16.2502 19.105 16.4725C18.5042 16.6983 17.96 17.0524 17.5102 17.5102C17.0524 17.96 16.6983 18.5043 16.4725 19.105C16.2502 19.6774 16.0981 20.3317 16.054 21.2893C16.0099 22.2496 16 22.5556 16 25C16 27.4444 16.0099 27.7504 16.054 28.7107C16.0981 29.6683 16.2502 30.3226 16.4725 30.895C16.6983 31.4957 17.0524 32.04 17.5102 32.4898C17.96 32.9476 18.5043 33.3017 19.105 33.5275C19.6774 33.7498 20.3317 33.9019 21.2893 33.946C22.2496 33.9892 22.5556 34 25 34C27.4444 34 27.7504 33.9892 28.7107 33.946C29.6683 33.9019 30.3226 33.7498 30.895 33.5275C31.4957 33.3017 32.04 32.9476 32.4898 32.4898C32.9476 32.04 33.3017 31.4957 33.5275 30.895C33.7498 30.3226 33.9019 29.6683 33.946 28.7107C33.9892 27.7504 34 27.4444 34 25C34 22.5556 33.9892 22.2496 33.946 21.2893C33.9019 20.3317 33.7498 19.6774 33.5275 19.105C33.3017 18.5043 32.9476 17.96 32.4898 17.5102C32.04 17.0524 31.4958 16.6983 30.895 16.4725C30.3226 16.2502 29.6683 16.0981 28.7107 16.054C27.7504 16.0108 27.4444 16 25 16ZM25 17.6218C27.403 17.6218 27.6874 17.6308 28.636 17.674C29.5144 17.7145 29.9905 17.8603 30.3082 17.9836C30.7276 18.1474 31.0282 18.3427 31.3432 18.6568C31.6582 18.9718 31.8526 19.2724 32.0164 19.6918C32.1388 20.0095 32.2864 20.4856 32.326 21.3631C32.3692 22.3126 32.3782 22.5961 32.3782 25C32.3782 27.403 32.3692 27.6874 32.326 28.636C32.2855 29.5144 32.1388 29.9905 32.0164 30.3082C31.8721 30.6991 31.6421 31.0528 31.3432 31.3432C31.0282 31.6582 30.7276 31.8526 30.3082 32.0164C29.9905 32.1388 29.5144 32.2864 28.6369 32.326C27.6883 32.3692 27.4039 32.3782 25 32.3782C22.597 32.3782 22.3117 32.3692 21.364 32.326C20.4856 32.2855 20.0095 32.1388 19.6918 32.0164C19.3008 31.8722 18.9472 31.6421 18.6568 31.3432C18.3579 31.0528 18.1278 30.6992 17.9836 30.3082C17.8603 29.9905 17.7136 29.5144 17.674 28.6369C17.6308 27.6874 17.6218 27.4039 17.6218 25C17.6218 22.597 17.6308 22.3126 17.674 21.364C17.7145 20.4856 17.8603 20.0095 17.9836 19.6918C18.1474 19.2724 18.3427 18.9718 18.6568 18.6568C18.9718 18.3418 19.2724 18.1474 19.6918 17.9836C20.0095 17.8603 20.4856 17.7136 21.3631 17.674C22.3126 17.6308 22.5961 17.6218 25 17.6218ZM25 27.9997C24.2044 27.9997 23.4414 27.6837 22.8789 27.1211C22.3163 26.5586 22.0003 25.7956 22.0003 25C22.0003 24.2044 22.3163 23.4414 22.8789 22.8789C23.4414 22.3163 24.2044 22.0003 25 22.0003C25.7956 22.0003 26.5586 22.3163 27.1211 22.8789C27.6837 23.4414 27.9997 24.2044 27.9997 25C27.9997 25.7956 27.6837 26.5586 27.1211 27.1211C26.5586 27.6837 25.7956 27.9997 25 27.9997ZM25 20.3785C24.3931 20.3785 23.7921 20.498 23.2314 20.7303C22.6707 20.9625 22.1613 21.303 21.7321 21.7321C21.303 22.1613 20.9625 22.6707 20.7303 23.2314C20.498 23.7921 20.3785 24.3931 20.3785 25C20.3785 25.6069 20.498 26.2079 20.7303 26.7686C20.9625 27.3293 21.303 27.8387 21.7321 28.2679C22.1613 28.697 22.6707 29.0375 23.2314 29.2697C23.7921 29.502 24.3931 29.6215 25 29.6215C26.2257 29.6215 27.4012 29.1346 28.2679 28.2679C29.1346 27.4012 29.6215 26.2257 29.6215 25C29.6215 23.7743 29.1346 22.5988 28.2679 21.7321C27.4012 20.8654 26.2257 20.3785 25 20.3785ZM30.8842 20.1958C30.8842 20.3376 30.8563 20.4781 30.802 20.6091C30.7477 20.7401 30.6682 20.8592 30.5679 20.9595C30.4676 21.0598 30.3485 21.1393 30.2175 21.1936C30.0865 21.2479 29.946 21.2758 29.8042 21.2758C29.6624 21.2758 29.5219 21.2479 29.3909 21.1936C29.2599 21.1393 29.1408 21.0598 29.0405 20.9595C28.9402 20.8592 28.8607 20.7401 28.8064 20.6091C28.7521 20.4781 28.7242 20.3376 28.7242 20.1958C28.7242 19.9094 28.838 19.6347 29.0405 19.4321C29.2431 19.2296 29.5178 19.1158 29.8042 19.1158C30.0906 19.1158 30.3653 19.2296 30.5679 19.4321C30.7704 19.6347 30.8842 19.9094 30.8842 20.1958Z" fill="white"/>
<rect opacity="0.1" width="50" height="50" rx="7" fill="white"/>
</svg>
