<svg width="18" height="21" viewBox="0 0 18 21" fill="none" xmlns="http://www.w3.org/2000/svg">
<path opacity="0.4" fill-rule="evenodd" clip-rule="evenodd" d="M15.865 3.6238C16.302 3.7768 16.594 4.1888 16.594 4.6518V11.4248C16.594 13.3178 15.906 15.1248 14.691 16.5248C14.08 17.2298 13.307 17.7788 12.486 18.2228L8.928 20.1448L5.364 18.2218C4.542 17.7778 3.768 17.2298 3.156 16.5238C1.94 15.1238 1.25 13.3158 1.25 11.4208V4.6518C1.25 4.1888 1.542 3.7768 1.979 3.6238L8.561 1.3108C8.795 1.2288 9.05 1.2288 9.283 1.3108L15.865 3.6238Z" fill="#FFDD3C" stroke="#FFDD3C" stroke-width="1.5" stroke-linecap="round" stroke-linejoin="round"/>
<path d="M6.32227 10.4178L8.21427 12.3108L12.1123 8.41275" stroke="#FFDD3C" stroke-width="1.5" stroke-linecap="round" stroke-linejoin="round"/>
</svg>
