<svg width="50" height="50" viewBox="0 0 50 50" fill="none" xmlns="http://www.w3.org/2000/svg">
<rect opacity="0.1" width="50" height="50" rx="7" fill="white"/>
<path d="M34.5879 16.0959C34.3711 15.9122 34.1087 15.7907 33.8284 15.7443C33.5481 15.6979 33.2605 15.7282 32.9961 15.8322L14.9687 22.9123C14.6525 23.0327 14.3847 23.2538 14.2065 23.5414C14.0283 23.8291 13.9495 24.1673 13.9824 24.5041C14.0117 24.8407 14.1494 25.1588 14.3748 25.4105C14.6001 25.6623 14.9011 25.8343 15.2324 25.9006L19.8125 26.8088V32.5314C19.8123 32.841 19.9041 33.1437 20.0763 33.401C20.2484 33.6583 20.4931 33.8587 20.7793 33.9767C20.9687 34.053 21.1708 34.0927 21.375 34.0939C21.5802 34.0946 21.7835 34.0544 21.973 33.9756C22.1625 33.8968 22.3343 33.781 22.4785 33.6349L25.0176 31.1056L28.8554 34.4845C29.1388 34.7344 29.5031 34.8732 29.8808 34.8752C30.047 34.8786 30.2124 34.8521 30.3691 34.797C30.6268 34.7155 30.8588 34.5681 31.042 34.3694C31.2253 34.1707 31.3535 33.9277 31.414 33.6642L35.0859 17.6291C35.1501 17.3524 35.1376 17.0634 35.0499 16.7933C34.9621 16.5231 34.8024 16.282 34.5879 16.0959ZM20.4082 25.3342L15.5449 24.3674L29.1777 19.006L20.4082 25.3342ZM21.375 32.5314V27.9025L23.8359 30.0705L21.375 32.5314ZM29.8906 33.3127L21.8437 26.2326L33.4355 17.8635L29.8906 33.3127Z" fill="white"/>
</svg>
