<svg width="17" height="17" viewBox="0 0 17 17" fill="none" xmlns="http://www.w3.org/2000/svg">
<g clip-path="url(#clip0_471_10223)">
<path d="M11.8644 2.52175V1.41675C11.8644 1.12633 11.6236 0.885498 11.3332 0.885498C11.0428 0.885498 10.8019 1.12633 10.8019 1.41675V2.47925H6.19775V1.41675C6.19775 1.12633 5.95692 0.885498 5.6665 0.885498C5.37609 0.885498 5.13525 1.12633 5.13525 1.41675V2.52175C3.22275 2.69883 2.29484 3.83925 2.15317 5.53216C2.139 5.73758 2.309 5.90758 2.50734 5.90758H14.4923C14.6978 5.90758 14.8678 5.7305 14.8465 5.53216C14.7048 3.83925 13.7769 2.69883 11.8644 2.52175Z" fill="#E946DA"/>
<path opacity="0.4" d="M14.1667 6.97003C14.5562 6.97003 14.875 7.28878 14.875 7.67837V12.0417C14.875 14.1667 13.8125 15.5834 11.3333 15.5834H5.66667C3.1875 15.5834 2.125 14.1667 2.125 12.0417V7.67837C2.125 7.28878 2.44375 6.97003 2.83333 6.97003H14.1667Z" fill="#E946DA"/>
<path d="M6.02083 10.6243C5.83667 10.6243 5.6525 10.5464 5.51792 10.4189C5.39042 10.2843 5.3125 10.1002 5.3125 9.916C5.3125 9.73183 5.39042 9.54767 5.51792 9.41308C5.71625 9.21475 6.02792 9.151 6.29 9.26433C6.38208 9.29975 6.46 9.34933 6.52375 9.41308C6.65125 9.54767 6.72917 9.73183 6.72917 9.916C6.72917 10.1002 6.65125 10.2843 6.52375 10.4189C6.38917 10.5464 6.205 10.6243 6.02083 10.6243ZM8.5 10.6243C8.31583 10.6243 8.13167 10.5464 7.99708 10.4189C7.86958 10.2843 7.79167 10.1002 7.79167 9.916C7.79167 9.73183 7.86958 9.54767 7.99708 9.41308C8.06083 9.34933 8.13875 9.29975 8.23083 9.26433C8.49292 9.151 8.80458 9.21475 9.00292 9.41308C9.13042 9.54767 9.20833 9.73183 9.20833 9.916C9.20833 10.1002 9.13042 10.2843 9.00292 10.4189L8.89667 10.5039C8.85417 10.5322 8.81167 10.5535 8.76917 10.5677C8.72667 10.5889 8.68417 10.6031 8.64167 10.6102C8.59208 10.6172 8.54958 10.6243 8.5 10.6243ZM10.9792 10.625C10.795 10.625 10.6108 10.5471 10.4762 10.4196C10.3487 10.285 10.2708 10.1009 10.2708 9.91671C10.2708 9.73254 10.3487 9.54837 10.4762 9.41379C10.5471 9.35004 10.6179 9.30046 10.71 9.26504C10.8375 9.20837 10.9792 9.19421 11.1208 9.22254C11.1633 9.22962 11.2058 9.24379 11.2483 9.26504C11.2908 9.27921 11.3333 9.30046 11.3758 9.32879L11.4821 9.41379C11.6096 9.54837 11.6875 9.73254 11.6875 9.91671C11.6875 10.1009 11.6096 10.285 11.4821 10.4196L11.3758 10.5046C11.3333 10.533 11.2908 10.5542 11.2483 10.5684C11.2058 10.5896 11.1633 10.6038 11.1208 10.6109C11.0712 10.618 11.0217 10.625 10.9792 10.625ZM6.02083 13.1042C5.92875 13.1042 5.83667 13.083 5.75167 13.0475C5.65958 13.0121 5.58875 12.9625 5.51792 12.8988C5.39042 12.7642 5.3125 12.58 5.3125 12.3959C5.3125 12.2117 5.39042 12.0275 5.51792 11.893C5.58875 11.8292 5.65958 11.7796 5.75167 11.7442C5.87917 11.6875 6.02083 11.6734 6.1625 11.7017C6.205 11.7088 6.2475 11.723 6.29 11.7442C6.3325 11.7584 6.375 11.7796 6.4175 11.808L6.52375 11.893C6.65125 12.0275 6.72917 12.2117 6.72917 12.3959C6.72917 12.58 6.65125 12.7642 6.52375 12.8988C6.48833 12.9271 6.45292 12.9625 6.4175 12.9838C6.375 13.0121 6.3325 13.0334 6.29 13.0475C6.2475 13.0688 6.205 13.083 6.1625 13.09C6.11292 13.0971 6.07042 13.1042 6.02083 13.1042ZM8.5 13.1042C8.31583 13.1042 8.13167 13.0263 7.99708 12.8988C7.86958 12.7642 7.79167 12.58 7.79167 12.3959C7.79167 12.2117 7.86958 12.0275 7.99708 11.893C8.25917 11.6309 8.74083 11.6309 9.00292 11.893C9.13042 12.0275 9.20833 12.2117 9.20833 12.3959C9.20833 12.58 9.13042 12.7642 9.00292 12.8988C8.86833 13.0263 8.68417 13.1042 8.5 13.1042ZM10.9792 13.1042C10.795 13.1042 10.6108 13.0263 10.4762 12.8988C10.3487 12.7642 10.2708 12.58 10.2708 12.3959C10.2708 12.2117 10.3487 12.0275 10.4762 11.893C10.7383 11.6309 11.22 11.6309 11.4821 11.893C11.6096 12.0275 11.6875 12.2117 11.6875 12.3959C11.6875 12.58 11.6096 12.7642 11.4821 12.8988C11.3475 13.0263 11.1633 13.1042 10.9792 13.1042Z" fill="#E946DA"/>
</g>
<defs>
<clipPath id="clip0_471_10223">
<rect width="17" height="17" fill="white"/>
</clipPath>
</defs>
</svg>
