<svg width="18" height="17" viewBox="0 0 18 17" fill="none" xmlns="http://www.w3.org/2000/svg">
<path opacity="0.4" d="M15.375 16.1146H2.625C2.33458 16.1146 2.09375 15.8738 2.09375 15.5834C2.09375 15.293 2.33458 15.0521 2.625 15.0521H15.375C15.6654 15.0521 15.9062 15.293 15.9062 15.5834C15.9062 15.8738 15.6654 16.1146 15.375 16.1146Z" fill="#9CF0AF"/>
<path d="M4.46667 5.93521H3.33333C2.94375 5.93521 2.625 6.25396 2.625 6.64354V12.7494C2.625 13.139 2.94375 13.4577 3.33333 13.4577H4.46667C4.85625 13.4577 5.175 13.139 5.175 12.7494V6.64354C5.175 6.24687 4.85625 5.93521 4.46667 5.93521ZM9.56667 3.67704H8.43333C8.04375 3.67704 7.725 3.99579 7.725 4.38537V12.7508C7.725 13.1404 8.04375 13.4591 8.43333 13.4591H9.56667C9.95625 13.4591 10.275 13.1404 10.275 12.7508V4.38537C10.275 3.99579 9.95625 3.67704 9.56667 3.67704ZM14.6667 1.41675H13.5333C13.1437 1.41675 12.825 1.7355 12.825 2.12508V12.7501C12.825 13.1397 13.1437 13.4584 13.5333 13.4584H14.6667C15.0562 13.4584 15.375 13.1397 15.375 12.7501V2.12508C15.375 1.7355 15.0562 1.41675 14.6667 1.41675Z" fill="#9CF0AF"/>
</svg>
