<svg width="24" height="24" viewBox="0 0 24 24" fill="none" xmlns="http://www.w3.org/2000/svg">
<g clip-path="url(#clip0_134_3538)">
<path d="M24 12C24 5.37258 18.6274 0 12 0C5.37258 0 0 5.37258 0 12C0 18.6274 5.37258 24 12 24C18.6274 24 24 18.6274 24 12Z" fill="white"/>
<path fill-rule="evenodd" clip-rule="evenodd" d="M9.20374 10.8507L12.0006 8.05511L14.7986 10.853L16.425 9.22541L12.0006 4.79999L7.57612 9.22427L9.20374 10.8507ZM4.7998 12L6.42683 10.373L8.05384 12L6.42683 13.6269L4.7998 12ZM12.0008 15.9459L9.20398 13.1492L7.57415 14.7745L7.57642 14.7768L12.0008 19.1999L16.4253 14.7745L16.4264 14.7734L14.7988 13.1481L12.0008 15.9459ZM15.9453 12.0005L17.5724 10.3735L19.1993 12.0005L17.5724 13.6274L15.9453 12.0005ZM12.0011 10.3481L13.6514 11.9996H13.6526L13.6514 12.0007L12.0011 13.6521L10.3508 12.003L10.3485 11.9996L10.3508 11.9973L10.6397 11.7084L10.7807 11.5685L12.0011 10.3481Z" fill="#F5B300"/>
<path d="M24 12C24 5.37258 18.6274 0 12 0C5.37258 0 0 5.37258 0 12C0 18.6274 5.37258 24 12 24C18.6274 24 24 18.6274 24 12Z" fill="#50AF95"/>
<path d="M12.0589 5.075C13.9152 5.075 15.6973 5.075 17.5536 5.075C17.7021 5.075 17.7764 5.1502 17.7764 5.2254C18.8159 7.55677 19.8554 9.81295 20.9692 12.0691C21.0435 12.1443 20.9692 12.2196 20.895 12.2947C19.6327 13.5732 18.3704 14.8518 17.0338 16.1302C15.4003 17.7096 13.6924 19.3641 12.0589 20.9434C11.9104 21.0186 11.9104 21.0186 11.8361 20.9434C10.2025 19.3641 8.56896 17.7847 6.9354 16.1302C5.67311 14.8518 4.33655 13.5732 3.07426 12.2947C3 12.2196 3 12.1443 3 12.0691C3.51977 10.8658 4.1138 9.73777 4.63357 8.53447C5.15334 7.40635 5.67311 6.35347 6.1929 5.2254C6.26712 5.07499 6.3414 4.99979 6.56412 4.99979C8.42046 5.07499 10.2025 4.99979 12.0589 5.075ZM12.1331 7.10557C10.7966 7.10557 9.38574 7.10557 8.04918 7.10557C7.97496 7.10557 7.97496 7.10557 7.90068 7.10557C7.82646 7.10557 7.82646 7.10557 7.82646 7.18075C7.82646 7.85761 7.82646 8.53447 7.75218 9.28651C7.75218 9.36169 7.75218 9.36169 7.82646 9.36169C8.04918 9.36169 8.27196 9.36169 8.49474 9.36169C9.23724 9.36169 9.9798 9.36169 10.7223 9.36169C10.7966 9.36169 10.7966 9.36169 10.8708 9.36169C10.9451 9.36169 10.9451 9.43693 10.9451 9.51211C10.9451 9.81295 10.9451 10.189 10.9451 10.4898C10.9451 10.565 10.9451 10.565 10.8708 10.6402C10.3511 10.7154 9.8313 10.7154 9.31152 10.7907C8.64324 10.8658 7.97496 11.0163 7.38096 11.2419C7.0839 11.3171 6.86118 11.4675 6.6384 11.6179C6.41562 11.8435 6.41562 12.1443 6.6384 12.2947C6.7869 12.4452 6.9354 12.5203 7.0839 12.5956C7.60368 12.8212 8.12346 12.8964 8.64324 13.0468C9.38574 13.1972 10.1283 13.2724 10.8708 13.3476C11.0194 13.3476 11.0194 13.3476 11.0194 13.498C11.0194 14.8518 11.0194 16.2807 11.0194 17.6343C11.0194 17.7847 11.0194 17.7847 11.1679 17.7847C11.8361 17.7847 12.5786 17.7847 13.2469 17.7847C13.4697 17.7847 13.4697 17.7847 13.4697 17.5591C13.4697 16.4311 13.4697 15.3782 13.4697 14.2501C13.4697 13.9492 13.4697 13.6485 13.4697 13.3476C13.4697 13.1972 13.5439 13.1972 13.6182 13.1972C14.3607 13.1972 15.029 13.122 15.7715 12.9716C16.3655 12.8964 16.8853 12.746 17.4051 12.5203C17.5536 12.4452 17.7021 12.2947 17.8506 12.2196C17.9991 12.0691 17.9991 11.9187 17.8506 11.7683C17.7021 11.6931 17.6279 11.5427 17.4793 11.4675C16.5883 10.941 15.5488 10.7154 14.5092 10.6402C14.2122 10.6402 13.9152 10.6402 13.6182 10.565C13.5439 10.565 13.5439 10.565 13.5439 10.4146C13.5439 10.1138 13.5439 9.73777 13.5439 9.43693C13.5439 9.36169 13.5439 9.28651 13.6924 9.28651C13.9152 9.28651 14.138 9.28651 14.3607 9.28651C15.1033 9.28651 15.7715 9.28651 16.514 9.28651C16.6625 9.28651 16.6625 9.21133 16.6625 9.13609C16.6625 9.06091 16.6625 9.06091 16.6625 8.98567C16.6625 8.38405 16.6625 7.78237 16.6625 7.10557C16.6625 6.95515 16.6625 6.95515 16.514 6.95515C14.8805 7.10557 13.4697 7.10557 12.1331 7.10557Z" fill="white"/>
<path d="M11.7619 12.8211C11.2421 12.8211 10.7966 12.8211 10.2769 12.7459C9.46007 12.6707 8.56901 12.5955 7.75223 12.2947C7.60373 12.2195 7.45523 12.1442 7.23251 12.0691C7.00973 11.9186 7.00973 11.7682 7.23251 11.693C7.52951 11.5426 7.82651 11.4674 8.12351 11.3922C8.71757 11.2418 9.31157 11.1666 9.97985 11.0914C10.2026 11.0914 10.4996 11.0162 10.7224 11.0162C10.7966 11.0162 10.8709 11.0162 10.8709 11.1666C10.8709 11.6178 10.8709 11.9938 10.8709 12.4451C10.8709 12.5955 10.9451 12.5955 11.0194 12.5955C11.6134 12.5955 12.2075 12.5955 12.7272 12.5955C12.8757 12.5955 13.0243 12.5955 13.1728 12.5955C13.3213 12.5955 13.3213 12.5955 13.3213 12.4451C13.3213 12.0691 13.3213 11.693 13.3213 11.317C13.3213 11.0914 13.3213 11.0914 13.544 11.0914C14.5093 11.1666 15.4746 11.2418 16.4399 11.5426C16.5884 11.6178 16.8112 11.693 16.9597 11.7682C17.1082 11.8434 17.1082 11.9938 16.9597 12.0691C16.6627 12.2947 16.3656 12.3698 15.9944 12.4451C15.2518 12.5955 14.5093 12.7459 13.7668 12.7459C13.1728 12.7459 12.4302 12.8211 11.7619 12.8211Z" fill="white"/>
</g>
<defs>
<clipPath id="clip0_134_3538">
<rect width="24" height="24" fill="white"/>
</clipPath>
</defs>
</svg>
