<svg width="24" height="24" viewBox="0 0 24 24" fill="none" xmlns="http://www.w3.org/2000/svg">
<path opacity="0.4" d="M8 22H16C18.76 22 21 19.76 21 17V7C21 4.24 18.76 2 16 2H8C5.24 2 3 4.24 3 7V17C3 19.76 5.24 22 8 22Z" fill="#F2F2F2"/>
<path d="M15.0011 5.71H9.00109C7.97109 5.71 7.12109 6.55 7.12109 7.59V8.59C7.12109 9.62 7.96109 10.47 9.00109 10.47H15.0011C16.0311 10.47 16.8811 9.63 16.8811 8.59V7.59C16.8811 6.55 16.0411 5.71 15.0011 5.71ZM8.15809 14.919C8.01809 14.919 7.88809 14.889 7.76809 14.839C7.58547 14.764 7.42915 14.6366 7.31882 14.4729C7.20848 14.3091 7.14908 14.1164 7.14809 13.919C7.14809 13.789 7.17809 13.659 7.22809 13.539C7.27823 13.4172 7.35198 13.3065 7.4451 13.2134C7.53821 13.1202 7.64885 13.0464 7.77063 12.9962C7.89241 12.946 8.02293 12.9204 8.15465 12.9209C8.28637 12.9214 8.41669 12.9479 8.53809 12.999C8.59809 13.019 8.65809 13.049 8.70809 13.089C8.76809 13.119 8.81809 13.169 8.85809 13.209C8.94809 13.309 9.02809 13.409 9.07809 13.539C9.12809 13.659 9.14809 13.789 9.14809 13.919C9.14942 14.0498 9.12478 14.1797 9.07562 14.3009C9.02646 14.4222 8.95375 14.5325 8.86169 14.6255C8.76963 14.7185 8.66004 14.7923 8.53927 14.8427C8.41851 14.8931 8.28895 14.919 8.15809 14.919ZM12.1481 14.921C11.8881 14.921 11.6381 14.821 11.4481 14.631C11.3536 14.5384 11.2784 14.4279 11.2269 14.3061C11.1754 14.1842 11.1486 14.0533 11.1481 13.921C11.1481 13.661 11.2581 13.401 11.4481 13.211C11.8181 12.841 12.4881 12.841 12.8581 13.211C12.9481 13.311 13.0281 13.411 13.0781 13.541C13.1281 13.661 13.1481 13.791 13.1481 13.921C13.1494 14.0527 13.1245 14.1833 13.0747 14.3053C13.0249 14.4272 12.9513 14.538 12.8582 14.6311C12.7651 14.7242 12.6543 14.7978 12.5324 14.8476C12.4104 14.8974 12.2798 14.9223 12.1481 14.921ZM16.1481 14.921C15.8881 14.921 15.6381 14.821 15.4481 14.631C15.3536 14.5384 15.2784 14.4279 15.2269 14.3061C15.1754 14.1842 15.1486 14.0533 15.1481 13.921C15.1481 13.661 15.2581 13.401 15.4481 13.211C15.8181 12.841 16.4881 12.841 16.8581 13.211C17.0481 13.401 17.1581 13.661 17.1581 13.921C17.1581 14.051 17.1281 14.181 17.0781 14.301C17.0281 14.421 16.9581 14.531 16.8581 14.631C16.765 14.7241 16.6542 14.7977 16.5323 14.8475C16.4104 14.8973 16.2798 14.9223 16.1481 14.921ZM8.15809 18.92C8.02641 18.9213 7.89579 18.8963 7.77387 18.8465C7.65196 18.7967 7.5412 18.7231 7.44809 18.63C7.35361 18.5374 7.27844 18.4269 7.22694 18.3051C7.17544 18.1832 7.14864 18.0523 7.14809 17.92C7.14809 17.66 7.25809 17.4 7.44809 17.21C7.53809 17.12 7.64809 17.05 7.76809 17C8.01809 16.9 8.28809 16.9 8.53809 17C8.59809 17.02 8.65809 17.05 8.70809 17.09C8.76809 17.12 8.81809 17.17 8.85809 17.21C9.04809 17.4 9.15809 17.66 9.15809 17.92C9.15754 18.0523 9.13075 18.1832 9.07925 18.3051C9.02775 18.4269 8.95258 18.5374 8.85809 18.63C8.66809 18.82 8.41809 18.92 8.15809 18.92ZM12.1481 18.92C11.8881 18.92 11.6381 18.82 11.4481 18.63C11.3536 18.5374 11.2784 18.4269 11.2269 18.3051C11.1754 18.1832 11.1486 18.0523 11.1481 17.92C11.1481 17.85 11.1581 17.79 11.1681 17.72L11.2281 17.54L11.3181 17.36C11.3581 17.31 11.3981 17.26 11.4481 17.21C11.6376 17.0278 11.8902 16.926 12.1531 16.926C12.416 16.926 12.6686 17.0278 12.8581 17.21C13.0481 17.4 13.1481 17.66 13.1481 17.92C13.1481 18.19 13.0481 18.44 12.8581 18.63C12.7681 18.72 12.6581 18.79 12.5381 18.84C12.4181 18.89 12.2881 18.92 12.1481 18.92ZM16.1501 18.92C16.0201 18.92 15.8901 18.89 15.7701 18.84C15.6508 18.7915 15.5421 18.7202 15.4501 18.63C15.357 18.5369 15.2833 18.4261 15.2335 18.3042C15.1838 18.1823 15.1588 18.0517 15.1601 17.92C15.1601 17.66 15.2601 17.4 15.4501 17.21C15.7201 16.93 16.1701 16.85 16.5401 17C16.6601 17.05 16.7701 17.12 16.8601 17.21C17.0501 17.4 17.1501 17.66 17.1501 17.92C17.1514 18.0517 17.1265 18.1823 17.0767 18.3043C17.0269 18.4262 16.9533 18.537 16.8602 18.6301C16.7671 18.7232 16.6563 18.7968 16.5344 18.8466C16.4124 18.8964 16.2818 18.9213 16.1501 18.92Z" fill="#F2F2F2"/>
</svg>
