<svg width="24" height="24" viewBox="0 0 24 24" fill="none" xmlns="http://www.w3.org/2000/svg">
<path d="M3 9C3.53043 9 4.03914 8.78929 4.41421 8.41421C4.78929 8.03914 5 7.53043 5 7C5 6.46957 4.78929 5.96086 4.41421 5.58579C4.03914 5.21071 3.53043 5 3 5C2.46957 5 1.96086 5.21071 1.58579 5.58579C1.21071 5.96086 1 6.46957 1 7C1 7.53043 1.21071 8.03914 1.58579 8.41421C1.96086 8.78929 2.46957 9 3 9ZM21 9C21.5304 9 22.0391 8.78929 22.4142 8.41421C22.7893 8.03914 23 7.53043 23 7C23 6.46957 22.7893 5.96086 22.4142 5.58579C22.0391 5.21071 21.5304 5 21 5C20.4696 5 19.9609 5.21071 19.5858 5.58579C19.2107 5.96086 19 6.46957 19 7C19 7.53043 19.2107 8.03914 19.5858 8.41421C19.9609 8.78929 20.4696 9 21 9ZM7.5 16.5V18.5C7.5 19.11 7.13 19.64 6.61 19.86C6.41984 19.9521 6.21129 20 6 20H4C3.17 20 2.5 19.33 2.5 18.5V16.5C2.5 15.67 3.17 15 4 15H6C6.83 15 7.5 15.67 7.5 16.5ZM21.5 16.5V18.5C21.5 19.33 20.83 20 20 20H18C17.7887 20 17.5802 19.9521 17.39 19.86C16.87 19.64 16.5 19.11 16.5 18.5V16.5C16.5 15.67 17.17 15 18 15H20C20.83 15 21.5 15.67 21.5 16.5ZM15 5.5V8.5C15 9.32 14.32 10 13.5 10H10.5C9.68 10 9 9.32 9 8.5V5.5C9 4.68 9.68 4 10.5 4H13.5C14.32 4 15 4.68 15 5.5Z" fill="white"/>
<g opacity="0.4">
<path opacity="0.4" d="M9 6.25H5C4.59 6.25 4.25 6.59 4.25 7C4.25 7.41 4.59 7.75 5 7.75H7.57C5.52 9.27 4.25 11.79 4.25 14.5C4.25 14.7 4.26 14.89 4.29 15.09C4.33 15.47 4.66 15.75 5.03 15.75H5.12C5.53 15.7 5.83 15.33 5.78 14.92C5.76 14.78 5.76 14.65 5.76 14.51C5.76 11.91 7.17 9.51 9.35 8.41C9.43811 8.36548 9.51656 8.30401 9.58086 8.22911C9.64516 8.15421 9.69405 8.06735 9.7247 7.97352C9.75536 7.87968 9.7672 7.78072 9.75952 7.6823C9.75185 7.58388 9.72483 7.48795 9.68 7.4C9.67 7.39 9.66 7.38 9.66 7.37C9.72 7.26 9.77 7.14 9.77 7.01C9.75 6.59 9.41 6.25 9 6.25ZM16.43 7.75H19C19.41 7.75 19.75 7.41 19.75 7C19.75 6.59 19.41 6.25 19 6.25H15C14.59 6.25 14.25 6.59 14.25 7C14.25 7.13 14.29 7.25 14.36 7.36C14.35 7.37 14.34 7.38 14.34 7.39C14.2952 7.47795 14.2681 7.57388 14.2605 7.6723C14.2528 7.77072 14.2646 7.86968 14.2953 7.96352C14.326 8.05735 14.3748 8.14421 14.4391 8.21911C14.5034 8.29401 14.5819 8.35548 14.67 8.4C16.85 9.5 18.26 11.9 18.26 14.5C18.26 14.64 18.25 14.77 18.24 14.91C18.19 15.32 18.49 15.69 18.9 15.74H18.99C19.37 15.74 19.69 15.46 19.73 15.08C19.75 14.88 19.77 14.69 19.77 14.49C19.75 11.79 18.48 9.27 16.43 7.75Z" fill="white"/>
</g>
</svg>
