<svg width="24" height="24" viewBox="0 0 24 24" fill="none" xmlns="http://www.w3.org/2000/svg">
<path opacity="0.4" d="M9 2C6.38 2 4.25 4.13 4.25 6.75C4.25 9.32 6.26 11.4 8.88 11.49C8.96 11.48 9.04 11.48 9.1 11.49H9.17C10.3994 11.449 11.5646 10.9315 12.4193 10.0469C13.274 9.16234 13.7512 7.98004 13.75 6.75C13.75 4.13 11.62 2 9 2Z" fill="#F2F2F2"/>
<path d="M14.0809 14.149C11.2909 12.289 6.74094 12.289 3.93094 14.149C2.66094 14.999 1.96094 16.149 1.96094 17.379C1.96094 18.609 2.66094 19.749 3.92094 20.589C5.32094 21.529 7.16094 21.999 9.00094 21.999C10.8409 21.999 12.6809 21.529 14.0809 20.589C15.3409 19.739 16.0409 18.599 16.0409 17.359C16.0309 16.129 15.3409 14.989 14.0809 14.149Z" fill="#F2F2F2"/>
<path opacity="0.4" d="M19.9894 7.338C20.1494 9.278 18.7694 10.978 16.8594 11.208H16.8094C16.7494 11.208 16.6894 11.208 16.6394 11.228C15.6694 11.278 14.7794 10.968 14.1094 10.398C15.1394 9.478 15.7294 8.098 15.6094 6.598C15.5408 5.818 15.2759 5.06806 14.8394 4.418C15.3634 4.16308 15.9415 4.03947 16.5239 4.05782C17.1063 4.07617 17.6755 4.23595 18.1824 4.52335C18.6893 4.81076 19.1187 5.21717 19.4335 5.70753C19.7483 6.19789 19.9391 6.75747 19.9894 7.338Z" fill="#F2F2F2"/>
<path d="M21.9883 16.59C21.9083 17.56 21.2883 18.4 20.2483 18.97C19.2483 19.52 17.9883 19.78 16.7383 19.75C17.4583 19.1 17.8783 18.29 17.9583 17.43C18.0583 16.19 17.4683 15 16.2883 14.05C15.6183 13.52 14.8383 13.1 13.9883 12.79C16.1983 12.15 18.9783 12.58 20.6883 13.96C21.6083 14.7 22.0783 15.63 21.9883 16.59Z" fill="#F2F2F2"/>
</svg>
