<svg width="24" height="24" viewBox="0 0 24 24" fill="none" xmlns="http://www.w3.org/2000/svg">
<path opacity="0.4" d="M18.5094 1.8C18.0094 1.8 17.6094 2.2 17.6094 2.7V7.35C17.6094 7.85 18.0094 8.25 18.5094 8.25C19.0094 8.25 19.4094 7.85 19.4094 7.35V2.7C19.4094 2.2 19.0094 1.8 18.5094 1.8Z" fill="#F2F2F2"/>
<path d="M11.9996 15.75C11.4996 15.75 11.0996 16.15 11.0996 16.65V21.3C11.0996 21.8 11.4996 22.2 11.9996 22.2C12.4996 22.2 12.8996 21.8 12.8996 21.3V16.65C12.8996 16.16 12.4996 15.75 11.9996 15.75Z" fill="#F2F2F2"/>
<path opacity="0.4" d="M5.49047 1.8C4.99047 1.8 4.59047 2.2 4.59047 2.7V7.35C4.59047 7.85 4.99047 8.25 5.49047 8.25C5.99047 8.25 6.39047 7.85 6.39047 7.35V2.7C6.39047 2.2 5.98047 1.8 5.49047 1.8ZM7.35047 10.172H3.63047C3.13047 10.172 2.73047 10.572 2.73047 11.072C2.73047 11.572 3.13047 11.972 3.63047 11.972H4.59047V21.302C4.59047 21.802 4.99047 22.202 5.49047 22.202C5.99047 22.202 6.39047 21.802 6.39047 21.302V11.972H7.35047C7.85047 11.972 8.25047 11.572 8.25047 11.072C8.25047 10.572 7.84047 10.172 7.35047 10.172ZM20.3705 10.172H16.6505C16.1505 10.172 15.7505 10.572 15.7505 11.072C15.7505 11.572 16.1505 11.972 16.6505 11.972H17.6105V21.302C17.6105 21.802 18.0105 22.202 18.5105 22.202C19.0105 22.202 19.4105 21.802 19.4105 21.302V11.972H20.3705C20.8705 11.972 21.2705 11.572 21.2705 11.072C21.2705 10.572 20.8705 10.172 20.3705 10.172Z" fill="#F2F2F2"/>
<path d="M13.8602 12.03H12.9002V2.7C12.9002 2.2 12.5002 1.8 12.0002 1.8C11.5002 1.8 11.1002 2.2 11.1002 2.7V12.03H10.1402C9.64023 12.03 9.24023 12.43 9.24023 12.93C9.24023 13.43 9.64023 13.83 10.1402 13.83H13.8602C14.3602 13.83 14.7602 13.43 14.7602 12.93C14.7602 12.43 14.3602 12.03 13.8602 12.03Z" fill="#F2F2F2"/>
</svg>
