<svg width="24" height="24" viewBox="0 0 24 24" fill="none" xmlns="http://www.w3.org/2000/svg">
<path d="M5.00002 15C4.06002 15 3.19002 15.33 2.50002 15.88C2.03062 16.253 1.65182 16.7275 1.39203 17.2679C1.13224 17.8083 0.998216 18.4004 1.00002 19C1.00002 19.75 1.21002 20.46 1.58002 21.06C1.93255 21.6525 2.4333 22.143 3.03298 22.4831C3.63266 22.8233 4.31058 23.0014 5.00002 23C6.01002 23 6.93002 22.63 7.63002 22C7.94002 21.74 8.21002 21.42 8.42002 21.06C8.79002 20.46 9.00002 19.75 9.00002 19C9.00002 16.79 7.21002 15 5.00002 15ZM7.07002 18.57L4.94002 20.54C4.80002 20.67 4.61002 20.74 4.43002 20.74C4.24002 20.74 4.05002 20.67 3.90002 20.52L2.91002 19.53C2.77054 19.3889 2.69232 19.1984 2.69232 19C2.69232 18.8016 2.77054 18.6111 2.91002 18.47C3.20002 18.18 3.68002 18.18 3.97002 18.47L4.45002 18.95L6.05002 17.47C6.35002 17.19 6.83002 17.21 7.11002 17.51C7.39002 17.81 7.37002 18.29 7.07002 18.57Z" fill="#F2F2F2"/>
<path opacity="0.4" d="M19.48 12.95H21.5V11.51C21.5 9.44 19.81 7.75 17.74 7.75H6.26C4.19 7.75 2.5 9.44 2.5 11.51V15.88C3.088 15.4087 3.79718 15.1132 4.54584 15.0274C5.29449 14.9416 6.05215 15.0691 6.73149 15.3952C7.41084 15.7213 7.98422 16.2327 8.38558 16.8705C8.78693 17.5083 8.99992 18.2464 9 19C9 19.75 8.79 20.46 8.42 21.06C8.21 21.42 7.94 21.74 7.63 22H17.74C19.81 22 21.5 20.31 21.5 18.24V17.05H19.6C18.52 17.05 17.53 16.26 17.44 15.18C17.38 14.55 17.62 13.96 18.04 13.55C18.41 13.17 18.92 12.95 19.48 12.95Z" fill="#F2F2F2"/>
<path d="M14.85 3.952V7.752H6.26C4.19 7.752 2.5 9.442 2.5 11.512V7.842C2.5 6.652 3.23 5.592 4.34 5.172L12.28 2.172C13.52 1.712 14.85 2.622 14.85 3.952ZM22.559 13.97V16.03C22.559 16.58 22.119 17.03 21.559 17.05H19.599C18.519 17.05 17.529 16.26 17.439 15.18C17.379 14.55 17.619 13.96 18.039 13.55C18.409 13.17 18.919 12.95 19.479 12.95H21.559C22.119 12.97 22.559 13.42 22.559 13.97ZM14 12.75H7C6.59 12.75 6.25 12.41 6.25 12C6.25 11.59 6.59 11.25 7 11.25H14C14.41 11.25 14.75 11.59 14.75 12C14.75 12.41 14.41 12.75 14 12.75Z" fill="#F2F2F2"/>
</svg>
