<svg width="57" height="91" viewBox="0 0 57 91" fill="none" xmlns="http://www.w3.org/2000/svg">
<path d="M23.6064 2.00442L53.5646 24.4185C54.0519 24.7831 54.3467 25.3498 54.3655 25.9582L55.5201 63.3554C55.5388 63.9637 55.2796 64.5475 54.8156 64.9415L26.2972 89.161C25.8333 89.5549 25.2152 89.7162 24.6179 89.5992L-12.0986 82.4031C-12.6959 82.2861 -13.2073 81.9034 -13.4882 81.3634L-30.7545 48.1707C-31.0353 47.6307 -31.055 46.9922 -30.808 46.4359L-15.6222 12.2413C-15.3752 11.6851 -14.8883 11.2716 -14.2993 11.1179L21.9033 1.67062C22.4922 1.51694 23.1191 1.6398 23.6064 2.00442Z" stroke="#FFC700" stroke-width="2"/>
</svg>
