<svg width="18" height="17" viewBox="0 0 18 17" fill="none" xmlns="http://www.w3.org/2000/svg">
<g clip-path="url(#clip0_178_4742)">
<path opacity="0.4" d="M0.605471 5.64541C0.605471 5.64537 0.60547 5.64532 0.60547 5.64528C0.60547 5.64532 0.605471 5.64537 0.605471 5.64541ZM0.605471 5.64541C0.605471 5.64575 0.605471 5.64608 0.605471 5.64642L0.95643 5.64602L0.957033 5.64602L0.957635 5.64602L1.48807 5.64541H1.3086H0.957033H0.605471ZM5.91532 1.03793C5.91514 1.03793 5.91497 1.03793 5.9148 1.03793H5.91532Z" fill="#1C1E33" stroke="#1C1E33" stroke-width="1.76562"/>
<path opacity="0.4" d="M10.7682 10.8588C10.7682 13.2742 8.81318 15.2292 6.39776 15.2292C3.98234 15.2292 2.02734 13.2742 2.02734 10.8588C2.02734 8.44334 3.98234 6.48834 6.39776 6.48834C6.51109 6.48834 6.61734 6.49543 6.73776 6.50251C8.88401 6.66543 10.5982 8.37959 10.7611 10.5258C10.7611 10.6321 10.7682 10.7383 10.7682 10.8588Z" fill="#1C1E33"/>
<path d="M15.4795 6.14126C15.4795 8.55668 13.5245 10.5117 11.109 10.5117H10.762C10.6816 9.47135 10.2319 8.49405 9.49406 7.75624C8.75624 7.01843 7.77894 6.56873 6.73862 6.48834V6.14126C6.73862 3.72584 8.69362 1.77084 11.109 1.77084C13.5245 1.77084 15.4795 3.72584 15.4795 6.14126ZM8.12695 10.6328C8.21195 10.4557 8.26154 10.2645 8.26154 10.0591C8.26154 9.35072 7.6382 8.72739 6.92987 8.72739H6.7457V8.45822C6.7457 8.1678 6.50487 7.92697 6.21445 7.92697C5.92404 7.92697 5.6832 8.1678 5.6832 8.45822V8.72739H4.93945C4.64904 8.72739 4.4082 8.96822 4.4082 9.25864V12.4461C4.4082 12.7366 4.64904 12.9774 4.93945 12.9774H5.6832V13.2466C5.6832 13.537 5.92404 13.7778 6.21445 13.7778C6.50487 13.7778 6.7457 13.537 6.7457 13.2466V12.9774H7.2132C8.00654 12.9774 8.6582 12.3824 8.6582 11.6457C8.6582 11.242 8.4457 10.8736 8.12695 10.6328ZM5.4707 9.78989H6.92987C7.07862 9.78989 7.19904 9.9528 7.19904 10.0591C7.19904 10.2078 7.07862 10.3282 6.92987 10.3282H5.4707V9.78989ZM7.2132 11.922H5.46362V11.3907H7.20612C7.43279 11.3907 7.58862 11.5324 7.58862 11.6599C7.58862 11.7874 7.43987 11.922 7.2132 11.922Z" fill="#1C1E33"/>
</g>
<defs>
<clipPath id="clip0_178_4742">
<rect width="17" height="17" fill="white" transform="translate(0.25)"/>
</clipPath>
</defs>
</svg>
