<svg width="17" height="17" viewBox="0 0 17 17" fill="none" xmlns="http://www.w3.org/2000/svg">
<path opacity="0.4" d="M14.875 16.1146H2.125C1.83458 16.1146 1.59375 15.8738 1.59375 15.5833C1.59375 15.2929 1.83458 15.0521 2.125 15.0521H14.875C15.1654 15.0521 15.4062 15.2929 15.4062 15.5833C15.4062 15.8738 15.1654 16.1146 14.875 16.1146Z" fill="#FFDD3C"/>
<path d="M3.96667 5.93511H2.83333C2.44375 5.93511 2.125 6.25386 2.125 6.64345V12.7493C2.125 13.1389 2.44375 13.4576 2.83333 13.4576H3.96667C4.35625 13.4576 4.675 13.1389 4.675 12.7493V6.64345C4.675 6.24678 4.35625 5.93511 3.96667 5.93511ZM9.06667 3.67695H7.93333C7.54375 3.67695 7.225 3.9957 7.225 4.38528V12.7507C7.225 13.1403 7.54375 13.459 7.93333 13.459H9.06667C9.45625 13.459 9.775 13.1403 9.775 12.7507V4.38528C9.775 3.9957 9.45625 3.67695 9.06667 3.67695ZM14.1667 1.41666H13.0333C12.6437 1.41666 12.325 1.73541 12.325 2.12499V12.75C12.325 13.1396 12.6437 13.4583 13.0333 13.4583H14.1667C14.5562 13.4583 14.875 13.1396 14.875 12.75V2.12499C14.875 1.73541 14.5562 1.41666 14.1667 1.41666Z" fill="#FFDD3C"/>
</svg>
