<svg width="23" height="23" viewBox="0 0 23 23" fill="none" xmlns="http://www.w3.org/2000/svg">
<path d="M22.2624 0.754584C22.1043 0.596215 21.9166 0.470572 21.71 0.384845C21.5033 0.299118 21.2818 0.254992 21.058 0.254992C20.8343 0.254992 20.6127 0.299118 20.4061 0.384845C20.1994 0.470572 20.0117 0.596215 19.8536 0.754584L11.4999 9.09125L3.14614 0.7375C2.98798 0.579339 2.80022 0.453879 2.59357 0.368283C2.38693 0.282687 2.16544 0.238632 1.94177 0.238632C1.7181 0.238632 1.49661 0.282687 1.28997 0.368283C1.08332 0.453879 0.895554 0.579339 0.737393 0.7375C0.579233 0.895661 0.453773 1.08343 0.368177 1.29007C0.282581 1.49672 0.238525 1.7182 0.238525 1.94188C0.238525 2.16555 0.282581 2.38703 0.368177 2.59368C0.453773 2.80033 0.579233 2.98809 0.737393 3.14625L9.09114 11.5L0.737393 19.8537C0.579233 20.0119 0.453773 20.1997 0.368177 20.4063C0.282581 20.613 0.238525 20.8345 0.238525 21.0581C0.238525 21.2818 0.282581 21.5033 0.368177 21.7099C0.453773 21.9166 0.579233 22.1043 0.737393 22.2625C0.895554 22.4207 1.08332 22.5461 1.28997 22.6317C1.49661 22.7173 1.7181 22.7614 1.94177 22.7614C2.16544 22.7614 2.38693 22.7173 2.59357 22.6317C2.80022 22.5461 2.98798 22.4207 3.14614 22.2625L11.4999 13.9087L19.8536 22.2625C20.0118 22.4207 20.1996 22.5461 20.4062 22.6317C20.6129 22.7173 20.8343 22.7614 21.058 22.7614C21.2817 22.7614 21.5032 22.7173 21.7098 22.6317C21.9165 22.5461 22.1042 22.4207 22.2624 22.2625C22.4206 22.1043 22.546 21.9166 22.6316 21.7099C22.7172 21.5033 22.7613 21.2818 22.7613 21.0581C22.7613 20.8345 22.7172 20.613 22.6316 20.4063C22.546 20.1997 22.4206 20.0119 22.2624 19.8537L13.9086 11.5L22.2624 3.14625C22.9116 2.49708 22.9116 1.40375 22.2624 0.754584Z" fill="#F2F2F2"/>
</svg>
