<svg width="24" height="24" viewBox="0 0 24 24" fill="none" xmlns="http://www.w3.org/2000/svg">
<path d="M18.2983 5.70999C18.2058 5.61729 18.0959 5.54374 17.9749 5.49356C17.8539 5.44338 17.7242 5.41755 17.5933 5.41755C17.4623 5.41755 17.3326 5.44338 17.2116 5.49356C17.0907 5.54374 16.9808 5.61729 16.8883 5.70999L11.9983 10.59L7.10827 5.69999C7.01569 5.60741 6.90578 5.53397 6.78481 5.48387C6.66385 5.43376 6.5342 5.40797 6.40327 5.40797C6.27234 5.40797 6.14269 5.43376 6.02173 5.48387C5.90076 5.53397 5.79085 5.60741 5.69827 5.69999C5.60569 5.79258 5.53225 5.90249 5.48214 6.02345C5.43204 6.14442 5.40625 6.27406 5.40625 6.40499C5.40625 6.53593 5.43204 6.66557 5.48214 6.78654C5.53225 6.9075 5.60569 7.01741 5.69827 7.10999L10.5883 12L5.69827 16.89C5.60569 16.9826 5.53225 17.0925 5.48214 17.2135C5.43204 17.3344 5.40625 17.4641 5.40625 17.595C5.40625 17.7259 5.43204 17.8556 5.48214 17.9765C5.53225 18.0975 5.60569 18.2074 5.69827 18.3C5.79085 18.3926 5.90076 18.466 6.02173 18.5161C6.14269 18.5662 6.27234 18.592 6.40327 18.592C6.5342 18.592 6.66385 18.5662 6.78481 18.5161C6.90578 18.466 7.01569 18.3926 7.10827 18.3L11.9983 13.41L16.8883 18.3C16.9809 18.3926 17.0908 18.466 17.2117 18.5161C17.3327 18.5662 17.4623 18.592 17.5933 18.592C17.7242 18.592 17.8538 18.5662 17.9748 18.5161C18.0958 18.466 18.2057 18.3926 18.2983 18.3C18.3909 18.2074 18.4643 18.0975 18.5144 17.9765C18.5645 17.8556 18.5903 17.7259 18.5903 17.595C18.5903 17.4641 18.5645 17.3344 18.5144 17.2135C18.4643 17.0925 18.3909 16.9826 18.2983 16.89L13.4083 12L18.2983 7.10999C18.6783 6.72999 18.6783 6.08999 18.2983 5.70999Z" fill="#474958"/>
</svg>
