<svg width="123" height="122" viewBox="0 0 123 122" fill="none" xmlns="http://www.w3.org/2000/svg">
<path opacity="0.4" d="M95.6411 31.7708H102.554C101.589 30.3983 100.572 29.1275 99.5044 27.8567L95.6411 31.7708ZM94.172 22.4683C92.9011 21.4008 91.6303 20.3842 90.2578 19.4183V26.3317L94.172 22.4683Z" fill="#E946DA"/>
<path opacity="0.4" d="M86.4453 39.3958C85.937 39.3958 85.4795 39.2942 84.9711 39.0908C84.035 38.6888 83.289 37.9428 82.887 37.0067C82.6838 36.5418 82.58 36.0397 82.582 35.5325V15.1992C82.582 15.1483 82.6328 15.0975 82.6328 14.9958C76.0753 11.9458 68.7553 10.1667 61.0286 10.1667C32.9686 10.1667 10.1953 32.94 10.1953 61C10.1953 89.06 32.9686 111.833 61.0286 111.833C89.0886 111.833 111.862 89.06 111.862 61C111.862 53.2733 110.083 45.9533 106.982 39.345C106.931 39.345 106.88 39.3958 106.779 39.3958H86.4453Z" fill="#E946DA"/>
<path d="M99.5603 27.8618L114.556 12.8659C116.03 11.3918 116.03 8.95176 114.556 7.47759C113.839 6.76857 112.871 6.37094 111.862 6.37094C110.853 6.37094 109.885 6.76857 109.168 7.47759L94.172 22.4734C96.1036 24.1509 97.8828 25.9809 99.5603 27.8618ZM90.268 15.25C90.268 13.1658 88.5397 11.4375 86.4555 11.4375C84.4222 11.4375 82.7955 13.0642 82.6938 15.0467C85.3371 16.3175 87.8788 17.7408 90.268 19.4183V15.25ZM110.601 35.5833C110.601 33.4992 108.873 31.7708 106.789 31.7708H102.57C104.247 34.16 105.721 36.7017 106.941 39.345C108.975 39.2433 110.601 37.6167 110.601 35.5833ZM69.9245 60.085L64.8411 58.3058V47.0208H65.2478C67.8403 47.0208 69.9245 49.3083 69.9245 52.1042C69.9245 54.1883 71.6528 55.9167 73.737 55.9167C75.8211 55.9167 77.5495 54.1883 77.5495 52.1042C77.5495 45.0892 72.0595 39.3958 65.2478 39.3958H64.8411V38.125C64.8411 36.0408 63.1128 34.3125 61.0286 34.3125C58.9445 34.3125 57.2161 36.0408 57.2161 38.125V39.3958H55.6911C49.5403 39.3958 44.5078 44.5808 44.5078 50.9858C44.5078 58.4075 48.8286 60.7967 52.1328 61.9658L57.2161 63.745V75.03H56.8095C54.217 75.03 52.1328 72.7425 52.1328 69.9467C52.1328 67.8625 50.4045 66.1342 48.3203 66.1342C46.2361 66.1342 44.5078 67.8625 44.5078 69.9467C44.5078 76.9617 49.9978 82.655 56.8095 82.655H57.2161V83.9258C57.2161 86.01 58.9445 87.7383 61.0286 87.7383C63.1128 87.7383 64.8411 86.01 64.8411 83.9258V82.655H66.3661C72.517 82.655 77.5495 77.47 77.5495 71.065C77.5495 63.5925 73.2286 61.2033 69.9245 60.085ZM54.6236 54.6967C52.8953 54.0867 52.1328 53.7308 52.1328 50.935C52.1328 48.7492 53.7595 46.97 55.6911 46.97H57.2161V55.5608L54.6236 54.6967ZM66.3661 74.9792H64.8411V66.3883L67.4336 67.3033C69.162 67.9133 69.9245 68.2692 69.9245 71.065C69.9245 73.2 68.2978 74.9792 66.3661 74.9792Z" fill="#E946DA"/>
</svg>
