<svg width="32" height="32" viewBox="0 0 32 32" fill="none" xmlns="http://www.w3.org/2000/svg">
<path d="M24.5441 18.1054C24.5442 18.1054 24.5442 18.1053 24.5443 18.1053C24.5442 18.1053 24.5442 18.1054 24.5441 18.1054ZM24.5441 18.1054L24.7314 18.2927L24.7355 18.2968L24.7413 18.3027L24.7534 18.3147L24.7557 18.317L24.9383 18.4996M24.5441 18.1054C24.544 18.1056 24.5438 18.1058 24.5436 18.1059L24.731 18.2931L24.735 18.2971L24.7406 18.3027L24.753 18.3151L24.7544 18.3165L24.938 18.4999C24.934 18.5042 24.9299 18.5085 24.9257 18.5126L24.9322 18.5063L24.9383 18.5002L25.4276 18.9889L24.9386 18.4999C26.5153 16.9232 27.3045 14.8533 27.3047 12.7847C27.3049 10.7164 26.5163 8.64933 24.9376 7.07779L25.4413 6.57599L24.9383 18.4996M24.9383 18.4996C24.9605 18.4751 24.9784 18.4471 24.9913 18.4166C25.0066 18.3805 25.0144 18.3418 25.0144 18.3027C25.0144 18.2635 25.0066 18.2248 24.9913 18.1887C24.9813 18.165 24.9682 18.1427 24.9524 18.1225C24.9482 18.1171 24.9437 18.1118 24.9391 18.1067L24.9383 18.4996Z" fill="#5381D3" stroke="#5381D3" stroke-width="2.5"/>
<path opacity="0.4" d="M25.4267 6.57463C26.5271 7.6759 27.3149 9.04995 27.7093 10.556C28.1038 12.062 28.0907 13.6458 27.6714 15.1451C27.2522 16.6444 26.4418 18.0052 25.3234 19.0882C24.205 20.1711 22.8187 20.9372 21.3067 21.308C22.0134 18.428 21.24 15.268 18.9867 13.0146C17.9216 11.9458 16.5982 11.1705 15.1451 10.764C13.692 10.3575 12.1584 10.3336 10.6934 10.6946C11.0667 9.18797 11.8267 7.74797 13.0134 6.57463C14.6598 4.92912 16.8923 4.00476 19.22 4.00476C21.5478 4.00476 23.7803 4.92912 25.4267 6.57463Z" fill="#5381D3"/>
<path d="M6.57208 13.0134C6.95875 12.6267 7.57208 12.6267 7.94541 13.0134C8.33208 13.4001 8.33208 14.0134 7.94541 14.3867C5.27875 17.0534 5.27875 21.3867 7.94541 24.0401C10.6121 26.6934 14.9454 26.7067 17.5987 24.0401C20.2521 21.3734 20.2654 17.0401 17.5987 14.3867C17.5069 14.2975 17.4339 14.1908 17.384 14.0728C17.3342 13.9549 17.3085 13.8281 17.3085 13.7001C17.3085 13.572 17.3342 13.4453 17.384 13.3273C17.4339 13.2094 17.5069 13.1026 17.5987 13.0134C17.9854 12.6267 18.5987 12.6267 18.9721 13.0134C22.3987 16.4401 22.3987 22.0134 18.9721 25.4267C15.5454 28.8401 9.97208 28.8534 6.55875 25.4267C4.91794 23.777 3.99799 21.5441 4.00049 19.2173C4.00299 16.8905 4.92773 14.6596 6.57208 13.0134Z" fill="#5381D3"/>
<path opacity="0.5" d="M18.9881 13.0161C20.057 14.0811 20.8324 15.4044 21.2389 16.8576C21.6454 18.3107 21.6692 19.8443 21.3081 21.3094C20.9373 22.8214 20.1712 24.2077 19.0883 25.3261C18.0053 26.4445 16.6445 27.2549 15.1452 27.6741C13.6459 28.0934 12.0621 28.1065 10.5561 27.712C9.05007 27.3176 7.67602 26.5298 6.57476 25.4294C4.92924 23.783 4.00488 21.5505 4.00488 19.2227C4.00488 16.895 4.92924 14.6625 6.57476 13.0161C7.74809 11.8294 9.18809 11.0694 10.6948 10.6961C13.5748 9.98939 16.7348 10.7627 18.9881 13.0161Z" fill="#5381D3"/>
</svg>
