<svg width="32" height="32" viewBox="0 0 32 32" fill="none" xmlns="http://www.w3.org/2000/svg">
<path opacity="0.4" d="M28.32 9.59696V9.60008V22.4001C28.32 24.3225 27.7235 25.7824 26.7462 26.7596C25.769 27.7369 24.3091 28.3334 22.3867 28.3334H18.9333C17.0109 28.3334 15.5514 27.7369 14.5743 26.7585C13.597 25.7799 13 24.3167 13 22.3868V9.60008C13 7.67764 13.5965 6.21778 14.5738 5.24052C15.551 4.26326 17.0109 3.66675 18.9333 3.66675H22.4C24.3226 3.66675 25.7821 4.26335 26.7574 5.24003C27.7325 6.21649 28.326 7.67529 28.32 9.59696Z" fill="#E946DA" stroke="#E946DA" stroke-width="2"/>
<path d="M16.5737 10.8266L21.0403 15.2933C21.427 15.6799 21.427 16.3199 21.0403 16.7066L16.5737 21.1733C16.187 21.5599 15.547 21.5599 15.1603 21.1733C14.9744 20.9851 14.8701 20.7312 14.8701 20.4666C14.8701 20.202 14.9744 19.9481 15.1603 19.7599L17.9203 16.9999H3.66699C3.12033 16.9999 2.66699 16.5466 2.66699 15.9999C2.66699 15.4533 3.12033 14.9999 3.66699 14.9999H17.9203L15.1603 12.2399C15.067 12.1475 14.9929 12.0374 14.9426 11.9161C14.8922 11.7948 14.8665 11.6646 14.867 11.5333C14.867 11.2799 14.9603 11.0266 15.1603 10.8266C15.547 10.4266 16.1737 10.4266 16.5737 10.8266Z" fill="#E946DA"/>
</svg>
