<svg width="184" height="184" viewBox="0 0 184 184" fill="none" xmlns="http://www.w3.org/2000/svg">
<path d="M4.90776 1.54343L0 1.5863L0.0498608 6.49402L4.95762 6.45114L4.90776 1.54343Z" fill="#F2F2F2"/>
<path d="M9.81551 1.50056L4.90776 1.54343L4.95762 6.45114L9.86537 6.40827L9.81551 1.50056Z" fill="#F2F2F2"/>
<path d="M14.7233 1.45769L9.81551 1.50056L9.86537 6.40827L14.7731 6.3654L14.7233 1.45769Z" fill="#F2F2F2"/>
<path d="M19.631 1.41481L14.7233 1.45769L14.7731 6.3654L19.6809 6.32252L19.631 1.41481Z" fill="#F2F2F2"/>
<path d="M24.5388 1.37194L19.631 1.41481L19.6809 6.32252L24.5886 6.27965L24.5388 1.37194Z" fill="#F2F2F2"/>
<path d="M29.4465 1.32907L24.5388 1.37194L24.5886 6.27965L29.4964 6.23678L29.4465 1.32907Z" fill="#F2F2F2"/>
<path d="M34.3543 1.2862L29.4465 1.32907L29.4964 6.23678L34.4042 6.19391L34.3543 1.2862Z" fill="#F2F2F2"/>
<path d="M44.1698 1.20045L39.2621 1.24332L39.3119 6.15103L44.2197 6.10816L44.1698 1.20045Z" fill="#F2F2F2"/>
<path d="M49.0776 1.15758L44.1698 1.20045L44.2197 6.10816L49.1274 6.06529L49.0776 1.15758Z" fill="#F2F2F2"/>
<path d="M68.7086 0.986087L63.8008 1.02896L63.8507 5.93667L68.7584 5.8938L68.7086 0.986087Z" fill="#F2F2F2"/>
<path d="M83.4319 0.85747L78.5241 0.900342L78.574 5.80805L83.4817 5.76518L83.4319 0.85747Z" fill="#F2F2F2"/>
<path d="M88.3396 0.814597L83.4319 0.85747L83.4817 5.76518L88.3895 5.72231L88.3396 0.814597Z" fill="#F2F2F2"/>
<path d="M98.1551 0.728852L93.2474 0.771725L93.2972 5.67944L98.205 5.63656L98.1551 0.728852Z" fill="#F2F2F2"/>
<path d="M103.063 0.685979L98.1551 0.728852L98.205 5.63656L103.113 5.59369L103.063 0.685979Z" fill="#F2F2F2"/>
<path d="M112.878 0.600234L107.971 0.643107L108.02 5.55082L112.928 5.50795L112.878 0.600234Z" fill="#F2F2F2"/>
<path d="M127.602 0.471616L122.694 0.514489L122.744 5.4222L127.652 5.37933L127.602 0.471616Z" fill="#F2F2F2"/>
<path d="M132.509 0.428744L127.602 0.471616L127.652 5.37933L132.559 5.33646L132.509 0.428744Z" fill="#F2F2F2"/>
<path d="M137.417 0.385871L132.509 0.428744L132.559 5.33646L137.467 5.29358L137.417 0.385871Z" fill="#F2F2F2"/>
<path d="M142.325 0.342999L137.417 0.385871L137.467 5.29358L142.375 5.25071L142.325 0.342999Z" fill="#F2F2F2"/>
<path d="M152.14 0.257253L147.233 0.300126L147.283 5.20784L152.19 5.16496L152.14 0.257253Z" fill="#F2F2F2"/>
<path d="M157.048 0.214381L152.14 0.257253L152.19 5.16496L157.098 5.12209L157.048 0.214381Z" fill="#F2F2F2"/>
<path d="M161.956 0.171508L157.048 0.214381L157.098 5.12209L162.006 5.07922L161.956 0.171508Z" fill="#F2F2F2"/>
<path d="M166.864 0.128636L161.956 0.171508L162.006 5.07922L166.914 5.03635L166.864 0.128636Z" fill="#F2F2F2"/>
<path d="M171.771 0.085763L166.864 0.128636L166.914 5.03635L171.821 4.99347L171.771 0.085763Z" fill="#F2F2F2"/>
<path d="M176.679 0.0428904L171.771 0.085763L171.821 4.99347L176.729 4.9506L176.679 0.0428904Z" fill="#F2F2F2"/>
<path d="M181.587 1.78752e-05L176.679 0.0428904L176.729 4.9506L181.637 4.90773L181.587 1.78752e-05Z" fill="#F2F2F2"/>
<path d="M4.95762 6.45114L0.0498608 6.49402L0.0997216 11.4017L5.00748 11.3589L4.95762 6.45114Z" fill="#F2F2F2"/>
<path d="M34.4042 6.19391L29.4964 6.23678L29.5463 11.1445L34.454 11.1016L34.4042 6.19391Z" fill="#F2F2F2"/>
<path d="M49.1274 6.06529L44.2197 6.10816L44.2695 11.0159L49.1773 10.973L49.1274 6.06529Z" fill="#F2F2F2"/>
<path d="M54.0352 6.02242L49.1274 6.06529L49.1773 10.973L54.085 10.9301L54.0352 6.02242Z" fill="#F2F2F2"/>
<path d="M68.7584 5.8938L63.8507 5.93667L63.9006 10.8444L68.8083 10.8015L68.7584 5.8938Z" fill="#F2F2F2"/>
<path d="M73.6662 5.85093L68.7584 5.8938L68.8083 10.8015L73.7161 10.7586L73.6662 5.85093Z" fill="#F2F2F2"/>
<path d="M83.4817 5.76518L78.574 5.80805L78.6238 10.7158L83.5316 10.6729L83.4817 5.76518Z" fill="#F2F2F2"/>
<path d="M88.3895 5.72231L83.4817 5.76518L83.5316 10.6729L88.4393 10.63L88.3895 5.72231Z" fill="#F2F2F2"/>
<path d="M93.2972 5.67944L88.3895 5.72231L88.4393 10.63L93.3471 10.5871L93.2972 5.67944Z" fill="#F2F2F2"/>
<path d="M98.205 5.63656L93.2972 5.67944L93.3471 10.5871L98.2549 10.5443L98.205 5.63656Z" fill="#F2F2F2"/>
<path d="M103.113 5.59369L98.205 5.63656L98.2549 10.5443L103.163 10.5014L103.113 5.59369Z" fill="#F2F2F2"/>
<path d="M112.928 5.50795L108.02 5.55082L108.07 10.4585L112.978 10.4157L112.928 5.50795Z" fill="#F2F2F2"/>
<path d="M122.744 5.4222L117.836 5.46507L117.886 10.3728L122.794 10.3299L122.744 5.4222Z" fill="#F2F2F2"/>
<path d="M152.19 5.16496L147.283 5.20784L147.332 10.1155L152.24 10.0727L152.19 5.16496Z" fill="#F2F2F2"/>
<path d="M181.637 4.90773L176.729 4.9506L176.779 9.85831L181.687 9.81544L181.637 4.90773Z" fill="#F2F2F2"/>
<path d="M5.00748 11.3589L0.0997216 11.4017L0.149582 16.3094L5.05734 16.2666L5.00748 11.3589Z" fill="#F2F2F2"/>
<path d="M14.823 11.2731L9.91523 11.316L9.9651 16.2237L14.8729 16.1808L14.823 11.2731Z" fill="#F2F2F2"/>
<path d="M19.7307 11.2302L14.823 11.2731L14.8729 16.1808L19.7806 16.1379L19.7307 11.2302Z" fill="#F2F2F2"/>
<path d="M24.6385 11.1874L19.7307 11.2302L19.7806 16.1379L24.6884 16.0951L24.6385 11.1874Z" fill="#F2F2F2"/>
<path d="M34.454 11.1016L29.5463 11.1445L29.5961 16.0522L34.5039 16.0093L34.454 11.1016Z" fill="#F2F2F2"/>
<path d="M49.1773 10.973L44.2695 11.0159L44.3194 15.9236L49.2271 15.8807L49.1773 10.973Z" fill="#F2F2F2"/>
<path d="M78.6238 10.7158L73.7161 10.7586L73.7659 15.6664L78.6737 15.6235L78.6238 10.7158Z" fill="#F2F2F2"/>
<path d="M98.2549 10.5443L93.3471 10.5871L93.3969 15.4949L98.3047 15.452L98.2549 10.5443Z" fill="#F2F2F2"/>
<path d="M108.07 10.4585L103.163 10.5014L103.212 15.4091L108.12 15.3662L108.07 10.4585Z" fill="#F2F2F2"/>
<path d="M112.978 10.4157L108.07 10.4585L108.12 15.3662L113.028 15.3234L112.978 10.4157Z" fill="#F2F2F2"/>
<path d="M117.886 10.3728L112.978 10.4157L113.028 15.3234L117.936 15.2805L117.886 10.3728Z" fill="#F2F2F2"/>
<path d="M122.794 10.3299L117.886 10.3728L117.936 15.2805L122.843 15.2376L122.794 10.3299Z" fill="#F2F2F2"/>
<path d="M142.425 10.1584L137.517 10.2013L137.567 15.109L142.475 15.0661L142.425 10.1584Z" fill="#F2F2F2"/>
<path d="M152.24 10.0727L147.332 10.1155L147.382 15.0233L152.29 14.9804L152.24 10.0727Z" fill="#F2F2F2"/>
<path d="M162.056 9.98693L157.148 10.0298L157.198 14.9375L162.106 14.8946L162.056 9.98693Z" fill="#F2F2F2"/>
<path d="M166.963 9.94406L162.056 9.98693L162.106 14.8946L167.013 14.8518L166.963 9.94406Z" fill="#F2F2F2"/>
<path d="M171.871 9.90119L166.963 9.94406L167.013 14.8518L171.921 14.8089L171.871 9.90119Z" fill="#F2F2F2"/>
<path d="M181.687 9.81544L176.779 9.85831L176.829 14.766L181.737 14.7232L181.687 9.81544Z" fill="#F2F2F2"/>
<path d="M5.05734 16.2666L0.149582 16.3094L0.199443 21.2172L5.1072 21.1743L5.05734 16.2666Z" fill="#F2F2F2"/>
<path d="M14.8729 16.1808L9.9651 16.2237L10.015 21.1314L14.9227 21.0885L14.8729 16.1808Z" fill="#F2F2F2"/>
<path d="M19.7806 16.1379L14.8729 16.1808L14.9227 21.0885L19.8305 21.0457L19.7806 16.1379Z" fill="#F2F2F2"/>
<path d="M24.6884 16.0951L19.7806 16.1379L19.8305 21.0457L24.7382 21.0028L24.6884 16.0951Z" fill="#F2F2F2"/>
<path d="M34.5039 16.0093L29.5961 16.0522L29.646 20.9599L34.5537 20.917L34.5039 16.0093Z" fill="#F2F2F2"/>
<path d="M54.1349 15.8378L49.2271 15.8807L49.277 20.7884L54.1848 20.7456L54.1349 15.8378Z" fill="#F2F2F2"/>
<path d="M59.0427 15.795L54.1349 15.8378L54.1848 20.7456L59.0925 20.7027L59.0427 15.795Z" fill="#F2F2F2"/>
<path d="M63.9504 15.7521L59.0427 15.795L59.0925 20.7027L64.0003 20.6598L63.9504 15.7521Z" fill="#F2F2F2"/>
<path d="M68.8582 15.7092L63.9504 15.7521L64.0003 20.6598L68.908 20.6169L68.8582 15.7092Z" fill="#F2F2F2"/>
<path d="M78.6737 15.6235L73.7659 15.6664L73.8158 20.5741L78.7236 20.5312L78.6737 15.6235Z" fill="#F2F2F2"/>
<path d="M98.3047 15.452L93.3969 15.4949L93.4468 20.4026L98.3546 20.3597L98.3047 15.452Z" fill="#F2F2F2"/>
<path d="M103.212 15.4091L98.3047 15.452L98.3546 20.3597L103.262 20.3168L103.212 15.4091Z" fill="#F2F2F2"/>
<path d="M113.028 15.3234L108.12 15.3662L108.17 20.274L113.078 20.2311L113.028 15.3234Z" fill="#F2F2F2"/>
<path d="M122.843 15.2376L117.936 15.2805L117.986 20.1882L122.893 20.1453L122.843 15.2376Z" fill="#F2F2F2"/>
<path d="M127.751 15.1948L122.843 15.2376L122.893 20.1453L127.801 20.1025L127.751 15.1948Z" fill="#F2F2F2"/>
<path d="M137.567 15.109L132.659 15.1519L132.709 20.0596L137.617 20.0167L137.567 15.109Z" fill="#F2F2F2"/>
<path d="M152.29 14.9804L147.382 15.0233L147.432 19.931L152.34 19.8881L152.29 14.9804Z" fill="#F2F2F2"/>
<path d="M162.106 14.8946L157.198 14.9375L157.248 19.8452L162.155 19.8024L162.106 14.8946Z" fill="#F2F2F2"/>
<path d="M167.013 14.8518L162.106 14.8946L162.155 19.8024L167.063 19.7595L167.013 14.8518Z" fill="#F2F2F2"/>
<path d="M171.921 14.8089L167.013 14.8518L167.063 19.7595L171.971 19.7166L171.921 14.8089Z" fill="#F2F2F2"/>
<path d="M181.737 14.7232L176.829 14.766L176.879 19.6737L181.786 19.6309L181.737 14.7232Z" fill="#F2F2F2"/>
<path d="M5.1072 21.1743L0.199443 21.2172L0.249304 26.1249L5.15706 26.082L5.1072 21.1743Z" fill="#F2F2F2"/>
<path d="M14.9227 21.0885L10.015 21.1314L10.0648 26.0391L14.9726 25.9962L14.9227 21.0885Z" fill="#F2F2F2"/>
<path d="M19.8305 21.0457L14.9227 21.0885L14.9726 25.9962L19.8803 25.9534L19.8305 21.0457Z" fill="#F2F2F2"/>
<path d="M24.7382 21.0028L19.8305 21.0457L19.8803 25.9534L24.7881 25.9105L24.7382 21.0028Z" fill="#F2F2F2"/>
<path d="M34.5537 20.917L29.646 20.9599L29.6958 25.8676L34.6036 25.8248L34.5537 20.917Z" fill="#F2F2F2"/>
<path d="M49.277 20.7884L44.3693 20.8313L44.4191 25.739L49.3269 25.6961L49.277 20.7884Z" fill="#F2F2F2"/>
<path d="M54.1848 20.7456L49.277 20.7884L49.3269 25.6961L54.2346 25.6533L54.1848 20.7456Z" fill="#F2F2F2"/>
<path d="M64.0003 20.6598L59.0925 20.7027L59.1424 25.6104L64.0501 25.5675L64.0003 20.6598Z" fill="#F2F2F2"/>
<path d="M78.7236 20.5312L73.8158 20.5741L73.8657 25.4818L78.7734 25.4389L78.7236 20.5312Z" fill="#F2F2F2"/>
<path d="M83.6313 20.4883L78.7236 20.5312L78.7734 25.4389L83.6812 25.396L83.6313 20.4883Z" fill="#F2F2F2"/>
<path d="M93.4468 20.4026L88.5391 20.4454L88.5889 25.3532L93.4967 25.3103L93.4468 20.4026Z" fill="#F2F2F2"/>
<path d="M98.3546 20.3597L93.4468 20.4026L93.4967 25.3103L98.4044 25.2674L98.3546 20.3597Z" fill="#F2F2F2"/>
<path d="M103.262 20.3168L98.3546 20.3597L98.4044 25.2674L103.312 25.2245L103.262 20.3168Z" fill="#F2F2F2"/>
<path d="M113.078 20.2311L108.17 20.274L108.22 25.1817L113.128 25.1388L113.078 20.2311Z" fill="#F2F2F2"/>
<path d="M117.986 20.1882L113.078 20.2311L113.128 25.1388L118.035 25.0959L117.986 20.1882Z" fill="#F2F2F2"/>
<path d="M127.801 20.1025L122.893 20.1453L122.943 25.053L127.851 25.0102L127.801 20.1025Z" fill="#F2F2F2"/>
<path d="M132.709 20.0596L127.801 20.1025L127.851 25.0102L132.759 24.9673L132.709 20.0596Z" fill="#F2F2F2"/>
<path d="M137.617 20.0167L132.709 20.0596L132.759 24.9673L137.666 24.9244L137.617 20.0167Z" fill="#F2F2F2"/>
<path d="M142.524 19.9738L137.617 20.0167L137.666 24.9244L142.574 24.8816L142.524 19.9738Z" fill="#F2F2F2"/>
<path d="M152.34 19.8881L147.432 19.931L147.482 24.8387L152.39 24.7958L152.34 19.8881Z" fill="#F2F2F2"/>
<path d="M162.155 19.8024L157.248 19.8452L157.298 24.7529L162.205 24.7101L162.155 19.8024Z" fill="#F2F2F2"/>
<path d="M167.063 19.7595L162.155 19.8024L162.205 24.7101L167.113 24.6672L167.063 19.7595Z" fill="#F2F2F2"/>
<path d="M171.971 19.7166L167.063 19.7595L167.113 24.6672L172.021 24.6243L171.971 19.7166Z" fill="#F2F2F2"/>
<path d="M181.786 19.6309L176.879 19.6737L176.929 24.5815L181.836 24.5386L181.786 19.6309Z" fill="#F2F2F2"/>
<path d="M5.15706 26.082L0.249304 26.1249L0.299165 31.0326L5.20692 30.9897L5.15706 26.082Z" fill="#F2F2F2"/>
<path d="M34.6036 25.8248L29.6958 25.8676L29.7457 30.7753L34.6535 30.7325L34.6036 25.8248Z" fill="#F2F2F2"/>
<path d="M64.0501 25.5675L59.1424 25.6104L59.1922 30.5181L64.1 30.4752L64.0501 25.5675Z" fill="#F2F2F2"/>
<path d="M68.9579 25.5246L64.0501 25.5675L64.1 30.4752L69.0078 30.4324L68.9579 25.5246Z" fill="#F2F2F2"/>
<path d="M78.7734 25.4389L73.8657 25.4818L73.9155 30.3895L78.8233 30.3466L78.7734 25.4389Z" fill="#F2F2F2"/>
<path d="M83.6812 25.396L78.7734 25.4389L78.8233 30.3466L83.731 30.3037L83.6812 25.396Z" fill="#F2F2F2"/>
<path d="M98.4044 25.2674L93.4967 25.3103L93.5465 30.218L98.4543 30.1751L98.4044 25.2674Z" fill="#F2F2F2"/>
<path d="M108.22 25.1817L103.312 25.2245L103.362 30.1322L108.27 30.0894L108.22 25.1817Z" fill="#F2F2F2"/>
<path d="M113.128 25.1388L108.22 25.1817L108.27 30.0894L113.178 30.0465L113.128 25.1388Z" fill="#F2F2F2"/>
<path d="M122.943 25.053L118.035 25.0959L118.085 30.0036L122.993 29.9608L122.943 25.053Z" fill="#F2F2F2"/>
<path d="M132.759 24.9673L127.851 25.0102L127.901 29.9179L132.809 29.875L132.759 24.9673Z" fill="#F2F2F2"/>
<path d="M152.39 24.7958L147.482 24.8387L147.532 29.7464L152.44 29.7035L152.39 24.7958Z" fill="#F2F2F2"/>
<path d="M181.836 24.5386L176.929 24.5815L176.978 29.4892L181.886 29.4463L181.836 24.5386Z" fill="#F2F2F2"/>
<path d="M5.20692 30.9897L0.299165 31.0326L0.349025 35.9403L5.25678 35.8974L5.20692 30.9897Z" fill="#F2F2F2"/>
<path d="M10.1147 30.9468L5.20692 30.9897L5.25678 35.8974L10.1645 35.8545L10.1147 30.9468Z" fill="#F2F2F2"/>
<path d="M15.0224 30.904L10.1147 30.9468L10.1645 35.8545L15.0723 35.8117L15.0224 30.904Z" fill="#F2F2F2"/>
<path d="M19.9302 30.8611L15.0224 30.904L15.0723 35.8117L19.9801 35.7688L19.9302 30.8611Z" fill="#F2F2F2"/>
<path d="M24.8379 30.8182L19.9302 30.8611L19.9801 35.7688L24.8878 35.7259L24.8379 30.8182Z" fill="#F2F2F2"/>
<path d="M29.7457 30.7753L24.8379 30.8182L24.8878 35.7259L29.7956 35.6831L29.7457 30.7753Z" fill="#F2F2F2"/>
<path d="M34.6535 30.7325L29.7457 30.7753L29.7956 35.6831L34.7033 35.6402L34.6535 30.7325Z" fill="#F2F2F2"/>
<path d="M44.469 30.6467L39.5612 30.6896L39.6111 35.5973L44.5188 35.5544L44.469 30.6467Z" fill="#F2F2F2"/>
<path d="M54.2845 30.561L49.3767 30.6038L49.4266 35.5116L54.3343 35.4687L54.2845 30.561Z" fill="#F2F2F2"/>
<path d="M64.1 30.4752L59.1922 30.5181L59.2421 35.4258L64.1499 35.3829L64.1 30.4752Z" fill="#F2F2F2"/>
<path d="M73.9155 30.3895L69.0078 30.4324L69.0576 35.3401L73.9654 35.2972L73.9155 30.3895Z" fill="#F2F2F2"/>
<path d="M83.731 30.3037L78.8233 30.3466L78.8731 35.2543L83.7809 35.2115L83.731 30.3037Z" fill="#F2F2F2"/>
<path d="M93.5465 30.218L88.6388 30.2609L88.6886 35.1686L93.5964 35.1257L93.5465 30.218Z" fill="#F2F2F2"/>
<path d="M103.362 30.1322L98.4543 30.1751L98.5042 35.0828L103.412 35.04L103.362 30.1322Z" fill="#F2F2F2"/>
<path d="M113.178 30.0465L108.27 30.0894L108.32 34.9971L113.227 34.9542L113.178 30.0465Z" fill="#F2F2F2"/>
<path d="M122.993 29.9608L118.085 30.0036L118.135 34.9113L123.043 34.8685L122.993 29.9608Z" fill="#F2F2F2"/>
<path d="M132.809 29.875L127.901 29.9179L127.951 34.8256L132.858 34.7827L132.809 29.875Z" fill="#F2F2F2"/>
<path d="M142.624 29.7893L137.716 29.8321L137.766 34.7399L142.674 34.697L142.624 29.7893Z" fill="#F2F2F2"/>
<path d="M152.44 29.7035L147.532 29.7464L147.582 34.6541L152.489 34.6112L152.44 29.7035Z" fill="#F2F2F2"/>
<path d="M157.347 29.6607L152.44 29.7035L152.489 34.6112L157.397 34.5684L157.347 29.6607Z" fill="#F2F2F2"/>
<path d="M162.255 29.6178L157.347 29.6607L157.397 34.5684L162.305 34.5255L162.255 29.6178Z" fill="#F2F2F2"/>
<path d="M167.163 29.5749L162.255 29.6178L162.305 34.5255L167.213 34.4826L167.163 29.5749Z" fill="#F2F2F2"/>
<path d="M172.071 29.532L167.163 29.5749L167.213 34.4826L172.121 34.4397L172.071 29.532Z" fill="#F2F2F2"/>
<path d="M176.978 29.4892L172.071 29.532L172.121 34.4397L177.028 34.3969L176.978 29.4892Z" fill="#F2F2F2"/>
<path d="M181.886 29.4463L176.978 29.4892L177.028 34.3969L181.936 34.354L181.886 29.4463Z" fill="#F2F2F2"/>
<path d="M54.3343 35.4687L49.4266 35.5116L49.4765 40.4193L54.3842 40.3764L54.3343 35.4687Z" fill="#F2F2F2"/>
<path d="M69.0576 35.3401L64.1499 35.3829L64.1997 40.2907L69.1075 40.2478L69.0576 35.3401Z" fill="#F2F2F2"/>
<path d="M73.9654 35.2972L69.0576 35.3401L69.1075 40.2478L74.0152 40.2049L73.9654 35.2972Z" fill="#F2F2F2"/>
<path d="M88.6886 35.1686L83.7809 35.2115L83.8308 40.1192L88.7385 40.0763L88.6886 35.1686Z" fill="#F2F2F2"/>
<path d="M93.5964 35.1257L88.6886 35.1686L88.7385 40.0763L93.6463 40.0334L93.5964 35.1257Z" fill="#F2F2F2"/>
<path d="M108.32 34.9971L103.412 35.04L103.462 39.9477L108.37 39.9048L108.32 34.9971Z" fill="#F2F2F2"/>
<path d="M118.135 34.9113L113.227 34.9542L113.277 39.8619L118.185 39.8191L118.135 34.9113Z" fill="#F2F2F2"/>
<path d="M123.043 34.8685L118.135 34.9113L118.185 39.8191L123.093 39.7762L123.043 34.8685Z" fill="#F2F2F2"/>
<path d="M132.858 34.7827L127.951 34.8256L128.001 39.7333L132.908 39.6904L132.858 34.7827Z" fill="#F2F2F2"/>
<path d="M142.674 34.697L137.766 34.7399L137.816 39.6476L142.724 39.6047L142.674 34.697Z" fill="#F2F2F2"/>
<path d="M10.2144 40.7623L5.30664 40.8051L5.3565 45.7128L10.2643 45.67L10.2144 40.7623Z" fill="#F2F2F2"/>
<path d="M15.1222 40.7194L10.2144 40.7623L10.2643 45.67L15.172 45.6271L15.1222 40.7194Z" fill="#F2F2F2"/>
<path d="M20.0299 40.6765L15.1222 40.7194L15.172 45.6271L20.0798 45.5842L20.0299 40.6765Z" fill="#F2F2F2"/>
<path d="M34.7532 40.5479L29.8454 40.5908L29.8953 45.4985L34.803 45.4556L34.7532 40.5479Z" fill="#F2F2F2"/>
<path d="M39.6609 40.505L34.7532 40.5479L34.803 45.4556L39.7108 45.4127L39.6609 40.505Z" fill="#F2F2F2"/>
<path d="M44.5687 40.4621L39.6609 40.505L39.7108 45.4127L44.6186 45.3699L44.5687 40.4621Z" fill="#F2F2F2"/>
<path d="M69.1075 40.2478L64.1997 40.2907L64.2496 45.1984L69.1573 45.1555L69.1075 40.2478Z" fill="#F2F2F2"/>
<path d="M78.923 40.162L74.0152 40.2049L74.0651 45.1126L78.9729 45.0698L78.923 40.162Z" fill="#F2F2F2"/>
<path d="M113.277 39.8619L108.37 39.9048L108.419 44.8125L113.327 44.7696L113.277 39.8619Z" fill="#F2F2F2"/>
<path d="M118.185 39.8191L113.277 39.8619L113.327 44.7696L118.235 44.7268L118.185 39.8191Z" fill="#F2F2F2"/>
<path d="M128.001 39.7333L123.093 39.7762L123.143 44.6839L128.05 44.641L128.001 39.7333Z" fill="#F2F2F2"/>
<path d="M147.632 39.5618L142.724 39.6047L142.774 44.5124L147.681 44.4695L147.632 39.5618Z" fill="#F2F2F2"/>
<path d="M181.986 39.2617L177.078 39.3046L177.128 44.2123L182.036 44.1694L181.986 39.2617Z" fill="#F2F2F2"/>
<path d="M5.3565 45.7128L0.448747 45.7557L0.498608 50.6634L5.40636 50.6205L5.3565 45.7128Z" fill="#F2F2F2"/>
<path d="M20.0798 45.5842L15.172 45.6271L15.2219 50.5348L20.1296 50.4919L20.0798 45.5842Z" fill="#F2F2F2"/>
<path d="M29.8953 45.4985L24.9875 45.5414L25.0374 50.4491L29.9451 50.4062L29.8953 45.4985Z" fill="#F2F2F2"/>
<path d="M44.6186 45.3699L39.7108 45.4127L39.7607 50.3204L44.6684 50.2776L44.6186 45.3699Z" fill="#F2F2F2"/>
<path d="M49.5263 45.327L44.6186 45.3699L44.6684 50.2776L49.5762 50.2347L49.5263 45.327Z" fill="#F2F2F2"/>
<path d="M54.4341 45.2841L49.5263 45.327L49.5762 50.2347L54.4839 50.1918L54.4341 45.2841Z" fill="#F2F2F2"/>
<path d="M59.3418 45.2412L54.4341 45.2841L54.4839 50.1918L59.3917 50.1489L59.3418 45.2412Z" fill="#F2F2F2"/>
<path d="M78.9729 45.0698L74.0651 45.1126L74.115 50.0203L79.0227 49.9775L78.9729 45.0698Z" fill="#F2F2F2"/>
<path d="M83.8806 45.0269L78.9729 45.0698L79.0227 49.9775L83.9305 49.9346L83.8806 45.0269Z" fill="#F2F2F2"/>
<path d="M93.6961 44.9411L88.7884 44.984L88.8382 49.8917L93.746 49.8488L93.6961 44.9411Z" fill="#F2F2F2"/>
<path d="M108.419 44.8125L103.512 44.8554L103.561 49.7631L108.469 49.7202L108.419 44.8125Z" fill="#F2F2F2"/>
<path d="M118.235 44.7268L113.327 44.7696L113.377 49.6774L118.285 49.6345L118.235 44.7268Z" fill="#F2F2F2"/>
<path d="M128.05 44.641L123.143 44.6839L123.193 49.5916L128.1 49.5487L128.05 44.641Z" fill="#F2F2F2"/>
<path d="M137.866 44.5553L132.958 44.5982L133.008 49.5059L137.916 49.463L137.866 44.5553Z" fill="#F2F2F2"/>
<path d="M147.681 44.4695L142.774 44.5124L142.824 49.4201L147.731 49.3772L147.681 44.4695Z" fill="#F2F2F2"/>
<path d="M157.497 44.3838L152.589 44.4267L152.639 49.3344L157.547 49.2915L157.497 44.3838Z" fill="#F2F2F2"/>
<path d="M162.405 44.3409L157.497 44.3838L157.547 49.2915L162.455 49.2486L162.405 44.3409Z" fill="#F2F2F2"/>
<path d="M167.312 44.298L162.405 44.3409L162.455 49.2486L167.362 49.2058L167.312 44.298Z" fill="#F2F2F2"/>
<path d="M177.128 44.2123L172.22 44.2552L172.27 49.1629L177.178 49.12L177.128 44.2123Z" fill="#F2F2F2"/>
<path d="M182.036 44.1694L177.128 44.2123L177.178 49.12L182.086 49.0771L182.036 44.1694Z" fill="#F2F2F2"/>
<path d="M15.2219 50.5348L10.3141 50.5777L10.364 55.4854L15.2717 55.4425L15.2219 50.5348Z" fill="#F2F2F2"/>
<path d="M25.0374 50.4491L20.1296 50.4919L20.1795 55.3996L25.0873 55.3568L25.0374 50.4491Z" fill="#F2F2F2"/>
<path d="M29.9451 50.4062L25.0374 50.4491L25.0873 55.3568L29.995 55.3139L29.9451 50.4062Z" fill="#F2F2F2"/>
<path d="M34.8529 50.3633L29.9451 50.4062L29.995 55.3139L34.9028 55.271L34.8529 50.3633Z" fill="#F2F2F2"/>
<path d="M64.2994 50.1061L59.3917 50.1489L59.4415 55.0567L64.3493 55.0138L64.2994 50.1061Z" fill="#F2F2F2"/>
<path d="M69.2072 50.0632L64.2994 50.1061L64.3493 55.0138L69.2571 54.9709L69.2072 50.0632Z" fill="#F2F2F2"/>
<path d="M74.115 50.0203L69.2072 50.0632L69.2571 54.9709L74.1648 54.928L74.115 50.0203Z" fill="#F2F2F2"/>
<path d="M79.0227 49.9775L74.115 50.0203L74.1648 54.928L79.0726 54.8852L79.0227 49.9775Z" fill="#F2F2F2"/>
<path d="M88.8382 49.8917L83.9305 49.9346L83.9803 54.8423L88.8881 54.7994L88.8382 49.8917Z" fill="#F2F2F2"/>
<path d="M98.6537 49.806L93.746 49.8488L93.7958 54.7566L98.7036 54.7137L98.6537 49.806Z" fill="#F2F2F2"/>
<path d="M108.469 49.7202L103.561 49.7631L103.611 54.6708L108.519 54.6279L108.469 49.7202Z" fill="#F2F2F2"/>
<path d="M113.377 49.6774L108.469 49.7202L108.519 54.6279L113.427 54.5851L113.377 49.6774Z" fill="#F2F2F2"/>
<path d="M128.1 49.5487L123.193 49.5916L123.242 54.4993L128.15 54.4564L128.1 49.5487Z" fill="#F2F2F2"/>
<path d="M137.916 49.463L133.008 49.5059L133.058 54.4136L137.966 54.3707L137.916 49.463Z" fill="#F2F2F2"/>
<path d="M142.824 49.4201L137.916 49.463L137.966 54.3707L142.873 54.3278L142.824 49.4201Z" fill="#F2F2F2"/>
<path d="M152.639 49.3344L147.731 49.3772L147.781 54.285L152.689 54.2421L152.639 49.3344Z" fill="#F2F2F2"/>
<path d="M157.547 49.2915L152.639 49.3344L152.689 54.2421L157.597 54.1992L157.547 49.2915Z" fill="#F2F2F2"/>
<path d="M162.455 49.2486L157.547 49.2915L157.597 54.1992L162.504 54.1563L162.455 49.2486Z" fill="#F2F2F2"/>
<path d="M167.362 49.2058L162.455 49.2486L162.504 54.1563L167.412 54.1135L167.362 49.2058Z" fill="#F2F2F2"/>
<path d="M177.178 49.12L172.27 49.1629L172.32 54.0706L177.228 54.0277L177.178 49.12Z" fill="#F2F2F2"/>
<path d="M5.45622 55.5283L0.548469 55.5711L0.598329 60.4788L5.50609 60.436L5.45622 55.5283Z" fill="#F2F2F2"/>
<path d="M15.2717 55.4425L10.364 55.4854L10.4138 60.3931L15.3216 60.3502L15.2717 55.4425Z" fill="#F2F2F2"/>
<path d="M25.0873 55.3568L20.1795 55.3996L20.2294 60.3074L25.1371 60.2645L25.0873 55.3568Z" fill="#F2F2F2"/>
<path d="M29.995 55.3139L25.0873 55.3568L25.1371 60.2645L30.0449 60.2216L29.995 55.3139Z" fill="#F2F2F2"/>
<path d="M39.8105 55.2281L34.9028 55.271L34.9526 60.1787L39.8604 60.1359L39.8105 55.2281Z" fill="#F2F2F2"/>
<path d="M49.626 55.1424L44.7183 55.1853L44.7681 60.093L49.6759 60.0501L49.626 55.1424Z" fill="#F2F2F2"/>
<path d="M54.5338 55.0995L49.626 55.1424L49.6759 60.0501L54.5836 60.0072L54.5338 55.0995Z" fill="#F2F2F2"/>
<path d="M83.9803 54.8423L79.0726 54.8852L79.1224 59.7929L84.0302 59.75L83.9803 54.8423Z" fill="#F2F2F2"/>
<path d="M88.8881 54.7994L83.9803 54.8423L84.0302 59.75L88.938 59.7071L88.8881 54.7994Z" fill="#F2F2F2"/>
<path d="M93.7958 54.7566L88.8881 54.7994L88.938 59.7071L93.8457 59.6643L93.7958 54.7566Z" fill="#F2F2F2"/>
<path d="M98.7036 54.7137L93.7958 54.7566L93.8457 59.6643L98.7535 59.6214L98.7036 54.7137Z" fill="#F2F2F2"/>
<path d="M113.427 54.5851L108.519 54.6279L108.569 59.5356L113.477 59.4928L113.427 54.5851Z" fill="#F2F2F2"/>
<path d="M118.335 54.5422L113.427 54.5851L113.477 59.4928L118.384 59.4499L118.335 54.5422Z" fill="#F2F2F2"/>
<path d="M147.781 54.285L142.873 54.3278L142.923 59.2355L147.831 59.1927L147.781 54.285Z" fill="#F2F2F2"/>
<path d="M152.689 54.2421L147.781 54.285L147.831 59.1927L152.739 59.1498L152.689 54.2421Z" fill="#F2F2F2"/>
<path d="M157.597 54.1992L152.689 54.2421L152.739 59.1498L157.647 59.1069L157.597 54.1992Z" fill="#F2F2F2"/>
<path d="M162.504 54.1563L157.597 54.1992L157.647 59.1069L162.554 59.064L162.504 54.1563Z" fill="#F2F2F2"/>
<path d="M172.32 54.0706L167.412 54.1135L167.462 59.0212L172.37 58.9783L172.32 54.0706Z" fill="#F2F2F2"/>
<path d="M177.228 54.0277L172.32 54.0706L172.37 58.9783L177.278 58.9354L177.228 54.0277Z" fill="#F2F2F2"/>
<path d="M15.3216 60.3502L10.4138 60.3931L10.4637 65.3008L15.3715 65.2579L15.3216 60.3502Z" fill="#F2F2F2"/>
<path d="M20.2294 60.3074L15.3216 60.3502L15.3715 65.2579L20.2792 65.2151L20.2294 60.3074Z" fill="#F2F2F2"/>
<path d="M25.1371 60.2645L20.2294 60.3074L20.2792 65.2151L25.187 65.1722L25.1371 60.2645Z" fill="#F2F2F2"/>
<path d="M30.0449 60.2216L25.1371 60.2645L25.187 65.1722L30.0947 65.1293L30.0449 60.2216Z" fill="#F2F2F2"/>
<path d="M34.9526 60.1787L30.0449 60.2216L30.0947 65.1293L35.0025 65.0865L34.9526 60.1787Z" fill="#F2F2F2"/>
<path d="M39.8604 60.1359L34.9526 60.1787L35.0025 65.0865L39.9102 65.0436L39.8604 60.1359Z" fill="#F2F2F2"/>
<path d="M44.7681 60.093L39.8604 60.1359L39.9102 65.0436L44.818 65.0007L44.7681 60.093Z" fill="#F2F2F2"/>
<path d="M49.6759 60.0501L44.7681 60.093L44.818 65.0007L49.7258 64.9578L49.6759 60.0501Z" fill="#F2F2F2"/>
<path d="M54.5836 60.0072L49.6759 60.0501L49.7258 64.9578L54.6335 64.915L54.5836 60.0072Z" fill="#F2F2F2"/>
<path d="M59.4914 59.9644L54.5836 60.0072L54.6335 64.915L59.5413 64.8721L59.4914 59.9644Z" fill="#F2F2F2"/>
<path d="M84.0302 59.75L79.1224 59.7929L79.1723 64.7006L84.08 64.6577L84.0302 59.75Z" fill="#F2F2F2"/>
<path d="M93.8457 59.6643L88.938 59.7071L88.9878 64.6149L93.8956 64.572L93.8457 59.6643Z" fill="#F2F2F2"/>
<path d="M108.569 59.5356L103.661 59.5785L103.711 64.4862L108.619 64.4434L108.569 59.5356Z" fill="#F2F2F2"/>
<path d="M118.384 59.4499L113.477 59.4928L113.527 64.4005L118.434 64.3576L118.384 59.4499Z" fill="#F2F2F2"/>
<path d="M133.108 59.3213L128.2 59.3642L128.25 64.2719L133.158 64.229L133.108 59.3213Z" fill="#F2F2F2"/>
<path d="M138.016 59.2784L133.108 59.3213L133.158 64.229L138.065 64.1861L138.016 59.2784Z" fill="#F2F2F2"/>
<path d="M152.739 59.1498L147.831 59.1927L147.881 64.1004L152.789 64.0575L152.739 59.1498Z" fill="#F2F2F2"/>
<path d="M162.554 59.064L157.647 59.1069L157.696 64.0146L162.604 63.9718L162.554 59.064Z" fill="#F2F2F2"/>
<path d="M10.4637 65.3008L5.55595 65.3437L5.60581 70.2514L10.5136 70.2085L10.4637 65.3008Z" fill="#F2F2F2"/>
<path d="M15.3715 65.2579L10.4637 65.3008L10.5136 70.2085L15.4213 70.1656L15.3715 65.2579Z" fill="#F2F2F2"/>
<path d="M20.2792 65.2151L15.3715 65.2579L15.4213 70.1656L20.3291 70.1228L20.2792 65.2151Z" fill="#F2F2F2"/>
<path d="M25.187 65.1722L20.2792 65.2151L20.3291 70.1228L25.2368 70.0799L25.187 65.1722Z" fill="#F2F2F2"/>
<path d="M39.9102 65.0436L35.0025 65.0865L35.0523 69.9942L39.9601 69.9513L39.9102 65.0436Z" fill="#F2F2F2"/>
<path d="M44.818 65.0007L39.9102 65.0436L39.9601 69.9513L44.8679 69.9084L44.818 65.0007Z" fill="#F2F2F2"/>
<path d="M54.6335 64.915L49.7258 64.9578L49.7756 69.8655L54.6834 69.8227L54.6335 64.915Z" fill="#F2F2F2"/>
<path d="M88.9878 64.6149L84.08 64.6577L84.1299 69.5654L89.0377 69.5226L88.9878 64.6149Z" fill="#F2F2F2"/>
<path d="M93.8956 64.572L88.9878 64.6149L89.0377 69.5226L93.9454 69.4797L93.8956 64.572Z" fill="#F2F2F2"/>
<path d="M113.527 64.4005L108.619 64.4434L108.669 69.3511L113.576 69.3082L113.527 64.4005Z" fill="#F2F2F2"/>
<path d="M118.434 64.3576L113.527 64.4005L113.576 69.3082L118.484 69.2653L118.434 64.3576Z" fill="#F2F2F2"/>
<path d="M128.25 64.2719L123.342 64.3147L123.392 69.2224L128.3 69.1796L128.25 64.2719Z" fill="#F2F2F2"/>
<path d="M138.065 64.1861L133.158 64.229L133.207 69.1367L138.115 69.0938L138.065 64.1861Z" fill="#F2F2F2"/>
<path d="M157.696 64.0146L152.789 64.0575L152.839 68.9652L157.746 68.9223L157.696 64.0146Z" fill="#F2F2F2"/>
<path d="M167.512 63.9289L162.604 63.9718L162.654 68.8795L167.562 68.8366L167.512 63.9289Z" fill="#F2F2F2"/>
<path d="M182.235 63.8003L177.327 63.8431L177.377 68.7508L182.285 68.708L182.235 63.8003Z" fill="#F2F2F2"/>
<path d="M5.60581 70.2514L0.698051 70.2943L0.747912 75.202L5.65567 75.1591L5.60581 70.2514Z" fill="#F2F2F2"/>
<path d="M15.4213 70.1656L10.5136 70.2085L10.5634 75.1162L15.4712 75.0734L15.4213 70.1656Z" fill="#F2F2F2"/>
<path d="M25.2368 70.0799L20.3291 70.1228L20.3789 75.0305L25.2867 74.9876L25.2368 70.0799Z" fill="#F2F2F2"/>
<path d="M35.0523 69.9942L30.1446 70.037L30.1944 74.9447L35.1022 74.9019L35.0523 69.9942Z" fill="#F2F2F2"/>
<path d="M39.9601 69.9513L35.0523 69.9942L35.1022 74.9019L40.01 74.859L39.9601 69.9513Z" fill="#F2F2F2"/>
<path d="M44.8679 69.9084L39.9601 69.9513L40.01 74.859L44.9177 74.8161L44.8679 69.9084Z" fill="#F2F2F2"/>
<path d="M49.7756 69.8655L44.8679 69.9084L44.9177 74.8161L49.8255 74.7732L49.7756 69.8655Z" fill="#F2F2F2"/>
<path d="M54.6834 69.8227L49.7756 69.8655L49.8255 74.7732L54.7332 74.7304L54.6834 69.8227Z" fill="#F2F2F2"/>
<path d="M64.4989 69.7369L59.5911 69.7798L59.641 74.6875L64.5488 74.6446L64.4989 69.7369Z" fill="#F2F2F2"/>
<path d="M69.4066 69.694L64.4989 69.7369L64.5488 74.6446L69.4565 74.6018L69.4066 69.694Z" fill="#F2F2F2"/>
<path d="M74.3144 69.6512L69.4066 69.694L69.4565 74.6018L74.3643 74.5589L74.3144 69.6512Z" fill="#F2F2F2"/>
<path d="M79.2222 69.6083L74.3144 69.6512L74.3643 74.5589L79.272 74.516L79.2222 69.6083Z" fill="#F2F2F2"/>
<path d="M84.1299 69.5654L79.2222 69.6083L79.272 74.516L84.1798 74.4731L84.1299 69.5654Z" fill="#F2F2F2"/>
<path d="M89.0377 69.5226L84.1299 69.5654L84.1798 74.4731L89.0875 74.4303L89.0377 69.5226Z" fill="#F2F2F2"/>
<path d="M108.669 69.3511L103.761 69.3939L103.811 74.3016L108.719 74.2588L108.669 69.3511Z" fill="#F2F2F2"/>
<path d="M113.576 69.3082L108.669 69.3511L108.719 74.2588L113.626 74.2159L113.576 69.3082Z" fill="#F2F2F2"/>
<path d="M118.484 69.2653L113.576 69.3082L113.626 74.2159L118.534 74.173L118.484 69.2653Z" fill="#F2F2F2"/>
<path d="M123.392 69.2224L118.484 69.2653L118.534 74.173L123.442 74.1302L123.392 69.2224Z" fill="#F2F2F2"/>
<path d="M133.207 69.1367L128.3 69.1796L128.35 74.0873L133.257 74.0444L133.207 69.1367Z" fill="#F2F2F2"/>
<path d="M147.931 69.0081L143.023 69.051L143.073 73.9587L147.981 73.9158L147.931 69.0081Z" fill="#F2F2F2"/>
<path d="M152.839 68.9652L147.931 69.0081L147.981 73.9158L152.888 73.8729L152.839 68.9652Z" fill="#F2F2F2"/>
<path d="M157.746 68.9223L152.839 68.9652L152.888 73.8729L157.796 73.83L157.746 68.9223Z" fill="#F2F2F2"/>
<path d="M162.654 68.8795L157.746 68.9223L157.796 73.83L162.704 73.7872L162.654 68.8795Z" fill="#F2F2F2"/>
<path d="M172.47 68.7937L167.562 68.8366L167.612 73.7443L172.519 73.7014L172.47 68.7937Z" fill="#F2F2F2"/>
<path d="M182.285 68.708L177.377 68.7508L177.427 73.6586L182.335 73.6157L182.285 68.708Z" fill="#F2F2F2"/>
<path d="M5.65567 75.1591L0.747912 75.202L0.797773 80.1097L5.70553 80.0668L5.65567 75.1591Z" fill="#F2F2F2"/>
<path d="M44.9177 74.8161L40.01 74.859L40.0598 79.7667L44.9676 79.7238L44.9177 74.8161Z" fill="#F2F2F2"/>
<path d="M59.641 74.6875L54.7332 74.7304L54.7831 79.6381L59.6908 79.5952L59.641 74.6875Z" fill="#F2F2F2"/>
<path d="M69.4565 74.6018L64.5488 74.6446L64.5986 79.5524L69.5064 79.5095L69.4565 74.6018Z" fill="#F2F2F2"/>
<path d="M74.3643 74.5589L69.4565 74.6018L69.5064 79.5095L74.4141 79.4666L74.3643 74.5589Z" fill="#F2F2F2"/>
<path d="M79.272 74.516L74.3643 74.5589L74.4141 79.4666L79.3219 79.4237L79.272 74.516Z" fill="#F2F2F2"/>
<path d="M84.1798 74.4731L79.272 74.516L79.3219 79.4237L84.2296 79.3809L84.1798 74.4731Z" fill="#F2F2F2"/>
<path d="M93.9953 74.3874L89.0875 74.4303L89.1374 79.338L94.0451 79.2951L93.9953 74.3874Z" fill="#F2F2F2"/>
<path d="M103.811 74.3016L98.903 74.3445L98.9529 79.2522L103.861 79.2094L103.811 74.3016Z" fill="#F2F2F2"/>
<path d="M113.626 74.2159L108.719 74.2588L108.768 79.1665L113.676 79.1236L113.626 74.2159Z" fill="#F2F2F2"/>
<path d="M123.442 74.1302L118.534 74.173L118.584 79.0808L123.492 79.0379L123.442 74.1302Z" fill="#F2F2F2"/>
<path d="M138.165 74.0015L133.257 74.0444L133.307 78.9521L138.215 78.9093L138.165 74.0015Z" fill="#F2F2F2"/>
<path d="M147.981 73.9158L143.073 73.9587L143.123 78.8664L148.03 78.8235L147.981 73.9158Z" fill="#F2F2F2"/>
<path d="M152.888 73.8729L147.981 73.9158L148.03 78.8235L152.938 78.7806L152.888 73.8729Z" fill="#F2F2F2"/>
<path d="M162.704 73.7872L157.796 73.83L157.846 78.7378L162.754 78.6949L162.704 73.7872Z" fill="#F2F2F2"/>
<path d="M172.519 73.7014L167.612 73.7443L167.661 78.652L172.569 78.6092L172.519 73.7014Z" fill="#F2F2F2"/>
<path d="M182.335 73.6157L177.427 73.6586L177.477 78.5663L182.385 78.5234L182.335 73.6157Z" fill="#F2F2F2"/>
<path d="M5.70553 80.0668L0.797773 80.1097L0.847633 85.0174L5.75539 84.9745L5.70553 80.0668Z" fill="#F2F2F2"/>
<path d="M10.6133 80.0239L5.70553 80.0668L5.75539 84.9745L10.6631 84.9317L10.6133 80.0239Z" fill="#F2F2F2"/>
<path d="M15.521 79.9811L10.6133 80.0239L10.6631 84.9317L15.5709 84.8888L15.521 79.9811Z" fill="#F2F2F2"/>
<path d="M20.4288 79.9382L15.521 79.9811L15.5709 84.8888L20.4787 84.8459L20.4288 79.9382Z" fill="#F2F2F2"/>
<path d="M30.2443 79.8525L25.3366 79.8953L25.3864 84.803L30.2942 84.7602L30.2443 79.8525Z" fill="#F2F2F2"/>
<path d="M35.1521 79.8096L30.2443 79.8525L30.2942 84.7602L35.2019 84.7173L35.1521 79.8096Z" fill="#F2F2F2"/>
<path d="M40.0598 79.7667L35.1521 79.8096L35.2019 84.7173L40.1097 84.6744L40.0598 79.7667Z" fill="#F2F2F2"/>
<path d="M59.6908 79.5952L54.7831 79.6381L54.833 84.5458L59.7407 84.5029L59.6908 79.5952Z" fill="#F2F2F2"/>
<path d="M79.3219 79.4237L74.4141 79.4666L74.464 84.3743L79.3717 84.3314L79.3219 79.4237Z" fill="#F2F2F2"/>
<path d="M84.2296 79.3809L79.3219 79.4237L79.3717 84.3314L84.2795 84.2886L84.2296 79.3809Z" fill="#F2F2F2"/>
<path d="M113.676 79.1236L108.768 79.1665L108.818 84.0742L113.726 84.0313L113.676 79.1236Z" fill="#F2F2F2"/>
<path d="M118.584 79.0808L113.676 79.1236L113.726 84.0313L118.634 83.9885L118.584 79.0808Z" fill="#F2F2F2"/>
<path d="M123.492 79.0379L118.584 79.0808L118.634 83.9885L123.542 83.9456L123.492 79.0379Z" fill="#F2F2F2"/>
<path d="M128.399 78.995L123.492 79.0379L123.542 83.9456L128.449 83.9027L128.399 78.995Z" fill="#F2F2F2"/>
<path d="M152.938 78.7806L148.03 78.8235L148.08 83.7312L152.988 83.6883L152.938 78.7806Z" fill="#F2F2F2"/>
<path d="M162.754 78.6949L157.846 78.7378L157.896 83.6455L162.804 83.6026L162.754 78.6949Z" fill="#F2F2F2"/>
<path d="M167.661 78.652L162.754 78.6949L162.804 83.6026L167.711 83.5597L167.661 78.652Z" fill="#F2F2F2"/>
<path d="M172.569 78.6092L167.661 78.652L167.711 83.5597L172.619 83.5169L172.569 78.6092Z" fill="#F2F2F2"/>
<path d="M5.75539 84.9745L0.847633 85.0174L0.897494 89.9251L5.80525 89.8823L5.75539 84.9745Z" fill="#F2F2F2"/>
<path d="M54.833 84.5458L49.9252 84.5887L49.9751 89.4964L54.8828 89.4535L54.833 84.5458Z" fill="#F2F2F2"/>
<path d="M64.6485 84.4601L59.7407 84.5029L59.7906 89.4107L64.6983 89.3678L64.6485 84.4601Z" fill="#F2F2F2"/>
<path d="M69.5562 84.4172L64.6485 84.4601L64.6983 89.3678L69.6061 89.3249L69.5562 84.4172Z" fill="#F2F2F2"/>
<path d="M74.464 84.3743L69.5562 84.4172L69.6061 89.3249L74.5138 89.282L74.464 84.3743Z" fill="#F2F2F2"/>
<path d="M79.3717 84.3314L74.464 84.3743L74.5138 89.282L79.4216 89.2392L79.3717 84.3314Z" fill="#F2F2F2"/>
<path d="M94.095 84.2028L89.1873 84.2457L89.2371 89.1534L94.1449 89.1105L94.095 84.2028Z" fill="#F2F2F2"/>
<path d="M103.911 84.1171L99.0028 84.16L99.0526 89.0677L103.96 89.0248L103.911 84.1171Z" fill="#F2F2F2"/>
<path d="M123.542 83.9456L118.634 83.9885L118.684 88.8962L123.591 88.8533L123.542 83.9456Z" fill="#F2F2F2"/>
<path d="M148.08 83.7312L143.173 83.7741L143.222 88.6818L148.13 88.6389L148.08 83.7312Z" fill="#F2F2F2"/>
<path d="M157.896 83.6455L152.988 83.6883L153.038 88.5961L157.946 88.5532L157.896 83.6455Z" fill="#F2F2F2"/>
<path d="M5.80525 89.8823L0.897494 89.9251L0.947355 94.8328L5.85511 94.7899L5.80525 89.8823Z" fill="#F2F2F2"/>
<path d="M25.4363 89.7108L20.5285 89.7536L20.5784 94.6613L25.4861 94.6185L25.4363 89.7108Z" fill="#F2F2F2"/>
<path d="M30.344 89.6679L25.4363 89.7108L25.4861 94.6185L30.3939 94.5756L30.344 89.6679Z" fill="#F2F2F2"/>
<path d="M35.2518 89.625L30.344 89.6679L30.3939 94.5756L35.3017 94.5327L35.2518 89.625Z" fill="#F2F2F2"/>
<path d="M45.0673 89.5393L40.1595 89.5821L40.2094 94.4898L45.1172 94.447L45.0673 89.5393Z" fill="#F2F2F2"/>
<path d="M54.8828 89.4535L49.9751 89.4964L50.0249 94.4041L54.9327 94.3612L54.8828 89.4535Z" fill="#F2F2F2"/>
<path d="M59.7906 89.4107L54.8828 89.4535L54.9327 94.3612L59.8404 94.3183L59.7906 89.4107Z" fill="#F2F2F2"/>
<path d="M69.6061 89.3249L64.6983 89.3678L64.7482 94.2755L69.6559 94.2326L69.6061 89.3249Z" fill="#F2F2F2"/>
<path d="M79.4216 89.2392L74.5138 89.282L74.5637 94.1897L79.4715 94.1469L79.4216 89.2392Z" fill="#F2F2F2"/>
<path d="M89.2371 89.1534L84.3294 89.1963L84.3792 94.104L89.287 94.0611L89.2371 89.1534Z" fill="#F2F2F2"/>
<path d="M99.0526 89.0677L94.1449 89.1105L94.1947 94.0182L99.1025 93.9754L99.0526 89.0677Z" fill="#F2F2F2"/>
<path d="M103.96 89.0248L99.0526 89.0677L99.1025 93.9754L104.01 93.9325L103.96 89.0248Z" fill="#F2F2F2"/>
<path d="M108.868 88.9819L103.96 89.0248L104.01 93.9325L108.918 93.8896L108.868 88.9819Z" fill="#F2F2F2"/>
<path d="M113.776 88.939L108.868 88.9819L108.918 93.8896L113.826 93.8467L113.776 88.939Z" fill="#F2F2F2"/>
<path d="M123.591 88.8533L118.684 88.8962L118.734 93.8039L123.641 93.761L123.591 88.8533Z" fill="#F2F2F2"/>
<path d="M148.13 88.6389L143.222 88.6818L143.272 93.5895L148.18 93.5466L148.13 88.6389Z" fill="#F2F2F2"/>
<path d="M157.946 88.5532L153.038 88.5961L153.088 93.5038L157.996 93.4609L157.946 88.5532Z" fill="#F2F2F2"/>
<path d="M167.761 88.4674L162.853 88.5103L162.903 93.418L167.811 93.3752L167.761 88.4674Z" fill="#F2F2F2"/>
<path d="M177.577 88.3817L172.669 88.4246L172.719 93.3323L177.627 93.2894L177.577 88.3817Z" fill="#F2F2F2"/>
<path d="M182.484 88.3388L177.577 88.3817L177.627 93.2894L182.534 93.2465L182.484 88.3388Z" fill="#F2F2F2"/>
<path d="M5.85511 94.7899L0.947355 94.8328L0.997216 99.7405L5.90497 99.6977L5.85511 94.7899Z" fill="#F2F2F2"/>
<path d="M10.7629 94.7471L5.85511 94.7899L5.90497 99.6977L10.8127 99.6548L10.7629 94.7471Z" fill="#F2F2F2"/>
<path d="M15.6706 94.7042L10.7629 94.7471L10.8127 99.6548L15.7205 99.6119L15.6706 94.7042Z" fill="#F2F2F2"/>
<path d="M20.5784 94.6613L15.6706 94.7042L15.7205 99.6119L20.6282 99.5691L20.5784 94.6613Z" fill="#F2F2F2"/>
<path d="M25.4861 94.6185L20.5784 94.6613L20.6282 99.5691L25.536 99.5262L25.4861 94.6185Z" fill="#F2F2F2"/>
<path d="M64.7482 94.2755L59.8404 94.3183L59.8903 99.2261L64.7981 99.1832L64.7482 94.2755Z" fill="#F2F2F2"/>
<path d="M69.6559 94.2326L64.7482 94.2755L64.7981 99.1832L69.7058 99.1403L69.6559 94.2326Z" fill="#F2F2F2"/>
<path d="M99.1025 93.9754L94.1947 94.0182L94.2446 98.926L99.1524 98.8831L99.1025 93.9754Z" fill="#F2F2F2"/>
<path d="M104.01 93.9325L99.1025 93.9754L99.1524 98.8831L104.06 98.8402L104.01 93.9325Z" fill="#F2F2F2"/>
<path d="M123.641 93.761L118.734 93.8039L118.783 98.7116L123.691 98.6687L123.641 93.761Z" fill="#F2F2F2"/>
<path d="M148.18 93.5466L143.272 93.5895L143.322 98.4972L148.23 98.4544L148.18 93.5466Z" fill="#F2F2F2"/>
<path d="M153.088 93.5038L148.18 93.5466L148.23 98.4544L153.138 98.4115L153.088 93.5038Z" fill="#F2F2F2"/>
<path d="M157.996 93.4609L153.088 93.5038L153.138 98.4115L158.045 98.3686L157.996 93.4609Z" fill="#F2F2F2"/>
<path d="M162.903 93.418L157.996 93.4609L158.045 98.3686L162.953 98.3257L162.903 93.418Z" fill="#F2F2F2"/>
<path d="M172.719 93.3323L167.811 93.3752L167.861 98.2829L172.769 98.24L172.719 93.3323Z" fill="#F2F2F2"/>
<path d="M177.627 93.2894L172.719 93.3323L172.769 98.24L177.676 98.1971L177.627 93.2894Z" fill="#F2F2F2"/>
<path d="M15.7205 99.6119L10.8127 99.6548L10.8626 104.563L15.7703 104.52L15.7205 99.6119Z" fill="#F2F2F2"/>
<path d="M20.6282 99.5691L15.7205 99.6119L15.7703 104.52L20.6781 104.477L20.6282 99.5691Z" fill="#F2F2F2"/>
<path d="M35.3515 99.4404L30.4438 99.4833L30.4936 104.391L35.4014 104.348L35.3515 99.4404Z" fill="#F2F2F2"/>
<path d="M45.167 99.3547L40.2593 99.3976L40.3091 104.305L45.2169 104.262L45.167 99.3547Z" fill="#F2F2F2"/>
<path d="M50.0748 99.3118L45.167 99.3547L45.2169 104.262L50.1246 104.22L50.0748 99.3118Z" fill="#F2F2F2"/>
<path d="M54.9825 99.2689L50.0748 99.3118L50.1246 104.22L55.0324 104.177L54.9825 99.2689Z" fill="#F2F2F2"/>
<path d="M89.3368 98.9688L84.4291 99.0117L84.4789 103.919L89.3867 103.877L89.3368 98.9688Z" fill="#F2F2F2"/>
<path d="M94.2446 98.926L89.3368 98.9688L89.3867 103.877L94.2944 103.834L94.2446 98.926Z" fill="#F2F2F2"/>
<path d="M99.1524 98.8831L94.2446 98.926L94.2944 103.834L99.2022 103.791L99.1524 98.8831Z" fill="#F2F2F2"/>
<path d="M113.876 98.7545L108.968 98.7973L109.018 103.705L113.925 103.662L113.876 98.7545Z" fill="#F2F2F2"/>
<path d="M118.783 98.7116L113.876 98.7545L113.925 103.662L118.833 103.619L118.783 98.7116Z" fill="#F2F2F2"/>
<path d="M133.507 98.583L128.599 98.6259L128.649 103.534L133.557 103.491L133.507 98.583Z" fill="#F2F2F2"/>
<path d="M138.414 98.5401L133.507 98.583L133.557 103.491L138.464 103.448L138.414 98.5401Z" fill="#F2F2F2"/>
<path d="M158.045 98.3686L153.138 98.4115L153.188 103.319L158.095 103.276L158.045 98.3686Z" fill="#F2F2F2"/>
<path d="M177.676 98.1971L172.769 98.24L172.819 103.148L177.726 103.105L177.676 98.1971Z" fill="#F2F2F2"/>
<path d="M182.584 98.1543L177.676 98.1971L177.726 103.105L182.634 103.062L182.584 98.1543Z" fill="#F2F2F2"/>
<path d="M5.95483 104.605L1.04708 104.648L1.09694 109.556L6.00469 109.513L5.95483 104.605Z" fill="#F2F2F2"/>
<path d="M15.7703 104.52L10.8626 104.563L10.9124 109.47L15.8202 109.427L15.7703 104.52Z" fill="#F2F2F2"/>
<path d="M20.6781 104.477L15.7703 104.52L15.8202 109.427L20.728 109.384L20.6781 104.477Z" fill="#F2F2F2"/>
<path d="M30.4936 104.391L25.5859 104.434L25.6357 109.342L30.5435 109.299L30.4936 104.391Z" fill="#F2F2F2"/>
<path d="M40.3091 104.305L35.4014 104.348L35.4512 109.256L40.359 109.213L40.3091 104.305Z" fill="#F2F2F2"/>
<path d="M45.2169 104.262L40.3091 104.305L40.359 109.213L45.2668 109.17L45.2169 104.262Z" fill="#F2F2F2"/>
<path d="M50.1246 104.22L45.2169 104.262L45.2668 109.17L50.1745 109.127L50.1246 104.22Z" fill="#F2F2F2"/>
<path d="M74.6634 104.005L69.7557 104.048L69.8055 108.956L74.7133 108.913L74.6634 104.005Z" fill="#F2F2F2"/>
<path d="M84.4789 103.919L79.5712 103.962L79.621 108.87L84.5288 108.827L84.4789 103.919Z" fill="#F2F2F2"/>
<path d="M94.2944 103.834L89.3867 103.877L89.4366 108.784L94.3443 108.741L94.2944 103.834Z" fill="#F2F2F2"/>
<path d="M109.018 103.705L104.11 103.748L104.16 108.656L109.068 108.613L109.018 103.705Z" fill="#F2F2F2"/>
<path d="M118.833 103.619L113.925 103.662L113.975 108.57L118.883 108.527L118.833 103.619Z" fill="#F2F2F2"/>
<path d="M123.741 103.576L118.833 103.619L118.883 108.527L123.791 108.484L123.741 103.576Z" fill="#F2F2F2"/>
<path d="M133.557 103.491L128.649 103.534L128.699 108.441L133.606 108.398L133.557 103.491Z" fill="#F2F2F2"/>
<path d="M153.188 103.319L148.28 103.362L148.33 108.27L153.237 108.227L153.188 103.319Z" fill="#F2F2F2"/>
<path d="M163.003 103.233L158.095 103.276L158.145 108.184L163.053 108.141L163.003 103.233Z" fill="#F2F2F2"/>
<path d="M172.819 103.148L167.911 103.191L167.961 108.098L172.868 108.055L172.819 103.148Z" fill="#F2F2F2"/>
<path d="M10.9124 109.47L6.00469 109.513L6.05455 114.421L10.9623 114.378L10.9124 109.47Z" fill="#F2F2F2"/>
<path d="M15.8202 109.427L10.9124 109.47L10.9623 114.378L15.8701 114.335L15.8202 109.427Z" fill="#F2F2F2"/>
<path d="M20.728 109.384L15.8202 109.427L15.8701 114.335L20.7778 114.292L20.728 109.384Z" fill="#F2F2F2"/>
<path d="M30.5435 109.299L25.6357 109.342L25.6856 114.249L30.5933 114.206L30.5435 109.299Z" fill="#F2F2F2"/>
<path d="M35.4512 109.256L30.5435 109.299L30.5933 114.206L35.5011 114.164L35.4512 109.256Z" fill="#F2F2F2"/>
<path d="M45.2668 109.17L40.359 109.213L40.4089 114.121L45.3166 114.078L45.2668 109.17Z" fill="#F2F2F2"/>
<path d="M50.1745 109.127L45.2668 109.17L45.3166 114.078L50.2244 114.035L50.1745 109.127Z" fill="#F2F2F2"/>
<path d="M55.0823 109.084L50.1745 109.127L50.2244 114.035L55.1321 113.992L55.0823 109.084Z" fill="#F2F2F2"/>
<path d="M59.99 109.041L55.0823 109.084L55.1321 113.992L60.0399 113.949L59.99 109.041Z" fill="#F2F2F2"/>
<path d="M89.4366 108.784L84.5288 108.827L84.5787 113.735L89.4864 113.692L89.4366 108.784Z" fill="#F2F2F2"/>
<path d="M94.3443 108.741L89.4366 108.784L89.4864 113.692L94.3942 113.649L94.3443 108.741Z" fill="#F2F2F2"/>
<path d="M99.2521 108.699L94.3443 108.741L94.3942 113.649L99.3019 113.606L99.2521 108.699Z" fill="#F2F2F2"/>
<path d="M104.16 108.656L99.2521 108.699L99.3019 113.606L104.21 113.563L104.16 108.656Z" fill="#F2F2F2"/>
<path d="M113.975 108.57L109.068 108.613L109.117 113.52L114.025 113.478L113.975 108.57Z" fill="#F2F2F2"/>
<path d="M138.514 108.356L133.606 108.398L133.656 113.306L138.564 113.263L138.514 108.356Z" fill="#F2F2F2"/>
<path d="M143.422 108.313L138.514 108.356L138.564 113.263L143.472 113.22L143.422 108.313Z" fill="#F2F2F2"/>
<path d="M148.33 108.27L143.422 108.313L143.472 113.22L148.379 113.177L148.33 108.27Z" fill="#F2F2F2"/>
<path d="M153.237 108.227L148.33 108.27L148.379 113.177L153.287 113.135L153.237 108.227Z" fill="#F2F2F2"/>
<path d="M158.145 108.184L153.237 108.227L153.287 113.135L158.195 113.092L158.145 108.184Z" fill="#F2F2F2"/>
<path d="M182.684 107.97L177.776 108.013L177.826 112.92L182.734 112.877L182.684 107.97Z" fill="#F2F2F2"/>
<path d="M6.05455 114.421L1.1468 114.464L1.19666 119.371L6.10442 119.329L6.05455 114.421Z" fill="#F2F2F2"/>
<path d="M25.6856 114.249L20.7778 114.292L20.8277 119.2L25.7354 119.157L25.6856 114.249Z" fill="#F2F2F2"/>
<path d="M40.4089 114.121L35.5011 114.164L35.551 119.071L40.4587 119.028L40.4089 114.121Z" fill="#F2F2F2"/>
<path d="M55.1321 113.992L50.2244 114.035L50.2742 118.943L55.182 118.9L55.1321 113.992Z" fill="#F2F2F2"/>
<path d="M60.0399 113.949L55.1321 113.992L55.182 118.9L60.0897 118.857L60.0399 113.949Z" fill="#F2F2F2"/>
<path d="M69.8554 113.863L64.9476 113.906L64.9975 118.814L69.9052 118.771L69.8554 113.863Z" fill="#F2F2F2"/>
<path d="M79.6709 113.778L74.7631 113.821L74.813 118.728L79.7208 118.685L79.6709 113.778Z" fill="#F2F2F2"/>
<path d="M84.5787 113.735L79.6709 113.778L79.7208 118.685L84.6285 118.643L84.5787 113.735Z" fill="#F2F2F2"/>
<path d="M94.3942 113.649L89.4864 113.692L89.5363 118.6L94.444 118.557L94.3942 113.649Z" fill="#F2F2F2"/>
<path d="M109.117 113.52L104.21 113.563L104.26 118.471L109.167 118.428L109.117 113.52Z" fill="#F2F2F2"/>
<path d="M133.656 113.306L128.748 113.349L128.798 118.257L133.706 118.214L133.656 113.306Z" fill="#F2F2F2"/>
<path d="M138.564 113.263L133.656 113.306L133.706 118.214L138.614 118.171L138.564 113.263Z" fill="#F2F2F2"/>
<path d="M143.472 113.22L138.564 113.263L138.614 118.171L143.522 118.128L143.472 113.22Z" fill="#F2F2F2"/>
<path d="M148.379 113.177L143.472 113.22L143.522 118.128L148.429 118.085L148.379 113.177Z" fill="#F2F2F2"/>
<path d="M153.287 113.135L148.379 113.177L148.429 118.085L153.337 118.042L153.287 113.135Z" fill="#F2F2F2"/>
<path d="M158.195 113.092L153.287 113.135L153.337 118.042L158.245 117.999L158.195 113.092Z" fill="#F2F2F2"/>
<path d="M163.103 113.049L158.195 113.092L158.245 117.999L163.153 117.957L163.103 113.049Z" fill="#F2F2F2"/>
<path d="M182.734 112.877L177.826 112.92L177.876 117.828L182.784 117.785L182.734 112.877Z" fill="#F2F2F2"/>
<path d="M6.10442 119.329L1.19666 119.371L1.24652 124.279L6.15428 124.236L6.10442 119.329Z" fill="#F2F2F2"/>
<path d="M15.9199 119.243L11.0122 119.286L11.062 124.193L15.9698 124.15L15.9199 119.243Z" fill="#F2F2F2"/>
<path d="M30.6432 119.114L25.7354 119.157L25.7853 124.065L30.6931 124.022L30.6432 119.114Z" fill="#F2F2F2"/>
<path d="M35.551 119.071L30.6432 119.114L30.6931 124.022L35.6008 123.979L35.551 119.071Z" fill="#F2F2F2"/>
<path d="M40.4587 119.028L35.551 119.071L35.6008 123.979L40.5086 123.936L40.4587 119.028Z" fill="#F2F2F2"/>
<path d="M45.3665 118.986L40.4587 119.028L40.5086 123.936L45.4163 123.893L45.3665 118.986Z" fill="#F2F2F2"/>
<path d="M55.182 118.9L50.2742 118.943L50.3241 123.85L55.2318 123.808L55.182 118.9Z" fill="#F2F2F2"/>
<path d="M89.5363 118.6L84.6285 118.643L84.6784 123.55L89.5861 123.507L89.5363 118.6Z" fill="#F2F2F2"/>
<path d="M99.3518 118.514L94.444 118.557L94.4939 123.465L99.4017 123.422L99.3518 118.514Z" fill="#F2F2F2"/>
<path d="M104.26 118.471L99.3518 118.514L99.4017 123.422L104.309 123.379L104.26 118.471Z" fill="#F2F2F2"/>
<path d="M109.167 118.428L104.26 118.471L104.309 123.379L109.217 123.336L109.167 118.428Z" fill="#F2F2F2"/>
<path d="M123.891 118.3L118.983 118.342L119.033 123.25L123.94 123.207L123.891 118.3Z" fill="#F2F2F2"/>
<path d="M133.706 118.214L128.798 118.257L128.848 123.164L133.756 123.122L133.706 118.214Z" fill="#F2F2F2"/>
<path d="M143.522 118.128L138.614 118.171L138.664 123.079L143.571 123.036L143.522 118.128Z" fill="#F2F2F2"/>
<path d="M168.06 117.914L163.153 117.957L163.202 122.864L168.11 122.821L168.06 117.914Z" fill="#F2F2F2"/>
<path d="M177.876 117.828L172.968 117.871L173.018 122.779L177.926 122.736L177.876 117.828Z" fill="#F2F2F2"/>
<path d="M182.784 117.785L177.876 117.828L177.926 122.736L182.834 122.693L182.784 117.785Z" fill="#F2F2F2"/>
<path d="M6.15428 124.236L1.24652 124.279L1.29638 129.187L6.20414 129.144L6.15428 124.236Z" fill="#F2F2F2"/>
<path d="M20.8775 124.108L15.9698 124.15L16.0197 129.058L20.9274 129.015L20.8775 124.108Z" fill="#F2F2F2"/>
<path d="M30.6931 124.022L25.7853 124.065L25.8352 128.972L30.7429 128.93L30.6931 124.022Z" fill="#F2F2F2"/>
<path d="M45.4163 123.893L40.5086 123.936L40.5584 128.844L45.4662 128.801L45.4163 123.893Z" fill="#F2F2F2"/>
<path d="M50.3241 123.85L45.4163 123.893L45.4662 128.801L50.3739 128.758L50.3241 123.85Z" fill="#F2F2F2"/>
<path d="M69.9551 123.679L65.0474 123.722L65.0972 128.629L70.005 128.587L69.9551 123.679Z" fill="#F2F2F2"/>
<path d="M84.6784 123.55L79.7706 123.593L79.8205 128.501L84.7282 128.458L84.6784 123.55Z" fill="#F2F2F2"/>
<path d="M94.4939 123.465L89.5861 123.507L89.636 128.415L94.5437 128.372L94.4939 123.465Z" fill="#F2F2F2"/>
<path d="M104.309 123.379L99.4017 123.422L99.4515 128.329L104.359 128.286L104.309 123.379Z" fill="#F2F2F2"/>
<path d="M123.94 123.207L119.033 123.25L119.083 128.158L123.99 128.115L123.94 123.207Z" fill="#F2F2F2"/>
<path d="M128.848 123.164L123.94 123.207L123.99 128.115L128.898 128.072L128.848 123.164Z" fill="#F2F2F2"/>
<path d="M133.756 123.122L128.848 123.164L128.898 128.072L133.806 128.029L133.756 123.122Z" fill="#F2F2F2"/>
<path d="M143.571 123.036L138.664 123.079L138.714 127.986L143.621 127.944L143.571 123.036Z" fill="#F2F2F2"/>
<path d="M148.479 122.993L143.571 123.036L143.621 127.944L148.529 127.901L148.479 122.993Z" fill="#F2F2F2"/>
<path d="M158.295 122.907L153.387 122.95L153.437 127.858L158.345 127.815L158.295 122.907Z" fill="#F2F2F2"/>
<path d="M173.018 122.779L168.11 122.821L168.16 127.729L173.068 127.686L173.018 122.779Z" fill="#F2F2F2"/>
<path d="M35.6507 128.887L30.7429 128.93L30.7928 133.837L35.7005 133.794L35.6507 128.887Z" fill="#F2F2F2"/>
<path d="M55.2817 128.715L50.3739 128.758L50.4238 133.666L55.3316 133.623L55.2817 128.715Z" fill="#F2F2F2"/>
<path d="M89.636 128.415L84.7282 128.458L84.7781 133.366L89.6859 133.323L89.636 128.415Z" fill="#F2F2F2"/>
<path d="M99.4515 128.329L94.5437 128.372L94.5936 133.28L99.5014 133.237L99.4515 128.329Z" fill="#F2F2F2"/>
<path d="M109.267 128.244L104.359 128.286L104.409 133.194L109.317 133.151L109.267 128.244Z" fill="#F2F2F2"/>
<path d="M114.175 128.201L109.267 128.244L109.317 133.151L114.225 133.108L114.175 128.201Z" fill="#F2F2F2"/>
<path d="M123.99 128.115L119.083 128.158L119.132 133.066L124.04 133.023L123.99 128.115Z" fill="#F2F2F2"/>
<path d="M133.806 128.029L128.898 128.072L128.948 132.98L133.856 132.937L133.806 128.029Z" fill="#F2F2F2"/>
<path d="M138.714 127.986L133.806 128.029L133.856 132.937L138.763 132.894L138.714 127.986Z" fill="#F2F2F2"/>
<path d="M143.621 127.944L138.714 127.986L138.763 132.894L143.671 132.851L143.621 127.944Z" fill="#F2F2F2"/>
<path d="M163.252 127.772L158.345 127.815L158.394 132.723L163.302 132.68L163.252 127.772Z" fill="#F2F2F2"/>
<path d="M168.16 127.729L163.252 127.772L163.302 132.68L168.21 132.637L168.16 127.729Z" fill="#F2F2F2"/>
<path d="M177.976 127.643L173.068 127.686L173.118 132.594L178.025 132.551L177.976 127.643Z" fill="#F2F2F2"/>
<path d="M16.0695 133.966L11.1618 134.009L11.2116 138.916L16.1194 138.874L16.0695 133.966Z" fill="#F2F2F2"/>
<path d="M20.9773 133.923L16.0695 133.966L16.1194 138.874L21.0271 138.831L20.9773 133.923Z" fill="#F2F2F2"/>
<path d="M45.5161 133.709L40.6083 133.752L40.6582 138.659L45.5659 138.616L45.5161 133.709Z" fill="#F2F2F2"/>
<path d="M50.4238 133.666L45.5161 133.709L45.5659 138.616L50.4737 138.574L50.4238 133.666Z" fill="#F2F2F2"/>
<path d="M55.3316 133.623L50.4238 133.666L50.4737 138.574L55.3814 138.531L55.3316 133.623Z" fill="#F2F2F2"/>
<path d="M60.2393 133.58L55.3316 133.623L55.3814 138.531L60.2892 138.488L60.2393 133.58Z" fill="#F2F2F2"/>
<path d="M65.1471 133.537L60.2393 133.58L60.2892 138.488L65.1969 138.445L65.1471 133.537Z" fill="#F2F2F2"/>
<path d="M70.0548 133.494L65.1471 133.537L65.1969 138.445L70.1047 138.402L70.0548 133.494Z" fill="#F2F2F2"/>
<path d="M74.9626 133.451L70.0548 133.494L70.1047 138.402L75.0124 138.359L74.9626 133.451Z" fill="#F2F2F2"/>
<path d="M84.7781 133.366L79.8703 133.409L79.9202 138.316L84.828 138.273L84.7781 133.366Z" fill="#F2F2F2"/>
<path d="M89.6859 133.323L84.7781 133.366L84.828 138.273L89.7357 138.231L89.6859 133.323Z" fill="#F2F2F2"/>
<path d="M94.5936 133.28L89.6859 133.323L89.7357 138.231L94.6435 138.188L94.5936 133.28Z" fill="#F2F2F2"/>
<path d="M109.317 133.151L104.409 133.194L104.459 138.102L109.367 138.059L109.317 133.151Z" fill="#F2F2F2"/>
<path d="M114.225 133.108L109.317 133.151L109.367 138.059L114.275 138.016L114.225 133.108Z" fill="#F2F2F2"/>
<path d="M119.132 133.066L114.225 133.108L114.275 138.016L119.182 137.973L119.132 133.066Z" fill="#F2F2F2"/>
<path d="M128.948 132.98L124.04 133.023L124.09 137.93L128.998 137.888L128.948 132.98Z" fill="#F2F2F2"/>
<path d="M133.856 132.937L128.948 132.98L128.998 137.888L133.906 137.845L133.856 132.937Z" fill="#F2F2F2"/>
<path d="M163.302 132.68L158.394 132.723L158.444 137.63L163.352 137.587L163.302 132.68Z" fill="#F2F2F2"/>
<path d="M168.21 132.637L163.302 132.68L163.352 137.587L168.26 137.545L168.21 132.637Z" fill="#F2F2F2"/>
<path d="M173.118 132.594L168.21 132.637L168.26 137.545L173.168 137.502L173.118 132.594Z" fill="#F2F2F2"/>
<path d="M178.025 132.551L173.118 132.594L173.168 137.502L178.075 137.459L178.025 132.551Z" fill="#F2F2F2"/>
<path d="M182.933 132.508L178.025 132.551L178.075 137.459L182.983 137.416L182.933 132.508Z" fill="#F2F2F2"/>
<path d="M6.30386 138.959L1.3961 139.002L1.44596 143.91L6.35372 143.867L6.30386 138.959Z" fill="#F2F2F2"/>
<path d="M25.9349 138.788L21.0271 138.831L21.077 143.738L25.9847 143.696L25.9349 138.788Z" fill="#F2F2F2"/>
<path d="M35.7504 138.702L30.8426 138.745L30.8925 143.653L35.8003 143.61L35.7504 138.702Z" fill="#F2F2F2"/>
<path d="M45.5659 138.616L40.6582 138.659L40.708 143.567L45.6158 143.524L45.5659 138.616Z" fill="#F2F2F2"/>
<path d="M50.4737 138.574L45.5659 138.616L45.6158 143.524L50.5235 143.481L50.4737 138.574Z" fill="#F2F2F2"/>
<path d="M55.3814 138.531L50.4737 138.574L50.5235 143.481L55.4313 143.438L55.3814 138.531Z" fill="#F2F2F2"/>
<path d="M60.2892 138.488L55.3814 138.531L55.4313 143.438L60.339 143.395L60.2892 138.488Z" fill="#F2F2F2"/>
<path d="M70.1047 138.402L65.1969 138.445L65.2468 143.353L70.1545 143.31L70.1047 138.402Z" fill="#F2F2F2"/>
<path d="M75.0124 138.359L70.1047 138.402L70.1545 143.31L75.0623 143.267L75.0124 138.359Z" fill="#F2F2F2"/>
<path d="M79.9202 138.316L75.0124 138.359L75.0623 143.267L79.9701 143.224L79.9202 138.316Z" fill="#F2F2F2"/>
<path d="M84.828 138.273L79.9202 138.316L79.9701 143.224L84.8778 143.181L84.828 138.273Z" fill="#F2F2F2"/>
<path d="M94.6435 138.188L89.7357 138.231L89.7856 143.138L94.6933 143.095L94.6435 138.188Z" fill="#F2F2F2"/>
<path d="M119.182 137.973L114.275 138.016L114.324 142.924L119.232 142.881L119.182 137.973Z" fill="#F2F2F2"/>
<path d="M133.906 137.845L128.998 137.888L129.048 142.795L133.955 142.752L133.906 137.845Z" fill="#F2F2F2"/>
<path d="M138.813 137.802L133.906 137.845L133.955 142.752L138.863 142.71L138.813 137.802Z" fill="#F2F2F2"/>
<path d="M143.721 137.759L138.813 137.802L138.863 142.71L143.771 142.667L143.721 137.759Z" fill="#F2F2F2"/>
<path d="M148.629 137.716L143.721 137.759L143.771 142.667L148.679 142.624L148.629 137.716Z" fill="#F2F2F2"/>
<path d="M153.537 137.673L148.629 137.716L148.679 142.624L153.586 142.581L153.537 137.673Z" fill="#F2F2F2"/>
<path d="M158.444 137.63L153.537 137.673L153.586 142.581L158.494 142.538L158.444 137.63Z" fill="#F2F2F2"/>
<path d="M163.352 137.587L158.444 137.63L158.494 142.538L163.402 142.495L163.352 137.587Z" fill="#F2F2F2"/>
<path d="M178.075 137.459L173.168 137.502L173.217 142.409L178.125 142.367L178.075 137.459Z" fill="#F2F2F2"/>
<path d="M182.983 137.416L178.075 137.459L178.125 142.367L183.033 142.324L182.983 137.416Z" fill="#F2F2F2"/>
<path d="M45.6158 143.524L40.708 143.567L40.7579 148.475L45.6656 148.432L45.6158 143.524Z" fill="#F2F2F2"/>
<path d="M50.5235 143.481L45.6158 143.524L45.6656 148.432L50.5734 148.389L50.5235 143.481Z" fill="#F2F2F2"/>
<path d="M60.339 143.395L55.4313 143.438L55.4811 148.346L60.3889 148.303L60.339 143.395Z" fill="#F2F2F2"/>
<path d="M70.1545 143.31L65.2468 143.353L65.2967 148.26L70.2044 148.217L70.1545 143.31Z" fill="#F2F2F2"/>
<path d="M79.9701 143.224L75.0623 143.267L75.1122 148.175L80.0199 148.132L79.9701 143.224Z" fill="#F2F2F2"/>
<path d="M89.7856 143.138L84.8778 143.181L84.9277 148.089L89.8354 148.046L89.7856 143.138Z" fill="#F2F2F2"/>
<path d="M94.6933 143.095L89.7856 143.138L89.8354 148.046L94.7432 148.003L94.6933 143.095Z" fill="#F2F2F2"/>
<path d="M104.509 143.01L99.6011 143.052L99.651 147.96L104.559 147.917L104.509 143.01Z" fill="#F2F2F2"/>
<path d="M109.417 142.967L104.509 143.01L104.559 147.917L109.466 147.874L109.417 142.967Z" fill="#F2F2F2"/>
<path d="M114.324 142.924L109.417 142.967L109.466 147.874L114.374 147.832L114.324 142.924Z" fill="#F2F2F2"/>
<path d="M119.232 142.881L114.324 142.924L114.374 147.832L119.282 147.789L119.232 142.881Z" fill="#F2F2F2"/>
<path d="M124.14 142.838L119.232 142.881L119.282 147.789L124.19 147.746L124.14 142.838Z" fill="#F2F2F2"/>
<path d="M129.048 142.795L124.14 142.838L124.19 147.746L129.097 147.703L129.048 142.795Z" fill="#F2F2F2"/>
<path d="M143.771 142.667L138.863 142.71L138.913 147.617L143.821 147.574L143.771 142.667Z" fill="#F2F2F2"/>
<path d="M163.402 142.495L158.494 142.538L158.544 147.446L163.452 147.403L163.402 142.495Z" fill="#F2F2F2"/>
<path d="M168.31 142.452L163.402 142.495L163.452 147.403L168.36 147.36L168.31 142.452Z" fill="#F2F2F2"/>
<path d="M173.217 142.409L168.31 142.452L168.36 147.36L173.267 147.317L173.217 142.409Z" fill="#F2F2F2"/>
<path d="M6.40358 148.775L1.49582 148.818L1.54568 153.725L6.45344 153.683L6.40358 148.775Z" fill="#F2F2F2"/>
<path d="M11.3113 148.732L6.40358 148.775L6.45344 153.683L11.3612 153.64L11.3113 148.732Z" fill="#F2F2F2"/>
<path d="M16.2191 148.689L11.3113 148.732L11.3612 153.64L16.269 153.597L16.2191 148.689Z" fill="#F2F2F2"/>
<path d="M21.1268 148.646L16.2191 148.689L16.269 153.597L21.1767 153.554L21.1268 148.646Z" fill="#F2F2F2"/>
<path d="M26.0346 148.603L21.1268 148.646L21.1767 153.554L26.0845 153.511L26.0346 148.603Z" fill="#F2F2F2"/>
<path d="M30.9424 148.56L26.0346 148.603L26.0845 153.511L30.9922 153.468L30.9424 148.56Z" fill="#F2F2F2"/>
<path d="M35.8501 148.518L30.9424 148.56L30.9922 153.468L35.9 153.425L35.8501 148.518Z" fill="#F2F2F2"/>
<path d="M45.6656 148.432L40.7579 148.475L40.8077 153.382L45.7155 153.34L45.6656 148.432Z" fill="#F2F2F2"/>
<path d="M55.4811 148.346L50.5734 148.389L50.6232 153.297L55.531 153.254L55.4811 148.346Z" fill="#F2F2F2"/>
<path d="M60.3889 148.303L55.4811 148.346L55.531 153.254L60.4388 153.211L60.3889 148.303Z" fill="#F2F2F2"/>
<path d="M65.2967 148.26L60.3889 148.303L60.4388 153.211L65.3465 153.168L65.2967 148.26Z" fill="#F2F2F2"/>
<path d="M75.1122 148.175L70.2044 148.217L70.2543 153.125L75.162 153.082L75.1122 148.175Z" fill="#F2F2F2"/>
<path d="M80.0199 148.132L75.1122 148.175L75.162 153.082L80.0698 153.039L80.0199 148.132Z" fill="#F2F2F2"/>
<path d="M84.9277 148.089L80.0199 148.132L80.0698 153.039L84.9775 152.997L84.9277 148.089Z" fill="#F2F2F2"/>
<path d="M94.7432 148.003L89.8354 148.046L89.8853 152.954L94.793 152.911L94.7432 148.003Z" fill="#F2F2F2"/>
<path d="M99.651 147.96L94.7432 148.003L94.793 152.911L99.7008 152.868L99.651 147.96Z" fill="#F2F2F2"/>
<path d="M104.559 147.917L99.651 147.96L99.7008 152.868L104.609 152.825L104.559 147.917Z" fill="#F2F2F2"/>
<path d="M114.374 147.832L109.466 147.874L109.516 152.782L114.424 152.739L114.374 147.832Z" fill="#F2F2F2"/>
<path d="M119.282 147.789L114.374 147.832L114.424 152.739L119.332 152.696L119.282 147.789Z" fill="#F2F2F2"/>
<path d="M124.19 147.746L119.282 147.789L119.332 152.696L124.24 152.654L124.19 147.746Z" fill="#F2F2F2"/>
<path d="M134.005 147.66L129.097 147.703L129.147 152.611L134.055 152.568L134.005 147.66Z" fill="#F2F2F2"/>
<path d="M138.913 147.617L134.005 147.66L134.055 152.568L138.963 152.525L138.913 147.617Z" fill="#F2F2F2"/>
<path d="M143.821 147.574L138.913 147.617L138.963 152.525L143.871 152.482L143.821 147.574Z" fill="#F2F2F2"/>
<path d="M153.636 147.489L148.729 147.531L148.778 152.439L153.686 152.396L153.636 147.489Z" fill="#F2F2F2"/>
<path d="M163.452 147.403L158.544 147.446L158.594 152.353L163.502 152.311L163.452 147.403Z" fill="#F2F2F2"/>
<path d="M168.36 147.36L163.452 147.403L163.502 152.311L168.409 152.268L168.36 147.36Z" fill="#F2F2F2"/>
<path d="M178.175 147.274L173.267 147.317L173.317 152.225L178.225 152.182L178.175 147.274Z" fill="#F2F2F2"/>
<path d="M6.45344 153.683L1.54568 153.725L1.59554 158.633L6.5033 158.59L6.45344 153.683Z" fill="#F2F2F2"/>
<path d="M35.9 153.425L30.9922 153.468L31.0421 158.376L35.9498 158.333L35.9 153.425Z" fill="#F2F2F2"/>
<path d="M60.4388 153.211L55.531 153.254L55.5809 158.161L60.4886 158.119L60.4388 153.211Z" fill="#F2F2F2"/>
<path d="M65.3465 153.168L60.4388 153.211L60.4886 158.119L65.3964 158.076L65.3465 153.168Z" fill="#F2F2F2"/>
<path d="M70.2543 153.125L65.3465 153.168L65.3964 158.076L70.3041 158.033L70.2543 153.125Z" fill="#F2F2F2"/>
<path d="M75.162 153.082L70.2543 153.125L70.3041 158.033L75.2119 157.99L75.162 153.082Z" fill="#F2F2F2"/>
<path d="M80.0698 153.039L75.162 153.082L75.2119 157.99L80.1197 157.947L80.0698 153.039Z" fill="#F2F2F2"/>
<path d="M89.8853 152.954L84.9775 152.997L85.0274 157.904L89.9352 157.861L89.8853 152.954Z" fill="#F2F2F2"/>
<path d="M114.424 152.739L109.516 152.782L109.566 157.69L114.474 157.647L114.424 152.739Z" fill="#F2F2F2"/>
<path d="M119.332 152.696L114.424 152.739L114.474 157.647L119.382 157.604L119.332 152.696Z" fill="#F2F2F2"/>
<path d="M124.24 152.654L119.332 152.696L119.382 157.604L124.289 157.561L124.24 152.654Z" fill="#F2F2F2"/>
<path d="M129.147 152.611L124.24 152.654L124.289 157.561L129.197 157.518L129.147 152.611Z" fill="#F2F2F2"/>
<path d="M134.055 152.568L129.147 152.611L129.197 157.518L134.105 157.476L134.055 152.568Z" fill="#F2F2F2"/>
<path d="M138.963 152.525L134.055 152.568L134.105 157.476L139.013 157.433L138.963 152.525Z" fill="#F2F2F2"/>
<path d="M143.871 152.482L138.963 152.525L139.013 157.433L143.92 157.39L143.871 152.482Z" fill="#F2F2F2"/>
<path d="M163.502 152.311L158.594 152.353L158.644 157.261L163.552 157.218L163.502 152.311Z" fill="#F2F2F2"/>
<path d="M183.133 152.139L178.225 152.182L178.275 157.09L183.183 157.047L183.133 152.139Z" fill="#F2F2F2"/>
<path d="M6.5033 158.59L1.59554 158.633L1.64541 163.541L6.55316 163.498L6.5033 158.59Z" fill="#F2F2F2"/>
<path d="M16.3188 158.504L11.4111 158.547L11.4609 163.455L16.3687 163.412L16.3188 158.504Z" fill="#F2F2F2"/>
<path d="M21.2266 158.462L16.3188 158.504L16.3687 163.412L21.2764 163.369L21.2266 158.462Z" fill="#F2F2F2"/>
<path d="M26.1343 158.419L21.2266 158.462L21.2764 163.369L26.1842 163.326L26.1343 158.419Z" fill="#F2F2F2"/>
<path d="M35.9498 158.333L31.0421 158.376L31.0919 163.284L35.9997 163.241L35.9498 158.333Z" fill="#F2F2F2"/>
<path d="M50.6731 158.204L45.7654 158.247L45.8152 163.155L50.723 163.112L50.6731 158.204Z" fill="#F2F2F2"/>
<path d="M75.2119 157.99L70.3041 158.033L70.354 162.941L75.2617 162.898L75.2119 157.99Z" fill="#F2F2F2"/>
<path d="M85.0274 157.904L80.1197 157.947L80.1695 162.855L85.0773 162.812L85.0274 157.904Z" fill="#F2F2F2"/>
<path d="M94.8429 157.818L89.9352 157.861L89.985 162.769L94.8928 162.726L94.8429 157.818Z" fill="#F2F2F2"/>
<path d="M99.7507 157.776L94.8429 157.818L94.8928 162.726L99.8005 162.683L99.7507 157.776Z" fill="#F2F2F2"/>
<path d="M104.658 157.733L99.7507 157.776L99.8005 162.683L104.708 162.64L104.658 157.733Z" fill="#F2F2F2"/>
<path d="M109.566 157.69L104.658 157.733L104.708 162.64L109.616 162.598L109.566 157.69Z" fill="#F2F2F2"/>
<path d="M114.474 157.647L109.566 157.69L109.616 162.598L114.524 162.555L114.474 157.647Z" fill="#F2F2F2"/>
<path d="M119.382 157.604L114.474 157.647L114.524 162.555L119.432 162.512L119.382 157.604Z" fill="#F2F2F2"/>
<path d="M134.105 157.476L129.197 157.518L129.247 162.426L134.155 162.383L134.105 157.476Z" fill="#F2F2F2"/>
<path d="M143.92 157.39L139.013 157.433L139.063 162.34L143.97 162.297L143.92 157.39Z" fill="#F2F2F2"/>
<path d="M148.828 157.347L143.92 157.39L143.97 162.297L148.878 162.255L148.828 157.347Z" fill="#F2F2F2"/>
<path d="M153.736 157.304L148.828 157.347L148.878 162.255L153.786 162.212L153.736 157.304Z" fill="#F2F2F2"/>
<path d="M158.644 157.261L153.736 157.304L153.786 162.212L158.694 162.169L158.644 157.261Z" fill="#F2F2F2"/>
<path d="M163.552 157.218L158.644 157.261L158.694 162.169L163.601 162.126L163.552 157.218Z" fill="#F2F2F2"/>
<path d="M178.275 157.09L173.367 157.133L173.417 162.04L178.325 161.997L178.275 157.09Z" fill="#F2F2F2"/>
<path d="M6.55316 163.498L1.64541 163.541L1.69527 168.448L6.60302 168.406L6.55316 163.498Z" fill="#F2F2F2"/>
<path d="M16.3687 163.412L11.4609 163.455L11.5108 168.363L16.4185 168.32L16.3687 163.412Z" fill="#F2F2F2"/>
<path d="M21.2764 163.369L16.3687 163.412L16.4185 168.32L21.3263 168.277L21.2764 163.369Z" fill="#F2F2F2"/>
<path d="M26.1842 163.326L21.2764 163.369L21.3263 168.277L26.2341 168.234L26.1842 163.326Z" fill="#F2F2F2"/>
<path d="M35.9997 163.241L31.0919 163.284L31.1418 168.191L36.0496 168.148L35.9997 163.241Z" fill="#F2F2F2"/>
<path d="M45.8152 163.155L40.9075 163.198L40.9573 168.106L45.8651 168.063L45.8152 163.155Z" fill="#F2F2F2"/>
<path d="M55.6307 163.069L50.723 163.112L50.7728 168.02L55.6806 167.977L55.6307 163.069Z" fill="#F2F2F2"/>
<path d="M65.4462 162.983L60.5385 163.026L60.5883 167.934L65.4961 167.891L65.4462 162.983Z" fill="#F2F2F2"/>
<path d="M70.354 162.941L65.4462 162.983L65.4961 167.891L70.4039 167.848L70.354 162.941Z" fill="#F2F2F2"/>
<path d="M75.2617 162.898L70.354 162.941L70.4039 167.848L75.3116 167.805L75.2617 162.898Z" fill="#F2F2F2"/>
<path d="M80.1695 162.855L75.2617 162.898L75.3116 167.805L80.2194 167.763L80.1695 162.855Z" fill="#F2F2F2"/>
<path d="M89.985 162.769L85.0773 162.812L85.1271 167.72L90.0349 167.677L89.985 162.769Z" fill="#F2F2F2"/>
<path d="M99.8005 162.683L94.8928 162.726L94.9426 167.634L99.8504 167.591L99.8005 162.683Z" fill="#F2F2F2"/>
<path d="M104.708 162.64L99.8005 162.683L99.8504 167.591L104.758 167.548L104.708 162.64Z" fill="#F2F2F2"/>
<path d="M114.524 162.555L109.616 162.598L109.666 167.505L114.574 167.462L114.524 162.555Z" fill="#F2F2F2"/>
<path d="M119.432 162.512L114.524 162.555L114.574 167.462L119.481 167.42L119.432 162.512Z" fill="#F2F2F2"/>
<path d="M134.155 162.383L129.247 162.426L129.297 167.334L134.205 167.291L134.155 162.383Z" fill="#F2F2F2"/>
<path d="M173.417 162.04L168.509 162.083L168.559 166.991L173.467 166.948L173.417 162.04Z" fill="#F2F2F2"/>
<path d="M183.232 161.955L178.325 161.997L178.375 166.905L183.282 166.862L183.232 161.955Z" fill="#F2F2F2"/>
<path d="M6.60302 168.406L1.69527 168.448L1.74513 173.356L6.65288 173.313L6.60302 168.406Z" fill="#F2F2F2"/>
<path d="M16.4185 168.32L11.5108 168.363L11.5606 173.27L16.4684 173.228L16.4185 168.32Z" fill="#F2F2F2"/>
<path d="M21.3263 168.277L16.4185 168.32L16.4684 173.228L21.3762 173.185L21.3263 168.277Z" fill="#F2F2F2"/>
<path d="M26.2341 168.234L21.3263 168.277L21.3762 173.185L26.2839 173.142L26.2341 168.234Z" fill="#F2F2F2"/>
<path d="M36.0496 168.148L31.1418 168.191L31.1917 173.099L36.0994 173.056L36.0496 168.148Z" fill="#F2F2F2"/>
<path d="M45.8651 168.063L40.9573 168.106L41.0072 173.013L45.9149 172.97L45.8651 168.063Z" fill="#F2F2F2"/>
<path d="M50.7728 168.02L45.8651 168.063L45.9149 172.97L50.8227 172.927L50.7728 168.02Z" fill="#F2F2F2"/>
<path d="M80.2194 167.763L75.3116 167.805L75.3615 172.713L80.2692 172.67L80.2194 167.763Z" fill="#F2F2F2"/>
<path d="M85.1271 167.72L80.2194 167.763L80.2692 172.67L85.177 172.627L85.1271 167.72Z" fill="#F2F2F2"/>
<path d="M94.9426 167.634L90.0349 167.677L90.0847 172.585L94.9925 172.542L94.9426 167.634Z" fill="#F2F2F2"/>
<path d="M109.666 167.505L104.758 167.548L104.808 172.456L109.716 172.413L109.666 167.505Z" fill="#F2F2F2"/>
<path d="M134.205 167.291L129.297 167.334L129.347 172.242L134.255 172.199L134.205 167.291Z" fill="#F2F2F2"/>
<path d="M139.112 167.248L134.205 167.291L134.255 172.199L139.162 172.156L139.112 167.248Z" fill="#F2F2F2"/>
<path d="M144.02 167.205L139.112 167.248L139.162 172.156L144.07 172.113L144.02 167.205Z" fill="#F2F2F2"/>
<path d="M163.651 167.034L158.743 167.077L158.793 171.984L163.701 171.941L163.651 167.034Z" fill="#F2F2F2"/>
<path d="M168.559 166.991L163.651 167.034L163.701 171.941L168.609 171.899L168.559 166.991Z" fill="#F2F2F2"/>
<path d="M173.467 166.948L168.559 166.991L168.609 171.899L173.517 171.856L173.467 166.948Z" fill="#F2F2F2"/>
<path d="M6.65288 173.313L1.74513 173.356L1.79499 178.264L6.70274 178.221L6.65288 173.313Z" fill="#F2F2F2"/>
<path d="M36.0994 173.056L31.1917 173.099L31.2415 178.007L36.1493 177.964L36.0994 173.056Z" fill="#F2F2F2"/>
<path d="M45.9149 172.97L41.0072 173.013L41.057 177.921L45.9648 177.878L45.9149 172.97Z" fill="#F2F2F2"/>
<path d="M50.8227 172.927L45.9149 172.97L45.9648 177.878L50.8726 177.835L50.8227 172.927Z" fill="#F2F2F2"/>
<path d="M55.7304 172.885L50.8227 172.927L50.8726 177.835L55.7803 177.792L55.7304 172.885Z" fill="#F2F2F2"/>
<path d="M70.4537 172.756L65.546 172.799L65.5958 177.707L70.5036 177.664L70.4537 172.756Z" fill="#F2F2F2"/>
<path d="M85.177 172.627L80.2692 172.67L80.3191 177.578L85.2268 177.535L85.177 172.627Z" fill="#F2F2F2"/>
<path d="M90.0847 172.585L85.177 172.627L85.2268 177.535L90.1346 177.492L90.0847 172.585Z" fill="#F2F2F2"/>
<path d="M114.624 172.37L109.716 172.413L109.766 177.321L114.673 177.278L114.624 172.37Z" fill="#F2F2F2"/>
<path d="M119.531 172.327L114.624 172.37L114.673 177.278L119.581 177.235L119.531 172.327Z" fill="#F2F2F2"/>
<path d="M134.255 172.199L129.347 172.242L129.397 177.149L134.304 177.106L134.255 172.199Z" fill="#F2F2F2"/>
<path d="M139.162 172.156L134.255 172.199L134.304 177.106L139.212 177.063L139.162 172.156Z" fill="#F2F2F2"/>
<path d="M144.07 172.113L139.162 172.156L139.212 177.063L144.12 177.021L144.07 172.113Z" fill="#F2F2F2"/>
<path d="M153.886 172.027L148.978 172.07L149.028 176.978L153.935 176.935L153.886 172.027Z" fill="#F2F2F2"/>
<path d="M163.701 171.941L158.793 171.984L158.843 176.892L163.751 176.849L163.701 171.941Z" fill="#F2F2F2"/>
<path d="M168.609 171.899L163.701 171.941L163.751 176.849L168.659 176.806L168.609 171.899Z" fill="#F2F2F2"/>
<path d="M6.70274 178.221L1.79499 178.264L1.84485 183.172L6.75261 183.129L6.70274 178.221Z" fill="#F2F2F2"/>
<path d="M11.6105 178.178L6.70274 178.221L6.75261 183.129L11.6604 183.086L11.6105 178.178Z" fill="#F2F2F2"/>
<path d="M16.5183 178.135L11.6105 178.178L11.6604 183.086L16.5681 183.043L16.5183 178.135Z" fill="#F2F2F2"/>
<path d="M21.426 178.092L16.5183 178.135L16.5681 183.043L21.4759 183L21.426 178.092Z" fill="#F2F2F2"/>
<path d="M26.3338 178.05L21.426 178.092L21.4759 183L26.3836 182.957L26.3338 178.05Z" fill="#F2F2F2"/>
<path d="M31.2415 178.007L26.3338 178.05L26.3836 182.957L31.2914 182.914L31.2415 178.007Z" fill="#F2F2F2"/>
<path d="M36.1493 177.964L31.2415 178.007L31.2914 182.914L36.1991 182.872L36.1493 177.964Z" fill="#F2F2F2"/>
<path d="M55.7803 177.792L50.8726 177.835L50.9224 182.743L55.8302 182.7L55.7803 177.792Z" fill="#F2F2F2"/>
<path d="M60.6881 177.749L55.7803 177.792L55.8302 182.7L60.7379 182.657L60.6881 177.749Z" fill="#F2F2F2"/>
<path d="M65.5958 177.707L60.6881 177.749L60.7379 182.657L65.6457 182.614L65.5958 177.707Z" fill="#F2F2F2"/>
<path d="M75.4113 177.621L70.5036 177.664L70.5534 182.571L75.4612 182.529L75.4113 177.621Z" fill="#F2F2F2"/>
<path d="M80.3191 177.578L75.4113 177.621L75.4612 182.529L80.369 182.486L80.3191 177.578Z" fill="#F2F2F2"/>
<path d="M85.2268 177.535L80.3191 177.578L80.369 182.486L85.2767 182.443L85.2268 177.535Z" fill="#F2F2F2"/>
<path d="M95.0424 177.449L90.1346 177.492L90.1845 182.4L95.0922 182.357L95.0424 177.449Z" fill="#F2F2F2"/>
<path d="M99.9501 177.406L95.0424 177.449L95.0922 182.357L100 182.314L99.9501 177.406Z" fill="#F2F2F2"/>
<path d="M109.766 177.321L104.858 177.364L104.908 182.271L109.815 182.228L109.766 177.321Z" fill="#F2F2F2"/>
<path d="M114.673 177.278L109.766 177.321L109.815 182.228L114.723 182.186L114.673 177.278Z" fill="#F2F2F2"/>
<path d="M119.581 177.235L114.673 177.278L114.723 182.186L119.631 182.143L119.581 177.235Z" fill="#F2F2F2"/>
<path d="M124.489 177.192L119.581 177.235L119.631 182.143L124.539 182.1L124.489 177.192Z" fill="#F2F2F2"/>
<path d="M134.304 177.106L129.397 177.149L129.447 182.057L134.354 182.014L134.304 177.106Z" fill="#F2F2F2"/>
<path d="M139.212 177.063L134.304 177.106L134.354 182.014L139.262 181.971L139.212 177.063Z" fill="#F2F2F2"/>
<path d="M153.935 176.935L149.028 176.978L149.078 181.885L153.985 181.843L153.935 176.935Z" fill="#F2F2F2"/>
<path d="M158.843 176.892L153.935 176.935L153.985 181.843L158.893 181.8L158.843 176.892Z" fill="#F2F2F2"/>
<path d="M163.751 176.849L158.843 176.892L158.893 181.8L163.801 181.757L163.751 176.849Z" fill="#F2F2F2"/>
<path d="M173.566 176.763L168.659 176.806L168.709 181.714L173.616 181.671L173.566 176.763Z" fill="#F2F2F2"/>
<path d="M178.474 176.721L173.566 176.763L173.616 181.671L178.524 181.628L178.474 176.721Z" fill="#F2F2F2"/>
<path d="M183.382 176.678L178.474 176.721L178.524 181.628L183.432 181.585L183.382 176.678Z" fill="#F2F2F2"/>
</svg>
