<svg width="63" height="62" viewBox="0 0 63 62" fill="none" xmlns="http://www.w3.org/2000/svg">
<path opacity="0.4" d="M50.4919 45.3493L50.4837 45.3426C50.4167 45.288 50.3394 45.2473 50.2565 45.223C50.1735 45.1986 50.0866 45.1912 50.0007 45.201C49.9148 45.2108 49.8318 45.2377 49.7564 45.2801C49.6811 45.3225 49.615 45.3796 49.5621 45.4479L49.5566 45.4551L49.5509 45.4621C47.3882 48.173 44.6416 50.3609 41.5157 51.8626C38.3904 53.3641 34.9667 54.141 31.4995 54.1355L50.4919 45.3493ZM50.4919 45.3493L50.5002 45.3559C50.7995 45.5917 50.8471 46.0378 50.6267 46.3255L50.4919 45.3493ZM50.8367 31.7622C51.0171 31.7622 51.1903 31.833 51.319 31.9593C51.3196 31.9599 51.3203 31.9605 51.3209 31.9611L52.4985 33.1388L54.6324 35.2726V32.2549V30.9692C54.6324 18.2192 44.2505 7.83691 31.5006 7.83631C28.0331 7.83064 24.6089 8.60755 21.4834 10.1091C18.3575 11.6109 15.6108 13.7987 13.4481 16.5096L13.4383 16.5219L13.4289 16.5343C13.2265 16.8015 12.8052 16.8646 12.5135 16.6276L12.497 16.6142L12.4801 16.6014C12.213 16.399 12.1498 15.9777 12.3868 15.686L12.3868 15.686L12.3916 15.6801C17.0663 9.85501 24.0367 6.50488 31.4995 6.50488C45.0035 6.50488 55.9895 17.491 55.9895 30.9949V32.3063V35.3241L58.1234 33.1902L59.301 32.0125C59.3017 32.0119 59.3023 32.0113 59.303 32.0106C59.4317 31.8844 59.6049 31.8137 59.7852 31.8137C59.9654 31.8137 60.1383 31.8842 60.2669 32.0101C60.5396 32.2858 60.4922 32.7005 60.2963 32.8829L60.28 32.8981L60.2642 32.9139L55.7908 37.3872C55.6651 37.5127 55.4958 37.5844 55.3185 37.5876C55.134 37.5822 54.9581 37.5086 54.8248 37.3809L50.3577 32.9139C50.101 32.6572 50.1001 32.2164 50.3551 31.9585C50.4838 31.8327 50.6566 31.7622 50.8367 31.7622Z" fill="#FF720C" stroke="#FF720C" stroke-width="2.5"/>
<path d="M40.3707 30.0743C41.065 29.0457 41.4507 27.8371 41.4507 26.5C41.4507 23.08 38.4422 20.0714 35.0222 20.0714H32.9136V17.5C32.9136 16.4457 32.0393 15.5714 30.985 15.5714C29.9307 15.5714 29.0564 16.4457 29.0564 17.5V20.0714H23.785C22.7307 20.0714 21.8564 20.9457 21.8564 22V40C21.8564 41.0543 22.7307 41.9286 23.785 41.9286H29.0564V44.5C29.0564 45.5543 29.9307 46.4286 30.985 46.4286C32.0393 46.4286 32.9136 45.5543 32.9136 44.5V41.9286H36.6422C40.5507 41.9286 43.7136 39.0486 43.7136 35.5C43.7136 33.2114 42.3764 31.2057 40.3707 30.0743ZM25.7136 23.9286H35.0222C36.4364 23.9286 37.5936 25.3428 37.5936 26.5C37.5936 27.9143 36.4364 29.0714 35.0222 29.0714H25.7136V23.9286ZM36.6422 38.0714H25.7136V32.9286H36.6422C38.4164 32.9286 39.8564 34.0857 39.8564 35.5C39.8564 36.9143 38.4164 38.0714 36.6422 38.0714Z" fill="#FF720C"/>
</svg>
