<svg width="63" height="62" viewBox="0 0 63 62" fill="none" xmlns="http://www.w3.org/2000/svg">
<path d="M47.9152 12.918V16.5228C47.9152 18.1132 49.1948 19.3928 50.7852 19.3928C52.3755 19.3928 53.6552 18.1132 53.6552 16.5228V12.9186C53.7692 12.9322 53.8842 12.9389 53.9994 12.9385C53.9973 12.9385 53.9952 12.9385 53.993 12.9385L47.9152 12.918ZM47.9152 12.918C47.0739 13.0186 46.1951 12.7491 45.5556 12.1095L45.5475 12.1015L45.5475 12.1015C45.0215 11.5658 44.7268 10.845 44.7268 10.0942C44.7268 9.34346 45.0215 8.6227 45.5475 8.08701L45.5555 8.07888L45.5556 8.07892L48.7698 4.86464C49.049 4.58549 49.3798 4.4087 49.6283 4.30034C49.698 4.26843 49.7599 4.24663 49.808 4.23158C49.8293 4.22493 49.8497 4.21908 49.8671 4.21434C50.1355 4.11172 50.411 4.06138 50.708 4.06138H50.8623C51.1025 4.06138 51.3412 4.08936 51.5913 4.16423H51.6846L51.9204 4.2653C52.0719 4.33024 52.2177 4.40776 52.356 4.49852H52.4601L52.8262 4.86464L56.0405 8.07892C57.1464 9.18481 57.1487 11.0132 56.0041 12.1201L47.9152 12.918ZM51.9423 4.49852C51.9299 4.49852 51.9344 4.49827 51.9493 4.49852H51.9423ZM47.0052 3.96423H54.5652C55.9482 3.96423 56.9056 4.37318 57.5159 4.98347C58.1262 5.59377 58.5352 6.55118 58.5352 7.93423V15.4942C58.5352 16.8773 58.1262 17.8347 57.5159 18.445C56.9056 19.0553 55.9482 19.4642 54.5652 19.4642H47.0052C45.6221 19.4642 44.6647 19.0553 44.0544 18.445C43.4441 17.8347 43.0352 16.8773 43.0352 15.4942V7.93423C43.0352 6.55118 43.4441 5.59377 44.0544 4.98347C44.6647 4.37318 45.6221 3.96423 47.0052 3.96423Z" fill="#FFC700" stroke="#FFC700" stroke-width="2.5"/>
<path opacity="0.4" d="M57.2137 20.1176V23.2805H5.78516V19.5262C5.78516 13.6376 10.568 8.88049 16.4566 8.88049H41.7852V15.4891C41.7852 18.7548 43.7394 20.7091 47.0052 20.7091H54.5652C55.5937 20.7091 56.468 20.5291 57.2137 20.1176Z" fill="#FFC700"/>
<path d="M5.78516 23.2856V42.4685C5.78516 48.3571 10.568 53.1142 16.4566 53.1142H46.5423C52.4309 53.1142 57.2137 48.3571 57.2137 42.4685V23.2856H5.78516ZM21.2137 44.4999H16.0709C15.0166 44.4999 14.1423 43.6256 14.1423 42.5714C14.1423 41.5171 15.0166 40.6428 16.0709 40.6428H21.2137C22.268 40.6428 23.1423 41.5171 23.1423 42.5714C23.1423 43.6256 22.268 44.4999 21.2137 44.4999ZM37.928 44.4999H27.6423C26.588 44.4999 25.7137 43.6256 25.7137 42.5714C25.7137 41.5171 26.588 40.6428 27.6423 40.6428H37.928C38.9823 40.6428 39.8566 41.5171 39.8566 42.5714C39.8566 43.6256 38.9823 44.4999 37.928 44.4999Z" fill="#FFC700"/>
</svg>
