<svg width="63" height="62" viewBox="0 0 63 62" fill="none" xmlns="http://www.w3.org/2000/svg">
<path d="M13.4996 59.2857C11.7268 59.2893 9.98355 58.8313 8.44153 57.9566C6.8995 57.0818 5.61185 55.8206 4.70534 54.2971C3.75391 52.7542 3.21391 50.9285 3.21391 48.9999C3.20928 47.4582 3.55391 45.9354 4.22194 44.5459C4.88997 43.1564 5.86404 41.9363 7.07106 40.9771C8.84534 39.5628 11.0825 38.7142 13.4996 38.7142C19.1825 38.7142 23.7853 43.3171 23.7853 48.9999C23.7853 50.9285 23.2453 52.7542 22.2939 54.2971L13.4996 59.2857ZM13.4996 59.2857C16.0968 59.2857 18.4625 58.3342 20.2625 56.7142L13.4996 59.2857ZM7.84876 41.9557L7.8502 41.9546C9.41462 40.7076 11.3799 39.9642 13.4996 39.9642C18.4921 39.9642 22.5353 44.0074 22.5353 48.9999C22.5353 50.6942 22.0611 52.2931 21.23 53.641L21.2219 53.654L21.2142 53.6672C20.7458 54.4701 20.1446 55.1816 19.4592 55.7565L19.4425 55.7705L19.4263 55.7851C17.8533 57.2008 15.7846 58.0357 13.4996 58.0357L13.497 58.0357C11.9413 58.0389 10.4115 57.6369 9.05828 56.8693C7.70507 56.1017 6.57508 54.9949 5.77957 53.6579L5.77451 53.6494L5.76931 53.641C4.93811 52.2931 4.46391 50.6942 4.46392 48.9999L4.46391 48.9962C4.45984 47.6432 4.76227 46.3069 5.3485 45.0876C5.93474 43.8682 6.78954 42.7975 7.84876 41.9557ZM19.6712 48.8119L19.6754 48.8081C20.9438 47.6242 21.0374 45.5994 19.8392 44.3156C18.656 43.048 16.6329 42.9537 15.349 44.1497C15.3482 44.1504 15.3475 44.1511 15.3467 44.1518L12.1191 47.1374L11.7349 46.7532C10.5011 45.5193 8.47533 45.5193 7.24146 46.7532L7.24144 46.7532L7.23625 46.7584C6.64636 47.3553 6.31554 48.1607 6.31554 48.9999C6.31554 49.8392 6.64636 50.6445 7.23625 51.2415L7.23624 51.2415L7.24146 51.2467L9.78717 53.7924C10.4197 54.4249 11.2317 54.7242 12.0339 54.7242C12.8009 54.7242 13.596 54.4326 14.1949 53.8768C14.1953 53.8765 14.1956 53.8762 14.1959 53.8759L19.6712 48.8119Z" fill="#14BE62" stroke="#14BE62" stroke-width="2.5"/>
<path opacity="0.4" d="M50.7341 33.4428H55.9284V29.74C55.9284 24.4171 51.5827 20.0714 46.2599 20.0714H16.7399C11.417 20.0714 7.07129 24.4171 7.07129 29.74V40.9771C8.58328 39.7653 10.4069 39.0053 12.332 38.7847C14.2571 38.5642 16.2054 38.8921 17.9523 39.7306C19.6992 40.5691 21.1736 41.8841 22.2056 43.5241C23.2377 45.1641 23.7854 47.0623 23.7856 49C23.7856 50.9286 23.2456 52.7543 22.2941 54.2971C21.7541 55.2228 21.0599 56.0457 20.2627 56.7143H46.2599C51.5827 56.7143 55.9284 52.3686 55.9284 47.0457V43.9857H51.0427C48.2656 43.9857 45.7199 41.9543 45.4884 39.1771C45.3342 37.5571 45.9513 36.04 47.0313 34.9857C47.9827 34.0086 49.2941 33.4428 50.7341 33.4428Z" fill="#14BE62"/>
<path d="M38.8284 10.3051V20.0765H16.7399C11.417 20.0765 7.07129 24.4222 7.07129 29.7451V20.3079C7.07129 17.2479 8.94843 14.5222 11.8027 13.4422L32.2199 5.72794C35.4084 4.54508 38.8284 6.88508 38.8284 10.3051ZM58.6516 36.0657V41.3628C58.6516 42.7771 57.5201 43.9342 56.0801 43.9856H51.0401C48.263 43.9856 45.7173 41.9542 45.4859 39.1771C45.3316 37.5571 45.9487 36.0399 47.0287 34.9857C47.9801 34.0085 49.2916 33.4428 50.7316 33.4428H56.0801C57.5201 33.4942 58.6516 34.6514 58.6516 36.0657ZM36.6427 32.9285H18.6427C17.5884 32.9285 16.7141 32.0542 16.7141 30.9999C16.7141 29.9456 17.5884 29.0714 18.6427 29.0714H36.6427C37.697 29.0714 38.5713 29.9456 38.5713 30.9999C38.5713 32.0542 37.697 32.9285 36.6427 32.9285Z" fill="#14BE62"/>
</svg>
