<svg width="296" height="296" viewBox="0 0 296 296" fill="none" xmlns="http://www.w3.org/2000/svg">
<path opacity="0.1" d="M290.21 133.053L290.993 148L290.21 162.947L287.868 177.73L283.995 192.187L278.631 206.161L271.836 219.497L263.684 232.049L254.265 243.681L243.681 254.265L232.049 263.684L219.497 271.836L206.16 278.631L192.187 283.995L177.73 287.868L162.947 290.21L148 290.993L133.053 290.21L118.27 287.868L103.813 283.995L89.8395 278.631L76.5034 271.836L63.9507 263.684L52.319 254.265L41.7353 243.681L32.3161 232.049L24.1643 219.497L17.3693 206.16L12.0054 192.187L8.13161 177.73L5.79015 162.947L5.00683 148L5.79016 133.053L8.13162 118.27L12.0054 103.813L17.3693 89.8395L24.1643 76.5034L32.3161 63.9507L41.7353 52.319L52.3189 41.7354L63.9508 32.3161L76.5034 24.1643L89.8395 17.3692L103.813 12.0054L118.27 8.13161L133.053 5.79019L148 5.00686L162.947 5.79019L177.73 8.13161L192.187 12.0054L206.161 17.3693L219.497 24.1643L232.049 32.3161L243.681 41.7354L254.265 52.3189L263.684 63.9507L271.836 76.5035L278.631 89.8394L283.995 103.813L287.868 118.27L290.21 133.053Z" stroke="#FFDD3C" stroke-width="10"/>
</svg>
