<svg width="63" height="62" viewBox="0 0 63 62" fill="none" xmlns="http://www.w3.org/2000/svg">
<g opacity="0.4">
<mask id="path-1-inside-1_471_2259" fill="white">
<path d="M49.0083 16.2143H52.5054C52.0169 15.52 51.5026 14.8771 50.9626 14.2343L49.0083 16.2143ZM48.2652 11.5086C47.6223 10.9686 46.9794 10.4543 46.2852 9.9657V13.4628L48.2652 11.5086Z"/>
</mask>
<path d="M49.0083 16.2143H52.5054C52.0169 15.52 51.5026 14.8771 50.9626 14.2343L49.0083 16.2143ZM48.2652 11.5086C47.6223 10.9686 46.9794 10.4543 46.2852 9.9657V13.4628L48.2652 11.5086Z" fill="#5381D3"/>
<path d="M49.0083 16.2143L47.229 14.4581L43.0281 18.7143H49.0083V16.2143ZM52.5054 16.2143V18.7143H57.3217L54.55 14.7755L52.5054 16.2143ZM50.9626 14.2343L52.8768 12.6263L51.1114 10.5246L49.1833 12.4781L50.9626 14.2343ZM48.2652 11.5086L50.0213 13.2878L51.9748 11.3597L49.8731 9.59429L48.2652 11.5086ZM46.2852 9.9657L47.7239 7.92118L43.7852 5.14948V9.9657H46.2852ZM46.2852 13.4628H43.7852V19.443L48.0413 15.2421L46.2852 13.4628ZM49.0083 18.7143H52.5054V13.7143H49.0083V18.7143ZM54.55 14.7755C54.0047 14.0007 53.4409 13.2977 52.8768 12.6263L49.0483 15.8423C49.5643 16.4565 50.0291 17.0393 50.4609 17.653L54.55 14.7755ZM49.1833 12.4781L47.229 14.4581L50.7876 17.9704L52.7419 15.9904L49.1833 12.4781ZM49.8731 9.59429C49.2017 9.03027 48.4988 8.46646 47.7239 7.92118L44.8464 12.0102C45.4601 12.4421 46.0429 12.9068 46.6572 13.4228L49.8731 9.59429ZM43.7852 9.9657V13.4628H48.7852V9.9657H43.7852ZM48.0413 15.2421L50.0213 13.2878L46.509 9.72927L44.529 11.6836L48.0413 15.2421Z" fill="#5381D3" mask="url(#path-1-inside-1_471_2259)"/>
</g>
<path opacity="0.4" d="M44.3566 20.0714C44.0994 20.0714 43.868 20.0199 43.6109 19.9171C43.1373 19.7137 42.7599 19.3363 42.5566 18.8628C42.4538 18.6277 42.4013 18.3737 42.4023 18.1171V7.83136C42.4023 7.80564 42.428 7.77993 42.428 7.7285C39.1109 6.18564 35.408 5.28564 31.4994 5.28564C17.3052 5.28564 5.78516 16.8056 5.78516 30.9999C5.78516 45.1942 17.3052 56.7142 31.4994 56.7142C45.6937 56.7142 57.2137 45.1942 57.2137 30.9999C57.2137 27.0914 56.3137 23.3885 54.7452 20.0456C54.7194 20.0456 54.6937 20.0714 54.6423 20.0714H44.3566Z" fill="#5381D3"/>
<path d="M50.9911 14.2368L58.5769 6.65112C59.3226 5.9054 59.3226 4.67112 58.5769 3.9254C58.2139 3.56674 57.7243 3.3656 57.214 3.3656C56.7038 3.3656 56.2141 3.56674 55.8511 3.9254L48.2654 11.5111C49.2426 12.3597 50.1426 13.2854 50.9911 14.2368ZM46.2906 7.85712C46.2906 6.80283 45.4163 5.92855 44.362 5.92855C43.3334 5.92855 42.5106 6.7514 42.4591 7.75426C43.7963 8.39712 45.082 9.11712 46.2906 9.96569V7.85712ZM56.5763 18.1428C56.5763 17.0885 55.702 16.2143 54.6477 16.2143H52.5134C53.362 17.4228 54.1077 18.7085 54.7249 20.0457C55.7534 19.9943 56.5763 19.1714 56.5763 18.1428ZM35.9997 30.5371L33.4283 29.6371V23.9285H33.634C34.9454 23.9285 35.9997 25.0857 35.9997 26.5C35.9997 27.5543 36.874 28.4285 37.9283 28.4285C38.9826 28.4285 39.8569 27.5543 39.8569 26.5C39.8569 22.9514 37.0797 20.0714 33.634 20.0714H33.4283V19.4285C33.4283 18.3743 32.554 17.5 31.4997 17.5C30.4454 17.5 29.5711 18.3743 29.5711 19.4285V20.0714H28.7997C25.6883 20.0714 23.1426 22.6943 23.1426 25.9343C23.1426 29.6885 25.3283 30.8971 26.9997 31.4885L29.5711 32.3885V38.0971H29.3654C28.054 38.0971 26.9997 36.94 26.9997 35.5257C26.9997 34.4714 26.1254 33.5971 25.0711 33.5971C24.0169 33.5971 23.1426 34.4714 23.1426 35.5257C23.1426 39.0743 25.9197 41.9543 29.3654 41.9543H29.5711V42.5971C29.5711 43.6514 30.4454 44.5257 31.4997 44.5257C32.554 44.5257 33.4283 43.6514 33.4283 42.5971V41.9543H34.1997C37.3111 41.9543 39.8569 39.3314 39.8569 36.0914C39.8569 32.3114 37.6711 31.1028 35.9997 30.5371ZM28.2597 27.8114C27.3854 27.5028 26.9997 27.3228 26.9997 25.9085C26.9997 24.8028 27.8226 23.9028 28.7997 23.9028H29.5711V28.2485L28.2597 27.8114ZM34.1997 38.0714H33.4283V33.7257L34.7397 34.1885C35.614 34.4971 35.9997 34.6771 35.9997 36.0914C35.9997 37.1714 35.1769 38.0714 34.1997 38.0714Z" fill="#5381D3"/>
</svg>
