<svg width="40" height="40" viewBox="0 0 40 40" fill="none" xmlns="http://www.w3.org/2000/svg">
<path d="M27.9166 5.93331V3.33331C27.9166 2.64998 27.35 2.08331 26.6666 2.08331C25.9833 2.08331 25.4166 2.64998 25.4166 3.33331V5.83331H14.5833V3.33331C14.5833 2.64998 14.0166 2.08331 13.3333 2.08331C12.65 2.08331 12.0833 2.64998 12.0833 3.33331V5.93331C7.58331 6.34998 5.39998 9.03331 5.06664 13.0166C5.03331 13.5 5.43331 13.9 5.89998 13.9H34.1C34.5833 13.9 34.9833 13.4833 34.9333 13.0166C34.6 9.03331 32.4166 6.34998 27.9166 5.93331Z" fill="#F13C43"/>
<path opacity="0.4" d="M33.3333 16.4C34.25 16.4 35 17.15 35 18.0667V28.3334C35 33.3334 32.5 36.6667 26.6667 36.6667H13.3333C7.5 36.6667 5 33.3334 5 28.3334V18.0667C5 17.15 5.75 16.4 6.66667 16.4H33.3333Z" fill="#F13C43"/>
<path d="M14.1667 24.9984C13.7333 24.9984 13.3 24.815 12.9833 24.515C12.6833 24.1984 12.5 23.765 12.5 23.3317C12.5 22.8984 12.6833 22.465 12.9833 22.1484C13.45 21.6817 14.1833 21.5317 14.8 21.7984C15.0167 21.8817 15.2 21.9984 15.35 22.1484C15.65 22.465 15.8333 22.8984 15.8333 23.3317C15.8333 23.765 15.65 24.1984 15.35 24.515C15.0333 24.815 14.6 24.9984 14.1667 24.9984ZM20 24.9984C19.5667 24.9984 19.1333 24.815 18.8167 24.515C18.5167 24.1984 18.3333 23.765 18.3333 23.3317C18.3333 22.8984 18.5167 22.465 18.8167 22.1484C18.9667 21.9984 19.15 21.8817 19.3667 21.7984C19.9833 21.5317 20.7167 21.6817 21.1833 22.1484C21.4833 22.465 21.6667 22.8984 21.6667 23.3317C21.6667 23.765 21.4833 24.1984 21.1833 24.515L20.9333 24.715C20.8333 24.7817 20.7333 24.8317 20.6333 24.865C20.5333 24.915 20.4333 24.9484 20.3333 24.965C20.2167 24.9817 20.1167 24.9984 20 24.9984ZM25.8333 25C25.4 25 24.9667 24.8167 24.65 24.5167C24.35 24.2 24.1667 23.7667 24.1667 23.3334C24.1667 22.9 24.35 22.4667 24.65 22.15C24.8167 22 24.9833 21.8834 25.2 21.8C25.5 21.6667 25.8333 21.6334 26.1667 21.7C26.2667 21.7167 26.3667 21.75 26.4667 21.8C26.5667 21.8334 26.6667 21.8834 26.7667 21.95L27.0167 22.15C27.3167 22.4667 27.5 22.9 27.5 23.3334C27.5 23.7667 27.3167 24.2 27.0167 24.5167L26.7667 24.7167C26.6667 24.7834 26.5667 24.8334 26.4667 24.8667C26.3667 24.9167 26.2667 24.95 26.1667 24.9667C26.05 24.9834 25.9333 25 25.8333 25ZM14.1667 30.8334C13.95 30.8334 13.7333 30.7834 13.5333 30.7C13.3167 30.6167 13.15 30.5 12.9833 30.35C12.6833 30.0334 12.5 29.6 12.5 29.1667C12.5 28.7334 12.6833 28.3 12.9833 27.9834C13.15 27.8334 13.3167 27.7167 13.5333 27.6334C13.8333 27.5 14.1667 27.4667 14.5 27.5334C14.6 27.55 14.7 27.5834 14.8 27.6334C14.9 27.6667 15 27.7167 15.1 27.7834L15.35 27.9834C15.65 28.3 15.8333 28.7334 15.8333 29.1667C15.8333 29.6 15.65 30.0334 15.35 30.35C15.2667 30.4167 15.1833 30.5 15.1 30.55C15 30.6167 14.9 30.6667 14.8 30.7C14.7 30.75 14.6 30.7834 14.5 30.8C14.3833 30.8167 14.2833 30.8334 14.1667 30.8334ZM20 30.8334C19.5667 30.8334 19.1333 30.65 18.8167 30.35C18.5167 30.0334 18.3333 29.6 18.3333 29.1667C18.3333 28.7334 18.5167 28.3 18.8167 27.9834C19.4333 27.3667 20.5667 27.3667 21.1833 27.9834C21.4833 28.3 21.6667 28.7334 21.6667 29.1667C21.6667 29.6 21.4833 30.0334 21.1833 30.35C20.8667 30.65 20.4333 30.8334 20 30.8334ZM25.8333 30.8334C25.4 30.8334 24.9667 30.65 24.65 30.35C24.35 30.0334 24.1667 29.6 24.1667 29.1667C24.1667 28.7334 24.35 28.3 24.65 27.9834C25.2667 27.3667 26.4 27.3667 27.0167 27.9834C27.3167 28.3 27.5 28.7334 27.5 29.1667C27.5 29.6 27.3167 30.0334 27.0167 30.35C26.7 30.65 26.2667 30.8334 25.8333 30.8334Z" fill="#F13C43"/>
</svg>
