<svg width="40" height="40" viewBox="0 0 40 40" fill="none" xmlns="http://www.w3.org/2000/svg">
<path d="M34.95 13.3334H30.05C27.9334 13.3334 26.6667 12.0667 26.6667 9.95002V5.05002C26.6667 2.93335 27.9334 1.66669 30.05 1.66669H34.95C37.0667 1.66669 38.3334 2.93335 38.3334 5.05002V9.95002C38.3334 12.0667 37.0667 13.3334 34.95 13.3334ZM35.3167 7.81669C35.2202 7.7209 35.1058 7.64509 34.9799 7.59361C34.8541 7.54213 34.7193 7.51599 34.5834 7.51669C34.4474 7.51599 34.3126 7.54213 34.1868 7.59361C34.061 7.64509 33.9465 7.7209 33.85 7.81669L33.55 8.11669V4.38335C33.55 3.80002 33.0834 3.33335 32.5 3.33335C31.9167 3.33335 31.45 3.80002 31.45 4.38335V8.11669L31.15 7.81669C30.9543 7.62451 30.691 7.51684 30.4167 7.51684C30.1424 7.51684 29.8791 7.62451 29.6834 7.81669C29.2834 8.21669 29.2834 8.88335 29.6834 9.28335L31.7667 11.3667C31.85 11.45 31.9667 11.5167 32.0834 11.5667C32.1167 11.5834 32.15 11.5834 32.1834 11.6C32.2667 11.6334 32.35 11.65 32.45 11.65H32.55C32.6667 11.65 32.7667 11.6334 32.8834 11.5834H32.9167C33.0334 11.5334 33.1334 11.4667 33.2167 11.3834C33.2334 11.3667 33.2334 11.3667 33.25 11.3667L35.3334 9.28335C35.7334 8.88335 35.7334 8.21669 35.3167 7.81669Z" fill="#00E0FF"/>
<path opacity="0.4" d="M36.6666 12.9467V14.9967H3.33331V12.5633C3.33331 8.74666 6.43331 5.66333 10.25 5.66333H26.6666V9.94666C26.6666 12.0633 27.9333 13.33 30.05 13.33H34.95C35.6166 13.33 36.1833 13.2133 36.6666 12.9467Z" fill="#00E0FF"/>
<path d="M3.33331 15V27.4333C3.33331 31.25 6.43331 34.3333 10.25 34.3333H29.75C33.5666 34.3333 36.6666 31.25 36.6666 27.4333V15H3.33331ZM13.3333 28.75H9.99998C9.31665 28.75 8.74998 28.1833 8.74998 27.5C8.74998 26.8167 9.31665 26.25 9.99998 26.25H13.3333C14.0166 26.25 14.5833 26.8167 14.5833 27.5C14.5833 28.1833 14.0166 28.75 13.3333 28.75ZM24.1666 28.75H17.5C16.8166 28.75 16.25 28.1833 16.25 27.5C16.25 26.8167 16.8166 26.25 17.5 26.25H24.1666C24.85 26.25 25.4166 26.8167 25.4166 27.5C25.4166 28.1833 24.85 28.75 24.1666 28.75Z" fill="#00E0FF"/>
</svg>
