<svg width="40" height="40" viewBox="0 0 40 40" fill="none" xmlns="http://www.w3.org/2000/svg">
<path d="M34.95 1.66669H30.05C27.9333 1.66669 26.6667 2.93335 26.6667 5.05002V9.95002C26.6667 12.0667 27.9333 13.3334 30.05 13.3334H34.95C37.0667 13.3334 38.3333 12.0667 38.3333 9.95002V5.05002C38.3333 2.93335 37.0667 1.66669 34.95 1.66669ZM35.3167 7.18335C35.2202 7.27914 35.1057 7.35495 34.9799 7.40643C34.8541 7.45791 34.7193 7.48405 34.5833 7.48335C34.4474 7.48405 34.3126 7.45791 34.1868 7.40643C34.0609 7.35495 33.9465 7.27914 33.85 7.18335L33.55 6.88335V10.6167C33.55 11.2 33.0833 11.6667 32.5 11.6667C31.9167 11.6667 31.45 11.2 31.45 10.6167V6.88335L31.15 7.18335C30.75 7.58335 30.0833 7.58335 29.6833 7.18335C29.4912 6.98764 29.3835 6.72431 29.3835 6.45002C29.3835 6.17573 29.4912 5.9124 29.6833 5.71669L31.7667 3.63335C31.85 3.55002 31.9667 3.48335 32.0833 3.43335C32.1167 3.41669 32.15 3.41669 32.1833 3.40002C32.2667 3.36669 32.35 3.35002 32.45 3.35002H32.55C32.6667 3.35002 32.7667 3.36669 32.8833 3.41669H32.9167C33.0333 3.46669 33.1333 3.53335 33.2167 3.61669C33.2333 3.63335 33.2333 3.63335 33.25 3.63335L35.3333 5.71669C35.7333 6.11669 35.7333 6.78335 35.3167 7.18335Z" fill="#14BE62"/>
<path opacity="0.4" d="M36.6667 12.9467V14.9967H3.33333V12.5633C3.33333 8.74666 6.43333 5.66333 10.25 5.66333H26.6667V9.94666C26.6667 12.0633 27.9333 13.33 30.05 13.33H34.95C35.6167 13.33 36.1833 13.2133 36.6667 12.9467Z" fill="#14BE62"/>
<path d="M3.33333 15V27.4333C3.33333 31.25 6.43333 34.3333 10.25 34.3333H29.75C33.5667 34.3333 36.6667 31.25 36.6667 27.4333V15H3.33333ZM13.3333 28.75H9.99999C9.31666 28.75 8.74999 28.1833 8.74999 27.5C8.74999 26.8167 9.31666 26.25 9.99999 26.25H13.3333C14.0167 26.25 14.5833 26.8167 14.5833 27.5C14.5833 28.1833 14.0167 28.75 13.3333 28.75ZM24.1667 28.75H17.5C16.8167 28.75 16.25 28.1833 16.25 27.5C16.25 26.8167 16.8167 26.25 17.5 26.25H24.1667C24.85 26.25 25.4167 26.8167 25.4167 27.5C25.4167 28.1833 24.85 28.75 24.1667 28.75Z" fill="#14BE62"/>
</svg>
