<svg width="29" height="29" viewBox="0 0 29 29" fill="none" xmlns="http://www.w3.org/2000/svg">
<g clip-path="url(#clip0_401_1623)">
<g opacity="0.4">
<mask id="path-1-inside-1_401_1623" fill="white">
<path d="M27.9467 14.1815C27.7806 14.0174 27.5565 13.9253 27.3229 13.9253C27.0893 13.9253 26.8652 14.0174 26.699 14.1815L26.1576 14.723V14.1227C26.1576 7.62519 20.8725 2.34009 14.375 2.34009C10.7849 2.34009 7.43018 3.95269 5.18195 6.75415C4.87591 7.13082 4.93477 7.69582 5.32321 7.99009C5.69987 8.29613 6.26487 8.23728 6.55914 7.84884C7.49544 6.67522 8.68454 5.72805 10.0378 5.07791C11.3911 4.42777 12.8736 4.09142 14.375 4.09394C19.8955 4.09394 24.392 8.5904 24.392 14.1109V14.6995L23.8505 14.158C23.6844 13.9938 23.4602 13.9018 23.2266 13.9018C22.9931 13.9018 22.7689 13.9938 22.6028 14.158C22.2614 14.4994 22.2614 15.0644 22.6028 15.4057L24.6509 17.4538C24.8181 17.6167 25.0414 17.7094 25.2748 17.7128C25.5087 17.7122 25.733 17.6191 25.8986 17.4538L27.9467 15.4057C28.2881 15.0879 28.2881 14.5229 27.9467 14.1815ZM23.4267 20.2471C23.3369 20.1738 23.2333 20.1192 23.1221 20.0866C23.0108 20.054 22.8942 20.0439 22.779 20.0571C22.6638 20.0703 22.5524 20.1064 22.4514 20.1632C22.3504 20.2201 22.2618 20.2966 22.1908 20.3883C21.2545 21.5619 20.0654 22.5091 18.7121 23.1592C17.3589 23.8094 15.8763 24.1457 14.375 24.1432C8.85446 24.1432 4.358 19.6467 4.358 14.1262V13.5377L4.89945 14.0791C5.07602 14.2557 5.29966 14.3381 5.52331 14.3381C5.74696 14.3381 5.9706 14.2557 6.14716 14.0791C6.48852 13.7378 6.48852 13.1728 6.14716 12.8314L4.09904 10.7833C4.01747 10.7034 3.92165 10.6395 3.81654 10.595C3.71083 10.5484 3.59658 10.5244 3.48107 10.5244C3.36556 10.5244 3.25131 10.5484 3.1456 10.595C3.03966 10.6421 2.9455 10.7009 2.8631 10.7833L0.814976 12.8314C0.473621 13.1728 0.473621 13.7378 0.814976 14.0791C1.15633 14.4205 1.72133 14.4205 2.06268 14.0791L2.60414 13.5377V14.1262C2.60414 20.6237 7.88925 25.9088 14.3867 25.9088C17.9769 25.9088 21.3315 24.2962 23.5798 21.4948C23.874 21.1181 23.8152 20.5531 23.4267 20.2471Z"/>
</mask>
<path d="M27.9467 14.1815C27.7806 14.0174 27.5565 13.9253 27.3229 13.9253C27.0893 13.9253 26.8652 14.0174 26.699 14.1815L26.1576 14.723V14.1227C26.1576 7.62519 20.8725 2.34009 14.375 2.34009C10.7849 2.34009 7.43018 3.95269 5.18195 6.75415C4.87591 7.13082 4.93477 7.69582 5.32321 7.99009C5.69987 8.29613 6.26487 8.23728 6.55914 7.84884C7.49544 6.67522 8.68454 5.72805 10.0378 5.07791C11.3911 4.42777 12.8736 4.09142 14.375 4.09394C19.8955 4.09394 24.392 8.5904 24.392 14.1109V14.6995L23.8505 14.158C23.6844 13.9938 23.4602 13.9018 23.2266 13.9018C22.9931 13.9018 22.7689 13.9938 22.6028 14.158C22.2614 14.4994 22.2614 15.0644 22.6028 15.4057L24.6509 17.4538C24.8181 17.6167 25.0414 17.7094 25.2748 17.7128C25.5087 17.7122 25.733 17.6191 25.8986 17.4538L27.9467 15.4057C28.2881 15.0879 28.2881 14.5229 27.9467 14.1815ZM23.4267 20.2471C23.3369 20.1738 23.2333 20.1192 23.1221 20.0866C23.0108 20.054 22.8942 20.0439 22.779 20.0571C22.6638 20.0703 22.5524 20.1064 22.4514 20.1632C22.3504 20.2201 22.2618 20.2966 22.1908 20.3883C21.2545 21.5619 20.0654 22.5091 18.7121 23.1592C17.3589 23.8094 15.8763 24.1457 14.375 24.1432C8.85446 24.1432 4.358 19.6467 4.358 14.1262V13.5377L4.89945 14.0791C5.07602 14.2557 5.29966 14.3381 5.52331 14.3381C5.74696 14.3381 5.9706 14.2557 6.14716 14.0791C6.48852 13.7378 6.48852 13.1728 6.14716 12.8314L4.09904 10.7833C4.01747 10.7034 3.92165 10.6395 3.81654 10.595C3.71083 10.5484 3.59658 10.5244 3.48107 10.5244C3.36556 10.5244 3.25131 10.5484 3.1456 10.595C3.03966 10.6421 2.9455 10.7009 2.8631 10.7833L0.814976 12.8314C0.473621 13.1728 0.473621 13.7378 0.814976 14.0791C1.15633 14.4205 1.72133 14.4205 2.06268 14.0791L2.60414 13.5377V14.1262C2.60414 20.6237 7.88925 25.9088 14.3867 25.9088C17.9769 25.9088 21.3315 24.2962 23.5798 21.4948C23.874 21.1181 23.8152 20.5531 23.4267 20.2471Z" fill="#E946DA"/>
<path d="M27.9467 14.1815L29.7145 12.4138L29.7093 12.4086L29.704 12.4034L27.9467 14.1815ZM26.699 14.1815L24.9417 12.4034L24.9365 12.4086L24.9313 12.4138L26.699 14.1815ZM26.1576 14.723H23.6576V20.7585L27.9253 16.4908L26.1576 14.723ZM5.18195 6.75415L7.12224 8.33063L7.127 8.32477L7.13173 8.31888L5.18195 6.75415ZM5.32321 7.99009L6.89969 6.0498L6.86671 6.02301L6.83285 5.99736L5.32321 7.99009ZM6.55914 7.84884L4.60487 6.28973L4.58533 6.31422L4.56641 6.33919L6.55914 7.84884ZM14.375 4.09394L14.3708 6.59394H14.375L14.375 4.09394ZM24.392 14.6995L22.6242 16.4672L26.892 20.735V14.6995H24.392ZM23.8505 14.158L25.6183 12.3902L25.613 12.385L25.6078 12.3798L23.8505 14.158ZM22.6028 14.158L20.8455 12.3798L20.8402 12.385L20.835 12.3902L22.6028 14.158ZM24.6509 17.4538L22.8831 19.2216L22.8948 19.2333L22.9067 19.2448L24.6509 17.4538ZM25.2748 17.7128L25.238 20.2125L25.2595 20.2128L25.2811 20.2128L25.2748 17.7128ZM25.8986 17.4538L27.6646 19.2234L27.6664 19.2216L25.8986 17.4538ZM27.9467 15.4057L26.2432 13.576L26.2105 13.6064L26.179 13.6379L27.9467 15.4057ZM23.4267 20.2471L21.8465 22.1842L21.8629 22.1977L21.8796 22.2108L23.4267 20.2471ZM22.1908 20.3883L24.1451 21.9474L24.1564 21.9333L24.1674 21.919L22.1908 20.3883ZM14.375 24.1432L14.3792 21.6432H14.375V24.1432ZM4.358 13.5377L6.12576 11.7699L1.858 7.50215V13.5377H4.358ZM6.14716 12.8314L7.91493 11.0637L7.91493 11.0637L6.14716 12.8314ZM4.09904 10.7833L5.8668 9.01554L5.85756 9.0063L5.84823 8.99715L4.09904 10.7833ZM3.81654 10.595L2.80876 12.8829L2.8246 12.8898L2.84055 12.8966L3.81654 10.595ZM3.48107 10.5244L3.48107 13.0244L3.48107 10.5244ZM3.1456 10.595L2.13782 8.30708L2.13025 8.31044L3.1456 10.595ZM2.8631 10.7833L4.63087 12.5511L4.63087 12.5511L2.8631 10.7833ZM0.814976 12.8314L-0.952791 11.0637L-0.952791 11.0637L0.814976 12.8314ZM2.60414 13.5377H5.10414V7.50215L0.836375 11.7699L2.60414 13.5377ZM23.5798 21.4948L25.5295 23.0595L25.5398 23.0468L25.5498 23.0339L23.5798 21.4948ZM29.704 12.4034C29.0699 11.7767 28.2144 11.4253 27.3229 11.4253V16.4253C26.8985 16.4253 26.4913 16.258 26.1895 15.9597L29.704 12.4034ZM27.3229 11.4253C26.4314 11.4253 25.5758 11.7767 24.9417 12.4034L28.4563 15.9597C28.1545 16.258 27.7472 16.4253 27.3229 16.4253V11.4253ZM24.9313 12.4138L24.3898 12.9552L27.9253 16.4908L28.4668 15.9493L24.9313 12.4138ZM28.6576 14.723V14.1227H23.6576V14.723H28.6576ZM28.6576 14.1227C28.6576 6.24448 22.2532 -0.159912 14.375 -0.159912V4.84009C19.4918 4.84009 23.6576 9.0059 23.6576 14.1227H28.6576ZM14.375 -0.159912C10.0249 -0.159912 5.95374 1.79815 3.23218 5.18942L7.13173 8.31888C8.90662 6.10723 11.5448 4.84009 14.375 4.84009V-0.159912ZM3.24167 5.17767C2.07257 6.61656 2.26219 8.80754 3.81356 9.98282L6.83285 5.99736C7.60734 6.58409 7.67925 7.64508 7.12224 8.33063L3.24167 5.17767ZM3.74672 9.93037C5.18561 11.0995 7.37659 10.9099 8.55187 9.35848L4.56641 6.33919C5.15315 5.5647 6.21413 5.49279 6.89969 6.0498L3.74672 9.93037ZM8.51342 9.40794C9.2151 8.52841 10.1062 7.81858 11.1204 7.33134L8.95521 2.82447C7.26284 3.63752 5.77578 4.82204 4.60487 6.28973L8.51342 9.40794ZM11.1204 7.33134C12.1346 6.84411 13.2456 6.59205 14.3708 6.59394L14.3792 1.59395C12.5016 1.59079 10.6476 2.01142 8.95521 2.82447L11.1204 7.33134ZM14.375 6.59394C18.5148 6.59394 21.892 9.97111 21.892 14.1109H26.892C26.892 7.20969 21.2762 1.59394 14.375 1.59394L14.375 6.59394ZM21.892 14.1109V14.6995H26.892V14.1109H21.892ZM26.1597 12.9317L25.6183 12.3902L22.0827 15.9258L22.6242 16.4672L26.1597 12.9317ZM25.6078 12.3798C24.9737 11.7532 24.1181 11.4018 23.2266 11.4018V16.4018C22.8023 16.4018 22.395 16.2345 22.0932 15.9362L25.6078 12.3798ZM23.2266 11.4018C22.3351 11.4018 21.4796 11.7532 20.8455 12.3798L24.3601 15.9362C24.0582 16.2345 23.651 16.4018 23.2266 16.4018V11.4018ZM20.835 12.3902C19.5174 13.7079 19.5174 15.8558 20.835 17.1735L24.3706 13.6379C25.0055 14.2729 25.0055 15.2908 24.3706 15.9258L20.835 12.3902ZM20.835 17.1735L22.8831 19.2216L26.4187 15.6861L24.3706 13.6379L20.835 17.1735ZM22.9067 19.2448C23.5316 19.8534 24.3658 20.1997 25.238 20.2125L25.3116 15.2131C25.717 15.219 26.1047 15.38 26.3952 15.6629L22.9067 19.2448ZM25.2811 20.2128C26.175 20.2105 27.0318 19.8549 27.6646 19.2234L24.1327 15.6843C24.4342 15.3834 24.8425 15.2139 25.2684 15.2128L25.2811 20.2128ZM27.6664 19.2216L29.7145 17.1735L26.179 13.6379L24.1309 15.6861L27.6664 19.2216ZM29.6503 17.2354C31.09 15.8951 30.9958 13.6951 29.7145 12.4138L26.179 15.9493C25.5804 15.3507 25.4862 14.2807 26.2432 13.576L29.6503 17.2354ZM25.007 18.3099C24.6587 18.0257 24.257 17.8141 23.8256 17.6876L22.4186 22.4856C22.2097 22.4243 22.0151 22.3218 21.8465 22.1842L25.007 18.3099ZM23.8256 17.6876C23.3941 17.5611 22.9418 17.5222 22.4951 17.5733L23.0629 22.5409C22.8466 22.5657 22.6275 22.5468 22.4186 22.4856L23.8256 17.6876ZM22.4951 17.5733C22.0485 17.6243 21.6165 17.7643 21.2248 17.9848L23.678 22.3416C23.4883 22.4484 23.2792 22.5162 23.0629 22.5409L22.4951 17.5733ZM21.2248 17.9848C20.8331 18.2054 20.4895 18.5022 20.2142 18.8576L24.1674 21.919C24.0341 22.0911 23.8677 22.2348 23.678 22.3416L21.2248 17.9848ZM20.2365 18.8292C19.5348 19.7087 18.6437 20.4186 17.6295 20.9058L19.7947 25.4127C21.4871 24.5996 22.9742 23.4151 24.1451 21.9474L20.2365 18.8292ZM17.6295 20.9058C16.6154 21.393 15.5043 21.6451 14.3792 21.6432L14.3708 26.6432C16.2483 26.6463 18.1024 26.2257 19.7947 25.4127L17.6295 20.9058ZM14.375 21.6432C10.2352 21.6432 6.858 18.266 6.858 14.1262H1.858C1.858 21.0275 7.47374 26.6432 14.375 26.6432V21.6432ZM6.858 14.1262V13.5377H1.858V14.1262H6.858ZM2.59023 15.3054L3.13169 15.8469L6.66722 12.3114L6.12576 11.7699L2.59023 15.3054ZM3.13169 15.8469C3.8018 16.517 4.67241 16.8381 5.52331 16.8381V11.8381C5.92692 11.8381 6.35023 11.9944 6.66722 12.3114L3.13169 15.8469ZM5.52331 16.8381C6.37421 16.8381 7.24482 16.517 7.91493 15.8469L4.3794 12.3114C4.69639 11.9944 5.1197 11.8381 5.52331 11.8381V16.8381ZM7.91493 15.8469C9.2326 14.5292 9.2326 12.3813 7.91493 11.0637L4.3794 14.5992C3.74444 13.9642 3.74444 12.9463 4.3794 12.3114L7.91493 15.8469ZM7.91493 11.0637L5.8668 9.01554L2.33127 12.5511L4.3794 14.5992L7.91493 11.0637ZM5.84823 8.99715C5.5434 8.69864 5.18532 8.45992 4.79253 8.29336L2.84055 12.8966C2.65798 12.8192 2.49154 12.7082 2.34985 12.5695L5.84823 8.99715ZM4.82432 8.3071C4.40105 8.12065 3.9436 8.02436 3.48107 8.02436L3.48107 13.0244C3.24956 13.0244 3.0206 12.9762 2.80876 12.8829L4.82432 8.3071ZM3.48107 8.02436C3.01854 8.02436 2.56109 8.12065 2.13782 8.3071L4.15338 12.8829C3.94154 12.9762 3.71258 13.0244 3.48107 13.0244L3.48107 8.02436ZM2.13025 8.31044C1.81285 8.45151 1.44231 8.66856 1.09533 9.01554L4.63087 12.5511C4.44868 12.7333 4.26648 12.8326 4.16095 12.8795L2.13025 8.31044ZM1.09533 9.01554L-0.952791 11.0637L2.58274 14.5992L4.63087 12.5511L1.09533 9.01554ZM-0.952791 11.0637C-2.27046 12.3813 -2.27046 14.5292 -0.952791 15.8469L2.58274 12.3114C3.2177 12.9463 3.2177 13.9642 2.58274 14.5992L-0.952791 11.0637ZM-0.952791 15.8469C0.364874 17.1646 2.51279 17.1646 3.83045 15.8469L0.294917 12.3114C0.929874 11.6764 1.94779 11.6764 2.58274 12.3114L-0.952791 15.8469ZM3.83045 15.8469L4.37191 15.3054L0.836375 11.7699L0.294917 12.3114L3.83045 15.8469ZM0.104142 13.5377V14.1262H5.10414V13.5377H0.104142ZM0.104142 14.1262C0.104142 22.0044 6.50854 28.4088 14.3867 28.4088V23.4088C9.26996 23.4088 5.10414 19.243 5.10414 14.1262H0.104142ZM14.3867 28.4088C18.7368 28.4088 22.808 26.4508 25.5295 23.0595L21.63 19.93C19.8551 22.1417 17.2169 23.4088 14.3867 23.4088V28.4088ZM25.5498 23.0339C26.6807 21.5864 26.4577 19.4524 24.9739 18.2833L21.8796 22.2108C21.1726 21.6538 21.0674 20.6498 21.6097 19.9557L25.5498 23.0339Z" fill="#E946DA" mask="url(#path-1-inside-1_401_1623)"/>
</g>
<mask id="path-3-inside-2_401_1623" fill="white">
<path d="M18.4359 13.7013C18.7538 13.2304 18.9303 12.6772 18.9303 12.0651C18.9303 10.4996 17.5531 9.1224 15.9876 9.1224H15.0224V7.94531C15.0224 7.46271 14.6222 7.0625 14.1396 7.0625C13.657 7.0625 13.2568 7.46271 13.2568 7.94531V9.1224H10.8438C10.3611 9.1224 9.96094 9.5226 9.96094 10.0052V18.2448C9.96094 18.7274 10.3611 19.1276 10.8438 19.1276H13.2568V20.3047C13.2568 20.7873 13.657 21.1875 14.1396 21.1875C14.6222 21.1875 15.0224 20.7873 15.0224 20.3047V19.1276H16.7292C18.5183 19.1276 19.9661 17.8093 19.9661 16.1849C19.9661 15.1373 19.3541 14.2192 18.4359 13.7013ZM11.7266 10.888H15.9876C16.635 10.888 17.1647 11.5354 17.1647 12.0651C17.1647 12.7125 16.635 13.2422 15.9876 13.2422H11.7266V10.888ZM16.7292 17.362H11.7266V15.0078H16.7292C17.5414 15.0078 18.2005 15.5375 18.2005 16.1849C18.2005 16.8323 17.5414 17.362 16.7292 17.362Z"/>
</mask>
<path d="M18.4359 13.7013C18.7538 13.2304 18.9303 12.6772 18.9303 12.0651C18.9303 10.4996 17.5531 9.1224 15.9876 9.1224H15.0224V7.94531C15.0224 7.46271 14.6222 7.0625 14.1396 7.0625C13.657 7.0625 13.2568 7.46271 13.2568 7.94531V9.1224H10.8438C10.3611 9.1224 9.96094 9.5226 9.96094 10.0052V18.2448C9.96094 18.7274 10.3611 19.1276 10.8438 19.1276H13.2568V20.3047C13.2568 20.7873 13.657 21.1875 14.1396 21.1875C14.6222 21.1875 15.0224 20.7873 15.0224 20.3047V19.1276H16.7292C18.5183 19.1276 19.9661 17.8093 19.9661 16.1849C19.9661 15.1373 19.3541 14.2192 18.4359 13.7013ZM11.7266 10.888H15.9876C16.635 10.888 17.1647 11.5354 17.1647 12.0651C17.1647 12.7125 16.635 13.2422 15.9876 13.2422H11.7266V10.888ZM16.7292 17.362H11.7266V15.0078H16.7292C17.5414 15.0078 18.2005 15.5375 18.2005 16.1849C18.2005 16.8323 17.5414 17.362 16.7292 17.362Z" fill="#E946DA"/>
<path d="M18.4359 13.7013L16.3638 12.3026L14.8483 14.5478L17.2076 15.8787L18.4359 13.7013ZM15.0224 9.1224H12.5224V11.6224H15.0224V9.1224ZM13.2568 9.1224V11.6224H15.7568V9.1224H13.2568ZM13.2568 19.1276H15.7568V16.6276H13.2568V19.1276ZM15.0224 19.1276V16.6276H12.5224V19.1276H15.0224ZM11.7266 10.888V8.38802H9.22656V10.888H11.7266ZM11.7266 13.2422H9.22656V15.7422H11.7266V13.2422ZM11.7266 17.362H9.22656V19.862H11.7266V17.362ZM11.7266 15.0078V12.5078H9.22656V15.0078H11.7266ZM20.5081 15.0999C21.1038 14.2174 21.4303 13.1774 21.4303 12.0651H16.4303C16.4303 12.1285 16.4215 12.1726 16.412 12.2036C16.4024 12.2349 16.3877 12.2671 16.3638 12.3026L20.5081 15.0999ZM21.4303 12.0651C21.4303 9.11887 18.9338 6.6224 15.9876 6.6224V11.6224C16.0316 11.6224 16.1507 11.6469 16.2783 11.7744C16.4058 11.902 16.4303 12.0211 16.4303 12.0651H21.4303ZM15.9876 6.6224H15.0224V11.6224H15.9876V6.6224ZM17.5224 9.1224V7.94531H12.5224V9.1224H17.5224ZM17.5224 7.94531C17.5224 6.082 16.0029 4.5625 14.1396 4.5625V9.5625C13.2415 9.5625 12.5224 8.84342 12.5224 7.94531H17.5224ZM14.1396 4.5625C12.2763 4.5625 10.7568 6.082 10.7568 7.94531H15.7568C15.7568 8.84342 15.0377 9.5625 14.1396 9.5625V4.5625ZM10.7568 7.94531V9.1224H15.7568V7.94531H10.7568ZM13.2568 6.6224H10.8438V11.6224H13.2568V6.6224ZM10.8438 6.6224C8.98043 6.6224 7.46094 8.14189 7.46094 10.0052H12.4609C12.4609 10.9033 11.7419 11.6224 10.8438 11.6224V6.6224ZM7.46094 10.0052V18.2448H12.4609V10.0052H7.46094ZM7.46094 18.2448C7.46094 20.1081 8.98043 21.6276 10.8438 21.6276V16.6276C11.7419 16.6276 12.4609 17.3467 12.4609 18.2448H7.46094ZM10.8438 21.6276H13.2568V16.6276H10.8438V21.6276ZM10.7568 19.1276V20.3047H15.7568V19.1276H10.7568ZM10.7568 20.3047C10.7568 22.168 12.2763 23.6875 14.1396 23.6875V18.6875C15.0377 18.6875 15.7568 19.4066 15.7568 20.3047H10.7568ZM14.1396 23.6875C16.0029 23.6875 17.5224 22.168 17.5224 20.3047H12.5224C12.5224 19.4066 13.2415 18.6875 14.1396 18.6875V23.6875ZM17.5224 20.3047V19.1276H12.5224V20.3047H17.5224ZM15.0224 21.6276H16.7292V16.6276H15.0224V21.6276ZM16.7292 21.6276C19.6707 21.6276 22.4661 19.4078 22.4661 16.1849H17.4661C17.4661 16.2256 17.4532 16.3098 17.3364 16.416C17.216 16.5255 17.0083 16.6276 16.7292 16.6276V21.6276ZM22.4661 16.1849C22.4661 14.1099 21.2525 12.4198 19.6642 11.5238L17.2076 15.8787C17.3261 15.9455 17.3954 16.0219 17.4299 16.0767C17.4609 16.1259 17.4661 16.159 17.4661 16.1849H22.4661ZM11.7266 13.388H15.9876V8.38802H11.7266V13.388ZM15.9876 13.388C15.4598 13.388 15.1313 13.1334 14.9932 12.9858C14.877 12.8615 14.6647 12.5715 14.6647 12.0651H19.6647C19.6647 11.0291 19.1876 10.1505 18.6446 9.57004C18.0799 8.96636 17.1628 8.38802 15.9876 8.38802V13.388ZM14.6647 12.0651C14.6647 11.3318 15.2543 10.7422 15.9876 10.7422V15.7422C18.0157 15.7422 19.6647 14.0932 19.6647 12.0651H14.6647ZM15.9876 10.7422H11.7266V15.7422H15.9876V10.7422ZM14.2266 13.2422V10.888H9.22656V13.2422H14.2266ZM16.7292 14.862H11.7266V19.862H16.7292V14.862ZM14.2266 17.362V15.0078H9.22656V17.362H14.2266ZM11.7266 17.5078H16.7292V12.5078H11.7266V17.5078ZM16.7292 17.5078C16.604 17.5078 16.4116 17.4691 16.2064 17.3047C15.9982 17.1379 15.7005 16.7591 15.7005 16.1849H20.7005C20.7005 13.6678 18.3762 12.5078 16.7292 12.5078V17.5078ZM15.7005 16.1849C15.7005 15.6107 15.9982 15.2319 16.2064 15.0651C16.4116 14.9007 16.604 14.862 16.7292 14.862V19.862C18.3762 19.862 20.7005 18.7019 20.7005 16.1849H15.7005Z" fill="#E946DA" mask="url(#path-3-inside-2_401_1623)"/>
</g>
<defs>
<clipPath id="clip0_401_1623">
<rect width="28.25" height="28.25" fill="white" transform="translate(0.25)"/>
</clipPath>
</defs>
</svg>
