<svg width="29" height="29" viewBox="0 0 29 29" fill="none" xmlns="http://www.w3.org/2000/svg">
<path d="M11.0075 14.4322C11.6637 15.0883 12.4951 15.5167 13.4193 15.716V16.232C13.4193 17.8451 15.2198 18.775 16.5402 17.9151L16.5463 17.9112L16.5524 17.9072L19.6389 15.8459H22.3203C22.3945 15.8459 22.4683 15.8446 22.5417 15.842V16.3615C22.5417 17.9772 22.0864 18.9255 21.4845 19.4844C20.8658 20.0588 19.8923 20.4084 18.4948 20.4084H7.90106C6.50362 20.4084 5.53004 20.0588 4.91139 19.4844C4.30952 18.9255 3.85419 17.9772 3.85419 16.3615V10.0052C3.85419 8.38959 4.30952 7.44126 4.91139 6.88237C5.53004 6.30792 6.50362 5.95837 7.90106 5.95837H9.59766C9.59507 6.03179 9.59377 6.10558 9.59377 6.17973V10.7704C9.59377 12.1893 10.0663 13.491 11.0075 14.4322Z" fill="#758FE5" stroke="#758FE5" stroke-width="2.5"/>
<path opacity="0.4" d="M19.2599 13.3458H18.8809L18.5657 13.5563L15.9193 15.3236V14.5958V13.3458H14.6693C13.8047 13.3458 13.1759 13.065 12.7752 12.6643C12.3746 12.2636 12.0938 11.6349 12.0938 10.7703V6.17965C12.0938 5.78279 12.155 5.42803 12.2596 5.11969C12.5819 4.21933 13.3848 3.60413 14.6693 3.60413H22.3203C23.1839 3.60413 23.8064 3.88654 24.2099 4.29003C24.6134 4.69352 24.8958 5.31605 24.8958 6.17965V10.7703C24.8958 12.0548 24.2806 12.8576 23.3803 13.18C23.0719 13.2846 22.7172 13.3458 22.3203 13.3458H19.2599Z" fill="#758FE5" stroke="#758FE5" stroke-width="2.5"/>
<path d="M18.4237 8.16672C18.472 8.16665 18.52 8.17612 18.5647 8.19457C18.6094 8.21302 18.65 8.2401 18.6843 8.27426C18.7185 8.30842 18.7457 8.34899 18.7643 8.39366C18.7829 8.43833 18.7925 8.48621 18.7925 8.53459C18.7926 8.58296 18.7831 8.63087 18.7647 8.67559C18.7462 8.72031 18.7191 8.76095 18.685 8.7952C18.6508 8.82945 18.6102 8.85664 18.5656 8.87521C18.5209 8.89379 18.473 8.90338 18.4246 8.90344C18.3758 8.90351 18.3279 8.89387 18.2836 8.87559C18.2393 8.85731 18.1986 8.83039 18.164 8.7959C18.1294 8.7614 18.1024 8.72075 18.084 8.6765C18.0656 8.63225 18.0559 8.58442 18.0558 8.53557C18.0557 8.48672 18.0654 8.43886 18.0836 8.39457C18.1019 8.35027 18.1288 8.30954 18.1633 8.27495C18.1978 8.24037 18.2385 8.21334 18.2827 8.19494C18.327 8.17655 18.3748 8.16678 18.4237 8.16672ZM21.7301 8.16672C21.7785 8.16665 21.8264 8.17611 21.8711 8.19457C21.9158 8.21302 21.9565 8.2401 21.9907 8.27426C22.025 8.30843 22.0522 8.349 22.0707 8.39366C22.0893 8.43832 22.0989 8.48621 22.0989 8.53459C22.099 8.58296 22.0895 8.63087 22.0711 8.67559C22.0526 8.72031 22.0256 8.76095 21.9914 8.7952C21.9572 8.82946 21.9167 8.85664 21.872 8.87521C21.8273 8.89378 21.7794 8.90338 21.7311 8.90344C21.6822 8.90351 21.6344 8.89387 21.5901 8.87559C21.5458 8.85731 21.505 8.83039 21.4705 8.7959C21.4359 8.7614 21.4088 8.72075 21.3904 8.6765C21.372 8.63225 21.3623 8.58442 21.3622 8.53557C21.3622 8.48672 21.3718 8.43886 21.3901 8.39457C21.4083 8.35027 21.4353 8.30954 21.4698 8.27495C21.5043 8.24037 21.5449 8.21334 21.5892 8.19494C21.6334 8.17655 21.6812 8.16678 21.7301 8.16672ZM15.1043 8.16672C15.1527 8.16665 15.2006 8.17612 15.2453 8.19457C15.29 8.21302 15.3307 8.2401 15.3649 8.27426C15.3992 8.30842 15.4263 8.34899 15.4449 8.39366C15.4635 8.43833 15.4731 8.48621 15.4731 8.53459C15.4732 8.58296 15.4637 8.63087 15.4453 8.67559C15.4268 8.72031 15.3998 8.76095 15.3656 8.7952C15.3314 8.82945 15.2909 8.85664 15.2462 8.87521C15.2015 8.89379 15.1536 8.90338 15.1053 8.90344C15.0564 8.90351 15.0086 8.89387 14.9643 8.87559C14.92 8.85731 14.8792 8.83039 14.8447 8.7959C14.8101 8.7614 14.783 8.72075 14.7646 8.6765C14.7462 8.63225 14.7365 8.58442 14.7364 8.53557C14.7364 8.48672 14.746 8.43886 14.7643 8.39457C14.7825 8.35027 14.8095 8.30954 14.844 8.27495C14.8785 8.24037 14.9191 8.21334 14.9634 8.19494C15.0076 8.17655 15.0554 8.16678 15.1043 8.16672Z" fill="#758FE5" stroke="#758FE5" stroke-width="2.5"/>
</svg>
