<svg width="29" height="29" viewBox="0 0 29 29" fill="none" xmlns="http://www.w3.org/2000/svg">
<path d="M12.0651 22.0703V24.7188C12.0651 24.8786 11.9307 25.013 11.7708 25.013C11.611 25.013 11.4766 24.8786 11.4766 24.7188V22.0703H12.0651ZM16.7734 22.0703V24.7188C16.7734 24.8786 16.639 25.013 16.4792 25.013C16.3193 25.013 16.1849 24.8786 16.1849 24.7188V22.0703H16.7734Z" fill="#0FFFF1" stroke="#0FFFF1" stroke-width="1.76562"/>
<path opacity="0.4" d="M19.1276 12.9479V18.8333C19.1276 19.6406 18.4635 20.3047 17.6563 20.3047H10.5938C9.78653 20.3047 9.12241 19.6406 9.12241 18.8333V12.9479C9.12241 12.1407 9.78653 11.4766 10.5938 11.4766H17.6563C18.4635 11.4766 19.1276 12.1407 19.1276 12.9479Z" fill="#0FFFF1" stroke="#0FFFF1" stroke-width="1.76562"/>
<path d="M5.0026 12.9478V17.6562C5.0026 17.816 4.86817 17.9504 4.70833 17.9504C4.5485 17.9504 4.41406 17.816 4.41406 17.6562V12.9478C4.41406 12.788 4.5485 12.6536 4.70833 12.6536C4.86817 12.6536 5.0026 12.788 5.0026 12.9478ZM23.8359 12.9478V17.6562C23.8359 17.816 23.7015 17.9504 23.5417 17.9504C23.3818 17.9504 23.2474 17.816 23.2474 17.6562V12.9478C23.2474 12.788 23.3818 12.6536 23.5417 12.6536C23.7015 12.6536 23.8359 12.788 23.8359 12.9478Z" fill="#0FFFF1" stroke="#0FFFF1" stroke-width="1.76562"/>
<path opacity="0.4" d="M11.3 8.94591H16.95C17.9858 8.94591 18.8333 8.09841 18.8333 7.06258C18.8333 4.46123 16.7263 2.35425 14.125 2.35425C11.5236 2.35425 9.41666 4.46123 9.41666 7.06258C9.41666 8.09841 10.2642 8.94591 11.3 8.94591Z" fill="#0FFFF1"/>
</svg>
