<svg width="29" height="29" viewBox="0 0 29 29" fill="none" xmlns="http://www.w3.org/2000/svg">
<path opacity="0.4" d="M14.9349 7.94527L14.9349 7.9465C14.936 9.06984 14.5002 10.1496 13.7196 10.9574C12.9458 11.7583 11.8932 12.2297 10.7811 12.2743C10.6548 12.2628 10.5316 12.2639 10.4197 12.2722C8.03795 12.1524 6.25261 10.2634 6.25261 7.94527C6.25261 5.55167 8.20015 3.60413 10.5938 3.60413C12.9874 3.60413 14.9349 5.55167 14.9349 7.94527Z" fill="#FFC700" stroke="#FFC700" stroke-width="2.5"/>
<path d="M5.31096 23.1972L5.30754 23.195C4.07704 22.3746 3.55708 21.3838 3.55708 20.4566C3.55708 19.5284 4.07808 18.5263 5.31856 17.6952C6.72631 16.7643 8.63765 16.2626 10.6085 16.2626C12.5809 16.2626 14.4856 16.7651 15.88 17.6947C17.1011 18.5088 17.6209 19.4988 17.6304 20.4381C17.6286 21.3767 17.1069 22.3668 15.8754 23.198C14.4754 24.1376 12.5664 24.6447 10.5938 24.6447C8.62055 24.6447 6.71109 24.1373 5.31096 23.1972Z" fill="#FFC700" stroke="#FFC700" stroke-width="2.5"/>
<path opacity="0.4" d="M19.4199 11.9717C19.1172 11.9782 18.8285 11.9437 18.5584 11.874C19.3442 10.6748 19.7438 9.21045 19.6203 7.66671L19.6203 7.66671L19.6195 7.65685C19.5703 7.09805 19.4515 6.54992 19.2674 6.02471C19.3153 6.02391 19.3633 6.02426 19.4114 6.02577C19.8943 6.04099 20.3662 6.17345 20.7865 6.41174C21.2067 6.65002 21.5627 6.98697 21.8237 7.39352C22.0842 7.79935 22.2423 8.26236 22.2843 8.74276C22.4147 10.3393 21.3025 11.7198 19.7677 11.9422C19.7194 11.9413 19.5846 11.9417 19.4199 11.9717Z" fill="#FFC700" stroke="#FFC700" stroke-width="2.5"/>
<path d="M25.8817 19.5279C25.7875 20.6696 25.0577 21.6584 23.8336 22.3293C22.6565 22.9767 21.1734 23.2828 19.702 23.2475C20.5495 22.4824 21.0439 21.5289 21.1381 20.5166C21.2558 19.057 20.5613 17.6563 19.1723 16.5381C18.3837 15.9142 17.4656 15.4199 16.465 15.055C19.0664 14.3016 22.3387 14.8078 24.3515 16.4321C25.4344 17.3032 25.9876 18.3979 25.8817 19.5279Z" fill="#FFC700"/>
</svg>
