<svg width="30" height="30" viewBox="0 0 30 30" fill="none" xmlns="http://www.w3.org/2000/svg">
<path d="M12.8464 23.0078V25.6563C12.8464 25.8161 12.7119 25.9505 12.5521 25.9505C12.3923 25.9505 12.2578 25.8161 12.2578 25.6563V23.0078H12.8464ZM17.5547 23.0078V25.6563C17.5547 25.8161 17.4202 25.9505 17.2604 25.9505C17.1006 25.9505 16.9661 25.8161 16.9661 25.6563V23.0078H17.5547Z" fill="#0FFFF1" stroke="#0FFFF1" stroke-width="1.76562"/>
<path opacity="0.4" d="M19.9089 13.8854V19.7708C19.9089 20.5781 19.2447 21.2422 18.4375 21.2422H11.375C10.5678 21.2422 9.90366 20.5781 9.90366 19.7708V13.8854C9.90366 13.0782 10.5678 12.4141 11.375 12.4141H18.4375C19.2447 12.4141 19.9089 13.0782 19.9089 13.8854Z" fill="#0FFFF1" stroke="#0FFFF1" stroke-width="1.76562"/>
<path d="M5.78385 13.8856V18.5939C5.78385 18.7537 5.64942 18.8882 5.48958 18.8882C5.32975 18.8882 5.19531 18.7537 5.19531 18.5939V13.8856C5.19531 13.7257 5.32975 13.5913 5.48958 13.5913C5.64942 13.5913 5.78385 13.7257 5.78385 13.8856ZM24.6172 13.8856V18.5939C24.6172 18.7537 24.4827 18.8882 24.3229 18.8882C24.1631 18.8882 24.0286 18.7537 24.0286 18.5939V13.8856C24.0286 13.7257 24.1631 13.5913 24.3229 13.5913C24.4827 13.5913 24.6172 13.7257 24.6172 13.8856Z" fill="#0FFFF1" stroke="#0FFFF1" stroke-width="1.76562"/>
<path opacity="0.4" d="M12.0812 9.88317H17.7312C18.7671 9.88317 19.6146 9.03567 19.6146 7.99984C19.6146 5.39848 17.5076 3.2915 14.9062 3.2915C12.3049 3.2915 10.1979 5.39848 10.1979 7.99984C10.1979 9.03567 11.0454 9.88317 12.0812 9.88317Z" fill="#0FFFF1"/>
</svg>
