<svg width="30" height="29" viewBox="0 0 30 29" fill="none" xmlns="http://www.w3.org/2000/svg">
<path opacity="0.4" d="M22.349 24.5949L22.348 24.5944L16.6074 21.4065C16.1416 21.1429 15.5855 21.0375 15.0791 21.0375C14.5703 21.0375 14.0131 21.1438 13.5444 21.4051C13.5443 21.4052 13.5442 21.4052 13.5441 21.4053L7.80409 24.5929C7.80362 24.5931 7.80315 24.5934 7.80268 24.5937C7.04341 25.0113 6.54667 24.9398 6.29138 24.7894C6.03662 24.6394 5.7345 24.2412 5.7345 23.3769V6.79183C5.7345 4.78398 7.38737 3.1311 9.39523 3.1311H20.7423C22.7589 3.1311 24.4041 4.78135 24.4148 6.79372V23.3769C24.4148 24.2495 24.1112 24.6491 23.8579 24.7983C23.6052 24.9471 23.1099 25.0188 22.349 24.5949Z" fill="#FFDD3C" stroke="#FFDD3C" stroke-width="1.76562"/>
<path d="M13.9976 15.5977C13.774 15.5977 13.5503 15.5153 13.3738 15.3388L11.6081 13.5731C11.444 13.407 11.3519 13.1829 11.3519 12.9493C11.3519 12.7157 11.444 12.4916 11.6081 12.3254C11.9495 11.9841 12.5145 11.9841 12.8558 12.3254L13.9976 13.4672L18.0821 9.38272C18.4234 9.04137 18.9884 9.04137 19.3298 9.38272C19.6712 9.72408 19.6712 10.2891 19.3298 10.6304L14.6215 15.3388C14.4449 15.5153 14.2213 15.5977 13.9976 15.5977Z" fill="#FFDD3C"/>
</svg>
