<svg width="29" height="30" viewBox="0 0 29 30" fill="none" xmlns="http://www.w3.org/2000/svg">
<path d="M7.86776 23.3765L7.84712 23.3852L7.82693 23.395C7.72306 23.4453 7.60914 23.4715 7.49372 23.4715C7.49367 23.4715 7.49362 23.4715 7.49357 23.4715H5.13956C4.65014 23.4715 4.25674 23.0781 4.25674 22.5887V20.2345C4.25674 19.7451 4.65014 19.3517 5.13956 19.3517H7.49372C7.98314 19.3517 8.37654 19.7451 8.37654 20.2345V22.5887C8.37654 22.9482 8.15678 23.2542 7.86776 23.3765ZM21.2855 23.395L21.2653 23.3852L21.2447 23.3765C20.9557 23.2542 20.7359 22.9482 20.7359 22.5887V20.2345C20.7359 19.7451 21.1293 19.3517 21.6187 19.3517H23.9729C24.4623 19.3517 24.8557 19.7451 24.8557 20.2345V22.5887C24.8557 23.0781 24.4623 23.4715 23.9729 23.4715H21.6189C21.6188 23.4715 21.6188 23.4715 21.6187 23.4715C21.5033 23.4715 21.3894 23.4453 21.2855 23.395ZM5.00288 10.0927C4.72695 10.3686 4.3527 10.5236 3.96247 10.5236C3.57225 10.5236 3.198 10.3686 2.92207 10.0927C2.64614 9.81672 2.49112 9.44247 2.49112 9.05225C2.49112 8.66202 2.64614 8.28777 2.92207 8.01184C3.198 7.73591 3.57225 7.58089 3.96247 7.58089C4.3527 7.58089 4.72695 7.73591 5.00288 8.01184C5.27881 8.28777 5.43383 8.66202 5.43383 9.05225C5.43383 9.44247 5.27881 9.81672 5.00288 10.0927ZM26.1904 10.0927C25.9144 10.3686 25.5402 10.5236 25.15 10.5236C24.7597 10.5236 24.3855 10.3686 24.1096 10.0927C23.8336 9.81672 23.6786 9.44247 23.6786 9.05225C23.6786 8.66202 23.8336 8.28777 24.1096 8.01184C24.3855 7.73591 24.7597 7.58089 25.15 7.58089C25.5402 7.58089 25.9144 7.73591 26.1904 8.01184C26.4663 8.28777 26.6213 8.66202 26.6213 9.05225C26.6213 9.44247 26.4663 9.81672 26.1904 10.0927ZM17.2047 10.8179C17.2047 11.2955 16.7995 11.7007 16.3218 11.7007H12.7906C12.313 11.7007 11.9078 11.2955 11.9078 10.8179V7.28662C11.9078 6.80898 12.313 6.40381 12.7906 6.40381H16.3218C16.7995 6.40381 17.2047 6.80898 17.2047 7.28662V10.8179Z" fill="white" stroke="#FF720C" stroke-width="1.76562"/>
<g opacity="0.4">
<path opacity="0.4" d="M9.86759 10.6442L10.9817 9.81812C10.998 9.85959 11.0158 9.89601 11.0329 9.92701C8.14877 11.3856 6.32845 14.5291 6.32845 17.8921C6.32845 17.8979 6.32845 17.9037 6.32845 17.9095C6.32841 18.0478 6.32835 18.2272 6.35133 18.4257C6.32621 18.2512 6.31668 18.0783 6.31668 17.8804C6.31668 14.9613 7.68612 12.2617 9.86759 10.6442ZM17.9584 10.1002L17.9623 10.0963C17.9541 10.105 17.9515 10.1072 17.9584 10.1002ZM18.1938 9.86484L18.7885 10.3057C18.5758 10.1702 18.3561 10.0443 18.1299 9.9288L18.1938 9.86484ZM22.8076 17.8804C22.8076 17.2326 22.7401 16.593 22.6104 15.972C22.7427 16.5885 22.8144 17.225 22.8194 17.8719C22.8192 18.0393 22.8039 18.2024 22.7824 18.4184C22.783 18.4091 22.7837 18.3998 22.7844 18.3903C22.7951 18.2419 22.8076 18.0678 22.8076 17.8804Z" fill="white" stroke="#FF720C" stroke-width="1.76562"/>
</g>
</svg>
