<svg width="29" height="30" viewBox="0 0 29 30" fill="none" xmlns="http://www.w3.org/2000/svg">
<path opacity="0.4" d="M25.0942 14.9373C25.0942 20.9508 20.2197 25.8254 14.2062 25.8254C8.19273 25.8254 3.31818 20.9508 3.31818 14.9373C3.31818 8.92387 8.19273 4.04932 14.2062 4.04932C20.2197 4.04932 25.0942 8.92387 25.0942 14.9373Z" fill="#9CF0AF" stroke="#9CF0AF" stroke-width="1.76562"/>
<path d="M17.0414 14.9377C17.6276 14.8812 18.1572 14.6247 18.561 14.2378L18.1267 14.7977L18.8479 15.1476C18.4826 15.0105 18.0906 14.9377 17.7022 14.9377H17.0414ZM20.6214 17.4859C20.6212 17.4291 20.6191 17.3731 20.6151 17.3178C20.6193 17.3717 20.6214 17.4259 20.6214 17.4802C20.6214 17.4821 20.6214 17.484 20.6214 17.4859ZM17.7022 20.0344C18.2653 20.0344 18.839 19.8824 19.327 19.6019C18.8715 19.8722 18.3178 20.0344 17.7022 20.0344ZM17.8426 10.0828C17.5316 9.93253 17.179 9.84089 16.7958 9.84089H14.8654V9.82912H15.7482H16.7841C17.1549 9.82912 17.5152 9.92127 17.8426 10.0828Z" fill="#9CF0AF" stroke="#9CF0AF" stroke-width="1.76562"/>
</svg>
