<svg width="30" height="29" viewBox="0 0 30 29" fill="none" xmlns="http://www.w3.org/2000/svg">
<path opacity="0.4" d="M28.712 19.5469C28.712 19.3127 28.619 19.0882 28.4534 18.9226C28.2879 18.7571 28.0633 18.6641 27.8292 18.6641C27.595 18.6641 27.3705 18.7571 27.2049 18.9226C27.0394 19.0882 26.9464 19.3127 26.9464 19.5469C26.9477 21.2076 26.3868 22.8199 25.3548 24.1212C24.5932 25.0815 23.6082 25.8307 22.4942 26.3089L28.712 19.5469ZM28.712 19.5469C28.7128 20.7451 28.4773 21.9317 28.0192 23.0388C27.561 24.1459 26.8891 25.1519 26.0418 25.9991C25.1946 26.8464 24.1886 27.5183 23.0815 27.9764C21.9744 28.4346 20.7878 28.67 19.5896 28.6693L28.712 19.5469ZM19.5902 27.7865H19.5897L19.5897 27.7863L20.6909 25.951L20.5063 26.259L19.5905 27.7865C19.5904 27.7865 19.5903 27.7865 19.5902 27.7865ZM9.38194 2.96295V1.92814C9.64419 1.90302 9.90797 1.89046 10.1724 1.89063L10.1729 1.89063L10.1728 1.89078L9.07428 3.72163L9.25628 3.41808L9.38194 3.2085V2.96413V2.96295Z" fill="#FFB800" stroke="#FF720C" stroke-width="1.76562"/>
<path opacity="0.4" d="M18.2359 18.7946C18.2359 22.8084 14.9872 26.0572 10.9733 26.0572C6.95944 26.0572 3.71069 22.8084 3.71069 18.7946C3.71069 14.7807 6.95944 11.532 10.9733 11.532C11.1616 11.532 11.3382 11.5438 11.5383 11.5555C15.1049 11.8263 17.9534 14.6748 18.2241 18.2414C18.2241 18.4179 18.2359 18.5945 18.2359 18.7946Z" fill="#FFB800"/>
<path d="M26.0635 10.9555C26.0635 14.9693 22.8148 18.2181 18.8009 18.2181H18.2241C18.0906 16.4893 17.3433 14.8653 16.1172 13.6392C14.8911 12.4131 13.2671 11.6658 11.5383 11.5322V10.9555C11.5383 6.94162 14.7871 3.69287 18.8009 3.69287C22.8148 3.69287 26.0635 6.94162 26.0635 10.9555ZM13.8454 18.4194C13.9866 18.1251 14.069 17.8073 14.069 17.4659C14.069 16.2888 13.0332 15.253 11.8561 15.253H11.5501V14.8057C11.5501 14.3231 11.1499 13.9229 10.6673 13.9229C10.1847 13.9229 9.78446 14.3231 9.78446 14.8057V15.253H8.54852C8.06592 15.253 7.66571 15.6532 7.66571 16.1358V21.4327C7.66571 21.9153 8.06592 22.3155 8.54852 22.3155H9.78446V22.7628C9.78446 23.2454 10.1847 23.6456 10.6673 23.6456C11.1499 23.6456 11.5501 23.2454 11.5501 22.7628V22.3155H12.327C13.6453 22.3155 14.7282 21.3268 14.7282 20.1026C14.7282 19.4317 14.3751 18.8196 13.8454 18.4194ZM9.43134 17.0186H11.8561C12.1033 17.0186 12.3034 17.2894 12.3034 17.4659C12.3034 17.7131 12.1033 17.9132 11.8561 17.9132H9.43134V17.0186ZM12.327 20.5617H9.41956V19.6788H12.3152C12.6919 19.6788 12.9508 19.9143 12.9508 20.1261C12.9508 20.338 12.7036 20.5617 12.327 20.5617Z" fill="#FFB800"/>
</svg>
