<svg width="29" height="29" viewBox="0 0 29 29" fill="none" xmlns="http://www.w3.org/2000/svg">
<path d="M8.62837 3.104H6.39191C3.8141 3.104 2.46045 4.45765 2.46045 7.02369V9.26015C2.46045 11.8262 3.81409 13.1798 6.38014 13.1798H8.6166C11.1826 13.1798 12.5363 11.8262 12.5363 9.26015V7.02369C12.5481 4.45765 11.1944 3.104 8.62837 3.104Z" fill="#00A3FF"/>
<path opacity="0.4" d="M22.0824 3.104H19.846C17.2799 3.104 15.9263 4.45765 15.9263 7.02369V9.26015C15.9263 11.8262 17.2799 13.1798 19.846 13.1798H22.0824C24.6485 13.1798 26.0021 11.8262 26.0021 9.26015V7.02369C26.0021 4.45765 24.6485 3.104 22.0824 3.104Z" fill="#00A3FF"/>
<path d="M22.0824 16.5581H19.846C17.2799 16.5581 15.9263 17.9118 15.9263 20.4778V22.7143C15.9263 25.2803 17.2799 26.6339 19.846 26.6339H22.0824C24.6485 26.6339 26.0021 25.2803 26.0021 22.7143V20.4778C26.0021 17.9118 24.6485 16.5581 22.0824 16.5581Z" fill="#00A3FF"/>
<path opacity="0.4" d="M8.62837 16.5581H6.39191C3.8141 16.5581 2.46045 17.9118 2.46045 20.4778V22.7143C2.46045 25.2921 3.81409 26.6457 6.38014 26.6457H8.6166C11.1826 26.6457 12.5363 25.2921 12.5363 22.726V20.4896C12.5481 17.9118 11.1944 16.5581 8.62837 16.5581Z" fill="#00A3FF"/>
</svg>
