<svg width="30" height="30" viewBox="0 0 30 30" fill="none" xmlns="http://www.w3.org/2000/svg">
<path opacity="0.4" d="M22.0158 16.7621C21.5215 17.2447 21.239 17.9392 21.3096 18.6808C21.4155 19.952 22.5808 20.8819 23.8521 20.8819H26.0886V22.2827C26.0886 24.7192 24.0993 26.7085 21.6627 26.7085H8.1498C5.71324 26.7085 3.72397 24.7192 3.72397 22.2827V14.3609C3.72397 11.9243 5.71324 9.93506 8.1498 9.93506H21.6627C24.0993 9.93506 26.0886 11.9243 26.0886 14.3609V16.0559H23.7108C23.0517 16.0559 22.4514 16.3149 22.0158 16.7621Z" fill="#14BE62"/>
<path d="M18.2609 5.46443V9.93734H8.1498C5.71324 9.93734 3.72397 11.9266 3.72397 14.3632V10.0433C3.72397 8.64255 4.58324 7.39484 5.8898 6.90047L15.2358 3.36922C16.6954 2.82776 18.2609 3.89891 18.2609 5.46443ZM27.3351 17.2564V19.6812C27.3351 20.3286 26.8172 20.8583 26.158 20.8819H23.8509C22.5797 20.8819 21.4144 19.952 21.3084 18.6807C21.2378 17.9392 21.5203 17.2447 22.0147 16.7621C22.4502 16.3148 23.0505 16.0558 23.7097 16.0558H26.158C26.8172 16.0794 27.3351 16.6091 27.3351 17.2564ZM17.2604 15.8204H9.02084C8.53824 15.8204 8.13803 15.4202 8.13803 14.9376C8.13803 14.455 8.53824 14.0548 9.02084 14.0548H17.2604C17.743 14.0548 18.1432 14.455 18.1432 14.9376C18.1432 15.4202 17.743 15.8204 17.2604 15.8204Z" fill="#14BE62"/>
</svg>
