<svg width="29" height="29" viewBox="0 0 29 29" fill="none" xmlns="http://www.w3.org/2000/svg">
<path opacity="0.4" d="M23.2161 13.2476V21.7814C23.2161 23.4981 22.9186 24.3617 22.4447 24.8356C21.9709 25.3094 21.1073 25.6069 19.3906 25.6069H9.97393C8.25721 25.6069 7.39365 25.3094 6.91979 24.8356C6.44592 24.3617 6.14841 23.4981 6.14841 21.7814V13.2476H23.2161Z" fill="white" stroke="white" stroke-width="1.76562"/>
<path d="M25.0182 8.83317V10.0103C25.0182 10.531 24.8915 10.8818 24.7076 11.0925C24.5428 11.2814 24.2246 11.4816 23.5469 11.4816H5.89064C5.16717 11.4816 4.8594 11.2755 4.71028 11.1005C4.53809 10.8983 4.41928 10.5525 4.41928 10.0103V8.83317C4.41928 8.29088 4.53809 7.94513 4.71028 7.74296C4.8594 7.56789 5.16717 7.36182 5.89064 7.36182H23.5469C24.2246 7.36182 24.5428 7.56203 24.7076 7.7509C24.8915 7.96167 25.0182 8.31244 25.0182 8.83317Z" fill="white" stroke="white" stroke-width="1.76562"/>
<path opacity="0.4" d="M20.9915 5.5975H17.2644L18.9555 3.90638C18.9558 3.90601 18.9562 3.90564 18.9566 3.90527C19.0028 3.86021 19.0647 3.83496 19.1293 3.83496C19.1938 3.83496 19.2558 3.8602 19.3019 3.90525C19.3023 3.90562 19.3027 3.906 19.3031 3.90638L20.971 5.57434L21.5953 4.9501L20.971 5.57434C20.9785 5.58178 20.9853 5.58952 20.9915 5.5975ZM10.4703 3.90527L12.1625 5.5975H8.43475C8.4402 5.59062 8.44608 5.58405 8.45238 5.57782L8.45239 5.57783L8.45587 5.57434L10.1249 3.90527C10.1711 3.86021 10.2331 3.83496 10.2976 3.83496C10.3622 3.83496 10.4241 3.86021 10.4703 3.90527Z" fill="white" stroke="white" stroke-width="1.76562"/>
<path opacity="0.6" d="M11.1181 12.3647V18.415C11.1181 19.3566 12.1539 19.9099 12.9425 19.4037L14.049 18.6739C14.2412 18.5473 14.4663 18.4799 14.6964 18.4799C14.9265 18.4799 15.1516 18.5473 15.3438 18.6739L16.3914 19.3802C16.5682 19.498 16.7736 19.5656 16.9858 19.5759C17.198 19.5861 17.409 19.5385 17.5963 19.4382C17.7836 19.338 17.9401 19.1887 18.0493 19.0064C18.1584 18.8241 18.216 18.6156 18.2159 18.4032V12.3647H11.1181Z" fill="white"/>
</svg>
