<svg width="18" height="19" viewBox="0 0 18 19" fill="none" xmlns="http://www.w3.org/2000/svg">
<path opacity="0.4" d="M17.6475 9.53603C17.5416 9.43142 17.3988 9.37275 17.25 9.37275C17.1012 9.37275 16.9583 9.43142 16.8525 9.53603L16.5075 9.88103V9.49853C16.5075 5.35853 13.14 1.99103 8.99999 1.99103C6.71249 1.99103 4.57499 3.01853 3.14249 4.80353C2.94749 5.04353 2.98499 5.40353 3.23249 5.59103C3.47249 5.78603 3.83249 5.74853 4.01999 5.50103C4.61657 4.75324 5.37423 4.14973 6.23649 3.73548C7.09875 3.32123 8.04339 3.10692 8.99999 3.10853C12.5175 3.10853 15.3825 5.97353 15.3825 9.49103V9.86603L15.0375 9.52103C14.9316 9.41642 14.7888 9.35775 14.64 9.35775C14.4912 9.35775 14.3483 9.41642 14.2425 9.52103C14.025 9.73853 14.025 10.0985 14.2425 10.316L15.5475 11.621C15.654 11.7248 15.7963 11.7838 15.945 11.786C16.0941 11.7857 16.237 11.7263 16.3425 11.621L17.6475 10.316C17.865 10.1135 17.865 9.75353 17.6475 9.53603ZM14.7675 13.4008C14.7103 13.3541 14.6442 13.3193 14.5734 13.2985C14.5025 13.2777 14.4282 13.2714 14.3548 13.2797C14.2814 13.2881 14.2104 13.3111 14.146 13.3474C14.0817 13.3836 14.0252 13.4324 13.98 13.4908C13.3834 14.2386 12.6258 14.8421 11.7635 15.2563C10.9012 15.6706 9.9566 15.8849 8.99999 15.8833C5.48249 15.8833 2.61749 13.0183 2.61749 9.50078V9.12578L2.96249 9.47078C3.07499 9.58328 3.21749 9.63578 3.35999 9.63578C3.50249 9.63578 3.64499 9.58328 3.75749 9.47078C3.97499 9.25328 3.97499 8.89328 3.75749 8.67578L2.45249 7.37078C2.40052 7.31988 2.33947 7.27918 2.27249 7.25078C2.20514 7.22111 2.13234 7.20579 2.05874 7.20579C1.98514 7.20579 1.91235 7.22111 1.84499 7.25078C1.77749 7.28078 1.71749 7.31828 1.66499 7.37078L0.359994 8.67578C0.142494 8.89328 0.142494 9.25328 0.359994 9.47078C0.577494 9.68828 0.937494 9.68828 1.15499 9.47078L1.49999 9.12578V9.50078C1.49999 13.6408 4.86749 17.0083 9.00749 17.0083C11.295 17.0083 13.4325 15.9808 14.865 14.1958C15.0525 13.9558 15.015 13.5958 14.7675 13.4008Z" fill="white"/>
<path d="M11.5875 9.23C11.79 8.93 11.9025 8.5775 11.9025 8.1875C11.9025 7.19 11.025 6.3125 10.0275 6.3125H9.4125V5.5625C9.4125 5.255 9.1575 5 8.85 5C8.5425 5 8.2875 5.255 8.2875 5.5625V6.3125H6.75C6.4425 6.3125 6.1875 6.5675 6.1875 6.875V12.125C6.1875 12.4325 6.4425 12.6875 6.75 12.6875H8.2875V13.4375C8.2875 13.745 8.5425 14 8.85 14C9.1575 14 9.4125 13.745 9.4125 13.4375V12.6875H10.5C11.64 12.6875 12.5625 11.8475 12.5625 10.8125C12.5625 10.145 12.1725 9.56 11.5875 9.23ZM7.3125 7.4375H10.0275C10.44 7.4375 10.7775 7.85 10.7775 8.1875C10.7775 8.6 10.44 8.9375 10.0275 8.9375H7.3125V7.4375ZM10.5 11.5625H7.3125V10.0625H10.5C11.0175 10.0625 11.4375 10.4 11.4375 10.8125C11.4375 11.225 11.0175 11.5625 10.5 11.5625Z" fill="white"/>
</svg>
