<svg width="40" height="40" viewBox="0 0 40 40" fill="none" xmlns="http://www.w3.org/2000/svg">
<path opacity="0.4" d="M15 3.33331C10.6333 3.33331 7.08334 6.88331 7.08334 11.25C7.08334 15.5333 10.4333 19 14.8 19.15C14.9333 19.1333 15.0667 19.1333 15.1667 19.15H15.2833C17.3323 19.0816 19.2743 18.2191 20.6988 16.7448C22.1233 15.2705 22.9187 13.3 22.9167 11.25C22.9167 6.88331 19.3667 3.33331 15 3.33331Z" fill="#FFC700"/>
<path d="M23.4667 23.5817C18.8167 20.4817 11.2333 20.4817 6.55 23.5817C4.43333 24.9983 3.26666 26.915 3.26666 28.965C3.26666 31.015 4.43333 32.915 6.53333 34.315C8.86666 35.8817 11.9333 36.665 15 36.665C18.0667 36.665 21.1333 35.8817 23.4667 34.315C25.5667 32.8983 26.7333 30.9983 26.7333 28.9317C26.7167 26.8817 25.5667 24.9817 23.4667 23.5817Z" fill="#FFC700"/>
<path opacity="0.4" d="M33.3167 12.23C33.5833 15.4633 31.2833 18.2967 28.1 18.68H28.0167C27.9167 18.68 27.8167 18.68 27.7333 18.7133C26.1167 18.7967 24.6333 18.28 23.5167 17.33C25.2333 15.7967 26.2167 13.4967 26.0167 10.9967C25.9023 9.69668 25.4608 8.44677 24.7333 7.36334C25.6066 6.93848 26.5702 6.73245 27.5409 6.76304C28.5116 6.79363 29.4603 7.05992 30.3051 7.53893C31.1499 8.01794 31.8656 8.69529 32.3902 9.51255C32.9149 10.3298 33.2328 11.2625 33.3167 12.23Z" fill="#FFC700"/>
<path d="M36.6467 27.65C36.5133 29.2667 35.48 30.6667 33.7467 31.6167C32.08 32.5334 29.98 32.9667 27.8967 32.9167C29.0967 31.8334 29.7967 30.4834 29.93 29.05C30.0967 26.9834 29.1133 25 27.1467 23.4167C26.03 22.5334 24.73 21.8334 23.3133 21.3167C26.9967 20.25 31.63 20.9667 34.48 23.2667C36.0133 24.5 36.7967 26.05 36.6467 27.65Z" fill="#FFC700"/>
</svg>
