<svg width="29" height="29" viewBox="0 0 29 29" fill="none" xmlns="http://www.w3.org/2000/svg">
<g clip-path="url(#clip0_500_6138)">
<path d="M28.9047 14.1389C28.9047 6.39814 22.6296 0.123047 14.8889 0.123047C7.14814 0.123047 0.873047 6.39814 0.873047 14.1389C0.873047 21.8796 7.14814 28.1547 14.8889 28.1547C22.6296 28.1547 28.9047 21.8796 28.9047 14.1389Z" fill="white"/>
<path fill-rule="evenodd" clip-rule="evenodd" d="M11.6222 12.7965L14.8889 9.5313L18.1569 12.7992L20.0565 10.8982L14.8889 5.72937L9.72121 10.8969L11.6222 12.7965ZM6.47852 14.1389L8.37885 12.2386L10.2792 14.1389L8.37885 16.0391L6.47852 14.1389ZM14.8892 18.7477L11.6225 15.4812L9.7189 17.3795L9.72156 17.3821L14.8892 22.5483L20.0569 17.3795L20.0582 17.3781L18.1572 15.4798L14.8892 18.7477ZM19.4963 14.1394L21.3967 12.2392L23.2969 14.1394L21.3967 16.0397L19.4963 14.1394ZM14.8895 12.2095L16.8171 14.1384H16.8184L16.8171 14.1397L14.8895 16.0686L12.962 14.1424L12.9593 14.1384L12.962 14.1357L13.2994 13.7983L13.4641 13.6349L14.8895 12.2095Z" fill="#F5B300"/>
<path d="M28.9047 14.1389C28.9047 6.39814 22.6296 0.123047 14.8889 0.123047C7.14814 0.123047 0.873047 6.39814 0.873047 14.1389C0.873047 21.8796 7.14814 28.1547 14.8889 28.1547C22.6296 28.1547 28.9047 21.8796 28.9047 14.1389Z" fill="#3C72F3"/>
<path d="M10.5428 14.1771C10.5223 14.5334 10.6441 14.883 10.8814 15.1496C11.1186 15.416 11.452 15.5773 11.8082 15.5981H11.8816C12.1439 15.5979 12.4004 15.5208 12.6194 15.3764C12.8384 15.232 13.0104 15.0266 13.114 14.7857C13.2177 14.5447 13.2485 14.2787 13.2027 14.0204C13.1569 13.7621 13.0365 13.5229 12.8563 13.3322C12.6761 13.1416 12.444 13.0079 12.1887 12.9476C11.9334 12.8873 11.6661 12.9032 11.4196 12.9931C11.1732 13.083 10.9585 13.2431 10.802 13.4536C10.6455 13.6642 10.5541 13.916 10.5391 14.1778L10.5428 14.1771Z" fill="white"/>
<path d="M5.53422 13.8366C5.44858 13.8317 5.36344 13.8525 5.28957 13.8961C5.21569 13.9396 5.1564 14.0041 5.11916 14.0814C5.08194 14.1586 5.06845 14.2452 5.08041 14.3301C5.09237 14.4151 5.12923 14.4945 5.18635 14.5585C5.24346 14.6225 5.31827 14.6681 5.4013 14.6896C5.48433 14.7112 5.57188 14.7075 5.65286 14.6793C5.73384 14.651 5.80463 14.5994 5.85628 14.5309C5.90793 14.4624 5.93813 14.3802 5.94306 14.2946C5.94643 14.2376 5.93851 14.1806 5.91977 14.1267C5.90102 14.0728 5.87181 14.0232 5.83382 13.9806C5.79583 13.938 5.74981 13.9034 5.69839 13.8787C5.64697 13.8539 5.59118 13.8396 5.53422 13.8366Z" fill="white"/>
<path d="M10.4592 6.3812C10.5355 6.34203 10.5985 6.28117 10.6402 6.20629C10.6819 6.13141 10.7007 6.04585 10.6939 5.96038C10.6871 5.8749 10.6552 5.79335 10.6022 5.72596C10.5492 5.65858 10.4775 5.60839 10.3959 5.5817C10.3144 5.55502 10.2269 5.55303 10.1443 5.576C10.0617 5.59897 9.98774 5.64586 9.93174 5.71077C9.87568 5.77569 9.84015 5.85572 9.8295 5.94079C9.81892 6.02587 9.8337 6.11219 9.87197 6.18889C9.89776 6.24023 9.93343 6.28595 9.97695 6.32344C10.0205 6.36093 10.071 6.38943 10.1256 6.40731C10.1802 6.42518 10.2377 6.43208 10.295 6.4276C10.3523 6.42312 10.4081 6.40735 10.4592 6.3812Z" fill="white"/>
<path d="M11.8227 8.75791C11.9411 8.6982 12.0392 8.60464 12.1044 8.48915C12.1698 8.37366 12.1994 8.24142 12.1895 8.10911C12.1797 7.9768 12.1308 7.85038 12.0492 7.74589C11.9674 7.64134 11.8567 7.56334 11.7306 7.52178C11.6046 7.48022 11.4692 7.477 11.3413 7.51239C11.2135 7.54785 11.099 7.62038 11.0123 7.72088C10.9257 7.82137 10.8708 7.94527 10.8547 8.07695C10.8384 8.20863 10.8616 8.34213 10.9213 8.46063C10.9609 8.5394 11.0157 8.60948 11.0825 8.66708C11.1492 8.72462 11.2266 8.76842 11.3104 8.79603C11.3941 8.82364 11.4824 8.8345 11.5703 8.82799C11.6582 8.8214 11.744 8.79764 11.8227 8.75791Z" fill="white"/>
<path d="M7.23535 10.3926C7.32672 10.4527 7.43385 10.4843 7.54319 10.4835C7.65254 10.4826 7.75918 10.4494 7.84963 10.388C7.94008 10.3265 8.0103 10.2396 8.05129 10.1383C8.09236 10.0369 8.10245 9.92566 8.08024 9.81858C8.05802 9.7115 8.00462 9.61346 7.92662 9.53672C7.84868 9.46005 7.74973 9.40826 7.6423 9.3878C7.53488 9.36734 7.42381 9.37925 7.32315 9.422C7.22249 9.46468 7.13676 9.5363 7.07681 9.62775C6.99651 9.75025 6.96811 9.89959 6.99784 10.043C7.02756 10.1864 7.11298 10.3121 7.23535 10.3926Z" fill="white"/>
<path d="M8.0524 13.5921C7.91995 13.5846 7.7883 13.6166 7.674 13.6839C7.55972 13.7514 7.46796 13.8511 7.41035 13.9706C7.35272 14.09 7.33182 14.2239 7.35027 14.3553C7.36873 14.4867 7.42572 14.6096 7.51404 14.7086C7.60236 14.8076 7.71804 14.8782 7.84646 14.9114C7.9749 14.9447 8.11029 14.9391 8.23552 14.8954C8.36082 14.8517 8.47028 14.7719 8.55018 14.666C8.63007 14.5601 8.67681 14.4329 8.68445 14.3004C8.69447 14.1228 8.6335 13.9483 8.515 13.8155C8.39649 13.6827 8.23012 13.6024 8.0524 13.5921Z" fill="white"/>
<path d="M7.30926 18.1026C7.21172 18.1519 7.13098 18.229 7.07726 18.3242C7.02353 18.4194 6.99922 18.5283 7.00741 18.6373C7.01561 18.7463 7.05593 18.8504 7.12328 18.9365C7.19063 19.0225 7.28199 19.0867 7.38581 19.1209C7.48963 19.155 7.60124 19.1576 7.70655 19.1284C7.81185 19.0991 7.90611 19.0393 7.97745 18.9565C8.04872 18.8737 8.09392 18.7716 8.10717 18.6631C8.12048 18.5546 8.10128 18.4446 8.05208 18.347C8.01936 18.2821 7.97423 18.2244 7.91921 18.177C7.86414 18.1297 7.80031 18.0936 7.73132 18.0709C7.66234 18.0481 7.58955 18.0392 7.51713 18.0447C7.44472 18.0502 7.37408 18.0698 7.30926 18.1026Z" fill="white"/>
<path d="M9.91573 12.2056C10.0464 12.2912 10.1995 12.3362 10.3557 12.3348C10.5119 12.3334 10.6642 12.2857 10.7933 12.1978C10.9223 12.1099 11.0225 11.9856 11.081 11.8408C11.1394 11.696 11.1537 11.5371 11.1219 11.3841C11.0901 11.2312 11.0137 11.0911 10.9022 10.9817C10.7908 10.8722 10.6495 10.7982 10.496 10.7691C10.3425 10.7399 10.1839 10.7569 10.0401 10.818C9.89632 10.879 9.77389 10.9813 9.68818 11.1119C9.63121 11.1986 9.59189 11.2957 9.57248 11.3977C9.55314 11.4996 9.55398 11.6043 9.57514 11.7059C9.59624 11.8076 9.63723 11.9039 9.69568 11.9897C9.75413 12.0754 9.8289 12.1488 9.91573 12.2056Z" fill="white"/>
<path d="M18.1897 8.70508C18.301 8.77761 18.4312 8.8156 18.564 8.81412C18.6968 8.81265 18.8262 8.77187 18.9358 8.69688C19.0454 8.62197 19.1304 8.51615 19.1799 8.39295C19.2294 8.26968 19.2412 8.13457 19.214 8.00457C19.1867 7.87457 19.1215 7.75565 19.0266 7.66272C18.9317 7.5698 18.8114 7.50708 18.6809 7.48255C18.5503 7.45795 18.4155 7.47267 18.2933 7.52474C18.1711 7.57681 18.0671 7.66391 17.9945 7.77506C17.9461 7.84892 17.9128 7.93162 17.8964 8.01838C17.88 8.10506 17.8809 8.1942 17.8991 8.28061C17.9172 8.36702 17.9522 8.44894 18.0021 8.52182C18.052 8.59464 18.1158 8.65694 18.1897 8.70508Z" fill="white"/>
<path d="M19.5674 6.33573C19.6393 6.38286 19.7236 6.4076 19.8096 6.40683C19.8955 6.40605 19.9793 6.3798 20.0504 6.33139C20.1214 6.28297 20.1764 6.21458 20.2086 6.13485C20.2408 6.05512 20.2485 5.96765 20.231 5.8835C20.2134 5.79935 20.1713 5.7223 20.1099 5.6621C20.0485 5.6019 19.9707 5.56126 19.8862 5.54532C19.8017 5.52938 19.7145 5.53884 19.6354 5.57254C19.5562 5.60623 19.489 5.66262 19.4419 5.73458C19.3789 5.83096 19.3567 5.94841 19.3803 6.06112C19.4038 6.17384 19.4711 6.27261 19.5674 6.33573Z" fill="white"/>
<path d="M18.2957 12.8984C18.1195 12.8884 17.9431 12.913 17.7765 12.971C17.6098 13.0291 17.4563 13.1194 17.3246 13.2369C17.0586 13.4739 16.8976 13.807 16.8772 14.1627C16.8568 14.5185 16.9785 14.8679 17.2156 15.1338C17.4527 15.3998 17.7858 15.5608 18.1415 15.5812C18.1672 15.5812 18.1937 15.5812 18.2193 15.5812C18.4785 15.5811 18.7321 15.506 18.9495 15.365C19.167 15.224 19.339 15.0231 19.4448 14.7865C19.5507 14.55 19.5858 14.2878 19.546 14.0318C19.5062 13.7756 19.3931 13.5365 19.2205 13.3432C19.1036 13.2114 18.9616 13.1042 18.8029 13.0278C18.6441 12.9515 18.4717 12.9075 18.2957 12.8984Z" fill="white"/>
<path d="M12.2634 12.1123C12.3749 12.3351 12.5464 12.5224 12.7585 12.6529C12.9707 12.7836 13.2151 12.8523 13.4642 12.8515C13.6939 12.8515 13.9198 12.7927 14.1203 12.6807C14.3207 12.5686 14.4892 12.407 14.6094 12.2114C14.7298 12.0157 14.7979 11.7925 14.8073 11.563C14.8168 11.3335 14.7673 11.1054 14.6636 10.9005C14.5513 10.6787 14.3795 10.4926 14.1674 10.363C13.9553 10.2334 13.7113 10.1653 13.4627 10.1665C13.2338 10.1669 13.0087 10.2258 12.8089 10.3376C12.609 10.4494 12.4411 10.6103 12.3209 10.8053C12.2008 11.0002 12.1324 11.2226 12.1224 11.4513C12.1123 11.6801 12.1608 11.9076 12.2634 12.1123Z" fill="white"/>
<path d="M22.7959 10.3911C22.8934 10.3419 22.9742 10.2648 23.028 10.1697C23.0818 10.0746 23.1061 9.9656 23.0981 9.85663C23.0899 9.74766 23.0497 9.64352 22.9824 9.55739C22.9151 9.47134 22.8238 9.40707 22.72 9.3728C22.6163 9.33854 22.5047 9.33587 22.3994 9.36503C22.294 9.39418 22.1998 9.45389 22.1284 9.53665C22.057 9.61934 22.0117 9.72138 21.9983 9.82986C21.9849 9.93834 22.004 10.0483 22.053 10.1459C22.1191 10.2769 22.2345 10.3763 22.3737 10.4222C22.513 10.4682 22.6648 10.457 22.7959 10.3911Z" fill="white"/>
<path d="M19.3896 10.819C19.2501 10.8893 19.1345 10.9994 19.0576 11.1353C18.9806 11.2713 18.9457 11.4269 18.9572 11.5827C18.9687 11.7385 19.0262 11.8873 19.1223 12.0105C19.2185 12.1336 19.349 12.2255 19.4973 12.2744C19.6456 12.3234 19.8052 12.3273 19.9557 12.2856C20.1062 12.2439 20.241 12.1585 20.343 12.0402C20.445 11.9219 20.5097 11.776 20.5287 11.621C20.5478 11.4659 20.5205 11.3087 20.4503 11.1692C20.4037 11.0764 20.3393 10.9939 20.2607 10.9261C20.1822 10.8583 20.091 10.8067 19.9925 10.7742C19.894 10.7416 19.79 10.7288 19.6866 10.7366C19.5832 10.7443 19.4822 10.7723 19.3896 10.819Z" fill="white"/>
<path d="M15.0017 6.13309C15.1109 6.1393 15.2195 6.11301 15.3137 6.05752C15.4079 6.00204 15.4835 5.91986 15.5311 5.82138C15.5785 5.7229 15.5957 5.61255 15.5805 5.50428C15.5652 5.39601 15.5183 5.29469 15.4455 5.21314C15.3726 5.13159 15.2773 5.07346 15.1714 5.04613C15.0655 5.01878 14.9539 5.02346 14.8507 5.05955C14.7476 5.09564 14.6574 5.16153 14.5916 5.24888C14.5258 5.33623 14.4875 5.44112 14.4813 5.55028C14.4731 5.69657 14.5233 5.84012 14.6209 5.9494C14.7185 6.05869 14.8555 6.12476 15.0017 6.13309Z" fill="white"/>
<path d="M14.9956 9.61153C15.1514 9.62029 15.3064 9.58266 15.441 9.50326C15.5755 9.42393 15.6835 9.30655 15.7512 9.16583C15.819 9.02518 15.8436 8.86757 15.8218 8.71291C15.8001 8.55831 15.7329 8.4136 15.6289 8.29706C15.525 8.18059 15.3888 8.09754 15.2376 8.05837C15.0864 8.01926 14.927 8.02585 14.7796 8.07729C14.6321 8.12873 14.5033 8.2227 14.4092 8.34738C14.3152 8.47205 14.2602 8.62181 14.2513 8.77773C14.2394 8.98699 14.3112 9.19239 14.4508 9.34873C14.5903 9.50508 14.7863 9.59962 14.9956 9.61153Z" fill="white"/>
<path d="M10.7157 17.6739C10.8552 17.6036 10.9707 17.4935 11.0475 17.3575C11.1245 17.2215 11.1593 17.0658 11.1477 16.91C11.1361 16.7542 11.0785 16.6054 10.9824 16.4823C10.8862 16.3592 10.7556 16.2674 10.6072 16.2185C10.4588 16.1697 10.2993 16.1659 10.1488 16.2077C9.99825 16.2495 9.86349 16.335 9.76159 16.4534C9.65963 16.5718 9.59509 16.7177 9.57617 16.8728C9.55717 17.0279 9.58465 17.1851 9.655 17.3245C9.74933 17.5115 9.91409 17.6533 10.113 17.7188C10.3119 17.7844 10.5287 17.7682 10.7157 17.6739Z" fill="white"/>
<path d="M15.5049 10.764C15.3411 11.014 15.2653 11.3114 15.2896 11.6093C15.3139 11.9072 15.4368 12.1884 15.639 12.4086C15.8411 12.6287 16.1108 12.7752 16.4055 12.8248C16.7003 12.8744 17.0031 12.8243 17.2661 12.6824C17.5292 12.5404 17.7374 12.3149 17.8578 12.0414C17.9782 11.7678 18.004 11.4619 17.931 11.1721C17.8579 10.8823 17.6904 10.6251 17.4548 10.4412C17.2192 10.2574 16.929 10.1573 16.6301 10.157C16.4069 10.1568 16.1872 10.2122 15.9907 10.3182C15.7943 10.4241 15.6273 10.5774 15.5049 10.764Z" fill="white"/>
<path d="M17.8414 16.3813C17.7338 16.1679 17.5712 15.9871 17.3704 15.8575C17.1695 15.7279 16.9378 15.6543 16.699 15.6442C16.4602 15.634 16.223 15.6877 16.0119 15.7999C15.8008 15.912 15.6235 16.0784 15.4982 16.2819C15.3729 16.4855 15.3042 16.7188 15.2991 16.9577C15.294 17.1966 15.3528 17.4326 15.4694 17.6413C15.586 17.8499 15.7561 18.0237 15.9622 18.1447C16.1683 18.2656 16.403 18.3294 16.6421 18.3294C16.8523 18.3279 17.0593 18.2777 17.2468 18.1826C17.564 18.022 17.8047 17.7423 17.9161 17.4048C18.0276 17.0672 18.0007 16.6991 17.8414 16.3813Z" fill="white"/>
<path d="M20.19 16.2874C20.0595 16.2017 19.9063 16.1566 19.7502 16.1579C19.594 16.1591 19.4417 16.2067 19.3125 16.2945C19.1833 16.3824 19.0831 16.5066 19.0245 16.6514C18.9659 16.7961 18.9515 16.9551 18.9833 17.108C19.015 17.261 19.0913 17.4011 19.2027 17.5106C19.314 17.6202 19.4554 17.6943 19.6089 17.7235C19.7623 17.7527 19.9209 17.7358 20.0648 17.6749C20.2086 17.6139 20.3311 17.5116 20.4169 17.3811C20.5314 17.2058 20.5719 16.9924 20.5294 16.7874C20.4868 16.5824 20.3648 16.4026 20.19 16.2874Z" fill="white"/>
<path d="M22.7606 14.2695C22.7681 14.1371 22.7362 14.0054 22.6688 13.8911C22.6014 13.7769 22.5017 13.6851 22.3822 13.6275C22.2627 13.5699 22.1289 13.549 21.9975 13.5674C21.8661 13.5859 21.7432 13.6429 21.6442 13.7312C21.5452 13.8195 21.4746 13.9352 21.4413 14.0636C21.4081 14.192 21.4136 14.3274 21.4574 14.4527C21.501 14.578 21.5808 14.6874 21.6867 14.7673C21.7926 14.8472 21.9199 14.894 22.0523 14.9016C22.23 14.9116 22.4044 14.8506 22.5372 14.7321C22.6701 14.6136 22.7504 14.4473 22.7606 14.2695Z" fill="white"/>
<path d="M24.6197 13.7917C24.5339 13.7868 24.4485 13.8074 24.3744 13.851C24.3004 13.8945 24.2409 13.9591 24.2035 14.0365C24.166 14.1138 24.1524 14.2006 24.1644 14.2857C24.1763 14.3708 24.2131 14.4505 24.2703 14.5147C24.3275 14.5788 24.4024 14.6246 24.4856 14.6461C24.5688 14.6677 24.6565 14.6642 24.7377 14.6359C24.8188 14.6076 24.8897 14.5559 24.9415 14.4873C24.9933 14.4187 25.0236 14.3363 25.0285 14.2505C25.0349 14.1355 24.9955 14.0227 24.9189 13.9367C24.8422 13.8507 24.7347 13.7985 24.6197 13.7917Z" fill="white"/>
<path d="M22.8692 18.1004C22.7777 18.0405 22.6707 18.0091 22.5613 18.01C22.4521 18.0111 22.3455 18.0444 22.2552 18.106C22.1648 18.1675 22.0948 18.2544 22.0539 18.3558C22.013 18.4571 22.003 18.5684 22.0252 18.6753C22.0475 18.7823 22.101 18.8803 22.179 18.9569C22.2569 19.0335 22.3558 19.0853 22.4632 19.1057C22.5706 19.1261 22.6816 19.1143 22.7822 19.0716C22.8828 19.0289 22.9685 18.9574 23.0285 18.866C23.0683 18.8052 23.0958 18.7372 23.1094 18.6659C23.1229 18.5946 23.1222 18.5213 23.1075 18.4501C23.0927 18.3791 23.064 18.3116 23.0232 18.2516C22.9823 18.1915 22.9299 18.1402 22.8692 18.1004Z" fill="white"/>
<path d="M10.5382 22.1573C10.4663 22.1101 10.3821 22.0854 10.2962 22.0861C10.2103 22.0868 10.1264 22.1129 10.0554 22.1613C9.98432 22.2096 9.92917 22.2779 9.89693 22.3576C9.8647 22.4372 9.85685 22.5246 9.8743 22.6088C9.89175 22.693 9.93373 22.77 9.99498 22.8303C10.0562 22.8906 10.1339 22.9313 10.2184 22.9474C10.3028 22.9635 10.3901 22.9542 10.4692 22.9207C10.5483 22.8872 10.6157 22.831 10.6629 22.7592C10.6943 22.7115 10.7159 22.6581 10.7266 22.602C10.7373 22.5459 10.7368 22.4883 10.7253 22.4324C10.7136 22.3765 10.6911 22.3234 10.659 22.2762C10.6269 22.229 10.5859 22.1886 10.5382 22.1573Z" fill="white"/>
<path d="M19.6452 22.1118C19.5684 22.1505 19.5049 22.211 19.4625 22.2858C19.4202 22.3606 19.4011 22.4463 19.4075 22.532C19.4138 22.6177 19.4454 22.6996 19.4983 22.7674C19.5513 22.8351 19.6232 22.8856 19.7047 22.9125C19.7864 22.9394 19.8742 22.9415 19.9569 22.9185C20.0398 22.8955 20.1139 22.8484 20.1701 22.7833C20.2261 22.7182 20.2616 22.6379 20.2721 22.5526C20.2825 22.4673 20.2675 22.3808 20.2287 22.3041C20.2031 22.2531 20.1677 22.2076 20.1244 22.1704C20.0812 22.1331 20.0311 22.1047 19.9768 22.0868C19.9227 22.069 19.8654 22.0619 19.8085 22.0662C19.7516 22.0705 19.6961 22.086 19.6452 22.1118Z" fill="white"/>
<path d="M14.5995 17.7268C14.7634 17.4768 14.8391 17.1793 14.8148 16.8814C14.7905 16.5835 14.6676 16.3022 14.4654 16.082C14.2632 15.8619 13.9934 15.7155 13.6986 15.6659C13.4039 15.6164 13.101 15.6666 12.838 15.8086C12.575 15.9506 12.3668 16.1762 12.2464 16.4498C12.1261 16.7234 12.1005 17.0294 12.1736 17.3191C12.2467 17.609 12.4144 17.8661 12.6502 18.0499C12.8858 18.2337 13.1762 18.3336 13.4751 18.3338C13.6983 18.3346 13.9181 18.2794 14.1145 18.1734C14.311 18.0674 14.4777 17.9138 14.5995 17.7268Z" fill="white"/>
<path d="M11.9151 19.7886C11.8041 19.716 11.6741 19.6779 11.5414 19.6792C11.4087 19.6804 11.2794 19.721 11.1698 19.7958C11.0602 19.8705 10.9752 19.9761 10.9256 20.0991C10.876 20.2221 10.864 20.3571 10.8911 20.487C10.9182 20.6168 10.9832 20.7358 11.0778 20.8287C11.1724 20.9217 11.2926 20.9845 11.4229 21.0091C11.5532 21.0339 11.6879 21.0194 11.81 20.9675C11.9322 20.9157 12.0362 20.8288 12.1089 20.7179C12.2063 20.5689 12.2407 20.3874 12.2043 20.2131C12.168 20.0389 12.0639 19.8862 11.9151 19.7886Z" fill="white"/>
<path d="M15.047 22.3598C14.9379 22.3536 14.8294 22.3799 14.7352 22.4354C14.641 22.4908 14.5653 22.573 14.5178 22.6714C14.4703 22.7699 14.4531 22.8802 14.4683 22.9884C14.4834 23.0967 14.5304 23.198 14.6031 23.2796C14.6758 23.3611 14.7711 23.4193 14.877 23.4467C14.9828 23.4741 15.0944 23.4695 15.1975 23.4336C15.3007 23.3976 15.391 23.3318 15.4568 23.2446C15.5227 23.1573 15.5611 23.0525 15.5674 22.9434C15.5716 22.8709 15.5614 22.7983 15.5375 22.7297C15.5136 22.6612 15.4764 22.598 15.4281 22.5438C15.3798 22.4896 15.3213 22.4455 15.2558 22.4139C15.1904 22.3823 15.1195 22.364 15.047 22.3598Z" fill="white"/>
<path d="M15.0526 18.8821C14.8965 18.8726 14.7411 18.9096 14.6062 18.9885C14.4712 19.0674 14.3626 19.1845 14.2943 19.3252C14.226 19.4658 14.2009 19.6235 14.2223 19.7784C14.2436 19.9333 14.3105 20.0783 14.4143 20.1951C14.5183 20.312 14.6544 20.3954 14.8057 20.4347C14.957 20.4741 15.1167 20.4677 15.2643 20.4163C15.4119 20.3649 15.541 20.2708 15.6352 20.146C15.7293 20.0212 15.7843 19.8712 15.7932 19.7152C15.8052 19.5065 15.734 19.3016 15.5951 19.1455C15.4563 18.9893 15.2612 18.8945 15.0526 18.8821Z" fill="white"/>
<path d="M18.2818 19.7351C18.1633 19.7952 18.0652 19.8892 18.0001 20.005C17.935 20.1209 17.9058 20.2534 17.9161 20.386C17.9263 20.5185 17.9757 20.6449 18.0579 20.7494C18.1401 20.8538 18.2514 20.9315 18.3778 20.9727C18.5042 21.0138 18.6399 21.0165 18.7678 20.9804C18.8957 20.9444 19.0101 20.8712 19.0964 20.7701C19.1827 20.6691 19.2371 20.5446 19.2526 20.4127C19.2682 20.2807 19.2443 20.1471 19.1839 20.0286C19.1439 19.9501 19.089 19.8801 19.022 19.8229C18.9551 19.7656 18.8775 19.722 18.7937 19.6948C18.7099 19.6675 18.6216 19.657 18.5337 19.6639C18.4459 19.6709 18.3602 19.695 18.2818 19.7351Z" fill="white"/>
</g>
<defs>
<clipPath id="clip0_500_6138">
<rect width="28.0316" height="28.0316" fill="white" transform="translate(0.873047 0.123047)"/>
</clipPath>
</defs>
</svg>
