<svg width="29" height="29" viewBox="0 0 29 29" fill="none" xmlns="http://www.w3.org/2000/svg">
<g clip-path="url(#clip0_500_6187)">
<path d="M28.3656 14.1389C28.3656 6.39814 22.0905 0.123047 14.3498 0.123047C6.60908 0.123047 0.333984 6.39814 0.333984 14.1389C0.333984 21.8796 6.60908 28.1547 14.3498 28.1547C22.0905 28.1547 28.3656 21.8796 28.3656 14.1389Z" fill="#4CCA47"/>
<path d="M6.36033 9.65248C6.87628 9.51674 7.36884 9.34042 7.88476 9.20461C8.40075 9.0688 8.89327 8.89255 9.40919 8.75673C9.55418 8.72709 9.57135 8.66311 9.54164 8.51818C9.30603 7.73568 9.09376 6.99373 8.85809 6.21124C8.82844 6.06628 8.84561 6.00236 8.99054 5.97269C9.46595 5.8603 9.87746 5.73078 10.3295 5.57787C10.4745 5.5482 10.4979 5.58872 10.5041 5.69317C10.7164 6.43513 10.952 7.21759 11.1642 7.95958C11.1877 8.00009 11.2111 8.0406 11.2173 8.14508C11.5883 8.03891 11.9998 7.90941 12.3708 7.80331C12.4113 7.7799 12.4051 7.67548 12.4222 7.61157C12.2396 7.01455 12.0804 6.45808 11.9383 5.83769L11.7792 5.28121C11.7324 5.20016 11.7495 5.13624 11.854 5.12998C12.3294 5.01759 12.7814 4.86467 13.2973 4.72888C13.3379 4.70548 13.3613 4.74601 13.4018 4.72261C13.5844 5.31961 13.7436 5.87608 13.9027 6.43255C13.9792 6.65856 14.0556 6.88458 14.0916 7.13398C14.1212 7.27898 14.1851 7.29608 14.3301 7.26643L16.0183 7.10219C16.564 7.11137 17.1159 7.22501 17.6335 7.46644C18.3491 7.86372 18.764 8.48875 18.9762 9.23068C19.1121 9.7466 19.1839 10.2454 19.0469 10.7568C18.9441 11.1403 18.7135 11.4896 18.4596 11.7983C18.419 11.8217 18.4019 11.8856 18.3208 11.9324C18.5531 11.9604 18.762 11.9479 18.9943 11.9759C19.6911 12.0598 20.2726 12.3184 20.7623 12.7922C21.1007 13.1911 21.3409 13.7008 21.4767 14.2167C21.6422 14.8777 21.7203 15.4809 21.613 16.1373C21.4713 16.9214 21.0678 17.5326 20.4662 17.988C19.6854 18.6009 18.8282 18.9878 17.9475 19.3341C17.8026 19.3638 17.7449 19.4512 17.7745 19.5961C17.9868 20.3381 18.2225 21.1205 18.4347 21.8625C18.4877 22.048 18.5111 22.0885 18.2617 22.1245C17.8502 22.254 17.3748 22.3664 16.9633 22.4959C16.8184 22.5255 16.795 22.485 16.7887 22.3806C16.553 21.5981 16.3174 20.8156 16.1457 20.0503C16.0989 19.9692 16.116 19.9053 16.0115 19.9116C15.6405 20.0177 15.2696 20.1238 14.8581 20.2533C14.9876 20.6648 15.0766 21.0997 15.2061 21.5112C15.3356 21.9227 15.4246 22.3576 15.5541 22.7691C15.5604 22.8736 15.5839 22.9141 15.4389 22.9438C14.9634 23.0562 14.5114 23.2091 14.0594 23.362C13.9144 23.3916 13.891 23.3511 13.8847 23.2467C13.6491 22.4642 13.4134 21.6817 13.2417 20.9164C13.2183 20.8759 13.2354 20.8119 13.1887 20.7309C12.1163 21.0258 11.0439 21.3208 9.93093 21.6392C9.91838 21.4303 9.88867 21.2853 9.87612 21.0764C9.8277 20.6182 9.77921 20.1599 9.71361 19.7655C9.68397 19.6205 9.72447 19.5971 9.84606 19.5269C10.1765 19.4442 10.5475 19.338 10.8546 19.2148C11.2255 19.1087 11.375 18.8062 11.2518 18.4992C10.5854 16.1283 9.91901 13.7574 9.18872 11.3695C9.08255 10.9985 8.66936 10.7508 8.23452 10.8398C7.79961 10.9288 7.38811 11.0583 7.01711 11.1644C6.93606 11.2112 6.87214 11.1941 6.86587 11.0897C6.73008 10.5737 6.5709 10.0172 6.43511 9.50125C6.34321 9.7164 6.34321 9.7164 6.36033 9.65248ZM14.2059 18.4686C14.2464 18.4452 14.3104 18.4623 14.3104 18.4623C15.0523 18.2501 15.8582 18.055 16.5705 17.6978C17.0802 17.4575 17.5259 17.2001 17.8781 16.7807C18.5077 16.093 18.2469 14.8928 17.4269 14.5017C17.0371 14.2945 16.5959 14.2791 16.1547 14.2637C15.1913 14.2795 14.2467 14.6088 13.3427 14.9147C13.1977 14.9443 13.2211 14.9848 13.2508 15.1298C13.4037 15.5818 13.4927 16.0167 13.6456 16.4687C13.8111 17.1296 14.017 17.7672 14.2059 18.4686ZM15.2234 12.3699C15.3045 12.3231 15.4837 12.1656 15.6224 12.0315C16.2988 11.4249 16.1893 10.2994 15.3863 9.8445C14.9731 9.59677 14.4681 9.56418 14.0097 9.61261C13.3021 9.69705 12.6646 9.90302 11.9631 10.0919C11.8182 10.1215 11.801 10.1854 11.8307 10.3304C12.1194 11.2984 12.3847 12.2259 12.6329 13.2172C12.6391 13.3217 12.703 13.3388 12.8075 13.3325C12.993 13.2794 13.138 13.2498 13.3235 13.1967C13.9781 12.9269 14.5751 12.7442 15.2234 12.3699Z" fill="white"/>
</g>
<defs>
<clipPath id="clip0_500_6187">
<rect width="28.0316" height="28.0316" fill="white" transform="translate(0.333984 0.123047)"/>
</clipPath>
</defs>
</svg>
