<svg width="17" height="17" viewBox="0 0 17 17" fill="none" xmlns="http://www.w3.org/2000/svg">
<path opacity="0.4" d="M16.6667 8.53401C16.5667 8.43521 16.4318 8.3798 16.2913 8.3798C16.1507 8.3798 16.0158 8.43521 15.9159 8.53401L15.59 8.85984V8.49859C15.59 4.58859 12.4096 1.40817 8.49961 1.40817C6.33919 1.40817 4.32044 2.37859 2.96753 4.06442C2.78336 4.29109 2.81878 4.63109 3.05253 4.80817C3.27919 4.99234 3.61919 4.95692 3.79628 4.72317C4.35971 4.01693 5.07528 3.44695 5.88963 3.05571C6.70399 2.66447 7.59615 2.46207 8.49961 2.46359C11.8217 2.46359 14.5275 5.16942 14.5275 8.49151V8.84567L14.2017 8.51984C14.1017 8.42104 13.9668 8.36563 13.8263 8.36563C13.6857 8.36563 13.5508 8.42104 13.4509 8.51984C13.2454 8.72526 13.2454 9.06526 13.4509 9.27067L14.6834 10.5032C14.784 10.6012 14.9183 10.6569 15.0588 10.659C15.1996 10.6586 15.3345 10.6026 15.4342 10.5032L16.6667 9.27067C16.8721 9.07942 16.8721 8.73942 16.6667 8.53401ZM13.9467 12.184C13.8926 12.1399 13.8303 12.1071 13.7634 12.0875C13.6964 12.0679 13.6262 12.0618 13.5569 12.0697C13.4876 12.0777 13.4206 12.0994 13.3598 12.1336C13.299 12.1678 13.2457 12.2139 13.2029 12.269C12.6395 12.9753 11.9239 13.5453 11.1096 13.9365C10.2952 14.3277 9.40307 14.5301 8.49961 14.5286C5.17753 14.5286 2.47169 11.8228 2.47169 8.50071V8.14655L2.79753 8.47238C2.90378 8.57863 3.03836 8.62821 3.17294 8.62821C3.30753 8.62821 3.44211 8.57863 3.54836 8.47238C3.75378 8.26696 3.75378 7.92696 3.54836 7.72155L2.31586 6.48905C2.26677 6.44098 2.20911 6.40254 2.14586 6.37571C2.08225 6.34769 2.0135 6.33322 1.94398 6.33322C1.87447 6.33322 1.80572 6.34769 1.74211 6.37571C1.67836 6.40405 1.62169 6.43946 1.57211 6.48905L0.339609 7.72155C0.134193 7.92696 0.134193 8.26696 0.339609 8.47238C0.545026 8.6778 0.885026 8.6778 1.09044 8.47238L1.41628 8.14655V8.50071C1.41628 12.4107 4.59669 15.5911 8.50669 15.5911C10.6671 15.5911 12.6859 14.6207 14.0388 12.9349C14.2159 12.7082 14.1804 12.3682 13.9467 12.184Z" fill="black"/>
<path d="M10.9437 8.245C11.135 7.96167 11.2412 7.62875 11.2412 7.26042C11.2412 6.31833 10.4125 5.48958 9.47042 5.48958H8.88958V4.78125C8.88958 4.49083 8.64875 4.25 8.35833 4.25C8.06792 4.25 7.82708 4.49083 7.82708 4.78125V5.48958H6.375C6.08458 5.48958 5.84375 5.73042 5.84375 6.02083V10.9792C5.84375 11.2696 6.08458 11.5104 6.375 11.5104H7.82708V12.2187C7.82708 12.5092 8.06792 12.75 8.35833 12.75C8.64875 12.75 8.88958 12.5092 8.88958 12.2187V11.5104H9.91667C10.9933 11.5104 11.8646 10.7171 11.8646 9.73958C11.8646 9.10917 11.4962 8.55667 10.9437 8.245ZM6.90625 6.55208H9.47042C9.86 6.55208 10.1787 6.94167 10.1787 7.26042C10.1787 7.65 9.86 7.96875 9.47042 7.96875H6.90625V6.55208ZM9.91667 10.4479H6.90625V9.03125H9.91667C10.4054 9.03125 10.8021 9.35 10.8021 9.73958C10.8021 10.1292 10.4054 10.4479 9.91667 10.4479Z" fill="black"/>
</svg>
