<svg width="29" height="29" viewBox="0 0 29 29" fill="none" xmlns="http://www.w3.org/2000/svg">
<g clip-path="url(#clip0_500_6234)">
<path d="M28.8285 14.1389C28.8285 6.39814 22.5534 0.123047 14.8127 0.123047C7.07197 0.123047 0.796875 6.39814 0.796875 14.1389C0.796875 21.8796 7.07197 28.1547 14.8127 28.1547C22.5534 28.1547 28.8285 21.8796 28.8285 14.1389Z" fill="white"/>
<path fill-rule="evenodd" clip-rule="evenodd" d="M11.5461 12.7965L14.8127 9.5313L18.0807 12.7992L19.9804 10.8982L14.8127 5.72937L9.64504 10.8969L11.5461 12.7965ZM6.40234 14.1389L8.30268 12.2386L10.203 14.1389L8.30268 16.0391L6.40234 14.1389ZM14.813 18.7477L11.5464 15.4812L9.64273 17.3795L9.64539 17.3821L14.813 22.5483L19.9807 17.3795L19.9821 17.3781L18.081 15.4798L14.813 18.7477ZM19.4202 14.1394L21.3205 12.2392L23.2208 14.1394L21.3205 16.0397L19.4202 14.1394ZM14.8133 12.2095L16.7409 14.1384H16.7422L16.7409 14.1397L14.8133 16.0686L12.8858 14.1424L12.8831 14.1384L12.8858 14.1357L13.2232 13.7983L13.3879 13.6349L14.8133 12.2095Z" fill="#F5B300"/>
</g>
<defs>
<clipPath id="clip0_500_6234">
<rect width="28.0316" height="28.0316" fill="white" transform="translate(0.796875 0.123047)"/>
</clipPath>
</defs>
</svg>
