<svg width="29" height="29" viewBox="0 0 29 29" fill="none" xmlns="http://www.w3.org/2000/svg">
<g clip-path="url(#clip0_500_6253)">
<path d="M28.4418 14.232C28.4418 6.49128 22.1667 0.216187 14.426 0.216187C6.68525 0.216187 0.410156 6.49128 0.410156 14.232C0.410156 21.9727 6.68525 28.2478 14.426 28.2478C22.1667 28.2478 28.4418 21.9727 28.4418 14.232Z" fill="#F5B300"/>
<path d="M14.432 4.92749L16.7373 7.28129L10.9323 13.069L8.62695 10.7705L14.432 4.92749Z" fill="white" stroke="white" stroke-width="0.560633"/>
<path d="M17.9316 8.41669L20.237 10.7705L10.9323 20.0474L8.62695 17.749L17.9316 8.41669Z" fill="white" stroke="white" stroke-width="0.560633"/>
<path d="M7.43232 11.9059L9.73765 14.2598L7.43232 16.5582L5.12695 14.2598L7.43232 11.9059Z" fill="white" stroke="white" stroke-width="0.560633"/>
<path d="M21.4317 11.9059L23.737 14.2598L14.4323 23.5366L12.127 21.2382L21.4317 11.9059Z" fill="white" stroke="white" stroke-width="0.560633"/>
</g>
<defs>
<clipPath id="clip0_500_6253">
<rect width="28.0316" height="28.0316" fill="white" transform="translate(0.410156 0.216187)"/>
</clipPath>
</defs>
</svg>
