<svg width="29" height="29" viewBox="0 0 29 29" fill="none" xmlns="http://www.w3.org/2000/svg">
<g clip-path="url(#clip0_500_6065)">
<path d="M28.9047 14.232C28.9047 6.49128 22.6296 0.216187 14.8889 0.216187C7.14814 0.216187 0.873047 6.49128 0.873047 14.232C0.873047 21.9727 7.14814 28.2478 14.8889 28.2478C22.6296 28.2478 28.9047 21.9727 28.9047 14.232Z" fill="#E9E9E9"/>
<mask id="mask0_500_6065" style="mask-type:luminance" maskUnits="userSpaceOnUse" x="6" y="6" width="17" height="17">
<path d="M22.4966 14.6324C22.4966 10.2091 18.9108 6.62335 14.4875 6.62335C10.0643 6.62335 6.47852 10.2091 6.47852 14.6324C6.47852 19.0556 10.0643 22.6414 14.4875 22.6414C18.9108 22.6414 22.4966 19.0556 22.4966 14.6324Z" fill="white"/>
</mask>
<g mask="url(#mask0_500_6065)">
<path d="M14.4522 18.6165L9.53516 15.7146L14.4492 22.642L19.3687 15.7146L14.4492 18.6165H14.4522ZM14.5253 6.62341L9.61021 14.7811L14.5253 17.6879L19.4423 14.7841L14.5253 6.62341Z" fill="#5C24FF"/>
</g>
</g>
<defs>
<clipPath id="clip0_500_6065">
<rect width="28.0316" height="28.0316" fill="white" transform="translate(0.873047 0.216187)"/>
</clipPath>
</defs>
</svg>
