<svg width="29" height="29" viewBox="0 0 29 29" fill="none" xmlns="http://www.w3.org/2000/svg">
<g clip-path="url(#clip0_500_6089)">
<path d="M28.3656 14.232C28.3656 6.49128 22.0905 0.216187 14.3498 0.216187C6.60908 0.216187 0.333984 6.49128 0.333984 14.232C0.333984 21.9727 6.60908 28.2478 14.3498 28.2478C22.0905 28.2478 28.3656 21.9727 28.3656 14.232Z" fill="#F00500"/>
<path d="M19.4917 14.6522C19.4833 14.7019 19.3456 14.8489 19.2071 14.957C18.8018 15.268 18.0765 15.5577 17.3393 15.6968C16.9196 15.7765 16.4999 15.7889 16.3732 15.7242C16.2914 15.6809 16.2795 15.6471 16.3091 15.5364C16.3707 15.3061 16.5708 15.0527 16.8816 14.8153C17.0404 14.6957 17.6838 14.2855 17.9827 14.1127C18.4759 13.8292 18.8753 13.6609 19.1455 13.6202C19.2308 13.6078 19.3339 13.6042 19.3651 13.6202C19.4191 13.6414 19.4774 13.8053 19.5001 14.002C19.5128 14.1065 19.5069 14.569 19.4917 14.6522ZM12.5733 15.672C12.5564 15.7092 12.4677 15.749 12.3681 15.7641C12.2676 15.7801 11.9628 15.7703 11.7897 15.749C11.1665 15.6622 10.5061 15.462 10.0248 15.2157C9.7546 15.0775 9.56034 14.9384 9.41682 14.7878L9.33406 14.6983L9.32558 14.5814C9.31044 14.3776 9.31381 14.0578 9.33742 13.9435C9.3527 13.8483 9.38353 13.7566 9.42859 13.6724C9.45144 13.6414 9.45144 13.6414 9.55782 13.6414C9.68705 13.6414 9.79511 13.6627 9.97157 13.7212C10.333 13.839 10.8701 14.1225 11.5254 14.5353C12.0658 14.8738 12.2685 15.0403 12.4238 15.268C12.5294 15.4097 12.5995 15.61 12.5733 15.672ZM16.7322 19.9609C16.7322 19.9697 16.6966 20.1176 16.6528 20.293C16.6245 20.4006 16.598 20.5087 16.5734 20.6173C16.5404 20.62 16.5118 20.6235 16.4788 20.62H16.3859L16.2558 20.9407C16.1858 21.1161 16.1208 21.2791 16.1123 21.3039L16.0946 21.3473L16.0329 21.2419L15.9713 21.1374V20.2842L15.9476 20.2904C15.897 20.3028 15.5423 20.3524 15.3869 20.3675C14.7444 20.4347 14.0966 20.4202 13.4574 20.3241C13.3931 20.3124 13.3283 20.3041 13.2632 20.2993C13.2607 20.3028 13.2632 20.4995 13.2691 20.7431L13.2775 21.1808L13.2286 21.2605C13.2016 21.3039 13.1754 21.3402 13.1754 21.3438C13.167 21.3526 13.1374 21.3039 13.0698 21.1622C12.9972 21.0135 12.9419 20.8561 12.9051 20.6935L12.8849 20.6049L12.7937 20.6102L12.7025 20.62L12.6789 20.5057C12.666 20.4364 12.6552 20.3666 12.6468 20.2966L12.6383 20.1983L12.5623 20.1274L12.4652 20.0405C12.45 20.0281 12.4441 20.0069 12.4441 19.9883V19.9511L12.8115 19.9546L13.1787 19.9573L13.1897 19.9972L13.2016 20.0379L13.3282 20.0441L13.8214 20.0592L14.1887 20.068L14.2824 19.9148L14.3795 19.7606H14.5028L14.5003 19.4399L14.4969 19.1192L14.3356 19.0456C13.8155 18.8055 13.5106 18.5318 13.3958 18.1987C13.3722 18.1305 13.3722 18.1057 13.3662 17.7982C13.3637 17.4926 13.3637 17.4651 13.3839 17.3969C13.4038 17.3215 13.4422 17.2528 13.4952 17.1978C13.5483 17.1427 13.6141 17.1033 13.6862 17.0833C13.7369 17.0674 13.8687 17.0674 14.562 17.0674L15.3777 17.0709L15.4689 17.117C15.5567 17.1548 15.6328 17.2178 15.6884 17.2986C15.7593 17.3969 15.7804 17.474 15.7804 17.6618C15.7804 17.9303 15.7627 18.1615 15.7366 18.2536C15.6977 18.3804 15.6401 18.4999 15.566 18.608C15.419 18.8055 15.1522 19.0023 14.9073 19.0917L14.8372 19.1192L14.8406 19.4435L14.8431 19.7668L14.9081 19.773L14.9723 19.7792L15.061 19.9174L15.1454 20.0565H15.5398C15.7568 20.0565 15.9476 20.0592 15.9654 20.0619C15.9949 20.0689 16.0008 20.0654 16.0296 20.0131L16.065 19.9573H16.4028C16.6561 19.9449 16.7322 19.9511 16.7322 19.9609Z" fill="black"/>
<path d="M15.1797 20.8448C15.124 20.8785 15.086 20.8935 15.0776 20.8883C15.0691 20.8847 15.0269 20.8475 14.983 20.8138L14.9036 20.7465L14.8217 20.8387C14.6427 21.0424 14.6359 21.0513 14.5836 21.0539C14.5017 21.0628 14.4839 21.0477 14.3843 20.8909C14.3311 20.8112 14.2906 20.7429 14.2906 20.7429C14.2906 20.7429 14.2517 20.7368 14.2078 20.7341L14.1259 20.7252L14.0879 20.8076L14.049 20.8909L13.9815 20.8696C13.9285 20.8513 13.8766 20.8297 13.8261 20.8049L13.7383 20.7589V20.5826L14.5194 20.5862L15.3005 20.5888L15.303 20.6721C15.3064 20.7704 15.309 20.7677 15.1797 20.8448Z" fill="black"/>
<path d="M22.5213 17.0865C22.5187 17.0732 22.5187 17.0511 22.5162 17.0183C21.6961 16.9368 20.8688 17.0263 20.0819 17.2818C19.2949 17.5373 18.5639 17.9536 17.9309 18.5067C17.9309 18.5067 17.3297 15.6096 14.511 15.6096C11.6906 15.6096 10.646 18.5067 10.646 18.5067C9.06607 16.7223 6.95164 16.8517 6.18742 16.9687L6.1849 17.0271C6.16125 17.4737 6.17307 17.6863 6.244 17.9662C6.46356 18.8451 7.14248 19.8125 8.20564 20.7613C9.94682 22.3144 12.3079 23.4351 14.0964 23.5653C15.9609 23.6983 18.7129 22.5545 20.5453 20.8845C20.8324 20.617 21.1026 20.3334 21.356 20.0313C21.5376 19.8099 21.8078 19.4272 21.7875 19.4272C21.7816 19.4272 21.7875 19.4209 21.7993 19.4148C21.8078 19.4085 21.8162 19.3997 21.8111 19.3935C21.8078 19.39 21.8137 19.3811 21.8229 19.3784C21.8314 19.3749 21.8373 19.3696 21.8348 19.3625C21.8314 19.3563 21.8348 19.3501 21.8466 19.3474C21.855 19.3439 21.8584 19.335 21.855 19.3288C21.8516 19.3226 21.855 19.3164 21.861 19.3164C21.8669 19.3164 21.8727 19.3076 21.8727 19.3013C21.8727 19.2951 21.8787 19.2854 21.8846 19.2854C21.8905 19.2854 21.8964 19.2792 21.8964 19.273C21.9062 19.2478 21.9189 19.2239 21.9344 19.2022C21.9784 19.1312 22.154 18.8017 22.1784 18.7467C22.3456 18.3489 22.4512 17.9946 22.501 17.6402C22.5187 17.471 22.5331 17.16 22.5213 17.0856V17.0865ZM15.1798 20.8447C15.1241 20.8783 15.0861 20.8934 15.0776 20.888C15.0692 20.8845 15.0269 20.8473 14.9831 20.8136L14.9037 20.7463L14.8217 20.8384C14.6428 21.0422 14.636 21.0511 14.5836 21.0537C14.5017 21.0626 14.484 21.0475 14.3844 20.8907C14.3311 20.811 14.2906 20.7428 14.2906 20.7428C14.2906 20.7428 14.2518 20.7365 14.2078 20.7339L14.1259 20.725L14.0879 20.8075L14.0491 20.8907L13.9816 20.8695C13.9286 20.8511 13.8767 20.8295 13.8262 20.8048L13.7383 20.7588V20.5824L14.5194 20.5859L15.3005 20.5886L15.3031 20.6719C15.3065 20.7702 15.309 20.7676 15.1798 20.8447ZM16.6491 20.2901C16.6208 20.3974 16.5941 20.5052 16.5689 20.6134C16.5368 20.6161 16.5073 20.6196 16.4752 20.6161H16.3814L16.2548 20.9403C16.1847 21.1157 16.1197 21.2787 16.1112 21.3035L16.0935 21.347L16.0319 21.2415L15.9702 21.137V20.2838L15.9465 20.2901C15.8959 20.3025 15.5412 20.3521 15.3858 20.3671C14.7433 20.4344 14.0954 20.4198 13.4563 20.3237C13.392 20.3121 13.3272 20.3038 13.2621 20.2989C13.2595 20.3025 13.2621 20.4991 13.268 20.7428L13.2764 21.1804L13.2274 21.2602C13.2005 21.3035 13.1742 21.3399 13.1742 21.3434C13.1658 21.3523 13.1363 21.3035 13.0687 21.1618C12.9961 21.0131 12.9408 20.8557 12.904 20.6932L12.8838 20.6046L12.7926 20.6107L12.7014 20.6196L12.6777 20.5053C12.6648 20.436 12.6542 20.3663 12.6456 20.2962L12.6372 20.1979L12.5612 20.1271C12.5294 20.0973 12.4971 20.0684 12.4641 20.0402C12.4489 20.0278 12.443 20.0065 12.443 19.9879V19.9507L12.8103 19.9543L13.1776 19.957L13.1886 19.9968L13.2005 20.0376L13.3271 20.0437L13.8202 20.0588L14.1876 20.0677L14.2813 19.9144L14.3784 19.7603H14.5017L14.4992 19.4396L14.4958 19.1188L14.3345 19.0453C13.8143 18.8052 13.5095 18.5314 13.3946 18.1983C13.371 18.1302 13.371 18.1053 13.3651 17.7979C13.3625 17.4922 13.3625 17.4648 13.3829 17.3966C13.4027 17.3211 13.441 17.2525 13.4941 17.1974C13.5471 17.1424 13.613 17.1029 13.6851 17.083C13.7358 17.067 13.8675 17.067 14.5608 17.067L15.3766 17.0706L15.4677 17.1166C15.5556 17.1546 15.6316 17.2174 15.6873 17.2982C15.7582 17.3966 15.7794 17.4737 15.7794 17.6615C15.7794 17.9299 15.7616 18.1611 15.7354 18.2533C15.6965 18.38 15.639 18.4995 15.5649 18.6077C15.4179 18.8052 15.1511 19.0019 14.9062 19.0914L14.8361 19.1188L14.8395 19.4431L14.842 19.7664L14.907 19.7727L14.9712 19.7788L15.0599 19.9171L15.1443 20.0561H15.5386C15.7557 20.0561 15.9465 20.0588 15.9643 20.0615C15.9938 20.0685 15.9998 20.065 16.0284 20.0128L16.0639 19.957H16.4017C16.6635 19.957 16.7395 19.9605 16.7395 19.9694C16.731 19.9667 16.6921 20.1173 16.6483 20.2901H16.6491Z" fill="white"/>
<path d="M22.4967 16.7723C22.4908 16.6292 22.4817 16.4862 22.4697 16.3435C22.343 14.9446 22.0027 13.8017 21.3567 12.5907C21.3325 12.5491 21.3111 12.5059 21.2925 12.4613C21.2866 12.4525 21.2841 12.4436 21.2807 12.4374C21.3719 12.1504 21.7451 10.9517 22.0406 9.58112C22.4435 7.72067 22.6993 5.54476 21.9182 4.89182C21.9182 4.89182 20.5672 4.78728 18.7584 6.64775C18.2677 7.1616 17.8185 7.71975 17.4191 8.31423L17.2924 8.2717C16.5656 8.022 15.8119 7.86874 15.0488 7.81541C14.8199 7.79768 13.9654 7.79768 13.6867 7.81541C12.844 7.87393 12.1971 8.0068 11.4633 8.27436C11.4363 8.28557 11.409 8.29587 11.3814 8.30533C10.9674 7.71226 10.5046 7.15846 9.99818 6.65042C8.11516 4.78108 6.71422 4.88916 6.71422 4.88916C5.88667 5.56336 6.16871 7.83756 6.59599 9.76004C6.80819 10.7034 7.06121 11.6361 7.35431 12.5552C7.34478 12.5783 7.33406 12.6008 7.32221 12.6226C6.63822 14.0773 6.26751 15.4788 6.17969 16.9698C6.94559 16.8529 9.05751 16.72 10.64 18.507C10.64 18.507 11.6854 15.6108 14.505 15.6108C17.3237 15.6108 17.9257 18.5079 17.9257 18.5079C18.559 17.9556 19.2899 17.5398 20.0766 17.2844C20.8633 17.029 21.6903 16.9389 22.5102 17.0195L22.4958 16.7723H22.4967ZM7.9099 11.3929C7.9099 11.3929 6.81217 8.51179 7.09337 6.8657C7.14065 6.58929 7.22848 6.34565 7.367 6.16138C7.367 6.16138 8.61167 6.29072 10.6206 8.63225C10.6206 8.63225 10.2389 8.8263 9.72803 9.23914C9.72803 9.23914 9.7246 9.2418 9.72207 9.2418C8.9901 9.82794 8.37452 10.5587 7.9099 11.3929ZM12.5712 15.672C12.5526 15.7092 12.4648 15.7491 12.3652 15.7641C12.2647 15.78 11.9598 15.7703 11.7867 15.7491C11.1635 15.6622 10.5032 15.462 10.0219 15.2157C9.75165 15.0775 9.55739 14.9384 9.41387 14.7878L9.3311 14.6983L9.32269 14.5813C9.30749 14.3776 9.31085 14.0578 9.33447 13.9435C9.34974 13.8482 9.38058 13.7566 9.42571 13.6724C9.44848 13.6414 9.44848 13.6414 9.55486 13.6414C9.68409 13.6414 9.79215 13.6627 9.96868 13.7211C10.3301 13.8389 10.8672 14.1225 11.5224 14.5353C12.0629 14.8737 12.2655 15.0403 12.4209 15.268C12.5264 15.4097 12.5965 15.61 12.5704 15.672H12.5712ZM19.4888 14.6523C19.4804 14.7019 19.3427 14.8489 19.2042 14.957C18.7989 15.268 18.0735 15.5577 17.3364 15.6968C16.9167 15.7765 16.497 15.7889 16.3703 15.7243C16.2884 15.6808 16.2766 15.6472 16.3061 15.5364C16.3677 15.3061 16.5679 15.0527 16.8787 14.8153C17.0374 14.6948 17.6809 14.2855 17.9798 14.1127C18.4729 13.8292 18.8724 13.6608 19.1426 13.6201C19.2279 13.6077 19.3309 13.6042 19.363 13.6201C19.4162 13.6414 19.4744 13.8053 19.4981 14.002C19.5099 14.1065 19.504 14.5689 19.4896 14.6523H19.4888ZM19.0016 9.23914L18.9956 9.23556C18.727 9.00507 18.438 8.80184 18.1326 8.62875C20.074 6.28718 21.2739 6.15783 21.2739 6.15783C21.4065 6.34565 21.4918 6.58574 21.5391 6.86304C21.8118 8.50821 20.7521 11.392 20.7521 11.392C20.3072 10.562 19.7127 9.83082 19.0016 9.23914Z" fill="#FFA409"/>
<path d="M21.5446 6.86304C21.315 6.83292 20.2315 6.82672 19.0037 9.23913L18.9978 9.23563C18.7291 9.00507 18.4402 8.80184 18.1348 8.62874C20.0762 6.28718 21.2761 6.15784 21.2761 6.15784C21.4112 6.34566 21.4973 6.58574 21.5438 6.86304H21.5446Z" fill="#FF9300"/>
<path d="M20.755 11.3926C20.3101 10.5617 19.7146 9.8301 19.002 9.23898C20.2298 6.82654 21.3106 6.83274 21.542 6.86286C21.8156 8.51163 20.755 11.3926 20.755 11.3926Z" fill="#FF8300"/>
<path d="M10.6215 8.62874C10.6215 8.62874 10.2399 8.82363 9.72899 9.23563C9.72899 9.23563 9.72556 9.23913 9.72304 9.23913C8.45131 6.82317 7.33161 6.83292 7.0918 6.86304C7.13824 6.58574 7.22691 6.34299 7.36452 6.15784C7.36796 6.15784 8.61263 6.28718 10.6215 8.62958V8.62874Z" fill="#FF9300"/>
<path d="M9.7281 9.23894C8.99472 9.82494 8.37809 10.5564 7.9134 11.3918C7.9134 11.3918 6.81567 8.51159 7.09686 6.86286C7.33499 6.83274 8.45637 6.82654 9.7281 9.23894Z" fill="#FF8300"/>
<path d="M7.09514 6.86304L7.04883 6.87131L7.09431 6.86304H7.09514Z" fill="#FF8300"/>
<path d="M17.7844 12.9916C17.7844 12.9916 16.8445 13.0527 16.9619 12.2829C17.0801 11.5121 17.8139 11.4199 18.0191 11.4501C18.2251 11.4811 19.0468 11.7894 18.9007 12.437C18.7538 13.0837 18.5477 12.9597 18.4304 12.9916C18.313 13.0217 17.7844 12.9916 17.7844 12.9916ZM10.8532 12.9916C10.8532 12.9916 9.91426 13.0527 10.0316 12.2829C10.1499 11.5121 10.8828 11.4199 11.0889 11.4501C11.294 11.4811 12.1166 11.7894 11.9696 12.437C11.8227 13.0837 11.6175 12.9597 11.5001 12.9916C11.3819 13.0217 10.8542 12.9916 10.8542 12.9916H10.8532Z" fill="white"/>
</g>
<defs>
<clipPath id="clip0_500_6089">
<rect width="28.0316" height="28.0316" fill="white" transform="translate(0.333984 0.216187)"/>
</clipPath>
</defs>
</svg>
