<svg width="29" height="29" viewBox="0 0 29 29" fill="none" xmlns="http://www.w3.org/2000/svg">
<g clip-path="url(#clip0_500_6243)">
<path d="M28.4418 14.3251C28.4418 6.58442 22.1667 0.309326 14.426 0.309326C6.68525 0.309326 0.410156 6.58442 0.410156 14.3251C0.410156 22.0659 6.68525 28.341 14.426 28.341C22.1667 28.341 28.4418 22.0659 28.4418 14.3251Z" fill="#2963D3"/>
<path d="M18.1022 16.0057C18.1022 14.1899 17.0128 13.5674 14.8338 13.3081C13.2774 13.1005 12.9661 12.6855 12.9661 11.9591C12.9661 11.2327 13.485 10.7659 14.5226 10.7659C15.4564 10.7659 15.9753 11.0772 16.2346 11.8554C16.2865 12.0111 16.4421 12.1148 16.5978 12.1148H17.4278C17.6354 12.1148 17.791 11.9591 17.791 11.7517V11.6998C17.5834 10.5583 16.6496 9.67644 15.4564 9.57272V8.32762C15.4564 8.12005 15.3008 7.9644 15.0414 7.91248H14.2632C14.0557 7.91248 13.9 8.06812 13.8481 8.32762V9.52079C12.2917 9.72836 11.306 10.7659 11.306 12.0629C11.306 13.7749 12.3436 14.4493 14.5226 14.7088C15.9753 14.9682 16.4421 15.2795 16.4421 16.1096C16.4421 16.9397 15.7158 17.5103 14.7301 17.5103C13.3811 17.5103 12.9143 16.9396 12.7586 16.1613C12.7068 15.9539 12.5512 15.8501 12.3956 15.8501H11.5135C11.306 15.8501 11.1504 16.0057 11.1504 16.2133V16.2652C11.3578 17.5621 12.188 18.496 13.9 18.7555V20.0006C13.9 20.208 14.0557 20.3636 14.315 20.4156H15.0932C15.3008 20.4156 15.4564 20.2599 15.5083 20.0006V18.7555C17.0647 18.496 18.1022 17.4064 18.1022 16.0057Z" fill="white"/>
<path d="M12.0323 21.4531C7.98566 20.0005 5.91042 15.487 7.41502 11.4922C8.19323 9.31328 9.90526 7.65317 12.0323 6.87495C12.2398 6.77124 12.3435 6.6156 12.3435 6.35612V5.62984C12.3435 5.42228 12.2398 5.26664 12.0323 5.21484C11.9804 5.21484 11.8767 5.21484 11.8247 5.26664C6.89618 6.82303 4.19839 12.063 5.75478 16.9915C6.68861 19.8968 8.91946 22.1276 11.8247 23.0615C12.0323 23.1652 12.2398 23.0615 12.2917 22.8539C12.3435 22.8021 12.3435 22.7502 12.3435 22.6465V21.9201C12.3435 21.7644 12.1879 21.557 12.0323 21.4531ZM17.5315 5.26664C17.324 5.16292 17.1165 5.26664 17.0647 5.4742C17.0128 5.52612 17.0128 5.57792 17.0128 5.68176V6.40804C17.0128 6.6156 17.1684 6.82303 17.324 6.92688C21.3706 8.3794 23.4459 12.893 21.9413 16.8878C21.163 19.0667 19.451 20.7268 17.324 21.5051C17.1165 21.6088 17.0128 21.7644 17.0128 22.0239V22.7502C17.0128 22.9577 17.1165 23.1134 17.324 23.1652C17.3759 23.1652 17.4796 23.1652 17.5315 23.1134C22.4601 21.557 25.1579 16.3171 23.6015 11.3885C22.6676 8.43133 20.3849 6.20048 17.5315 5.26664Z" fill="white"/>
</g>
<defs>
<clipPath id="clip0_500_6243">
<rect width="28.0316" height="28.0316" fill="white" transform="translate(0.410156 0.309326)"/>
</clipPath>
</defs>
</svg>
