<svg width="29" height="29" viewBox="0 0 29 29" fill="none" xmlns="http://www.w3.org/2000/svg">
<g clip-path="url(#clip0_500_6265)">
<path d="M28.9047 14.3251C28.9047 6.58442 22.6296 0.309326 14.8889 0.309326C7.14814 0.309326 0.873047 6.58442 0.873047 14.3251C0.873047 22.0659 7.14814 28.341 14.8889 28.341C22.6296 28.341 28.9047 22.0659 28.9047 14.3251Z" fill="white"/>
<path fill-rule="evenodd" clip-rule="evenodd" d="M11.6222 12.9828L14.8889 9.71758L18.1569 12.9854L20.0565 11.0845L14.8889 5.91565L9.72121 11.0831L11.6222 12.9828ZM6.47852 14.3251L8.37885 12.4249L10.2792 14.3251L8.37885 16.2254L6.47852 14.3251ZM14.8892 18.934L11.6225 15.6674L9.7189 17.5657L9.72156 17.5684L14.8892 22.7346L20.0569 17.5657L20.0582 17.5644L18.1572 15.6661L14.8892 18.934ZM19.4963 14.3257L21.3967 12.4254L23.2969 14.3257L21.3967 16.226L19.4963 14.3257ZM14.8895 12.3958L16.8171 14.3246H16.8184L16.8171 14.326L14.8895 16.2548L12.962 14.3286L12.9593 14.3246L12.962 14.322L13.2994 13.9846L13.4641 13.8212L14.8895 12.3958Z" fill="#F5B300"/>
<path d="M28.9047 14.3251C28.9047 6.58442 22.6296 0.309326 14.8889 0.309326C7.14814 0.309326 0.873047 6.58442 0.873047 14.3251C0.873047 22.0659 7.14814 28.341 14.8889 28.341C22.6296 28.341 28.9047 22.0659 28.9047 14.3251Z" fill="#50AF95"/>
<path d="M14.9576 6.23683C17.1257 6.23683 19.2072 6.23683 21.3753 6.23683C21.5488 6.23683 21.6355 6.32467 21.6355 6.41251C22.8497 9.13551 24.0639 11.7707 25.3647 14.4059C25.4515 14.4937 25.3647 14.5816 25.278 14.6694C23.8036 16.1626 22.3293 17.6559 20.7682 19.1492C18.8603 20.9938 16.8655 22.9262 14.9576 24.7709C14.7841 24.8587 14.7841 24.8587 14.6974 24.7709C12.7894 22.9262 10.8814 21.0816 8.97344 19.1492C7.4991 17.6559 5.93803 16.1626 4.46368 14.6694C4.37695 14.5816 4.37695 14.4937 4.37695 14.4059C4.98404 13.0004 5.67785 11.6829 6.28493 10.2774C6.89202 8.95982 7.4991 7.73007 8.10621 6.41251C8.1929 6.23682 8.27966 6.14899 8.53979 6.14899C10.708 6.23682 12.7894 6.14899 14.9576 6.23683ZM15.0443 8.60851C13.4832 8.60851 11.8354 8.60851 10.2743 8.60851C10.1876 8.60851 10.1876 8.60851 10.1009 8.60851C10.0142 8.60851 10.0142 8.60851 10.0142 8.69632C10.0142 9.48688 10.0142 10.2774 9.92743 11.1558C9.92743 11.2436 9.92743 11.2436 10.0142 11.2436C10.2743 11.2436 10.5345 11.2436 10.7947 11.2436C11.662 11.2436 12.5293 11.2436 13.3965 11.2436C13.4832 11.2436 13.4832 11.2436 13.5699 11.2436C13.6567 11.2436 13.6567 11.3315 13.6567 11.4193C13.6567 11.7707 13.6567 12.2099 13.6567 12.5613C13.6567 12.6491 13.6567 12.6491 13.5699 12.7369C12.9629 12.8247 12.3558 12.8247 11.7487 12.9126C10.9682 13.0004 10.1876 13.1761 9.49385 13.4396C9.14689 13.5275 8.88675 13.7031 8.62655 13.8788C8.36635 14.1424 8.36635 14.4937 8.62655 14.6694C8.79999 14.8451 8.97344 14.9329 9.14689 15.0207C9.75398 15.2842 10.3611 15.3721 10.9682 15.5477C11.8354 15.7234 12.7027 15.8113 13.5699 15.8991C13.7434 15.8991 13.7434 15.8991 13.7434 16.0748C13.7434 17.6559 13.7434 19.3249 13.7434 20.9059C13.7434 21.0816 13.7434 21.0816 13.9169 21.0816C14.6974 21.0816 15.5647 21.0816 16.3452 21.0816C16.6054 21.0816 16.6054 21.0816 16.6054 20.8181C16.6054 19.5006 16.6054 18.2708 16.6054 16.9532C16.6054 16.6018 16.6054 16.2505 16.6054 15.8991C16.6054 15.7234 16.6921 15.7234 16.7788 15.7234C17.6461 15.7234 18.4266 15.6356 19.2939 15.4599C19.9877 15.3721 20.5948 15.1964 21.2019 14.9329C21.3753 14.8451 21.5488 14.6694 21.7222 14.5816C21.8957 14.4059 21.8957 14.2302 21.7222 14.0545C21.5488 13.9667 21.4621 13.791 21.2886 13.7031C20.2479 13.0882 19.0337 12.8247 17.8195 12.7369C17.4726 12.7369 17.1257 12.7369 16.7788 12.6491C16.6921 12.6491 16.6921 12.6491 16.6921 12.4734C16.6921 12.1221 16.6921 11.6829 16.6921 11.3315C16.6921 11.2436 16.6921 11.1558 16.8655 11.1558C17.1257 11.1558 17.3859 11.1558 17.6461 11.1558C18.5134 11.1558 19.2939 11.1558 20.1611 11.1558C20.3346 11.1558 20.3346 11.068 20.3346 10.9801C20.3346 10.8923 20.3346 10.8923 20.3346 10.8044C20.3346 10.1018 20.3346 9.399 20.3346 8.60851C20.3346 8.43282 20.3346 8.43282 20.1611 8.43282C18.2532 8.60851 16.6054 8.60851 15.0443 8.60851Z" fill="white"/>
<path d="M14.6104 15.2842C14.0033 15.2842 13.483 15.2842 12.8759 15.1964C11.9219 15.1085 10.8812 15.0207 9.92718 14.6693C9.75373 14.5815 9.58029 14.4936 9.32015 14.4058C9.05995 14.2301 9.05995 14.0545 9.32015 13.9666C9.66704 13.791 10.0139 13.7031 10.3608 13.6153C11.0547 13.4396 11.7485 13.3518 12.529 13.2639C12.7892 13.2639 13.1361 13.1761 13.3962 13.1761C13.483 13.1761 13.5697 13.1761 13.5697 13.3518C13.5697 13.8788 13.5697 14.318 13.5697 14.845C13.5697 15.0207 13.6564 15.0207 13.7432 15.0207C14.437 15.0207 15.1308 15.0207 15.7379 15.0207C15.9113 15.0207 16.0848 15.0207 16.2583 15.0207C16.4317 15.0207 16.4317 15.0207 16.4317 14.845C16.4317 14.4058 16.4317 13.9666 16.4317 13.5274C16.4317 13.2639 16.4317 13.2639 16.6918 13.2639C17.8193 13.3518 18.9468 13.4396 20.0742 13.791C20.2477 13.8788 20.5079 13.9666 20.6813 14.0545C20.8547 14.1423 20.8547 14.318 20.6813 14.4058C20.3344 14.6693 19.9874 14.7571 19.5539 14.845C18.6866 15.0207 17.8193 15.1964 16.952 15.1964C16.2583 15.1964 15.391 15.2842 14.6104 15.2842Z" fill="white"/>
</g>
<defs>
<clipPath id="clip0_500_6265">
<rect width="28.0316" height="28.0316" fill="white" transform="translate(0.873047 0.309326)"/>
</clipPath>
</defs>
</svg>
