<svg width="29" height="29" viewBox="0 0 29 29" fill="none" xmlns="http://www.w3.org/2000/svg">
<g clip-path="url(#clip0_500_6285)">
<path d="M28.8285 14.3251C28.8285 6.58442 22.5534 0.309326 14.8127 0.309326C7.07197 0.309326 0.796875 6.58442 0.796875 14.3251C0.796875 22.0659 7.07197 28.341 14.8127 28.341C22.5534 28.341 28.8285 22.0659 28.8285 14.3251Z" fill="white"/>
<path d="M21.5189 8.2892L19.2687 9.4748L8.40282 15.1986C8.3661 14.9087 8.3476 14.6168 8.34753 14.3245C8.349 13.1582 8.64508 12.0126 9.20642 11.0011C9.76775 9.98953 10.5749 9.14725 11.5478 8.5576C12.5207 7.96796 13.6258 7.65141 14.7535 7.63929C15.8811 7.62723 16.9923 7.92002 17.9768 8.48872L19.2648 7.81L19.4569 7.70867C18.277 6.823 16.8834 6.29198 15.4299 6.17426C13.9765 6.05654 12.5199 6.35671 11.2211 7.04159C9.92235 7.72647 8.83192 8.76938 8.07044 10.0551C7.30894 11.3408 6.906 12.8192 6.90615 14.3269C6.90615 14.5351 6.91379 14.7426 6.92908 14.9492C6.95049 15.2417 6.88775 15.5343 6.74875 15.7901C6.60975 16.0459 6.4007 16.2535 6.14792 16.3867L5.46875 16.7448V18.4153L7.4683 17.3614L8.11585 17.0196L8.75392 16.6835L20.2088 10.6474L21.496 9.96949L24.1565 8.5672V6.8975L21.5189 8.2892ZM24.1565 10.2385L9.4046 18.0065L8.11739 18.686L5.46875 20.0818V21.7506L8.09924 20.3647L10.3494 19.1791L21.2264 13.4471C21.2631 13.7388 21.2816 14.0327 21.2817 14.3269C21.281 15.4945 20.985 16.6416 20.4231 17.6544C19.8612 18.6671 19.053 19.5103 18.0786 20.1001C17.1043 20.69 15.9977 21.006 14.8687 21.0168C13.7398 21.0277 12.6277 20.7329 11.6429 20.1619L11.5639 20.2052L10.1676 20.9411C11.3472 21.8268 12.7405 22.358 14.1937 22.476C15.647 22.5939 17.1034 22.2942 18.4022 21.6098C19.701 20.9254 20.7915 19.8829 21.5534 18.5977C22.3152 17.3125 22.7186 15.8345 22.7191 14.3269C22.7191 14.1168 22.7112 13.9067 22.6962 13.699C22.6748 13.4065 22.7375 13.114 22.8763 12.8583C23.0152 12.6025 23.224 12.3949 23.4766 12.2615L24.1565 11.9033V10.2385Z" fill="black"/>
</g>
<defs>
<clipPath id="clip0_500_6285">
<rect width="28.0316" height="28.0316" fill="white" transform="translate(0.796875 0.309326)"/>
</clipPath>
</defs>
</svg>
