<svg width="29" height="29" viewBox="0 0 29 29" fill="none" xmlns="http://www.w3.org/2000/svg">
<g clip-path="url(#clip0_500_6127)">
<path d="M28.4418 14.1389C28.4418 6.39814 22.1667 0.123047 14.426 0.123047C6.68525 0.123047 0.410156 6.39814 0.410156 14.1389C0.410156 21.8796 6.68525 28.1547 14.426 28.1547C22.1667 28.1547 28.4418 21.8796 28.4418 14.1389Z" fill="black"/>
<path d="M26.1038 14.1643C26.1012 20.6504 20.9081 25.8232 14.4038 25.8188C7.9335 25.8143 2.74058 20.5982 2.74414 14.1071C2.74769 7.64936 8.00883 2.44951 14.5295 2.45906C20.9152 2.46842 26.1064 7.71839 26.1038 14.1643ZM23.5313 14.0029C23.4197 11.5254 22.5951 9.35333 20.8148 7.61537C18.4935 5.34925 15.7004 4.69551 12.586 5.20776C9.08062 5.78429 5.24246 9.21493 5.32545 14.2964C5.40527 19.184 9.40719 23.2291 14.4356 23.2062C19.5722 23.1827 23.6122 19.0039 23.5313 14.0029Z" fill="black"/>
<path d="M23.5328 14.003C23.6142 19.0038 19.5742 23.1826 14.4377 23.2061C9.40924 23.2291 5.40731 19.1839 5.32749 14.2963C5.24451 9.21488 9.08267 5.7842 12.588 5.20766C15.7024 4.69542 18.4955 5.34915 20.8168 7.61525C22.5971 9.35321 23.4218 11.5253 23.5328 14.003Z" fill="#F5B300"/>
<path d="M13.1634 19.7077C12.0938 19.7077 11.1092 19.7077 10.1152 19.7077C9.91783 18.5312 10.058 17.5143 10.8452 16.5629C12.2282 14.8912 13.3599 13.0173 14.8852 11.3148C13.348 11.3148 11.9177 11.3148 10.4534 11.3148C10.4534 10.3916 10.4534 9.51991 10.4534 8.584C11.3286 8.584 12.2142 8.584 13.1444 8.584C13.1444 7.88055 13.1444 7.23939 13.1444 6.56165C13.9843 6.56165 14.7791 6.56165 15.6349 6.56165C15.6349 7.21606 15.6349 7.8694 15.6349 8.57321C16.6592 8.57321 17.6245 8.57321 18.6231 8.57321C18.637 9.68599 18.7488 10.6862 17.9612 11.65C16.5894 13.3287 15.4482 15.1961 13.9721 16.9455C15.6406 16.9455 17.2089 16.9455 18.7995 16.9455C18.7995 17.8841 18.7995 18.7585 18.7995 19.686C17.7634 19.686 16.7367 19.686 15.6601 19.686C15.6601 20.363 15.6601 20.9885 15.6601 21.6476C14.8122 21.6476 14.0146 21.6476 13.1633 21.6476C13.1634 21.0219 13.1634 20.397 13.1634 19.7077Z" fill="black"/>
</g>
<defs>
<clipPath id="clip0_500_6127">
<rect width="28.0316" height="28.0316" fill="white" transform="translate(0.410156 0.123047)"/>
</clipPath>
</defs>
</svg>
