<svg width="23" height="24" viewBox="0 0 23 24" fill="none" xmlns="http://www.w3.org/2000/svg">
<path opacity="0.4" d="M20.8524 15.7567L14.7191 4.71675C13.8949 3.23133 12.7545 2.41675 11.4991 2.41675C10.2436 2.41675 9.10323 3.23133 8.27906 4.71675L2.14573 15.7567C1.36948 17.1655 1.28323 18.5167 1.90615 19.5805C2.52906 20.6442 3.75573 21.2288 5.36573 21.2288H17.6324C19.2424 21.2288 20.4691 20.6442 21.092 19.5805C21.7149 18.5167 21.6286 17.1559 20.8524 15.7567Z" fill="#F13C43"/>
<path d="M11.4993 14.6354C11.1064 14.6354 10.7806 14.3096 10.7806 13.9167V9.125C10.7806 8.73208 11.1064 8.40625 11.4993 8.40625C11.8923 8.40625 12.2181 8.73208 12.2181 9.125V13.9167C12.2181 14.3096 11.8923 14.6354 11.4993 14.6354ZM11.4993 17.749C11.4418 17.749 11.3748 17.7395 11.3077 17.7299C11.2476 17.7194 11.1895 17.7001 11.1352 17.6724C11.0741 17.6514 11.0161 17.6224 10.9627 17.5861L10.8189 17.4711C10.6464 17.289 10.541 17.0399 10.541 16.7907C10.541 16.5415 10.6464 16.2924 10.8189 16.1103L10.9627 15.9953C11.0202 15.957 11.0777 15.9282 11.1352 15.909C11.1927 15.8803 11.2502 15.8611 11.3077 15.8515C11.4323 15.8228 11.5664 15.8228 11.6814 15.8515C11.7485 15.8611 11.806 15.8803 11.8635 15.909C11.921 15.9282 11.9785 15.957 12.036 15.9953L12.1798 16.1103C12.3523 16.2924 12.4577 16.5415 12.4577 16.7907C12.4577 17.0399 12.3523 17.289 12.1798 17.4711L12.036 17.5861C11.9785 17.6245 11.921 17.6532 11.8635 17.6724C11.806 17.7011 11.7485 17.7203 11.6814 17.7299C11.6239 17.7395 11.5568 17.749 11.4993 17.749Z" fill="#F13C43"/>
</svg>
