<svg width="19" height="20" viewBox="0 0 19 20" fill="none" xmlns="http://www.w3.org/2000/svg">
<path d="M14.8438 6.83331V8.49581C14.4954 8.44831 14.0996 8.42456 13.6562 8.41665V6.83331C13.6562 4.33956 12.9517 2.67706 9.5 2.67706C6.04833 2.67706 5.34375 4.33956 5.34375 6.83331V8.41665C4.90042 8.42456 4.50458 8.44831 4.15625 8.49581V6.83331C4.15625 4.53748 4.71042 1.48956 9.5 1.48956C14.2896 1.48956 14.8438 4.53748 14.8438 6.83331Z" fill="white"/>
<path opacity="0.4" d="M17.4163 12.375V13.9584C17.4163 17.125 16.6247 17.9167 13.458 17.9167H5.54134C2.37467 17.9167 1.58301 17.125 1.58301 13.9584V12.375C1.58301 9.73085 2.13717 8.74127 4.15592 8.49585C4.50426 8.44835 4.90009 8.4246 5.34342 8.41669H13.6559C14.0993 8.4246 14.4951 8.44835 14.8434 8.49585C16.8622 8.74127 17.4163 9.73085 17.4163 12.375Z" fill="white"/>
<path d="M6.33366 13.9575C6.23074 13.9575 6.12783 13.9338 6.03283 13.8942C5.92991 13.8546 5.85074 13.7992 5.77158 13.7279C5.62908 13.5775 5.54199 13.3717 5.54199 13.1658C5.54199 13.0629 5.56574 12.96 5.60533 12.865C5.64491 12.77 5.70033 12.6829 5.77158 12.6038C5.85074 12.5325 5.92991 12.4771 6.03283 12.4375C6.32574 12.3108 6.67408 12.3821 6.89574 12.6038C6.96699 12.6829 7.02241 12.77 7.06199 12.865C7.10158 12.96 7.12533 13.0629 7.12533 13.1658C7.12533 13.3717 7.03824 13.5775 6.89574 13.7279C6.74533 13.8704 6.53949 13.9575 6.33366 13.9575ZM9.50033 13.9583C9.28658 13.9583 9.08866 13.8712 8.93824 13.7287C8.86699 13.6496 8.81158 13.5625 8.77199 13.4675C8.73133 13.3723 8.70981 13.2701 8.70866 13.1666C8.70866 12.9529 8.79574 12.755 8.93824 12.6046C9.23116 12.3116 9.76158 12.3116 10.0624 12.6046C10.2049 12.755 10.292 12.9529 10.292 13.1666C10.292 13.2696 10.2682 13.3725 10.2287 13.4675C10.1891 13.5625 10.1337 13.6496 10.0624 13.7287C9.91199 13.8712 9.70616 13.9583 9.50033 13.9583ZM12.667 13.9583C12.4612 13.9583 12.2553 13.8712 12.1049 13.7287C11.9624 13.5783 11.8753 13.3804 11.8753 13.1666C11.8753 12.9529 11.9624 12.755 12.1049 12.6046C12.4057 12.3116 12.9362 12.3116 13.2291 12.6046C13.2607 12.6441 13.2924 12.6837 13.3241 12.7312C13.3557 12.7708 13.3795 12.8183 13.3953 12.8658C13.4191 12.9133 13.4349 12.9608 13.4428 13.0083C13.4507 13.0637 13.4587 13.1191 13.4587 13.1666C13.4587 13.3725 13.3716 13.5783 13.2291 13.7287C13.0787 13.8712 12.8728 13.9583 12.667 13.9583Z" fill="white"/>
</svg>
