<svg width="19" height="20" viewBox="0 0 19 20" fill="none" xmlns="http://www.w3.org/2000/svg">
<path opacity="0.4" d="M13.458 16.7291H5.54134C3.16634 16.7291 1.58301 15.5416 1.58301 12.7708V7.22915C1.58301 4.45831 3.16634 3.27081 5.54134 3.27081H13.458C15.833 3.27081 17.4163 4.45831 17.4163 7.22915V12.7708C17.4163 15.5416 15.833 16.7291 13.458 16.7291Z" fill="white"/>
<path d="M9.49918 10.6903C8.83418 10.6903 8.16127 10.4845 7.64668 10.0649L5.16877 8.08573C5.05354 7.98568 4.98139 7.84501 4.96735 7.69305C4.95332 7.54109 4.99849 7.38959 5.09345 7.27013C5.18841 7.15067 5.32581 7.07247 5.47702 7.05186C5.62822 7.03125 5.78155 7.0698 5.90502 7.15948L8.38293 9.13865C8.9846 9.62156 10.0059 9.62156 10.6075 9.13865L13.0854 7.15948C13.3388 6.95365 13.7188 6.99323 13.9167 7.25448C14.1225 7.50781 14.0829 7.88781 13.8217 8.08573L11.3438 10.0649C10.8371 10.4845 10.1642 10.6903 9.49918 10.6903Z" fill="white"/>
</svg>
