<svg width="19" height="20" viewBox="0 0 19 20" fill="none" xmlns="http://www.w3.org/2000/svg">
<path opacity="0.4" d="M9.50033 10C10.5501 10 11.557 9.58297 12.2993 8.84064C13.0416 8.09831 13.4587 7.09149 13.4587 6.04168C13.4587 4.99186 13.0416 3.98504 12.2993 3.24271C11.557 2.50038 10.5501 2.08334 9.50033 2.08334C8.45051 2.08334 7.44369 2.50038 6.70136 3.24271C5.95903 3.98504 5.54199 4.99186 5.54199 6.04168C5.54199 7.09149 5.95903 8.09831 6.70136 8.84064C7.44369 9.58297 8.45051 10 9.50033 10Z" fill="white"/>
<path d="M9.49996 11.9792C5.53371 11.9792 2.30371 14.6392 2.30371 17.9167C2.30371 18.1383 2.47788 18.3125 2.69954 18.3125H16.3004C16.522 18.3125 16.6962 18.1383 16.6962 17.9167C16.6962 14.6392 13.4662 11.9792 9.49996 11.9792Z" fill="white"/>
</svg>
