<svg width="24" height="24" viewBox="0 0 24 24" fill="none" xmlns="http://www.w3.org/2000/svg">
<g clip-path="url(#clip0_22_3523)">
<path d="M24 12C24 5.37258 18.6274 0 12 0C5.37258 0 0 5.37258 0 12C0 18.6274 5.37258 24 12 24C18.6274 24 24 18.6274 24 12Z" fill="#F5B300"/>
<path d="M7.78368 5.51743C8.22438 5.63762 8.66508 5.71774 9.10578 5.83793C9.54642 5.95812 9.98712 6.03826 10.4278 6.15844C10.548 6.19852 10.5881 6.15844 10.6282 6.03826C10.7884 5.35718 10.9486 4.71618 11.1089 4.03511C11.149 3.91493 11.189 3.87486 11.3092 3.91493C11.7098 4.03511 12.0704 4.11524 12.471 4.19537C12.5912 4.23543 12.5912 4.27549 12.5512 4.35561C12.3909 4.99662 12.2306 5.67768 12.0704 6.3187C12.0704 6.35872 12.0704 6.3988 12.0303 6.47896C12.3508 6.55906 12.7114 6.63916 13.0319 6.71932C13.072 6.71932 13.112 6.63916 13.1521 6.59914C13.2722 6.07828 13.3924 5.59755 13.5527 5.07674C13.5928 4.91649 13.6328 4.75624 13.6729 4.59599C13.6729 4.51586 13.7129 4.4758 13.7931 4.51586C14.1937 4.63605 14.5943 4.71618 15.035 4.83636C15.0751 4.83636 15.0751 4.87643 15.1151 4.87643C14.995 5.39724 14.8748 5.87799 14.7546 6.35872C14.7145 6.55906 14.6744 6.75934 14.5943 6.95968C14.5543 7.07986 14.5943 7.11994 14.7145 7.16002C15.1552 7.3603 15.5959 7.56064 16.0366 7.76092C16.4372 8.00128 16.7978 8.3218 17.0782 8.72242C17.4388 9.32338 17.4788 9.96436 17.3186 10.6054C17.1984 11.046 17.0381 11.4467 16.7176 11.7672C16.4773 12.0075 16.1567 12.1678 15.8363 12.288C15.7962 12.288 15.7561 12.3281 15.676 12.3281C15.8363 12.4482 15.9965 12.5284 16.1567 12.6486C16.6375 13.0091 16.958 13.4498 17.1183 14.0107C17.1984 14.4514 17.1583 14.9321 17.0381 15.3728C16.8779 15.9337 16.6776 16.4145 16.317 16.8551C15.8763 17.376 15.3155 17.6564 14.6744 17.7365C13.8331 17.8567 13.0319 17.7766 12.2306 17.6564C12.1105 17.6163 12.0303 17.6564 11.9903 17.7766C11.83 18.4176 11.6698 19.0986 11.5095 19.7397C11.4694 19.8999 11.4694 19.94 11.2691 19.8599C10.9085 19.7797 10.5079 19.6595 10.1474 19.5794C10.0272 19.5393 10.0272 19.4993 10.0673 19.4192C10.2275 18.7381 10.3877 18.057 10.5881 17.416C10.5881 17.3359 10.6281 17.2958 10.548 17.2557C10.2275 17.1756 9.90702 17.0955 9.54642 17.0154C9.46632 17.376 9.34614 17.7365 9.26598 18.0971C9.18588 18.4577 9.0657 18.8182 8.98554 19.1788C8.94552 19.2589 8.94552 19.299 8.82534 19.2589C8.42466 19.1387 8.02404 19.0586 7.62342 18.9785C7.50324 18.9384 7.50324 18.8984 7.54332 18.8182C7.70358 18.1371 7.86384 17.4561 8.06412 16.8151C8.06412 16.775 8.1042 16.7349 8.1042 16.6548C7.18272 16.4145 6.2613 16.1741 5.2998 15.9337C5.37993 15.7734 5.41999 15.6533 5.50011 15.493C5.66037 15.1325 5.82062 14.7719 5.9408 14.4514C5.98087 14.3312 6.02094 14.3312 6.14112 14.3312C6.42156 14.4113 6.74208 14.4914 7.02252 14.5315C7.34298 14.6117 7.5834 14.4514 7.62342 14.171C8.14422 12.1278 8.66508 10.0845 9.1458 8.00128C9.22596 7.68082 9.02562 7.32022 8.66508 7.20004C8.30448 7.07986 7.94394 6.99976 7.62342 6.9196C7.54332 6.9196 7.50324 6.87958 7.54332 6.79942C7.6635 6.35872 7.78368 5.87799 7.90386 5.43731C7.7436 5.55749 7.7436 5.55749 7.78368 5.51743ZM9.82686 15.4129C9.86694 15.4129 9.90702 15.453 9.90702 15.453C10.548 15.6132 11.2291 15.8135 11.9101 15.8536C12.3909 15.8936 12.8316 15.8936 13.2722 15.7334C14.0335 15.493 14.354 14.4914 13.9133 13.8504C13.7129 13.5299 13.3924 13.3296 13.072 13.1293C12.3508 12.7287 11.5095 12.5684 10.7083 12.4082C10.5881 12.3681 10.5881 12.4082 10.548 12.5284C10.4679 12.929 10.3477 13.2896 10.2676 13.6902C10.1073 14.2511 9.98712 14.8119 9.82686 15.4129ZM13.1921 11.3265C13.2722 11.3265 13.4726 11.2865 13.6328 11.2464C14.394 11.0861 14.7946 10.2048 14.394 9.52366C14.1937 9.16312 13.8331 8.92276 13.4726 8.7625C12.9117 8.52214 12.3508 8.40196 11.7499 8.2417C11.6297 8.20162 11.5897 8.2417 11.5496 8.36188C11.3492 9.2032 11.149 10.0044 10.9085 10.8458C10.8685 10.9259 10.9085 10.9659 10.9887 11.006C11.149 11.046 11.2691 11.0861 11.4294 11.1262C12.0303 11.2063 12.5512 11.3265 13.1921 11.3265Z" fill="white"/>
</g>
<defs>
<clipPath id="clip0_22_3523">
<rect width="24" height="24" fill="white"/>
</clipPath>
</defs>
</svg>
