<svg width="24" height="24" viewBox="0 0 24 24" fill="none" xmlns="http://www.w3.org/2000/svg">
<g clip-path="url(#clip0_22_3665)">
<path d="M24 12C24 5.37258 18.6274 0 12 0C5.37258 0 0 5.37258 0 12C0 18.6274 5.37258 24 12 24C18.6274 24 24 18.6274 24 12Z" fill="#008DE4"/>
<path d="M14.0797 5.3999H8.25555L7.77255 8.09849L13.0295 8.10473C15.6191 8.10473 16.3825 9.04583 16.3607 10.6039C16.3483 11.4017 16.0024 12.7541 15.8528 13.1935C15.4539 14.362 14.6344 15.6926 11.5618 15.6895L6.45129 15.6864L5.96826 18.3881H11.7799C13.8304 18.3881 14.6998 18.1482 15.6253 17.7244C17.6727 16.774 18.8911 14.7547 19.3803 12.1184C20.1064 8.19197 19.2027 5.3999 14.0797 5.3999Z" fill="white"/>
<path d="M5.74079 10.5386C4.21386 10.5386 3.99573 11.5327 3.85238 12.1341C3.6623 12.9194 3.59998 13.2403 3.59998 13.2403H9.56434C11.0913 13.2403 11.3094 12.2463 11.4527 11.6449C11.6429 10.8596 11.7051 10.5386 11.7051 10.5386H5.74079Z" fill="white"/>
</g>
<defs>
<clipPath id="clip0_22_3665">
<rect width="24" height="24" fill="white"/>
</clipPath>
</defs>
</svg>
