<svg width="24" height="24" viewBox="0 0 24 24" fill="none" xmlns="http://www.w3.org/2000/svg">
<g clip-path="url(#clip0_22_3536)">
<path d="M24 12C24 5.37258 18.6274 0 12 0C5.37258 0 0 5.37258 0 12C0 18.6274 5.37258 24 12 24C18.6274 24 24 18.6274 24 12Z" fill="#BA9F33"/>
<path d="M12.0001 20.6C16.9706 20.6 21 16.5707 21 11.6002C21 6.62974 16.9706 2.60034 12.0001 2.60034C7.02966 2.60034 3.0003 6.62974 3.0003 11.6002C3.0003 16.5707 7.02966 20.6 12.0001 20.6Z" fill="#BA9F33"/>
<path fill-rule="evenodd" clip-rule="evenodd" d="M6.65496 10.5858C6.60114 10.5367 6.54432 10.4874 6.49206 10.4383C6.4398 10.3891 6.3861 10.3399 6.33228 10.2908L6.17244 10.1388C6.14628 10.1127 6.11862 10.0897 6.09246 10.0635C6.06636 10.0404 6.03564 10.0143 6.00954 9.99123C5.79737 9.78993 5.58401 9.58863 5.3748 9.38721C5.59151 9.58545 5.80365 9.78231 6.02034 9.98349L6.09564 10.0589C6.12174 10.0849 6.1494 10.108 6.17556 10.1341L6.33534 10.2817C6.3891 10.3308 6.44142 10.38 6.49518 10.4336C6.549 10.4872 6.60114 10.5367 6.65496 10.5858ZM3.83945 10.5554C3.83945 10.5554 4.61093 10.6352 4.9875 10.689C5.33631 10.7383 6.4275 10.9057 6.4275 10.9057L3.83945 10.5554ZM3.83945 10.5554C4.05615 10.5738 4.27286 10.5968 4.48956 10.6199C4.60019 10.6306 4.70626 10.6429 4.81233 10.6537L4.97514 10.6722C5.02893 10.6798 5.08121 10.6875 5.135 10.6952L5.78055 10.7982L6.1032 10.8519C6.20928 10.8703 6.31536 10.8904 6.426 10.9089C6.31992 10.8981 6.20928 10.8827 6.1032 10.8673L5.78055 10.8213L5.135 10.726C5.08121 10.7183 5.02893 10.7074 4.97514 10.6999L4.81223 10.6811C4.70616 10.6704 4.59553 10.655 4.48946 10.6426C4.27275 10.6166 4.05615 10.5891 3.83945 10.5554ZM6.3507 11.1067C6.3507 11.1067 5.52697 11.3158 5.24877 11.3958C4.97524 11.4711 4.14683 11.7231 4.14683 11.7231L6.3507 11.1067Z" fill="#CFB66C"/>
<path fill-rule="evenodd" clip-rule="evenodd" d="M6.35076 11.1067C6.16788 11.1604 5.98602 11.2128 5.80053 11.262L5.25031 11.4095C5.06745 11.4633 4.8856 11.5156 4.70324 11.5694L4.4297 11.6446C4.33903 11.6708 4.24684 11.6938 4.15313 11.72C4.2437 11.6896 4.33599 11.6585 4.42666 11.6324L4.7002 11.5449C4.88307 11.4879 5.06491 11.4341 5.24727 11.3773C5.43318 11.3312 5.61614 11.2819 5.80204 11.2374C5.97873 11.1928 6.16476 11.1483 6.35076 11.1067ZM4.26224 12.2302C4.35281 12.1964 5.39792 11.7093 5.64076 11.5955C5.76233 11.5386 6.11568 11.4132 6.11568 11.4132L4.26224 12.2302Z" fill="#CFB66C"/>
<path fill-rule="evenodd" clip-rule="evenodd" d="M4.26221 12.2303C4.34205 12.1998 4.41742 12.1626 4.49421 12.1273L4.72166 12.0212L5.17815 11.8015C5.33012 11.7293 5.47783 11.6495 5.63456 11.5817C5.71449 11.5479 5.79443 11.5203 5.87426 11.4941L5.99583 11.4557C6.03726 11.445 6.07578 11.4326 6.11742 11.4219C5.96543 11.4941 5.80547 11.5556 5.6533 11.6262C5.50133 11.7016 5.34593 11.7631 5.1891 11.8307L4.725 12.035C4.56918 12.0981 4.41731 12.1657 4.26221 12.2303ZM4.36352 12.6557C4.36352 12.6557 5.31016 12.101 5.63597 11.9226C5.80658 11.8274 6.35832 11.5538 6.35832 11.5538L4.36352 12.6557Z" fill="#CFB66C"/>
<path fill-rule="evenodd" clip-rule="evenodd" d="M4.36348 12.656C4.52325 12.5576 4.68615 12.4577 4.84905 12.3563L5.0922 12.2087C5.17517 12.1596 5.2551 12.1135 5.3397 12.0643C5.42267 12.0151 5.5026 11.966 5.58709 11.9199C5.62731 11.8951 5.66946 11.8735 5.71312 11.8553L5.84219 11.7908C6.01278 11.7079 6.18342 11.6233 6.36324 11.551C6.20034 11.654 6.03276 11.7417 5.86529 11.8322C5.78232 11.8783 5.69772 11.9199 5.61475 11.966C5.53178 12.0121 5.45184 12.0613 5.36725 12.1059C5.28428 12.155 5.20434 12.2011 5.11985 12.2457L4.86932 12.3824L4.36348 12.656ZM6.35058 11.6754C6.35058 11.6754 5.76195 12.1273 5.57139 12.2717C5.38083 12.4162 4.81988 12.8219 4.81988 12.8219L6.35058 11.6754Z" fill="#CFB66C"/>
<path fill-rule="evenodd" clip-rule="evenodd" d="M9.72864 15.3194L9.42744 14.7492L9.60258 14.0361L10.8521 13.5536L10.3203 12.4625L10.5831 11.3605L11.0765 10.3737L12.6011 10.134L13.7214 9.06592L16.1405 9.2488L16.6153 11.8353L15.7009 15.092L15.1799 16.778L13.0682 16.8579L12.0878 16.1786L10.9397 15.699L9.72864 15.3194Z" fill="#E2CC85"/>
<path fill-rule="evenodd" clip-rule="evenodd" d="M13.4324 15.3008C13.4324 15.3008 13.1404 15.4345 12.6422 15.4037C12.4981 15.2101 11.4884 15.1195 11.4884 15.1195C11.4884 15.1195 11.3624 15.0811 11.1395 15.1732C10.9153 15.2644 10.7031 15.2532 10.5048 15.3023C10.3066 15.3514 10.1097 15.0933 9.95778 15.0395C9.8058 14.9827 9.60432 14.8459 9.60432 14.8459L9.1788 14.8044L8.32434 14.4432L6.9669 13.0908L6.59802 13.6683L6.48426 14.3829L6.89466 15.2298L7.99968 16.2364L10.1543 16.7835L11.4314 16.4072L13.0313 15.7309L13.4324 15.3008Z" fill="#F1D789"/>
<path fill-rule="evenodd" clip-rule="evenodd" d="M5.77759 10.5214L6.05112 9.69312L6.37704 9.15816L7.42662 9.07056L7.11156 9.98964L6.23412 11.5511L6.59832 12.9451L5.95286 13.2677L5.75449 12.9635L5.59472 12.2657L5.58398 11.4819L5.77759 10.5214Z" fill="#F4ECB4"/>
<path fill-rule="evenodd" clip-rule="evenodd" d="M6.95466 15.2441L6.75336 14.9629C6.75336 14.9629 6.69954 14.8291 6.73032 14.7123C6.76074 14.594 6.75636 14.5863 6.74106 14.5417C6.72576 14.4971 6.59664 14.3434 6.60432 14.2112C6.61194 14.0775 6.59358 14.0329 6.69186 13.927C6.79476 13.824 6.7641 13.6457 6.7641 13.6457L6.89778 13.7287L6.9282 13.6826C6.9282 13.6826 6.97734 13.721 6.97734 13.781C6.98808 13.698 6.9435 13.3137 7.0449 13.2262C7.1463 13.1387 7.32612 13.6365 7.32612 13.6365L7.21554 12.9142L6.93114 12.1735L6.42552 11.4973L6.3951 10.7518V10.6873C6.3951 10.6873 6.16302 11.0439 6.09846 11.3255C6.05238 11.5191 6.16302 11.7542 6.14004 12.0325C6.1215 12.3091 6.09846 12.2876 6.16602 12.3972C6.23364 12.5068 6.39816 12.7322 6.3336 12.8951C6.27678 13.035 6.0831 12.9367 6.0831 12.9367C6.0831 12.9367 6.0447 13.0503 5.9924 13.0919C5.97396 13.0243 5.95401 12.9812 5.91712 12.9399C5.91399 12.966 5.90639 13.0014 5.90639 13.0014C5.90639 13.0014 5.87255 12.8953 5.83871 12.7616C5.79272 12.5834 5.74348 12.3482 5.6989 12.2222C5.68047 12.2944 5.63437 12.5142 5.63437 12.5142L5.66051 12.8524L5.78654 13.3165L5.90811 13.6204L6.02646 13.9923L6.1293 14.2421L6.21222 14.4327L6.28446 14.8615L6.6333 15.2303L6.8193 15.3134L6.95466 15.2441Z" fill="#F3E19D"/>
<path fill-rule="evenodd" clip-rule="evenodd" d="M5.96003 9.84503C5.96003 9.84503 5.70949 10.2705 5.63736 10.6994C5.56522 11.1284 5.50059 11.5817 5.54617 12.1656C5.59227 12.7543 5.6799 13.1154 5.75062 13.3736C5.87219 13.8024 6.18708 14.3988 6.18708 14.3988L6.19782 14.3757C6.1449 14.2754 6.10266 14.1698 6.07176 14.0606C6.03024 13.8977 6.01482 13.7041 5.97644 13.6164C5.9426 13.5289 5.88577 13.4535 5.85811 13.346C5.83197 13.2431 5.82772 13.0801 5.74748 12.9588C5.71364 12.9095 5.6721 12.7805 5.65984 12.6514C5.64445 12.4577 5.66754 12.241 5.6491 12.0628C5.61527 11.7662 5.59227 11.5649 5.62297 11.4095C5.65366 11.2542 5.81364 10.8133 5.91201 10.4629C5.97654 10.2385 5.93804 10.0494 6.0564 9.85421C6.17472 9.66065 6.24702 9.49001 6.27306 9.37169C6.30348 9.26411 5.96003 9.84503 5.96003 9.84503Z" fill="#F2E8B0"/>
<path fill-rule="evenodd" clip-rule="evenodd" d="M7.14846 9.67432C7.14846 9.67432 7.0194 9.71284 6.9579 9.7804C6.8964 9.84496 6.8703 9.89872 6.78732 10.0079C6.70434 10.1169 6.69966 10.2061 6.63198 10.3428C6.56442 10.4766 6.41526 10.6779 6.39684 10.7501C6.37842 10.8224 6.3477 11.1604 6.3093 11.3203C6.27546 11.4801 6.3477 11.6769 6.3477 11.6769L6.43524 11.6583C6.43524 11.6583 6.43524 11.7721 6.5229 11.849C6.61044 11.9243 6.6258 11.5938 6.6258 11.5938L6.95316 10.4889L7.44642 10.1538L7.50024 9.88336L7.14846 9.67432Z" fill="#F5EEC0"/>
<path fill-rule="evenodd" clip-rule="evenodd" d="M7.38786 10.1756C7.38786 10.1756 7.15578 10.1909 7.04214 10.274C6.996 10.3077 6.97758 10.3354 6.92844 10.3769C6.83778 10.4522 6.7455 10.5214 6.70104 10.6201C6.65178 10.7183 6.59796 10.8674 6.56112 11.1487C6.5457 11.267 6.5457 11.3761 6.53496 11.4715C6.5196 11.6005 6.49656 11.7035 6.50886 11.7754C6.52422 11.9229 6.67638 11.9998 6.6912 12.1673L7.00626 12.0075L7.3029 10.8379L7.93302 10.4428L7.57644 10.0432L7.3875 10.1749L7.38786 10.1756Z" fill="#E6DB9D"/>
<path fill-rule="evenodd" clip-rule="evenodd" d="M5.72589 18.0513C5.7272 18.0397 5.72852 18.0282 5.72983 18.0163C5.77583 17.6212 5.78363 17.3218 5.81737 17.1342C5.8665 16.8684 5.90034 16.7695 5.89264 16.6701C5.8819 16.5103 5.86965 16.3935 5.88504 16.2705C5.90804 16.1076 6.06792 15.9139 6.06336 15.7803C6.06018 15.6742 6.00642 15.6051 5.96032 15.5406C5.91422 15.476 5.87734 15.4222 5.87734 15.4222C5.87734 15.4222 6.19242 15.2055 6.18936 14.3325C6.19584 14.3343 6.20202 14.3369 6.20784 14.3402L6.363 14.7812L6.46908 14.9103L6.87636 15.6695L7.40046 16.1783L8.17494 16.6992L8.66064 17.2278L8.70978 18.637L8.0751 19.4608L7.97112 19.6491C7.14534 19.2345 6.38812 18.6957 5.72589 18.0513Z" fill="#E5CB7A"/>
<path fill-rule="evenodd" clip-rule="evenodd" d="M7.66494 19.3996C7.66494 19.3996 7.67568 19.2245 7.82016 19.1107C7.84326 19.1491 7.85856 19.1861 7.854 19.2136C7.8801 19.1676 8.06298 18.8725 8.47644 18.7956C8.8899 18.7203 8.98974 18.4191 8.98974 18.4191L9.86718 17.6215L10.8708 16.6979L12.0911 16.269L12.6613 16.1291C12.6613 16.1291 12.6721 16.1706 12.6506 16.2629C12.7565 16.2552 12.9917 16.2015 13.2361 16.1154C13.3344 16.077 13.4267 16.0616 13.4759 16.1123C13.5481 16.1799 13.5588 16.3398 13.5634 16.435C13.6817 16.4088 13.8185 16.2952 13.9281 16.3059C14.1034 16.3244 14.2586 16.5303 14.4369 16.5303C14.672 16.5303 14.778 16.3859 14.9425 16.2721C15.0409 16.2045 15.1822 16.1201 15.2621 16.0631C15.4527 15.9231 17.4691 15.3069 17.4691 15.3069L18.176 15.353L18.2898 16.1122L18.229 18.0969C18.2215 18.1041 18.214 18.1116 18.2064 18.1188L14.9921 19.7976L10.5365 20.4806C9.53838 20.3175 8.57526 19.9862 7.68804 19.5008L7.66494 19.3996Z" fill="#D8C173"/>
<path fill-rule="evenodd" clip-rule="evenodd" d="M5.99619 18.304C6.05952 18.1716 6.11646 18.0608 6.12648 18.0212C6.1344 18.1011 6.14886 18.2762 6.17802 18.4625C6.11676 18.4104 6.05616 18.3577 5.99619 18.304Z" fill="#F1D789"/>
<path fill-rule="evenodd" clip-rule="evenodd" d="M9.25061 20.1717L9.82685 20.0114L9.87599 20.0269C9.87599 20.0269 9.90215 20.0422 9.90215 20.0944C9.97439 20.053 10.0358 20.0606 10.0804 20.033C10.1035 20.0821 10.1264 20.2451 10.228 20.265C10.3339 20.2881 10.4477 20.2189 10.563 20.1314C10.6766 20.0407 10.8061 19.927 10.9041 19.8808C10.94 19.9469 10.9719 20.0152 10.9994 20.0852C11.1285 19.9823 11.3529 19.5643 11.6725 19.5718C11.7649 19.3535 11.9192 19.1671 12.1165 19.0355C12.4131 18.8342 12.599 18.8188 12.8311 18.8372C12.9233 18.7175 13.0369 18.6159 13.1662 18.5375C13.2046 18.553 13.3106 18.6175 13.4428 18.556C13.5766 18.4946 13.7271 18.2563 13.9254 18.2257C14.0322 18.211 14.1409 18.2338 14.2328 18.2902C14.2328 18.2902 14.8102 17.7169 15.2087 17.5263C15.1933 17.4802 15.1626 17.3065 15.6297 16.9223C15.6559 16.9454 15.6374 17.0099 15.6559 17.0135C15.6635 17.0135 15.7774 16.9643 15.9217 16.8536C16.1 16.72 16.3136 16.58 16.4426 16.5416C16.6858 16.4694 16.9437 16.6169 16.9437 16.6169C16.9657 16.6015 16.9901 16.5901 17.0159 16.5831C17.0773 16.5724 17.1219 16.5647 17.1557 16.5527C17.1527 16.6327 17.1973 16.7694 17.1557 16.8877C17.2039 16.9148 17.2549 16.9364 17.3077 16.9523C17.2817 17.0091 17.2247 17.1536 17.1295 17.2228C17.2094 17.2612 17.2201 17.3057 17.3339 17.3443C17.2877 17.4089 17.2123 17.5196 17.1787 17.5875C17.1448 17.6597 17.0233 17.9594 16.9696 18.0731C16.9127 18.1868 16.8359 18.3958 16.7989 18.4378C16.762 18.4797 16.6283 18.6575 16.5254 18.7451C16.6166 18.7112 16.9896 18.5975 17.1479 18.5545C17.1007 18.6236 16.862 18.9779 16.6324 19.3186C15.5332 19.9774 14.3063 20.3944 13.0333 20.5417C11.7603 20.6891 10.4705 20.5635 9.24989 20.1732L9.25061 20.1717Z" fill="#E0CD81"/>
<path fill-rule="evenodd" clip-rule="evenodd" d="M7.4259 10.1339C7.4259 10.1339 7.29228 10.1339 7.26612 10.1523C7.24002 10.1707 7.39986 10.2092 7.449 10.2276C7.49814 10.2461 7.60422 10.3306 7.63188 10.3983C7.65804 10.4628 8.59242 10.8393 8.59242 10.8393L9.25332 10.8054L9.48114 10.4907L9.0477 10.1111L9.35166 9.21509L8.94906 9.27959L7.98078 9.85709L7.49514 10.0431L7.4259 10.1339Z" fill="#DFC57C"/>
<path fill-rule="evenodd" clip-rule="evenodd" d="M8.87724 10.4307C8.88678 10.4461 8.90022 10.4588 8.91624 10.4675C8.93226 10.476 8.9502 10.4803 8.96838 10.4798C9.10518 10.4798 9.23112 10.5137 9.28338 10.5827C9.37098 10.6935 9.61386 11.0469 9.61386 11.0469L10.1948 11.2559L10.2322 10.5719L9.59754 10.1309L8.8752 10.3967V10.4306L8.87724 10.4307Z" fill="#E5CC7C"/>
<path fill-rule="evenodd" clip-rule="evenodd" d="M8.76318 10.6842C8.76318 10.6842 8.86914 10.6919 9.00288 10.6427C9.13662 10.5934 9.35634 10.4875 9.45168 10.529C9.5853 10.5858 9.55764 10.7641 9.70224 10.9241C9.78978 11.0225 9.94962 11.0194 10.0403 11.1255C10.131 11.2316 10.4429 11.1823 10.4429 11.1823L10.5613 11.8206L10.0864 12.4292L9.93108 13.1854H9.28902L8.7024 12.9526L8.4135 12.2536L8.55792 11.5466L8.76318 10.6842Z" fill="#D2C281"/>
<path fill-rule="evenodd" clip-rule="evenodd" d="M10.0056 10.7148C10.0215 10.7198 10.0381 10.7223 10.0547 10.7225C10.0363 10.7379 9.9978 10.7717 10.0132 10.8593C10.0286 10.9469 10.0777 11.0576 10.0363 11.1251C10.0694 11.1613 10.094 11.2043 10.1085 11.2512C10.1347 11.3265 10.1423 11.3956 10.3129 11.4065C10.2883 11.4216 10.2656 11.4397 10.2453 11.4603C10.2453 11.4603 10.3636 11.5632 10.4236 11.6584C10.485 11.6558 10.6479 11.6051 10.6479 11.6051L10.6817 11.6282L10.754 11.5979C10.754 11.5979 10.6864 11.5717 10.7355 11.4073C10.7816 11.2628 10.8232 11.2705 10.8267 11.2598C10.8302 11.249 10.8605 11.0969 10.8605 11.0354C10.8835 10.9556 10.902 10.7127 10.902 10.7127L10.8529 10.1764L10.5763 10.0088L10.3514 9.79175L10.1392 10.1913L9.99948 10.3306L9.98874 10.6763L10.0056 10.7148Z" fill="#E2C270"/>
<path fill-rule="evenodd" clip-rule="evenodd" d="M10.6708 10.2662C10.6708 10.2662 10.72 10.406 10.7385 10.5136C10.745 10.4927 10.7486 10.471 10.7492 10.4491C10.7492 10.4491 10.7876 10.6612 10.7952 10.7488C10.8106 10.7457 10.8256 10.7412 10.829 10.7565C10.8325 10.7718 10.8676 10.9425 10.8595 11.0377C10.9234 10.9321 11.012 10.8435 11.1176 10.7796C11.1791 10.741 11.2513 10.6996 11.3267 10.6965C11.445 10.6935 11.531 10.7718 11.6725 10.7718C12.0136 10.7718 12.3226 10.5213 12.55 10.4445C12.7175 10.3876 12.8619 10.3461 12.9634 10.2538C13.0126 10.2124 13.1002 10.1202 13.18 9.98336C13.2861 9.80102 13.3967 9.64226 13.5075 9.62228C13.4574 9.63152 13.4064 9.63512 13.3555 9.63302C13.3555 9.63302 13.3894 9.59918 13.4467 9.5531C13.504 9.50702 13.5727 9.45014 13.671 9.45014C13.8463 9.45014 13.9338 9.47618 14.0321 9.47618C14.1305 9.47318 14.1874 9.45014 14.1874 9.45014C14.1874 9.45014 14.2904 9.52238 14.5224 9.52238C14.7545 9.52544 14.9097 9.54542 15.0312 9.55622C15.1526 9.56708 15.5598 9.52238 15.6766 9.52586C15.7528 9.5288 15.8276 9.5471 15.8965 9.57962L15.5199 8.48546L14.1672 7.30322L13.3619 7.8734L12.1231 9.1121L10.9244 9.55622L10.6738 9.83744V10.2662H10.6708Z" fill="#CCB360"/>
<path fill-rule="evenodd" clip-rule="evenodd" d="M13.3604 9.63915C13.3604 9.63915 13.3942 9.60537 13.451 9.55929C13.5077 9.51321 13.5771 9.45627 13.6754 9.45627C13.8505 9.45627 13.9382 9.48243 14.0365 9.48243C14.1349 9.47937 14.1917 9.45627 14.1917 9.45627C14.1917 9.45627 14.2949 9.52839 14.5268 9.52839C14.7589 9.53145 14.9141 9.55137 15.0356 9.56211C15.157 9.57285 15.5642 9.52839 15.681 9.53175C15.7571 9.53463 15.8319 9.55293 15.9008 9.58551L15.7301 9.09213L15.532 8.71569L14.9664 8.09631L14.2824 7.69365C14.2794 7.69065 14.0473 7.62915 14.0473 7.62915L13.4325 8.00103L12.8747 9.44421L12.8639 9.74811L13.225 9.91875C13.3157 9.76677 13.4157 9.64521 13.5094 9.62979C13.4248 9.63903 13.3604 9.63915 13.3604 9.63915Z" fill="#D5B457"/>
<path fill-rule="evenodd" clip-rule="evenodd" d="M13.3527 9.74198C13.2989 9.74504 13.2544 9.7343 13.2421 9.6959C13.196 9.56684 13.1591 9.54842 13.1205 9.54842C13.0819 9.54842 13.0298 9.6314 12.9989 9.63896C12.968 9.64658 12.9314 9.54374 12.9314 9.54374L12.8975 9.52832C12.8975 9.52832 12.6993 9.65744 12.5595 9.8096C12.4197 9.96176 12.1906 10.22 12.0877 10.266C11.9848 10.312 11.6312 10.3275 11.5102 10.3536C11.3893 10.3797 11.2552 10.4674 11.2367 10.4874C11.2183 10.5073 11.2906 10.5288 11.3014 10.5487C11.3121 10.5672 11.1829 10.5595 11.1722 10.5791C11.1646 10.5945 11.2026 10.6821 11.2214 10.7266C11.2544 10.7103 11.2906 10.7013 11.3274 10.7005C11.4457 10.6975 11.5318 10.7759 11.6731 10.7759C12.0143 10.7759 12.3232 10.5253 12.5507 10.4484C12.7182 10.3916 12.8627 10.3501 12.9641 10.2579C13.0132 10.2165 13.1009 10.1241 13.1808 9.98738C13.2391 9.89366 13.2958 9.80654 13.3527 9.74198Z" fill="#D2B257"/>
<path fill-rule="evenodd" clip-rule="evenodd" d="M8.45934 17.348C8.45934 17.348 8.42892 17.2342 8.14728 16.9407C8.06736 16.8577 8.01822 16.7887 7.96446 16.7394C7.83072 16.6133 7.7523 16.5795 7.65708 16.5073C7.44804 16.352 7.22058 16.352 7.04544 16.1615C6.8703 15.9709 6.66612 15.6068 6.52428 15.2347C6.38448 14.8628 6.34602 14.7445 6.34602 14.7337C6.34602 14.723 6.38448 14.6507 6.43362 14.6615C6.48276 14.6722 6.48276 14.7674 6.49512 14.7905C6.5196 14.8283 6.54738 14.8637 6.5781 14.8966C6.65034 14.9796 6.75324 15.0789 6.80556 15.227C6.79482 15.101 6.75174 14.9612 6.75174 14.9612C6.75174 14.9612 7.02222 15.1318 7.25274 15.31C7.48482 15.4883 7.58004 15.5498 7.64784 15.6635C7.71564 15.7771 7.8753 16.0769 7.95174 16.1645C8.02824 16.2522 9.07632 16.5826 9.07632 16.5826L9.57486 16.9543L9.82236 17.4968L9.62868 17.8007L9.25674 17.8807L8.65272 17.6102L8.45934 17.348Z" fill="#D2B159"/>
<path fill-rule="evenodd" clip-rule="evenodd" d="M7.11768 15.4793C7.11768 15.4793 7.24368 15.6806 7.55106 15.8711C7.82778 16.0387 8.26572 16.1909 8.65614 16.2816C8.88048 16.3353 9.10488 16.3768 9.30618 16.3799C9.84864 16.3875 10.2221 16.2324 10.6847 16.1817C10.9353 16.1555 11.2427 16.1355 11.5623 16.0601C11.9726 15.9617 12.2155 15.851 12.5459 15.6954C12.7856 15.5847 13.0055 15.5018 13.1837 15.3957C13.4342 15.2482 13.6171 15.0837 13.8292 15.0347C13.8031 15.1068 13.7754 15.236 13.5664 15.3696C13.677 15.3665 13.8292 15.3589 13.8292 15.3589C13.8292 15.3589 13.6817 15.4464 13.4219 15.6432C13.262 15.7648 13.05 15.9705 12.8333 16.1073C12.6934 16.1949 12.5413 16.2593 12.4414 16.3118C12.1982 16.4455 12.1001 16.5131 11.9404 16.6764C11.9972 16.6734 12.0019 16.6764 12.0019 16.6764C12.0019 16.6764 11.8005 16.7026 11.6561 16.7794C11.6257 16.7794 11.573 16.7687 11.4809 16.7948C11.4086 16.8178 11.3133 16.8702 11.215 16.8977C11.0751 16.9392 11.0291 16.9208 11.0291 16.9208L11.0521 16.9669C11.0521 16.9669 10.8698 16.9638 10.809 16.97C10.8197 16.973 10.8167 16.9776 10.8167 16.9776C10.806 16.9794 10.7957 16.9831 10.7863 16.9884C10.757 17.0073 10.7249 17.0213 10.691 17.0298C10.6726 17.0328 10.6572 17.0328 10.6341 17.0375C10.6418 17.0559 10.7018 17.1591 10.7294 17.2199C10.7065 17.2353 10.3606 17.4966 10.3606 17.4966C10.3713 17.5134 10.3801 17.5315 10.3867 17.5503C10.3975 17.5841 10.4021 17.6333 10.4129 17.6563C10.4389 17.7024 10.4543 17.7101 10.4543 17.7101C10.4543 17.7101 10.4129 17.7178 10.3405 17.7363C10.2791 17.7516 10.2038 17.7777 10.0974 17.7931C10.0648 17.7974 10.0319 17.7999 9.999 17.8008C10.0144 17.8346 10.082 17.9637 9.95748 18.1127C9.83298 18.2618 9.79458 18.2834 9.75618 18.3786C9.73686 18.3641 9.71628 18.3512 9.69468 18.3402C9.65322 18.3218 9.59628 18.2942 9.57636 18.2572C9.56472 18.3065 9.5493 18.3548 9.53022 18.4017C9.49188 18.5046 9.435 18.6061 9.42426 18.6829C9.38274 18.6368 9.30594 18.5462 9.19986 18.5646C9.09378 18.583 9.0093 18.7275 8.99088 18.769C8.99088 18.7429 8.97246 18.7229 8.9679 18.7536C8.96472 18.7875 8.9064 19.1408 8.5806 19.4267C8.57754 19.3545 8.57754 19.1946 8.56986 19.1424C8.53944 19.1729 8.50224 19.2177 8.2809 19.313C8.06418 19.4083 8.09856 19.5036 8.09856 19.5036C8.09856 19.5036 8.08014 19.3517 8.1969 19.1916C8.31528 19.0318 8.38746 18.9564 8.38746 18.9442C8.3856 18.9317 8.38026 18.92 8.3721 18.9104C8.35668 18.8949 8.32596 18.8765 8.32596 18.8642C8.34444 18.8567 8.52726 18.769 8.51658 18.5876C8.50584 18.4248 8.43672 18.3402 8.38746 18.2803C8.3799 18.2726 8.45982 18.2157 8.44896 18.1973C8.44128 18.1866 8.343 18.1142 8.33064 18.0758C8.33358 18.0528 8.33874 18.0302 8.34606 18.0082C8.3568 17.9744 8.36448 17.9513 8.36142 17.9282C8.35374 17.8898 8.31222 17.7838 8.29998 17.7731C8.31072 17.7761 8.38746 17.7731 8.38746 17.7731C8.38746 17.7731 8.32608 17.6747 8.31522 17.6286C8.30442 17.5825 8.28144 17.461 8.26914 17.438C8.2953 17.441 8.3598 17.4456 8.3598 17.438C8.36298 17.4149 8.30298 17.3765 8.32944 17.3468C8.34786 17.3499 8.3832 17.3652 8.41698 17.4083C8.3985 17.3591 8.36784 17.2638 8.30322 17.2254C8.33358 17.2147 8.4369 17.187 8.52762 17.2407C8.61828 17.2946 8.64918 17.3698 8.64918 17.3698C8.64918 17.3698 8.70294 17.4114 8.78604 17.4729C8.88126 17.5481 9.00264 17.6552 9.19632 17.731C9.2379 17.7541 9.34386 17.7541 9.42072 17.7387C9.4542 17.7307 9.4863 17.7178 9.51594 17.7003C9.52668 17.694 9.53802 17.6888 9.54978 17.6849C9.53328 17.6517 9.51426 17.6199 9.49296 17.5896C9.51912 17.5896 9.54978 17.5927 9.54978 17.5927C9.54978 17.5927 9.56826 17.5512 9.48528 17.4711C9.5037 17.4527 9.5268 17.4407 9.5268 17.4096C9.50064 17.4066 9.45456 17.3682 9.44382 17.3528C9.45912 17.3421 9.48222 17.3067 9.50838 17.2959C9.48528 17.2775 9.42846 17.2007 9.4023 17.193C9.42726 17.1837 9.45144 17.1725 9.47454 17.1592C9.47454 17.1592 9.34548 17.1254 9.3039 17.0977C9.26238 17.0673 9.201 17.0147 9.1641 16.9994C9.12564 16.9839 9.05802 16.9763 9.03042 16.9455C9.0564 16.9532 9.09798 16.9455 9.12876 16.9455C9.15174 16.9455 9.1626 16.9486 9.17022 16.9486C9.16716 16.9379 9.16716 16.9148 9.22716 16.9071C9.25596 16.9028 9.28398 16.894 9.31008 16.881C9.31008 16.881 9.25314 16.878 9.18852 16.8165C9.1239 16.755 9.0702 16.7058 9.0333 16.6982C8.99496 16.6904 8.92272 16.7243 8.87814 16.7211C8.81664 16.7135 8.79048 16.6827 8.79048 16.6827C8.79048 16.6827 8.58618 16.7012 8.13282 16.4246C7.74084 16.1848 7.5702 15.9728 7.5702 15.9728C7.53354 15.9594 7.49808 15.943 7.46424 15.9235C7.31676 15.8468 7.11228 15.6869 7.11846 15.4778L7.11768 15.4793Z" fill="#C2A44D"/>
<path fill-rule="evenodd" clip-rule="evenodd" d="M12.7715 6.255C12.8071 6.26652 12.8387 6.28782 12.8627 6.3165C12.9349 6.39948 12.981 6.5562 12.8166 6.72378C12.8812 6.74676 12.9078 6.75414 12.9641 6.74676C12.9073 6.81444 12.7782 6.95892 12.7705 7.08492C12.7628 7.18788 12.8273 7.21866 12.8273 7.21866C12.8273 7.21866 12.7289 7.3323 12.7244 7.52256C12.7709 7.47018 12.8217 7.42188 12.8764 7.37814C12.9901 7.28742 13.1469 7.18452 13.2529 7.11996C13.2515 7.14702 13.2551 7.17408 13.2637 7.19982C13.2637 7.19982 13.4618 7.03692 13.6284 7.10922C13.7037 7.14306 13.6699 7.24902 13.6699 7.24902C13.6699 7.24902 13.7729 7.21062 13.8451 7.28286C13.9174 7.3551 14.0195 7.5414 14.0719 7.61364C14.0948 7.64748 14.1548 7.71204 14.2162 7.81194C14.3001 7.9518 14.3701 8.09946 14.4253 8.25294C14.4284 8.17296 14.4483 8.04858 14.6759 8.12688C14.9033 8.2068 15.1615 8.37438 15.3781 8.70438C15.5948 9.03432 15.6485 9.40686 15.7577 9.5487C15.8683 9.68544 15.9821 9.9129 15.9898 10.0082C15.9974 10.1035 15.9559 10.4108 16.1834 11.2423C16.2479 10.9841 16.3463 10.4108 16.3463 10.4108L16.4001 9.90516L16.4615 8.34066L14.8278 6.9834L13.5507 6.05664L12.7192 6.13656L12.7715 6.255Z" fill="#CAA13E"/>
<path fill-rule="evenodd" clip-rule="evenodd" d="M15.8071 8.58306C15.8071 8.58306 15.784 8.43108 15.3998 8.17278C15.0155 7.91766 14.7159 7.91766 14.4393 7.70094C14.2271 7.53036 14.0059 7.13838 13.8619 7.00932C13.7219 6.88176 13.6989 6.51288 13.6989 6.51288L14.1707 6.11778L14.8724 5.10359L15.4655 4.45044L15.7498 4.84555L16.1449 5.30965L16.3647 6.24096L16.4446 7.60422L15.8063 8.58318L15.8071 8.58306Z" fill="#B59544"/>
<path fill-rule="evenodd" clip-rule="evenodd" d="M16.2822 10.2172C16.2938 10.0105 16.2683 9.80336 16.2068 9.60566C16.1055 9.2906 15.8842 8.73116 15.7813 8.52164C15.7398 8.28956 15.7706 8.27108 15.8152 8.24498C15.8597 8.21882 16.0273 8.12342 16.1191 7.78856C16.2109 7.45376 16.4957 7.44278 16.4957 7.44278L16.6708 7.31372L16.9367 7.97912L17.1688 8.58008L17.241 9.03962L17.2948 9.43148L17.1688 10.2599L16.5464 10.8224L16.2822 10.2172Z" fill="#C89D3A"/>
<path fill-rule="evenodd" clip-rule="evenodd" d="M7.59726 19.4506V19.4336C7.61022 19.4255 7.62162 19.4152 7.63098 19.4032C7.64172 19.3878 7.64952 19.3693 7.65714 19.3648C7.67256 19.3571 7.7448 19.3344 7.78314 19.3417C7.82154 19.349 7.92306 19.3908 7.97688 19.3878C8.08752 19.3848 8.21658 19.3002 8.421 19.3386C8.72838 19.3955 8.80062 19.6045 8.97894 19.7228C9.1005 19.8059 9.22632 19.7689 9.24474 19.7689H9.2862C9.29388 19.7689 9.35076 19.7044 9.38154 19.7075C9.44304 19.7106 9.4491 19.7613 9.4875 19.7644C9.57816 19.7751 9.75342 19.7182 9.84108 19.7413C9.86706 19.7495 9.8907 19.7638 9.90996 19.783C9.92922 19.8023 9.94356 19.8259 9.95172 19.8519C9.97014 19.9087 9.95472 19.981 9.91014 20.0225C9.81492 20.11 9.72426 20.1931 9.70584 20.2656C9.7293 20.2835 9.7518 20.3026 9.77328 20.3228C9.0129 20.1291 8.28126 19.8361 7.59726 19.4515V19.4506Z" fill="#CEB052"/>
<path fill-rule="evenodd" clip-rule="evenodd" d="M15.7808 16.3798C15.7808 16.3798 16.0205 16.0602 16.1035 15.9018C16.1865 15.7386 15.8407 13.6719 15.8407 13.6719L16.5354 11.3959L16.5169 10.6551C16.5169 10.6551 16.5507 9.97118 16.6306 9.67454C16.726 9.84512 17.0226 10.0511 17.0872 10.1602C17.1175 9.95108 17.2208 9.51007 17.2055 9.03979C17.2623 9.12733 17.3991 10.008 17.3991 10.008L17.5358 10.6012L17.7142 11.2314L17.9124 11.8969L18.0307 12.3564L18.0983 12.4671L18.1552 12.6606L18.209 12.8697L18.3643 13.36L18.4554 13.7626L18.5276 14.4926C18.5434 14.5485 18.5547 14.6056 18.5615 14.6632C18.5645 14.7432 18.5507 14.7892 18.5507 14.8032C18.5507 14.817 18.5769 14.9783 18.5662 15.0998C18.5507 15.2214 18.5507 15.3165 18.4554 15.4037C18.3601 15.4909 18.3002 16.0123 18.3002 16.0123L18.1296 15.8986C18.1296 15.8986 18.1634 15.7433 18.0835 15.6019C18.0036 15.4606 17.8484 15.4314 17.7607 15.4545C17.6732 15.4729 17.498 15.5005 17.4411 15.5497C17.3873 15.5988 17.2552 15.751 17.1337 15.8202C16.9818 15.9114 16.7342 15.9186 16.6021 15.9493C16.4683 15.9796 16.3208 16.0708 16.1656 16.1767C16.0438 16.2555 15.9152 16.3233 15.7814 16.3793L15.7808 16.3798Z" fill="#CCA847"/>
<path fill-rule="evenodd" clip-rule="evenodd" d="M15.7808 19.7378C15.7808 19.7378 15.7909 19.7444 15.8104 19.7551C16.9023 19.2436 17.8807 18.5185 18.6877 17.6226C18.6788 17.3116 18.6674 16.9927 18.6548 16.8746C18.6288 16.624 18.6472 16.369 18.6395 16.2214C18.6318 16.074 18.5488 15.473 18.5105 15.3178C18.4689 15.1626 18.3889 15.0857 18.3767 15.0857C18.366 15.0888 18.3013 15.3778 18.3013 15.4504C18.3013 15.523 18.286 15.6979 18.286 15.7425C18.2752 15.7393 18.2707 15.7121 18.2707 15.7009C18.2552 15.7393 18.2368 15.807 18.2291 15.8147C18.2214 15.8224 18.2399 15.7501 18.2291 15.7348C18.2184 15.7194 18.1987 15.727 18.203 15.6887C18.2048 15.6659 18.2084 15.6433 18.2137 15.6211C18.2137 15.6211 18.1676 15.6887 18.1339 15.8608C18.1 16.0314 18.1 16.036 18.0878 16.0513C18.077 16.0699 18.0155 16.1313 18.0124 16.1544C18.0094 16.1958 18.0694 16.2373 18.0739 16.2604C18.0769 16.2988 18.0201 16.477 18.0017 16.5643C17.9833 16.6515 17.9909 16.8224 17.9713 16.9101C17.9559 16.99 17.9409 17.0361 17.8883 17.0698C17.9267 17.0775 17.9636 17.0883 17.9636 17.0883C17.9636 17.0883 18.0174 17.3157 17.8806 17.5094C17.8315 17.577 17.8192 17.6078 17.767 17.6693C17.6639 17.7829 17.584 17.9124 17.5763 17.9966C17.5709 17.9718 17.5673 17.9466 17.5655 17.9212C17.5655 17.9212 17.4058 18.1072 17.3381 18.2133C17.2505 18.3501 17.1291 18.3424 17.095 18.3762C17.0608 18.4101 17.0534 18.4714 17.0645 18.5207C17.0342 18.5283 16.977 18.5391 16.9385 18.6574C16.9201 18.7188 16.874 18.779 16.8017 18.8203C16.7295 18.8617 16.6419 18.8742 16.5973 18.8849C16.6357 18.8956 16.6511 18.8956 16.6696 18.9079C16.6466 18.9463 16.5405 19.0063 16.4222 19.0831C16.3038 19.1554 16.2469 19.2613 16.2177 19.3306C16.1873 19.3951 16.1425 19.4366 16.0702 19.4443C16.1006 19.4628 16.1456 19.5057 16.1686 19.5196C16.1347 19.5273 16.0774 19.5273 15.975 19.6149C15.8674 19.7041 15.83 19.7301 15.7808 19.7378Z" fill="#C39D3C"/>
<path fill-rule="evenodd" clip-rule="evenodd" d="M13.6423 20.4499C13.7012 20.4087 13.7649 20.3749 13.832 20.3493C14.0717 20.2541 14.3254 20.2357 14.4252 20.205C14.5205 20.1746 14.5958 20.1327 14.7142 20.1096C14.711 20.1366 14.7084 20.1619 14.7056 20.1858C14.3567 20.2955 14.002 20.3837 13.6423 20.4499Z" fill="#D2BA6B"/>
<path fill-rule="evenodd" clip-rule="evenodd" d="M18.0635 14.1453C18.0635 14.1453 18.0143 14.4111 17.9267 14.5787C17.8391 14.7463 17.7443 14.9782 17.7443 14.9782C17.7449 14.926 17.7511 14.8739 17.7628 14.823C17.6522 14.8875 17.3832 15.0428 17.3069 15.1119C17.2346 15.1764 17.1132 15.2902 17.0825 15.344C17.1547 15.132 17.23 14.9414 17.2424 14.8537C17.1317 14.9337 16.6153 15.3594 16.3464 15.6406L15.5087 16.3184C15.4121 16.3705 15.3125 16.4172 15.2106 16.458C15.0662 16.5194 14.8956 16.5717 14.7696 16.6209C14.8034 16.5302 14.8571 16.4502 14.9325 16.3734C15.0124 16.2981 15.2521 16.0384 15.289 15.9175C15.3229 15.7915 15.3305 15.7162 15.286 15.6102C15.2444 15.6208 15.1492 15.6255 15.0847 15.6439C15.0202 15.6624 14.9509 15.7315 14.9509 15.7315C14.9509 15.7315 15.0001 15.4503 15.1061 15.1844C15.0262 15.1875 14.8894 15.2104 14.8894 15.2104C14.8894 15.2104 15.08 14.8908 15.4061 14.668C15.3062 14.6893 15.2085 14.7196 15.1141 14.7586C14.9236 14.8386 14.7146 14.9569 14.5594 15.0214C14.6469 14.8998 15.2617 14.0225 15.6275 13.2048C15.9922 12.3888 16.1285 12.1798 16.2084 11.7418C16.2498 11.5251 16.2388 11.2049 16.2498 10.918C16.2605 10.6337 16.2959 10.3786 16.2729 10.208C16.3682 10.3263 16.7248 10.6599 16.737 11.4052C16.7477 12.1506 16.3959 13.1573 16.0224 13.6998C16.1135 13.7259 16.3498 13.7566 16.5926 13.335C16.8353 12.9133 16.8323 12.7956 16.92 12.6204C16.9307 12.708 16.9276 12.7387 16.9276 12.7387C16.9276 12.7387 17.2811 12.31 17.4486 11.7705C17.4824 12.0026 17.5823 12.207 17.4255 12.6327C17.2857 13.0169 17.1029 13.1107 17.1029 13.1107C17.1029 13.1107 17.1935 13.0953 17.3272 13.0154C17.3503 13.0722 17.3457 13.137 17.3841 13.1599C17.4225 13.1827 17.4748 13.2213 17.4824 13.2582C17.5239 13.1967 17.5885 13.1183 17.6085 13.06C17.5931 13.1815 17.5823 13.7131 17.6389 13.9836C17.7573 13.9729 17.8787 13.9651 17.9617 13.7515C17.9048 13.9606 17.9048 14.0865 17.9432 14.2648C18.0062 14.2219 18.0635 14.1453 18.0635 14.1453Z" fill="#C0993A"/>
<path fill-rule="evenodd" clip-rule="evenodd" d="M14.0701 5.67396C14.0701 5.67396 13.9518 5.7231 13.7505 5.7231C13.5753 5.7231 13.6244 5.65552 13.3509 5.65552C12.9299 5.65552 11.459 5.89866 11.2008 5.89522C11.0332 5.89218 11.7663 5.96745 11.7663 5.96745L13.6399 5.99359L14.0163 5.9632L14.1562 5.67852L14.0701 5.67396Z" fill="#A88F33"/>
<path fill-rule="evenodd" clip-rule="evenodd" d="M9.21241 9.33639C9.21241 9.33639 8.97259 9.51927 8.87119 9.65919C8.76979 9.79911 8.71597 9.89121 8.60071 10.005C8.62777 10.006 8.65477 10.0023 8.68063 9.99423C8.68063 9.99423 8.68063 10.0246 8.66221 10.0326C8.67811 10.0308 8.69425 10.0326 8.70937 10.0379C8.72455 10.0431 8.73835 10.0517 8.74975 10.063C8.71591 10.0815 8.62369 10.1737 8.69593 10.2828C8.74975 10.3658 8.86351 10.3734 8.86351 10.3734C8.86351 10.3734 8.83735 10.4488 8.94649 10.4411C9.18163 10.4304 9.44443 10.3273 9.56575 10.3534C9.68737 10.3839 9.75643 10.395 9.84247 10.5441C9.93361 10.6916 10.013 10.7147 10.013 10.7147C10.013 10.7147 10.0669 10.5778 10.0546 10.3735C10.0987 10.2634 10.1231 10.1463 10.1268 10.0278L10.0469 9.43917L9.69811 8.99805L9.24625 9.24855L9.21241 9.33639Z" fill="#E3C571"/>
<path fill-rule="evenodd" clip-rule="evenodd" d="M9.64104 9.24878C9.64104 9.24878 9.67488 9.32876 9.8163 9.33632C9.80088 9.37016 9.80088 9.37484 9.80556 9.40088C9.80856 9.42698 9.81312 9.46538 9.81312 9.46538C9.82872 9.45788 9.84276 9.44756 9.8547 9.43502C9.86238 9.46886 9.84696 9.52256 9.8547 9.56102C9.85944 9.58442 9.86718 9.60716 9.87768 9.62858C9.8799 9.62336 9.88248 9.61826 9.88536 9.61328C9.88842 9.6056 9.91578 9.69626 9.99144 9.76526C9.99138 9.75464 9.99402 9.7442 9.99906 9.7349C10.0002 9.75416 10.0066 9.77276 10.0175 9.78866C10.0118 9.78596 10.0066 9.78236 10.0022 9.77792C10.0022 9.77792 10.0098 10.0211 10.0513 10.1468C10.0583 10.1387 10.0645 10.1299 10.0697 10.1206C10.0697 10.1131 10.0667 10.1883 10.059 10.2423C10.0483 10.296 10.056 10.3713 10.056 10.3713C10.0837 10.3495 10.1141 10.3314 10.1465 10.3175C10.1926 10.299 10.2681 10.2421 10.3141 10.1161C10.3408 10.0447 10.3614 9.97124 10.3756 9.89636C10.3905 9.92498 10.4007 9.95576 10.406 9.98756C10.4092 10.026 10.4814 10.006 10.4814 10.006L10.4968 9.8384L10.588 9.45884L10.6709 9.2237L11.0705 8.60132L11.7924 8.04536L12.4226 8.18978L12.9542 7.46744L12.0383 6.91724L11.1715 7.0079L10.3849 8.0975L9.7548 9.08576L9.64104 9.24878Z" fill="#D8B65B"/>
<path fill-rule="evenodd" clip-rule="evenodd" d="M14.1809 7.67202C14.1809 7.67202 14.1272 7.68276 13.972 7.76322C13.8167 7.84368 13.7092 7.86918 13.6492 7.9875C13.5892 8.10582 13.5847 8.19966 13.5847 8.19966C13.5847 8.19966 13.6907 8.15358 13.7522 8.13816C13.8167 8.12286 13.889 8.12742 13.8813 8.15358C13.8739 8.17146 13.8636 8.18808 13.8509 8.20272C13.8509 8.20272 13.9724 8.19966 13.9692 8.25966C13.966 8.3196 13.9462 8.38566 13.9232 8.41482C13.9001 8.44524 13.8049 8.49024 13.7941 8.52558C13.768 8.59782 13.8049 8.60088 13.791 8.6592C13.7803 8.71614 13.7296 8.82678 13.5635 9.0204C13.393 9.21408 13.3204 9.35088 13.3204 9.35088C13.3204 9.35088 13.2374 9.19566 13.1944 9.06192C13.164 9.07722 13.0008 9.16788 13.0008 9.16788L12.6227 7.85082L12.6303 7.76322C12.6303 7.76322 12.6641 7.72176 12.6718 7.6449C12.615 7.62642 12.6073 7.61106 12.5319 7.53894C12.4565 7.46676 12.3952 7.37904 12.2692 7.3191C12.2508 7.28526 12.2277 7.23924 12.1355 7.2207C12.0433 7.20216 11.988 7.18698 11.988 7.18698C11.988 7.18698 12.0371 7.16844 12.0602 7.13004C12.0033 7.13772 11.9573 7.15614 11.8328 7.15314C11.7067 7.14996 11.6929 7.1454 11.6238 7.15614C11.5547 7.16688 11.4718 7.19772 11.4409 7.09164C11.4071 7.06548 11.3348 7.08858 11.2733 7.17918C11.2118 7.26972 11.1904 7.34208 11.072 7.37742C11.0637 7.42956 11.0455 7.47966 11.0182 7.52496C10.9844 7.5819 10.9306 7.63872 10.8584 7.7232C10.7446 7.85694 10.763 8.07666 10.5817 8.24424C10.3988 8.4117 10.6121 7.78002 10.6121 7.78002L10.904 7.08102L11.7355 6.26796L13.0265 6.18042L13.1525 6.84912L13.7827 7.06578L14.1808 7.67286L14.1809 7.67202Z" fill="#D3AE4D"/>
<path fill-rule="evenodd" clip-rule="evenodd" d="M14.3854 7.81948L13.8428 7.03726L13.4633 6.74518C13.4633 6.74518 13.1927 6.24736 13.1743 6.232C13.1589 6.22126 12.9038 6.1936 12.7409 6.18286L12.7713 6.2581C12.8069 6.26968 12.8385 6.29098 12.8625 6.3196C12.9347 6.40258 12.9808 6.5593 12.8164 6.72688C12.8809 6.74986 12.9076 6.75724 12.9639 6.74986C12.9071 6.81754 12.778 6.96202 12.7703 7.08802C12.7626 7.19098 12.8272 7.22164 12.8272 7.22164C12.8272 7.22164 12.7288 7.3354 12.7242 7.5256C12.7707 7.47322 12.8215 7.42486 12.8762 7.38112C12.9899 7.28992 13.1467 7.18744 13.2527 7.12288C13.2513 7.14994 13.255 7.17706 13.2635 7.2028C13.2635 7.2028 13.4617 7.0399 13.6282 7.11214C13.7035 7.14598 13.6696 7.25206 13.6696 7.25206C13.6696 7.25206 13.7726 7.21366 13.8449 7.2859C13.9171 7.35814 14.02 7.54402 14.0723 7.61638C14.0953 7.65022 14.1553 7.71472 14.2167 7.8145C14.3006 7.95442 14.3706 8.10214 14.4258 8.25562C14.4288 8.19412 14.4412 8.10808 14.5474 8.10808L14.386 7.81918L14.3854 7.81948Z" fill="#CAA13E"/>
<path fill-rule="evenodd" clip-rule="evenodd" d="M6.2523 10.0419C6.2523 10.0419 6.2139 9.94651 6.2523 9.76063C6.2907 9.57475 6.3507 9.48709 6.37062 9.21355C6.3906 8.94001 6.56892 8.59879 6.56892 8.59879L7.06218 8.37451L7.41108 8.46973L7.51404 8.93695L7.07292 9.18013C7.07292 9.18013 7.04994 9.28303 6.92544 9.36601C6.80088 9.44899 6.6288 9.51355 6.58734 9.59815C6.56256 9.64993 6.5445 9.70465 6.53358 9.76105C6.53358 9.76105 6.40752 9.73489 6.33228 9.81787C6.2523 9.90247 6.25536 9.97729 6.2523 10.0419Z" fill="#F4EFC8"/>
<path fill-rule="evenodd" clip-rule="evenodd" d="M7.24812 9.91726C7.24812 9.91726 7.20654 9.94336 7.17588 10.0084C7.14546 9.95932 7.07286 9.66724 7.0698 9.40444C7.06674 9.14164 7.05102 9.07648 7.11186 8.98594C7.17264 8.89534 7.41102 8.79994 7.37718 8.6368C7.34334 8.48158 7.20192 8.41708 7.02828 8.46166C6.90666 8.49202 6.81624 8.75056 6.69018 8.87962C6.59484 8.97802 6.4812 8.9626 6.45048 9.01642C6.40896 9.08866 6.44736 9.1609 6.43506 9.20698C6.43194 9.2224 6.39354 9.30532 6.32436 9.40522C6.18456 9.60652 5.94789 9.89092 5.91709 10.146C5.92783 10.0016 5.92023 9.9985 5.95862 9.83866L5.93553 9.80026L6.08748 9.30232L6.18588 8.89198L6.40572 8.20492L6.7929 7.50268L7.16946 7.08154L7.56132 7.10764L7.60746 7.69624L7.83186 8.80132L8.30364 9.38224L7.54746 9.8911L7.24812 9.91726Z" fill="#EBCC73"/>
<path fill-rule="evenodd" clip-rule="evenodd" d="M7.48338 10.126C7.48338 10.126 7.41882 10.1414 7.39572 10.1291C7.37262 10.1169 7.3497 10.103 7.35732 10.0876C7.36494 10.0722 7.40646 10.0462 7.40646 10.0338C7.4073 10.0226 7.40376 10.0116 7.39662 10.003C7.38942 9.99435 7.37922 9.98889 7.36806 9.98769C7.33272 9.98313 7.32198 10.0062 7.32198 10.0062C7.32198 10.0062 7.28814 9.98013 7.2606 9.97575C7.27686 9.97377 7.2933 9.97269 7.30968 9.97263C7.26726 9.95337 7.2222 9.94041 7.176 9.93423C7.2144 9.91119 7.28976 9.84351 7.3389 9.84351C7.38804 9.84351 7.41882 9.83595 7.41114 9.80979C7.4034 9.78369 7.365 9.74529 7.3236 9.72987C7.3389 9.71145 7.3497 9.68379 7.31286 9.60831C7.27434 9.53301 7.28976 9.48225 7.30212 9.46395C7.31286 9.44085 7.35126 9.39939 7.36968 9.37323C7.3881 9.34713 7.40352 9.31173 7.43424 9.29331C7.4496 9.28257 7.49874 9.26289 7.548 9.24417C7.60176 9.22575 7.64634 9.20265 7.67706 9.22575C7.7109 9.24873 7.69548 9.27951 7.69548 9.27951C7.69548 9.27951 7.80156 9.24105 7.89678 9.29025C7.99212 9.33627 8.2242 9.36555 8.2242 9.36555L8.30742 9.53313L7.75722 10.0049L7.52976 10.1187L7.48338 10.126Z" fill="#E5C66B"/>
<path fill-rule="evenodd" clip-rule="evenodd" d="M8.24718 9.35475C8.24718 9.35475 8.0766 9.46858 8.0382 9.50998C8.06118 9.51316 8.09958 9.52851 8.08422 9.55155C8.06574 9.57453 7.9551 9.65445 7.89366 9.72981C7.8291 9.80511 7.7676 9.90045 7.74612 9.94653C7.72314 9.98799 7.54788 10.1094 7.488 10.1247C7.614 10.1247 7.86762 9.96952 7.96284 9.96952C7.95978 10.0157 7.98894 10.0679 8.04276 10.0725C8.09658 10.077 8.25174 10.1063 8.46078 9.97726C8.66976 9.8512 8.6007 9.75742 8.68818 9.69598C8.85576 9.58528 8.92332 9.48687 9.01554 9.42549C9.1077 9.36411 9.15546 9.35013 9.15546 9.35013C9.15546 9.35013 9.15846 9.30405 9.18582 9.30867C9.19332 9.30951 9.20046 9.31246 9.2064 9.31702C9.21234 9.32164 9.21696 9.32781 9.21966 9.33483C9.21966 9.33483 9.37956 9.22107 9.5844 9.19035C9.5796 9.18819 9.57576 9.18442 9.57366 9.17962C9.57366 9.17962 9.58896 9.17193 9.59208 9.16419C9.59208 9.16419 9.60282 9.14884 9.6105 9.15652C9.61824 9.1642 9.62898 9.22108 9.64434 9.24418C9.67818 9.22876 9.74274 9.08428 9.74274 9.08428L9.89802 8.64016V8.23438L9.77646 8.25747L8.8647 8.64471L8.31132 9.21802L8.24718 9.35475Z" fill="#E6BD62"/>
<path fill-rule="evenodd" clip-rule="evenodd" d="M10.8721 7.3645C10.9214 7.3525 10.9687 7.3333 11.0125 7.30756C10.994 7.35676 10.994 7.41058 10.9141 7.5274C10.8341 7.64422 10.8311 7.66114 10.7666 7.78246C10.702 7.90852 10.6943 8.08984 10.6328 8.1697C10.6604 8.15632 10.69 8.1475 10.7204 8.14366C10.7204 8.14366 10.659 8.19748 10.6328 8.2543C10.6067 8.31112 10.5606 8.42944 10.447 8.5018C10.3333 8.5741 10.1887 8.62012 10.0335 8.79076C9.87816 8.95822 9.71844 9.17032 9.6384 9.24664C9.67992 9.1744 9.73674 9.02992 9.75216 8.9347C9.76752 8.83948 9.74898 8.7256 9.77514 8.59966C9.8013 8.47372 9.8013 8.38294 9.92712 8.1631C10.0529 7.94326 10.2683 7.17946 10.2683 7.17946L10.7324 7.03198L10.8721 7.3645Z" fill="#B6933F"/>
<path fill-rule="evenodd" clip-rule="evenodd" d="M10.5371 7.08326C10.5371 7.08326 10.3973 7.28456 10.3589 7.46282C10.3205 7.64114 10.3558 7.62578 10.3328 7.71338C10.319 7.76684 10.319 7.82288 10.3328 7.87628C10.3812 7.79828 10.4475 7.73294 10.5262 7.6856C10.6584 7.6058 10.766 7.54886 10.8301 7.4813C10.8946 7.40906 10.9484 7.29074 11.0882 7.20002C11.0314 7.19234 10.9515 7.16624 10.9363 7.16966C10.9932 7.1051 11.1637 7.00676 11.3359 6.88844C11.5064 6.76682 11.4957 6.7178 11.7724 6.59642C11.6817 6.61184 11.6387 6.58874 11.5633 6.59642C11.5937 6.53192 11.7001 6.50114 11.8064 6.39512C11.9128 6.28916 11.7388 6.13232 11.7388 6.13232L10.9284 6.62258L10.5365 7.08362L10.5371 7.08326Z" fill="#C49937"/>
<path fill-rule="evenodd" clip-rule="evenodd" d="M8.33791 6.7175L8.35633 6.57002L8.58841 6.19808L8.83129 5.54495V4.65201L8.81287 4.13564L8.85121 3.79747L8.88043 3.68998L8.91121 3.64844L9.10939 3.75137L9.38299 4.12328L9.40915 4.84106L9.14323 5.9737L8.38399 6.8021L8.33791 6.7175Z" fill="#DFC068"/>
<path fill-rule="evenodd" clip-rule="evenodd" d="M8.94198 3.60683C8.94198 3.60683 8.82042 3.60998 8.79444 4.11562C8.76852 4.62125 8.75598 4.88709 8.7375 5.13763C8.71908 5.38817 8.67612 5.54023 8.65458 5.68784C8.63298 5.83545 8.62074 6.03665 8.55162 6.15965C8.52126 6.21647 8.45628 6.39479 8.30412 6.52853C8.13354 6.67601 7.87866 6.77903 7.84002 6.78677C7.77234 6.80207 7.42962 6.83591 7.28982 6.91277C7.24068 6.93893 7.15608 6.96959 7.06236 7.05725C6.87636 7.22471 6.62898 7.52441 6.45066 7.88555C6.17712 8.42501 5.90362 9.94799 5.90362 9.94799L5.96511 9.84509C5.96511 9.84509 5.97281 9.70829 6.10956 9.46853C6.2433 9.22883 6.2049 8.95985 6.39078 8.50031C6.46302 8.32511 6.55374 8.09771 6.66432 7.90397C6.83958 7.58891 7.05162 7.31843 7.26528 7.17089C7.61412 6.93119 7.99836 6.87893 7.99836 6.87893L8.41182 6.60539C8.41182 6.60539 8.48406 6.46559 8.5794 6.30575C8.71302 6.08141 8.8833 5.83089 8.9205 5.46668C8.97744 4.92721 8.84058 4.57373 8.84826 4.2541C8.85594 3.93447 8.859 3.69933 8.92362 3.6424C8.98824 3.58546 8.94198 3.60683 8.94198 3.60683Z" fill="#A88F33"/>
<path fill-rule="evenodd" clip-rule="evenodd" d="M8.94174 6.01972C8.94174 6.01972 9.12408 5.57092 9.2076 5.17288C9.22296 5.09294 9.25368 5.01311 9.26136 4.94857C9.29976 4.57201 9.3105 4.4168 9.26136 4.21084C9.22296 4.05887 9.07548 3.9219 8.99856 3.81573C8.92332 3.705 8.88792 3.66376 8.90334 3.64046C8.91876 3.61716 8.97864 3.57907 9.03696 3.58363C9.099 3.58543 9.16002 3.59984 9.2163 3.62596C9.27258 3.65209 9.32298 3.68939 9.36444 3.73559C9.48276 3.87236 9.57648 4.33656 9.57648 4.33656L9.67506 4.94908L9.92556 5.72056L8.94192 6.02032L8.94174 6.01972Z" fill="#C99E3D"/>
<path fill-rule="evenodd" clip-rule="evenodd" d="M10.6556 5.55249C10.6556 5.55249 10.6217 5.56779 10.5604 5.55249C10.563 5.57758 10.5586 5.60291 10.5478 5.62568C10.5369 5.64846 10.52 5.66779 10.4989 5.68156C10.4343 5.65542 9.83022 5.7077 9.83022 5.7077C9.83022 5.7077 9.549 5.65846 9.46134 5.28655C9.39996 5.03905 9.50742 4.69795 9.47208 4.47355C9.41832 4.14307 9.34302 4.07844 9.33534 3.97561C9.3276 3.87278 9.31992 3.84654 9.31992 3.78201C9.28608 3.77431 9.2661 3.76357 9.23238 3.76357C9.2247 3.73317 9.24 3.70663 9.20628 3.65283C9.2247 3.66054 9.3507 3.67593 9.49824 3.81574C9.6198 3.92951 9.6198 3.97095 9.63816 3.99405C9.66114 4.01704 9.84714 4.1764 9.92706 4.33526C10.007 4.49411 10.1622 5.00066 10.1975 5.08363C10.2083 5.11747 10.2314 5.15131 10.2887 5.2281C10.3779 5.33883 10.508 5.5221 10.6556 5.55249Z" fill="#B58634"/>
<path fill-rule="evenodd" clip-rule="evenodd" d="M9.65945 4.00195C9.75257 4.15235 9.83621 4.3084 9.90989 4.46919C10.0006 4.67353 10.0544 4.8411 10.1681 4.97787C10.1066 4.79967 9.99755 4.44924 9.93299 4.32472C9.86075 4.19302 9.71327 4.05109 9.65945 4.00195Z" fill="#A88F33"/>
<path fill-rule="evenodd" clip-rule="evenodd" d="M8.6142 6.52844C8.6142 6.52844 8.45898 6.56684 8.17008 6.719C8.07474 6.76814 7.98414 6.8096 7.89654 6.84806C7.6689 6.95102 7.42476 7.04612 7.23102 7.09862C7.24644 7.11704 7.25406 7.12466 7.25406 7.12466C7.25406 7.12466 7.25406 7.20002 7.29558 7.24298C7.2726 7.26608 6.9651 7.47506 7.05588 8.1743C7.11726 8.15132 7.1895 8.12054 7.20024 8.12054C7.21878 8.12366 7.22334 8.1743 7.24632 8.1743C7.2693 8.1743 7.34472 8.14394 7.42464 8.04062C7.42158 8.08214 7.3755 8.50016 7.62288 8.78138C7.66896 8.72756 7.78578 8.54924 7.78578 8.54924L7.78884 8.49242C7.78884 8.49242 7.79958 8.29418 7.8642 8.1128C7.92882 7.93148 8.05476 7.79774 8.05476 7.79774L8.71236 6.85874L8.6142 6.52844Z" fill="#E6C367"/>
<path fill-rule="evenodd" clip-rule="evenodd" d="M7.9995 7.9073C7.96938 7.92854 7.9362 7.9451 7.9011 7.95644C7.89036 7.91804 7.875 7.7858 7.96566 7.65674C8.07174 7.50146 8.3037 7.30016 8.36826 7.14008C8.40978 7.037 8.39136 6.77888 8.76024 6.4484C9.12912 6.11792 9.27348 6.00428 9.27348 6.00428L9.86976 5.70459L10.6028 5.99353L10.2386 7.421L9.95586 8.08964L8.83134 7.8776L7.9995 7.9073Z" fill="#DCBA5A"/>
<path fill-rule="evenodd" clip-rule="evenodd" d="M8.42899 7.51969L8.56891 7.34455V7.22005C8.56891 7.22005 8.72413 7.17847 8.89159 7.00789C9.05905 6.83725 9.29119 6.50995 9.49561 6.52993C9.70003 6.55297 9.72001 6.97405 9.72769 7.09249C9.73543 7.21093 9.76153 7.47967 9.80299 7.62427C9.84907 7.76875 9.30505 8.31583 9.30505 8.31583L8.93557 8.59705L8.42899 7.51969Z" fill="#E9CE77"/>
<path fill-rule="evenodd" clip-rule="evenodd" d="M8.86169 8.9783C8.86169 8.9783 8.97545 8.79998 8.89211 8.76158C8.94125 8.65094 9.03191 8.53412 9.03191 8.53412C9.03191 8.53412 9.09641 8.3744 9.30545 8.17766C9.51443 7.98086 9.64361 7.85018 9.67745 7.71806C9.69827 7.63202 9.70961 7.54388 9.71129 7.45532C9.73385 7.47374 9.75803 7.49018 9.78353 7.5044C9.81731 7.51982 9.97709 7.65194 9.95411 7.91786C9.93113 8.18384 9.83255 8.29442 9.83255 8.29442C9.83255 8.29442 9.73733 8.3897 9.66971 8.4389C9.59741 8.48804 9.57137 8.54486 9.44987 8.54954C9.46241 8.53964 9.47639 8.53178 9.49145 8.52644C9.49145 8.52644 9.36539 8.51114 9.29771 8.57252C9.23009 8.63396 9.08621 8.82308 9.01397 8.88002C8.94173 8.9261 8.86169 8.9783 8.86169 8.9783Z" fill="#CDAE50"/>
<path fill-rule="evenodd" clip-rule="evenodd" d="M13.9721 5.9889C13.7905 5.92273 13.5997 5.8854 13.4066 5.87828C13.0838 5.86754 12.6121 5.88597 12.1495 5.88901C11.6515 5.89205 11.1997 5.71841 10.5727 5.68771C10.4698 5.62621 10.208 5.35724 9.39084 5.92741C9.43998 5.92437 9.98406 5.80138 10.173 6.03812C10.3636 6.27326 10.3098 6.67286 10.2838 6.76808C10.2345 6.98024 10.0747 7.28912 10.0102 7.50584C9.94578 7.7225 9.96096 7.83638 9.91488 7.98836C9.8688 8.14034 9.7674 8.21582 9.82728 8.39096C9.9072 8.34182 9.94884 8.34182 10.0823 8.04218C10.2159 7.74248 10.1884 7.52882 10.4098 7.27526C10.6265 7.02014 10.9873 6.67124 11.1244 6.58358C11.2616 6.49598 12.3508 5.93045 13.4912 6.46994C13.7662 6.44072 13.9721 5.9889 13.9721 5.9889Z" fill="#D2A83E"/>
<path fill-rule="evenodd" clip-rule="evenodd" d="M9.8499 5.77983C9.84876 5.76828 9.84624 5.75692 9.84228 5.74599C9.83166 5.72351 9.81762 5.70278 9.80076 5.6845C9.80076 5.6845 9.53028 5.63536 9.39348 5.65066C9.15372 5.6768 8.937 5.97343 8.8356 6.12558C8.7342 6.2778 8.60814 6.51282 8.4714 6.63426C8.4729 6.62244 8.47014 6.61044 8.46366 6.60042C8.46366 6.60042 8.4714 6.61116 8.4561 6.62658C8.4408 6.642 8.44068 6.64956 8.44836 6.657L8.47146 6.67998C8.47908 6.67998 8.69124 6.58464 8.98014 6.31524C9.28752 6.03402 9.52266 5.88975 9.64566 5.84031C9.71124 5.81244 9.7797 5.79215 9.8499 5.77983Z" fill="#C29637"/>
<path fill-rule="evenodd" clip-rule="evenodd" d="M15.0969 4.62427C15.0969 4.62427 15.0477 4.68566 14.9862 4.75333C14.8494 4.8978 14.6711 5.06061 14.519 5.22817C14.3746 5.38804 14.2117 5.51256 14.0287 5.72156C13.8458 5.93056 13.6336 6.16256 13.5799 6.23024C13.5308 6.29792 13.4924 6.40856 13.4924 6.46538C13.4662 6.44696 13.4356 6.42698 13.4356 6.42698C13.4485 6.4511 13.4639 6.47378 13.4816 6.49466C13.52 6.54848 13.5799 6.61622 13.6107 6.65756C13.6485 6.71018 13.6756 6.7697 13.6906 6.8327C13.709 6.83576 13.8273 6.85886 13.9749 6.61604C14.1225 6.37316 14.3161 6.10736 14.3161 6.10736L14.6234 5.65084L14.8171 5.26363L15.0602 4.83023L15.0969 4.62427Z" fill="#AC8132"/>
<path fill-rule="evenodd" clip-rule="evenodd" d="M15.412 4.31396C15.412 4.31396 15.226 4.46593 15.1538 4.55711C15.0815 4.64829 14.9107 4.88759 14.9107 4.88759L14.9722 4.87989L15.2842 4.60331L15.4057 4.38661L15.412 4.31396Z" fill="#A88F33"/>
<path fill-rule="evenodd" clip-rule="evenodd" d="M15.355 16.5273C15.355 16.5273 15.352 16.4013 15.4227 16.326C15.4949 16.2506 15.6778 16.14 15.8561 15.725C16.0344 15.31 16.0543 15.2163 16.0543 15.2163C16.0543 15.2163 15.7346 15.4899 15.5376 15.5544C15.5837 15.4591 15.6098 15.3915 15.6329 15.3423C15.6068 15.3192 15.4961 15.2931 15.4854 15.2808C15.5468 15.2194 15.5806 15.0687 15.7051 14.9688C15.865 14.8473 16.157 14.6383 16.3839 14.4522C16.6108 14.2659 17.057 13.8328 17.114 13.7068C17.1478 13.7559 17.1554 13.7866 17.1554 13.7866C17.1554 13.7866 16.9311 14.0787 16.8143 14.2646C16.7113 14.4245 16.7189 14.5152 16.7189 14.5152L16.9311 14.424C16.9311 14.424 16.9925 14.6514 16.7144 14.9973C16.8359 14.9512 16.885 14.9788 16.9541 14.9403C16.8403 15.0127 16.6836 15.1111 16.5361 15.3814C16.3916 15.6519 16.1948 15.967 15.863 16.1637C15.5402 16.3711 15.3542 16.5264 15.3542 16.5264L15.355 16.5273Z" fill="#A67A2E"/>
<path fill-rule="evenodd" clip-rule="evenodd" d="M14.5219 6.14887C14.5219 6.14887 14.3959 6.41155 14.3774 6.61603C14.3744 6.66523 14.362 6.70363 14.362 6.76051C14.359 6.94333 14.3728 7.14781 14.3316 7.24303C14.3162 7.20463 14.3085 7.17847 14.2931 7.16317C14.2701 7.22773 14.2286 7.42903 14.1947 7.50427C14.1794 7.45513 14.1456 7.28455 14.1487 7.08325C14.1519 6.88195 14.1563 6.84343 14.1563 6.80203C14.1487 6.86341 14.1072 6.94651 14.0918 6.99565C14.0688 6.95419 14.0427 6.90037 14.0119 6.85579C13.9934 6.88621 13.9705 6.93109 13.9505 6.95419C13.9474 6.93577 13.9397 6.88651 13.9351 6.81745C13.9321 6.73747 13.9274 6.63457 13.9321 6.61297C13.9396 6.57157 14.0043 6.40867 14.141 6.25951C14.3039 6.08119 14.4715 5.73859 14.5207 5.63252C14.5698 5.52644 14.7788 5.08545 14.7788 5.08545H14.9386L14.7065 5.61408C14.7065 5.61408 14.5667 5.90301 14.4945 6.00919C14.4223 6.11533 14.2701 6.41959 14.2024 6.53791C14.2516 6.47335 14.2931 6.43957 14.3423 6.37807C14.39 6.33499 14.5219 6.14887 14.5219 6.14887Z" fill="#8C6228"/>
<path fill-rule="evenodd" clip-rule="evenodd" d="M15.4153 4.2937C15.3892 4.37408 15.3479 4.4487 15.2937 4.51355C15.1984 4.62731 14.9939 4.77938 14.8942 4.90075C14.803 5.01908 14.6206 5.34185 14.7035 5.7245C14.7338 5.64153 14.7911 5.4771 14.9432 5.2911C15.0954 5.10509 15.2583 4.89153 15.3383 4.72559C15.4182 4.55802 15.4289 4.42591 15.4289 4.42591L15.4593 4.38752L15.4409 4.29988L15.4153 4.2937Z" fill="#CBA94C"/>
<path fill-rule="evenodd" clip-rule="evenodd" d="M18.5275 14.4878C18.5275 14.4878 18.466 14.3204 18.4475 14.1682C18.4291 14.0161 18.478 13.9859 18.4214 13.8117C18.3876 13.7056 18.3262 13.7205 18.3108 13.7056C18.2954 13.6907 18.2846 13.5305 18.2877 13.4428C18.2907 13.3552 18.2846 13.2415 18.2692 13.1923C18.2462 13.1738 18.2308 13.1585 18.197 13.0448C18.1586 12.931 18.1402 12.8742 18.1217 12.8405C18.1033 12.8067 18.0494 12.7759 18.0494 12.7421C18.0494 12.6744 18.1109 12.6391 18.1109 12.6205C18.1079 12.5821 18.0617 12.6129 18.0494 12.602C18.0341 12.5836 18.0879 12.473 18.0679 12.4576C18.0602 12.45 18.0064 12.5146 17.9926 12.4961C17.9771 12.4775 17.9587 12.2947 17.9311 12.1733C17.905 12.055 17.8773 11.969 17.8742 11.9336C17.8712 11.8998 17.6621 11.3035 17.6114 11.159C17.5706 11.0369 17.5363 10.9128 17.5085 10.7871C17.4931 10.7149 17.4824 10.5673 17.4746 10.5827C17.467 10.598 17.4716 10.6733 17.4593 10.6703C17.4485 10.6672 17.4101 10.4045 17.3978 10.3629C17.3872 10.3214 17.3225 10.1806 17.3067 10.0786C17.2913 9.9756 17.2576 9.70662 17.2345 9.5238C17.2114 9.34092 17.2006 9.26562 17.2006 9.21984C17.2044 9.10782 17.1982 8.99574 17.1822 8.8848C17.1518 8.69112 17.091 8.45598 17.0377 8.3193C16.9348 8.06106 16.6612 7.40022 16.6122 7.23582C16.6122 7.19424 16.666 7.21734 16.666 7.21734C16.666 7.21734 16.7996 7.55238 16.898 7.8105C16.9933 8.06874 17.084 8.2962 17.1071 8.3193C17.1256 8.34228 17.27 8.5959 17.3345 9.01086C17.3991 9.42582 17.4221 9.80844 17.4606 10.0636C17.479 10.1851 17.4944 10.3141 17.5328 10.4432C17.5742 10.583 17.6388 10.7275 17.7234 10.9488C17.7956 11.1348 17.8494 11.29 17.8786 11.4238C17.9124 11.5943 17.9124 11.7234 17.9324 11.808C17.9509 11.8802 17.9785 12.0246 18.0431 12.2335C18.1078 12.4424 18.2029 12.7115 18.2674 12.8789C18.3935 13.214 18.4498 13.4937 18.4688 13.6428C18.4856 13.7965 18.5429 14.3281 18.5275 14.4878Z" fill="#A88F33"/>
<path fill-rule="evenodd" clip-rule="evenodd" d="M15.423 4.27545L15.4153 4.29389C15.4153 4.29389 15.4383 4.30159 15.4337 4.33239C15.434 4.37452 15.4315 4.41663 15.426 4.45842C15.4184 4.51221 15.403 4.55365 15.4 4.58749C15.4 4.65972 15.4108 4.7427 15.3088 4.94866C15.2784 5.0055 15.2597 5.05463 15.2443 5.08846C15.2059 5.17144 15.1982 5.1838 15.1643 5.2222C15.2182 5.1918 15.4118 5.07023 15.5101 5.08846C15.4426 5.12686 15.3395 5.20224 15.275 5.30061C15.2904 5.30365 15.3549 5.31601 15.4573 5.30061C15.628 5.27447 15.8185 5.21298 15.9859 5.22523C16.1689 5.23597 16.0967 5.0055 16.0967 5.0055L15.8855 4.54139L15.486 4.26025L15.423 4.27545Z" fill="#BE9C44"/>
<path fill-rule="evenodd" clip-rule="evenodd" d="M16.465 7.75172C16.465 7.75172 16.2866 7.5734 16.2144 6.96152C16.1422 6.34676 16.1576 5.44185 16.1576 5.44185L16.0131 5.08838C16.0131 5.08838 15.9827 4.85324 15.9071 4.76571C15.8314 4.67818 15.6827 4.53057 15.6151 4.45834C15.5474 4.3861 15.4706 4.28773 15.4245 4.27233C15.4475 4.23394 15.5506 4.01723 15.9454 4.01419C16.3403 4.01116 16.4621 4.23089 16.5034 4.31083C16.5446 4.39076 16.7308 4.73633 16.7999 5.39484C16.8644 6.05252 16.8676 6.10178 16.8568 6.32924C16.8491 6.45524 16.8076 6.7472 16.7353 7.05914C16.6692 7.32356 16.597 7.6187 16.4648 7.75232L16.465 7.75172Z" fill="#A17C34"/>
<path fill-rule="evenodd" clip-rule="evenodd" d="M15.9055 8.27599C15.965 8.28031 16.0243 8.26693 16.0762 8.23753C16.133 8.23447 16.339 8.26063 16.4972 8.05933C16.508 8.10529 16.5357 8.22991 16.4634 8.34055C16.5019 8.30203 16.5587 8.28673 16.5664 8.27599C16.5695 8.33287 16.6232 8.50801 16.3958 8.93371C16.4572 8.86615 16.5295 8.86915 16.594 8.86147C16.5971 8.94139 16.64 9.21031 16.5264 9.35485C16.4511 9.45319 16.3281 9.42241 16.3281 9.42241C16.3299 9.40093 16.3299 9.37939 16.3281 9.35791C16.3251 9.31633 16.3097 9.27493 16.3205 9.24727C16.2611 9.22009 16.207 9.18259 16.1606 9.13651C16.0269 9.01051 15.8533 8.79541 15.841 8.63557C15.8256 8.45725 15.9854 8.41885 15.9854 8.41885C15.9721 8.40685 15.9607 8.39287 15.9516 8.37733C15.9439 8.35129 15.9362 8.30977 15.9055 8.27599Z" fill="#8C6228"/>
<path fill-rule="evenodd" clip-rule="evenodd" d="M14.7204 6.34259C14.7204 6.34259 14.7127 6.33185 14.6713 6.38099C14.679 6.33185 14.6867 6.28565 14.6897 6.24107C14.7094 6.19985 14.7347 6.16157 14.7651 6.12743C14.742 6.17339 14.7266 6.21497 14.7266 6.21497C14.7266 6.21497 14.7835 6.10889 14.8665 6.04433C14.9233 5.99826 14.9956 5.97678 15.0263 5.93372C15.0601 5.88762 15.0524 5.87992 15.0601 5.87223C15.0601 5.87223 15.1355 5.82309 15.2507 5.67852C15.266 5.66008 15.2891 5.64013 15.3046 5.62168C15.3306 5.61095 15.3921 5.58329 15.4643 5.54631C15.5397 5.50488 15.6242 5.44804 15.6764 5.42474C15.7794 5.37864 15.8886 5.3833 15.9392 5.31097C15.9776 5.30023 16.0191 5.18494 16.0115 5.08667C16.0683 5.10967 16.3603 5.29101 16.4603 5.68754C16.5325 5.96877 16.4033 6.40217 16.3495 6.61127C16.2958 6.82037 16.2881 6.97547 16.2128 7.07075C16.1174 7.19687 15.8102 7.37465 15.7348 7.46267C15.6703 7.53491 15.4767 7.71779 15.4843 7.84991C15.492 7.94825 15.6133 8.00183 15.6396 8.02049C15.6658 8.03915 15.6656 8.06201 15.7148 8.05091C15.7641 8.03975 15.7824 8.01707 15.8025 8.01707C15.8255 8.02007 15.8255 8.02475 15.8362 8.02475C15.844 8.02451 15.8518 8.02349 15.8593 8.02163C15.8593 8.02163 15.8516 8.16155 15.5243 8.20397C15.5012 8.20709 15.4782 8.21471 15.4489 8.21939C15.4874 8.20091 15.5104 8.20091 15.5519 8.14409C15.5059 8.13641 15.3737 8.12867 15.3398 8.11793C15.3506 8.09951 15.3859 8.05031 15.4151 8.02727C15.4412 8.00429 15.412 7.99691 15.389 8.00885C15.3494 8.03579 15.3115 8.06501 15.2753 8.09639C15.2369 8.13023 15.203 8.17631 15.1415 8.21795C15.1231 8.15645 15.1262 8.03963 15.1985 7.95515C15.1799 7.95821 15.1446 8.01197 15.1109 8.00123C15.1048 7.94519 15.1084 7.88849 15.1216 7.83371C15.14 7.76447 15.2399 7.64309 15.2399 7.64309L15.7225 6.78089L15.8254 6.12773L14.7204 6.34259Z" fill="#92723A"/>
<path fill-rule="evenodd" clip-rule="evenodd" d="M14.6943 6.37933C14.6943 6.37933 14.6681 6.39774 14.7205 6.43308C14.7127 6.44382 14.6943 6.48222 14.6712 6.50838C14.6452 6.53874 14.6174 6.55764 14.6066 6.58374C14.5837 6.63756 14.5652 6.6744 14.5652 6.6975C14.5652 6.7206 14.5575 6.86814 14.493 6.96336C14.4699 6.9972 14.4437 7.05402 14.4253 7.09242C14.3869 7.15998 14.3531 7.21398 14.3454 7.2444C14.3301 7.29816 14.3194 7.4457 14.3194 7.4457C14.3194 7.4457 14.3532 7.40419 14.3654 7.38889C14.3469 7.42729 14.3269 7.46868 14.2978 7.49946C14.3162 7.4841 14.37 7.4457 14.4607 7.36578C14.5867 7.25976 14.7835 7.0815 15.0233 6.94026C14.9509 6.96642 14.8895 6.96642 14.8404 6.9741C14.8788 6.9357 15.2246 6.52998 15.406 6.49158C15.4169 6.4776 15.4225 6.46008 15.4213 6.44232L15.266 6.42702L14.9509 6.49458L14.905 6.25146L14.6943 6.37933Z" fill="#B18E3E"/>
<path fill-rule="evenodd" clip-rule="evenodd" d="M15.1955 7.76259C15.1955 7.76259 15.154 7.80399 15.1156 7.90707C15.086 7.87617 15.0607 7.84155 15.0402 7.80399C14.9834 7.70877 14.8958 7.58733 14.6914 7.65651C14.6884 7.59195 14.6837 7.55811 14.6914 7.51203C14.7253 7.50441 14.8282 7.42149 14.9311 7.29999C15.0034 7.21701 15.071 7.12167 15.1171 7.00028C15.1475 6.97718 15.2001 6.93885 15.2691 6.89427C15.3674 6.82665 15.4858 6.73436 15.5042 6.63146C15.4581 6.64988 15.3598 6.69596 15.2122 6.6884C15.2691 6.66224 15.3566 6.63459 15.3458 6.52083C15.3689 6.50541 15.3874 6.49466 15.3874 6.49466C15.3701 6.4889 15.3518 6.48626 15.3336 6.48698C15.3305 6.47624 15.3259 6.46095 15.2998 6.46857C15.2737 6.47613 15.2694 6.47624 15.2659 6.48698C15.2552 6.4901 15.2198 6.48698 15.1937 6.50552C15.1676 6.52406 15.0953 6.58532 15.0677 6.59606C15.0784 6.57764 15.0937 6.5501 15.0937 6.5501C15.0937 6.5501 15.0184 6.55766 14.9647 6.58046C14.8663 6.6143 14.7526 6.6758 14.6373 6.73568C14.648 6.71726 14.6527 6.70532 14.6603 6.70184C14.6679 6.69842 14.6864 6.69429 14.6864 6.69111C14.6864 6.68799 14.6788 6.66074 14.6834 6.6497C14.7179 6.57668 14.7586 6.50672 14.805 6.44066C14.8588 6.36836 14.8695 6.2654 14.8695 6.2654L15.1046 6.14709L15.7655 5.99512L16.1944 6.02127L16.1405 6.31791L15.8873 6.83577L15.6706 7.30761L15.4231 7.59663L15.1955 7.76259Z" fill="#543E26"/>
<path fill-rule="evenodd" clip-rule="evenodd" d="M16.2667 6.47896C16.2667 6.47896 16.0085 6.79858 15.9362 6.84778C15.9824 6.74944 16.2667 6.16384 16.3697 6.00094C16.3467 5.98251 16.3159 5.98251 16.3881 5.69702C16.3267 5.84139 16.3051 5.91677 16.2545 5.95516C16.2038 5.99356 16.1975 5.9813 16.1633 5.9813C16.1698 5.9696 16.1724 5.95618 16.1709 5.9429C16.1709 5.9429 15.9542 5.91677 15.8062 5.91677C15.6581 5.91677 15.3652 5.9967 15.2021 6.06124C15.0731 6.115 15.0008 6.115 14.9548 6.14878C14.9086 6.18718 14.8825 6.2287 14.8594 6.23944C14.8409 6.25018 14.7535 6.27784 14.7334 6.307C14.7149 6.33742 14.6842 6.37156 14.6842 6.37924C14.6842 6.38692 14.6765 6.39778 14.6996 6.38998C14.7073 6.38692 14.7642 6.35614 14.8287 6.31774C14.9162 6.2686 15.0223 6.21178 15.0992 6.17794C15.319 6.09028 15.3881 6.1057 15.4864 6.08728C15.5894 6.06886 15.737 6.02578 15.8353 6.02578C15.9336 6.02272 16.1197 6.02578 16.1627 6.03346C16.1443 6.04888 16.1288 6.0673 16.1366 6.13186C16.1366 6.15028 16.1212 6.17026 16.1062 6.21484C16.0601 6.34084 15.9725 6.54982 15.9238 6.6559C15.8562 6.80026 15.7794 6.92176 15.7414 6.99706C15.7034 7.0723 15.6199 7.27054 15.5371 7.37662C15.4543 7.4827 15.4111 7.54726 15.3851 7.57036C15.3592 7.59346 15.173 7.73008 15.1868 7.77934C15.2207 7.7686 15.4343 7.68814 15.5894 7.51348C15.7446 7.33882 15.7755 7.23226 15.8969 7.13692C16.0182 7.04158 16.1135 6.88186 16.1704 6.74974C16.218 6.62674 16.2068 6.58804 16.2667 6.47896Z" fill="#806031"/>
<path fill-rule="evenodd" clip-rule="evenodd" d="M10.7015 8.86463C10.7015 8.86463 10.6677 9.00443 10.5908 9.07367C10.5155 9.14135 10.3818 9.19967 10.3665 9.31343C10.3481 9.42713 10.5002 9.48407 10.5002 9.48407C10.5002 9.48407 10.4171 9.62081 10.4171 9.72377C10.4171 9.82985 10.4141 9.84977 10.4248 9.95117C10.4126 9.95903 10.4023 9.96941 10.3945 9.98159C10.3945 9.98159 10.4021 10.08 10.4774 10.1414C10.5528 10.2028 10.6172 10.2397 10.6556 10.2244C10.6615 10.2368 10.6666 10.2497 10.6711 10.2628C10.6711 10.2628 10.728 10.1183 10.7664 9.99233C10.8048 9.86327 10.8386 9.88157 10.8539 9.70793C10.8692 9.53429 11.0363 9.23615 11.0363 9.23615L11.1502 8.98133L10.9643 8.83691L10.7015 8.86463Z" fill="#B6903C"/>
<path fill-rule="evenodd" clip-rule="evenodd" d="M11.0473 9.11499C11.009 9.15429 10.9736 9.19641 10.9414 9.24099C10.8923 9.30867 10.8539 9.37005 10.7816 9.39627C10.7094 9.42255 10.6633 9.42231 10.6679 9.49467C10.6724 9.56703 10.7401 9.59757 10.7785 9.63447C10.82 9.67287 10.8539 9.73743 10.8355 9.80973C10.8584 9.79899 10.9 9.78663 10.9384 9.70365C10.9768 9.62067 11.2454 9.11505 11.2454 9.11505L11.0473 9.11499Z" fill="#685026"/>
<path fill-rule="evenodd" clip-rule="evenodd" d="M12.1066 7.94841C12.1066 7.94841 12.1296 7.88703 12.1066 7.84245C12.0835 7.79637 11.9437 7.78095 11.8745 7.72869C11.8022 7.67487 11.7146 7.63749 11.6424 7.66113C11.6531 7.63497 11.6962 7.57803 11.6608 7.56579C11.627 7.55505 11.5011 7.61187 11.4673 7.63803C11.4334 7.66413 11.3565 7.69485 11.3412 7.71339C11.3259 7.73193 11.2997 7.76715 11.2843 7.75179C11.2689 7.74105 11.2613 7.71339 11.2351 7.72869C11.209 7.74399 11.0832 7.84701 11.06 7.90695C11.0368 7.96695 10.9846 8.10069 10.8279 8.25273C10.6712 8.40483 10.6035 8.50329 10.6496 8.56011C10.6957 8.61693 10.7173 8.57553 10.7249 8.62467C10.7309 8.67291 10.7282 8.72181 10.7173 8.76909C10.6988 8.84907 10.6681 8.92431 10.7095 8.93973C10.8156 8.97357 10.9186 8.90931 10.9417 8.92899C10.9877 8.97045 10.9155 9.11955 11.0246 9.14871C11.1353 9.17913 11.2445 9.12261 11.2445 9.12261L11.6471 8.90589L12.0344 8.70153L12.2325 8.30961L12.1262 7.98225L12.106 7.94841H12.1066Z" fill="#D4B968"/>
<path fill-rule="evenodd" clip-rule="evenodd" d="M11.7266 8.88458C11.7266 8.88458 11.6589 8.78162 11.742 8.69084C11.825 8.60006 11.9432 8.56178 11.9894 8.50496C11.9806 8.4941 11.9688 8.48612 11.9555 8.48192C11.9861 8.4272 12.0328 8.38316 12.0893 8.3558C12.0662 8.33282 12.0355 8.3144 12.0017 8.3144C11.9263 8.3144 11.8802 8.36048 11.8111 8.36048C11.7435 8.36048 11.7358 8.32664 11.7358 8.32664C11.7358 8.32664 11.8496 8.3159 11.8387 8.26514C11.828 8.21138 11.8083 8.21138 11.8083 8.21138C11.8083 8.21138 12.0281 8.12018 12.0665 8.07152C12.1049 8.02292 12.1003 7.9655 12.108 7.94246C12.134 7.94246 12.2862 7.86254 12.3477 7.89638C12.4092 7.93022 12.3661 8.02238 12.3661 8.02238C12.3661 8.02238 12.5522 7.88252 12.647 7.7453C12.73 7.75304 12.7686 7.68848 12.8294 7.68848C12.9048 7.68848 13.0231 7.79144 13.0461 8.01116C13.0615 8.13722 13.0845 8.2094 13.0615 8.4323C13.0508 8.55836 13.0538 8.8274 13.0919 8.96096C13.1179 9.06698 13.1794 9.05624 13.1794 9.05624C13.17 9.08858 13.1513 9.11744 13.1256 9.13922C13.0841 9.17762 13.0795 9.27914 13.0841 9.31754C13.0902 9.34562 13.0979 9.37334 13.1072 9.40052C13.1072 9.40052 13.058 9.45734 13.0457 9.49586C13.0349 9.53426 12.9843 9.56036 12.9473 9.56036C12.9103 9.56036 12.9289 9.55724 12.8798 9.56036C12.8306 9.56354 12.8152 9.5711 12.7844 9.56036C12.7536 9.54962 12.7306 9.53726 12.743 9.4388C12.7537 9.34046 12.3634 9.1115 12.3634 9.1115L11.7251 8.88404L11.7266 8.88458Z" fill="#CCA849"/>
<path fill-rule="evenodd" clip-rule="evenodd" d="M10.9936 9.85582C10.9936 9.85582 11.1334 10.0418 11.7082 10.0418C11.9818 10.0418 12.0771 10.0157 12.1337 10.0003C12.1952 9.98488 12.4257 9.89428 12.6578 9.62068C12.8668 9.3733 12.8207 9.27184 12.8207 9.27184L12.6991 9.25342L12.304 9.30724L11.1349 9.80518L10.9936 9.85582Z" fill="#585136"/>
<path fill-rule="evenodd" clip-rule="evenodd" d="M11.4221 9.90178C11.4221 9.90178 10.9242 10.0125 10.9242 9.69748C10.9242 9.3901 11.2316 9.06736 11.3085 9.01054C11.3884 8.9536 11.579 8.88892 11.579 8.88892H12.0385L12.1261 9.12106L12.0877 9.622L11.4221 9.90178Z" fill="#252211"/>
<path fill-rule="evenodd" clip-rule="evenodd" d="M11.8819 8.98297C11.8819 8.98297 11.7867 8.89531 11.57 9.01333C11.3533 9.13135 11.178 9.37807 11.1673 9.60205C11.1565 9.80023 11.3302 9.94783 11.6007 9.95557C11.802 9.96313 11.9234 9.94015 11.9849 9.92515C11.9695 9.90673 11.8896 9.80683 11.8896 9.80683L11.8819 8.98297Z" fill="#C3B378"/>
<path fill-rule="evenodd" clip-rule="evenodd" d="M11.7883 9.03197C11.7883 9.03197 11.7653 9.01349 11.6971 9.05039C11.6403 9.08075 11.5573 9.16109 11.4928 9.21791C11.4512 9.25175 11.4251 9.26705 11.4016 9.29321C11.3063 9.40697 11.2264 9.59297 11.2726 9.68519C11.3188 9.77735 11.4708 9.88343 11.8581 9.81119L11.7872 9.03203L11.7883 9.03197Z" fill="#E6D89C"/>
<path fill-rule="evenodd" clip-rule="evenodd" d="M11.662 9.22263C11.662 9.22263 11.6005 9.31797 11.6005 9.47013C11.6005 9.62535 11.6882 9.87273 12.0109 9.89121C12.2583 9.90657 12.4243 9.53469 12.6041 9.39021C12.7408 9.27957 12.8238 9.27645 12.8238 9.27645C12.8238 9.27645 12.684 9.12447 12.3106 8.92761C11.9417 8.72937 11.5283 8.70321 11.3039 9.00753C11.41 8.99985 11.7527 8.91225 11.7527 8.91225L11.9203 8.96601L11.662 9.22263Z" fill="#252211"/>
<path fill-rule="evenodd" clip-rule="evenodd" d="M12.1448 9.42375C12.134 9.40077 12.1264 9.36999 12.1709 9.36237C12.2155 9.35475 12.2354 9.35925 12.2508 9.39279C12.2662 9.42633 12.2812 9.45429 12.2584 9.46815C12.2354 9.48039 12.1756 9.46833 12.1448 9.42375ZM12.0725 9.20709C12.0725 9.20709 12.0572 9.21783 12.0649 9.19635C12.0679 9.17031 12.088 9.12411 12.1371 9.13491C12.1862 9.14577 12.1756 9.19947 12.1675 9.21489C12.1594 9.23025 12.1183 9.25629 12.0875 9.24525C12.0836 9.24429 12.08 9.24237 12.077 9.23973C12.074 9.23703 12.0716 9.23373 12.0701 9.22995C12.0686 9.22623 12.068 9.22221 12.0683 9.21819C12.0687 9.21417 12.0704 9.21051 12.0725 9.20709Z" fill="#6F674D"/>
<path fill-rule="evenodd" clip-rule="evenodd" d="M7.9125 9.30552C7.9125 9.30552 8.03406 9.39666 8.1753 9.39312C8.3151 9.39 8.49492 9.24564 8.5779 9.15336C8.62704 9.09954 8.6691 9.04272 8.71464 8.99814C8.75316 8.95974 8.7792 8.94132 8.79762 8.91516C8.82378 8.88474 8.85144 8.82762 8.8653 8.80908C8.83146 8.83524 8.78232 8.88144 8.73156 8.9121C8.68248 8.94252 8.5764 8.99964 8.53332 9.01506C8.49192 9.03042 8.06154 9.25818 8.06154 9.25818L7.9125 9.30552Z" fill="#AC924C"/>
<path fill-rule="evenodd" clip-rule="evenodd" d="M8.09796 8.16995C8.09796 8.16995 8.16552 8.12387 8.2962 8.09459C8.42226 8.06417 8.67582 8.04077 8.67582 8.04077L8.8848 8.13197L8.96778 8.44703L8.8158 8.77445L8.62224 8.89607L8.4024 8.54255L8.09844 8.17055L8.09796 8.16995Z" fill="#9F8E57"/>
<path fill-rule="evenodd" clip-rule="evenodd" d="M7.8246 8.45108L7.75224 8.50508C7.75224 8.50508 7.77078 8.47124 7.78608 8.36834C7.80138 8.26538 7.88142 8.01482 7.99824 7.8704C8.11506 7.72592 8.112 7.7336 8.112 7.7336C8.10126 7.73162 8.09022 7.73198 8.0796 7.73462C8.06898 7.73726 8.05908 7.74212 8.0505 7.7489C8.06592 7.71488 8.16426 7.59332 8.26266 7.53248C8.361 7.4717 8.3994 7.45256 8.50236 7.50212C8.60526 7.55168 8.63142 7.57736 8.70678 7.57436C8.78214 7.5713 8.84658 7.49138 8.84658 7.49138C8.84658 7.49138 8.862 7.54052 8.80518 7.65428C8.7483 7.76804 8.5239 8.00006 8.5239 8.00006L8.05668 8.31968L7.8246 8.45108Z" fill="#EAC970"/>
<path fill-rule="evenodd" clip-rule="evenodd" d="M8.17014 8.13144C8.17014 8.13144 8.5083 8.17752 8.61126 8.0823C8.61426 8.09304 8.62662 8.09304 8.62662 8.10072C8.62578 8.10654 8.62308 8.11194 8.61894 8.11602C8.63016 8.11428 8.64144 8.11326 8.65278 8.11302C8.66628 8.11704 8.6802 8.11962 8.6943 8.1207C8.70564 8.12046 8.71698 8.11944 8.72814 8.11758C8.72706 8.1252 8.72448 8.13258 8.72052 8.13918C8.71656 8.14578 8.71128 8.15154 8.70504 8.15604C8.72046 8.15604 8.73546 8.1591 8.73546 8.17134C8.73546 8.18364 8.73846 8.2206 8.72004 8.22828C8.70474 8.23254 8.68848 8.2314 8.67396 8.22516C8.67516 8.25426 8.68308 8.2827 8.69706 8.30826C8.72742 8.36508 8.79228 8.42982 8.8794 8.41116C8.8794 8.41116 8.92542 8.5218 8.7318 8.76768C8.70576 8.80152 8.67798 8.8476 8.64426 8.886C8.63094 8.91504 8.62074 8.94546 8.61384 8.97666C8.61384 8.97666 8.94132 8.85066 9.03504 8.5632C9.13032 8.2743 9.1488 7.99002 9.13032 7.72416C9.1272 7.6488 9.11496 7.5951 9.09648 7.55664C9.0504 7.4613 8.92122 7.47666 8.86908 7.53048C8.79372 7.60584 8.66766 7.79328 8.49252 7.92234C8.3142 8.0514 8.307 8.07432 8.17014 8.13144Z" fill="#D7BC6B"/>
<path fill-rule="evenodd" clip-rule="evenodd" d="M7.76466 8.54647C7.76466 8.54647 7.7001 8.58487 7.66626 8.72881C7.63242 8.87629 7.69668 9.05611 7.73382 9.11299C7.77102 9.16981 7.85544 9.32509 8.03046 9.33283C8.07384 9.33259 8.11668 9.32371 8.15652 9.30667C8.21766 9.27865 8.27496 9.24301 8.3271 9.20059C8.40252 9.14377 8.4639 9.09463 8.45622 9.08995C8.43774 9.08227 7.99212 8.71339 7.99212 8.71339L7.82454 8.52637L7.76466 8.54647Z" fill="#585136"/>
<path fill-rule="evenodd" clip-rule="evenodd" d="M8.18592 9.15804C8.18592 9.15804 8.27663 9.15042 8.33039 9.11658C8.38421 9.08274 8.01534 8.71704 8.01534 8.71704L8.0415 9.11214L8.18592 9.15804Z" fill="#453A25"/>
<path fill-rule="evenodd" clip-rule="evenodd" d="M7.7937 8.51854C7.7937 8.51854 7.74762 8.6062 7.74762 8.6293C7.73994 8.7046 7.76304 8.94124 7.78146 9.01648C7.79988 9.09646 7.89978 9.21778 8.02896 9.21778C8.10876 9.21778 8.21952 9.1687 8.21952 9.1564C8.21952 9.14104 8.10576 9.12604 8.07504 9.0688C8.05662 9.03838 8.04888 8.96284 8.04468 8.8864C8.04162 8.83732 8.04162 8.7835 8.06004 8.76484C8.10156 8.71876 8.10918 8.58652 8.10918 8.58652L8.25672 8.3125H8.06268L7.8306 8.45698L7.7937 8.51854Z" fill="#84754B"/>
<path fill-rule="evenodd" clip-rule="evenodd" d="M7.7373 8.60328C7.7373 8.60328 7.88928 8.40198 8.02626 8.35578C8.16318 8.30958 8.2245 8.33736 8.2245 8.33736L8.14458 8.54178L8.03082 8.66778L8.0385 8.73234C8.0385 8.73234 8.01996 8.90292 8.13372 9.0213C8.24748 9.13962 8.33196 9.13506 8.38122 9.13506C8.43042 9.13506 8.57178 9.09348 8.64402 8.9229C8.70852 8.76312 8.76234 8.55822 8.63328 8.35272C8.50716 8.1483 8.28438 8.14038 8.2413 8.14038C8.19828 8.14038 7.86018 8.1576 7.7373 8.60328Z" fill="#252211"/>
<path fill-rule="evenodd" clip-rule="evenodd" d="M11.6389 9.28711C11.5821 9.26095 11.6359 9.10117 11.6927 9.05197C11.7496 9.00271 11.8218 8.94601 11.9479 8.93821C11.9939 8.93515 12.0385 8.96431 12.0309 8.99515C12.0202 9.05197 11.9402 9.13189 11.868 9.18871C11.7681 9.26713 11.7035 9.31627 11.6389 9.28711Z" fill="#F7F7E7"/>
<path fill-rule="evenodd" clip-rule="evenodd" d="M8.56518 8.41572C8.6067 8.41266 8.66052 8.44614 8.67126 8.49108C8.682 8.54022 8.6451 8.63862 8.56518 8.63862C8.50062 8.63862 8.46678 8.5587 8.46678 8.53566C8.4675 8.51676 8.47278 8.49828 8.4822 8.4819C8.48526 8.47722 8.49294 8.4234 8.56518 8.41572Z" fill="#F8F6DE"/>
<path fill-rule="evenodd" clip-rule="evenodd" d="M7.96578 8.45117C7.96578 8.45117 7.8597 8.50031 7.81056 8.60315C7.77546 8.67905 7.76484 8.76401 7.7802 8.84627C7.78788 8.88467 7.82628 8.97989 7.85238 9.01373C7.87854 9.04757 7.91388 9.07067 7.94004 9.06749C7.9662 9.06437 8.0199 8.99531 8.0199 8.95385C8.0199 8.91239 8.02302 8.73713 8.07366 8.64185C8.11824 8.54663 7.96578 8.45117 7.96578 8.45117Z" fill="#D4C38B"/>
<path fill-rule="evenodd" clip-rule="evenodd" d="M7.98132 8.44346C7.96284 8.4542 7.93218 8.46962 7.93974 8.48954C7.94748 8.50802 8.01198 8.51996 8.03508 8.56496C8.06124 8.61104 8.06124 8.66018 8.05356 8.68328C8.0736 8.67374 8.09184 8.66066 8.10732 8.64476C8.14116 8.60636 8.18262 8.55422 8.21796 8.55422C8.24106 8.55422 8.26404 8.56496 8.28564 8.56496C8.31948 8.56496 8.3532 8.55422 8.35788 8.51882C8.36544 8.47274 8.29332 8.43122 8.2518 8.4389C8.25948 8.40854 8.27022 8.36366 8.23638 8.33282C8.20254 8.30204 8.09658 8.35592 8.07348 8.37134C8.05038 8.38676 7.98132 8.44346 7.98132 8.44346Z" fill="#E2D59D"/>
<path fill-rule="evenodd" clip-rule="evenodd" d="M10.4234 11.6724L10.6509 11.6052L10.7154 11.6513C10.7154 11.6513 10.7614 11.7497 10.8338 11.7619C10.8107 11.8111 10.7507 11.8531 10.7538 11.888C10.757 11.9229 10.7876 11.9495 10.7876 11.9495C10.7876 11.9495 10.5832 12.2875 10.9859 12.6283C10.8906 12.6667 10.7692 12.7194 10.7047 12.7498C10.7507 12.7606 10.8491 12.7802 10.8906 12.8175C10.9321 12.8548 10.9321 12.8667 10.9705 12.8898C11.0089 12.9129 11.0319 12.9435 11.0243 12.9573C10.9982 12.9419 10.9106 12.8959 10.8953 12.9389C10.88 12.9818 10.5157 12.965 10.5157 12.965L9.9009 13.0833C9.9009 13.0833 9.92388 13.0218 9.85938 12.965C9.78408 12.8974 9.69192 12.9681 9.59352 12.8928C9.46446 12.7944 9.45978 12.6807 9.41838 12.6377C9.45978 12.6115 9.54438 12.5731 9.74568 12.5465C9.738 12.5311 9.71184 12.485 9.72726 12.4436C9.74568 12.3898 9.82248 12.3559 9.7995 12.2916C9.83334 12.2839 9.84864 12.2839 9.93324 12.1779C10.0132 12.0718 10.0623 12.0487 10.1238 12.0411C10.1853 12.0334 10.2221 12.0411 10.3359 11.935C10.4158 11.8597 10.3897 11.7952 10.3897 11.7952C10.3897 11.7952 10.4418 11.7785 10.4234 11.6724Z" fill="#CBAC5A"/>
<path fill-rule="evenodd" clip-rule="evenodd" d="M9.75179 11.7066C9.75479 11.6911 9.76715 11.6835 9.85013 11.6911C9.93311 11.6989 10.4587 11.6421 10.6016 11.6343C10.7461 11.6236 11.2548 11.6312 11.5023 11.6835C11.7498 11.7357 12.0002 11.7972 12.1216 11.8279C12.2432 11.8618 12.2815 11.8739 12.2768 11.8893C12.2738 11.9047 12.2464 11.9197 12.2308 11.9154C12.2155 11.9124 11.8127 11.7894 11.6883 11.7635C11.5639 11.7376 11.1334 11.6682 10.8981 11.6723C10.6784 11.6755 10.5907 11.6693 10.4048 11.6908C10.2188 11.7139 9.91145 11.7445 9.81923 11.7323C9.72803 11.7216 9.74711 11.722 9.75179 11.7066Z" fill="#D6BC6F"/>
<path fill-rule="evenodd" clip-rule="evenodd" d="M10.9889 12.911C10.9889 12.911 11.3039 13.0816 11.4177 13.2906C11.5007 13.4458 11.3686 13.5228 11.3686 13.5228C11.3686 13.5228 11.5469 13.5227 11.5238 13.6211C11.513 13.6825 11.2164 13.8484 11.0182 13.9361C10.8169 14.0237 10.8245 14.0191 10.7262 14.0344C10.6309 14.0498 10.3696 14.0041 10.3158 14.0805C10.262 14.157 10.2854 14.2358 10.3004 14.2481C10.3158 14.2588 10.4403 14.2742 10.4403 14.2742C10.4403 14.2742 10.4141 14.3465 10.156 14.3542C9.8979 14.3618 9.83322 14.3802 9.81786 14.408C9.80244 14.434 9.867 14.4187 9.98544 14.4383C10.1038 14.4568 10.2697 14.4688 10.2697 14.4688C10.2697 14.4688 10.2159 14.5148 10.0761 14.5517C9.9162 14.5931 9.6657 14.6317 9.5904 14.6777C9.6288 14.7039 9.68574 14.7422 9.71196 14.7453C9.64746 14.7607 9.55668 14.7946 9.54138 14.8068C9.56436 14.8222 9.5952 14.8406 9.5952 14.8406C9.5952 14.8406 9.46602 14.9959 9.39072 15.0343C9.31548 15.0728 8.88204 15.274 8.73294 15.2356C8.361 15.1373 8.31492 14.73 8.22426 14.6993C8.08746 14.6532 8.02296 14.7453 7.90146 14.6808C7.95528 14.6424 7.98456 14.6194 8.04138 14.5933C7.97988 14.5628 7.66176 14.3611 7.66176 14.3611C7.62852 14.2886 7.59162 14.2179 7.55118 14.1491C7.48968 14.0431 7.3992 13.9016 7.33134 13.7771C7.1838 13.5036 7.17612 13.3776 7.04238 13.2223C7.06548 13.192 7.14534 13.1962 7.14534 13.1962L8.26578 13.565L10.2526 13.6226L10.7692 12.885L10.9889 12.911Z" fill="#DFC677"/>
<path fill-rule="evenodd" clip-rule="evenodd" d="M8.04611 14.0359C8.05805 14.0492 8.07203 14.0606 8.08751 14.0698C8.12603 14.0959 8.18285 14.1266 8.22125 14.1727C8.23667 14.1497 8.27507 14.1081 8.34281 14.1727C8.41061 14.2372 8.49479 14.1912 8.54717 14.2065C8.60093 14.225 8.60399 14.2327 8.60399 14.2327C8.60399 14.2327 8.63441 14.2065 8.70239 14.1788C8.74391 14.1634 8.79305 14.1527 8.84681 14.1374C8.89595 14.1266 8.94977 14.1113 8.98673 14.1113C9.02057 14.1343 9.14195 14.2633 9.62915 14.0729C10.0887 13.8946 10.1947 13.8746 10.2716 13.9022C10.2793 13.8837 10.2869 13.8484 10.4053 13.853C10.4053 13.8039 10.3069 13.6363 10.3069 13.6363L9.76439 13.4504H9.46769L8.57783 13.6133L8.08481 13.8947L8.04641 14.0365L8.04611 14.0359Z" fill="#C4A859"/>
<path fill-rule="evenodd" clip-rule="evenodd" d="M7.7493 13.724C7.7493 13.724 7.76004 13.807 7.88304 13.8946C8.0046 13.9821 8.04282 14.0344 8.04282 14.0344C8.04282 14.0344 8.06592 14.004 8.08434 13.973C8.10276 13.9392 8.11818 13.9008 8.1489 13.8901C8.2104 13.8639 8.3502 13.913 8.38098 13.9054C8.40714 13.8977 8.3994 13.8439 8.42706 13.8439C8.49162 13.8408 8.53302 13.8854 8.55612 13.8854C8.57922 13.8854 8.63598 13.8823 8.64366 13.8701C8.6514 13.8578 8.6544 13.7302 8.74206 13.6687C8.8374 13.6011 8.95422 13.6303 8.98518 13.6457C8.98518 13.6687 8.98824 13.7256 9.04974 13.7287C9.11124 13.7317 9.1173 13.721 9.1713 13.7394C9.2253 13.7578 9.28962 13.7363 9.31878 13.8269C9.34494 13.8193 9.40644 13.8116 9.39102 13.724C9.42144 13.701 9.44796 13.6856 9.51264 13.5949C9.528 13.5719 9.55404 13.5458 9.57408 13.5119C9.6279 13.5119 9.69246 13.5012 9.77844 13.5765C9.75234 13.5949 9.73692 13.6069 9.7293 13.6256C9.7518 13.6479 9.77232 13.6721 9.79068 13.6979C9.81378 13.7282 9.8292 13.7655 9.85836 13.7732C9.92292 13.7917 10.029 13.7655 10.1473 13.7732C10.2611 13.7809 10.3563 13.8224 10.3979 13.8485C10.4132 13.8409 10.4132 13.8377 10.4516 13.8455C10.49 13.8532 10.5192 13.8562 10.4778 13.8071C10.5008 13.8178 10.5269 13.8409 10.55 13.8178C10.5731 13.7947 10.5914 13.761 10.656 13.7533C10.7205 13.7456 10.7436 13.7563 10.7698 13.6888C10.8036 13.6058 10.6868 13.6058 10.6868 13.6058C10.6868 13.6058 10.7406 13.5565 10.8005 13.492C10.8728 13.4244 10.9558 13.3368 10.9757 13.2292C11.0096 13.0309 10.816 13.0049 10.816 13.0049L9.8769 13.2938L8.72886 13.2369L7.7499 13.7241L7.7493 13.724Z" fill="#927D49"/>
<path fill-rule="evenodd" clip-rule="evenodd" d="M6.90558 11.0115C6.90558 11.0115 6.87522 11.0499 6.8565 11.1406C6.83772 11.2312 6.84576 11.2205 6.83034 11.285C6.81492 11.3496 6.6258 11.992 6.69672 12.2087C6.76764 12.4254 6.8904 12.5053 6.9672 12.6805C6.98262 12.7189 6.99762 12.742 7.0056 12.7759C7.03176 12.8895 7.00872 12.9772 7.03944 13.0909C7.05018 13.1293 7.07796 13.1739 7.11936 13.22C7.21056 13.3153 7.35918 13.4059 7.42332 13.4704C7.51386 13.5658 7.64304 13.7595 7.80744 13.7778C7.8951 13.7885 8.0196 13.7517 8.12256 13.6903C8.2137 13.6334 8.27004 13.5535 8.36568 13.5079C8.43324 13.4741 8.50548 13.4618 8.57004 13.4464C8.70372 13.4203 8.82522 13.4161 8.89746 13.4311C9.0081 13.4542 9.26934 13.5341 9.41412 13.5341C9.52728 13.5322 9.63972 13.5167 9.74916 13.4879C9.96888 13.4234 10.2347 13.3127 10.41 13.2635C10.5129 13.2332 10.5959 13.2251 10.6805 13.2067C10.825 13.1729 10.9463 13.1268 11.0155 13.0391C10.9694 12.9854 10.9126 12.9024 10.6051 12.9054C10.2563 12.9131 9.85362 13.1068 9.65532 13.1375C9.45708 13.1683 9.37104 13.1944 9.1497 13.1144C8.93268 13.0337 8.92554 12.9803 8.92554 12.9803C8.92554 12.9803 8.69766 12.8209 8.60232 12.4147C8.50698 12.0084 8.60232 11.7124 8.84982 11.431C8.91438 11.3588 8.89896 11.2943 8.89896 11.2943C8.89896 11.2943 9.06186 11.0745 9.01728 10.8688C8.96814 10.6643 8.65308 10.7059 8.65308 10.7059L6.90558 11.0115Z" fill="#6E6342"/>
<path fill-rule="evenodd" clip-rule="evenodd" d="M7.16826 11.6953C7.1547 11.7208 7.14834 11.7495 7.14984 11.7783C7.15284 11.8198 7.1652 11.8735 7.28964 11.995C7.39572 12.101 7.37262 12.2193 7.37262 12.2193C7.37262 12.2193 7.42596 12.23 7.57086 12.1622C7.68462 12.1085 7.72284 12.2038 7.72284 12.2038C7.75596 12.1864 7.79184 12.175 7.82892 12.1699C7.86246 12.1669 7.89498 12.1565 7.92414 12.1396C7.92414 12.1396 8.05788 12.2763 8.17464 12.3409C8.28072 12.3978 8.34222 12.4362 8.39448 12.3978C8.44362 12.364 8.44362 12.2948 8.4405 12.2641C8.42832 12.2357 8.4129 12.2089 8.39448 12.1841C8.36064 12.135 8.30688 12.0781 8.30334 12.0322C8.2956 11.9262 8.38326 11.8001 8.36472 11.7694C8.34618 11.7387 8.27718 11.731 8.1066 11.7925C7.9299 11.8508 7.16754 11.6956 7.16754 11.6956L7.16826 11.6953Z" fill="#39331F"/>
<path fill-rule="evenodd" clip-rule="evenodd" d="M7.57098 12.3824C7.57098 12.3824 7.48344 12.2994 7.51416 11.8968C7.5513 11.8962 7.58838 11.8998 7.62474 11.9075C7.62474 11.9075 7.67244 12.2195 7.57098 12.3824Z" fill="#292311"/>
<path fill-rule="evenodd" clip-rule="evenodd" d="M6.94698 10.7041C6.95916 10.6951 6.9705 10.6849 6.98082 10.6738C6.9504 10.7306 6.81012 10.9581 6.92388 11.3161C7.03764 11.6727 7.32342 11.9385 7.67538 11.9509C8.02734 11.9632 8.21232 11.791 8.42388 11.5329C8.50686 11.43 8.6022 11.3008 8.68668 11.2132C8.81268 11.0764 8.91108 11.038 8.91108 10.9059C8.91108 10.6354 8.63442 10.5139 8.22714 10.3926C7.81986 10.2712 7.45254 10.2862 7.26192 10.3692C7.07604 10.4598 6.99624 10.555 6.94698 10.7041Z" fill="#252211"/>
<path fill-rule="evenodd" clip-rule="evenodd" d="M8.25468 12.5037L8.2851 12.4883C8.2851 12.4883 8.29266 12.3667 8.34192 12.3699C8.39106 12.3777 8.41416 12.4423 8.40948 12.4653C8.40642 12.4883 8.39418 12.5268 8.34498 12.5222C8.28042 12.5237 8.25468 12.5037 8.25468 12.5037Z" fill="#3F3824"/>
<path fill-rule="evenodd" clip-rule="evenodd" d="M8.11787 11.9873C8.11787 11.9873 8.14823 11.9766 8.18543 12.0134C8.21585 12.0134 8.34833 11.998 8.38985 12.0241C8.43143 12.0503 8.44367 12.0733 8.44367 12.0733C8.44367 12.0733 8.28845 12.1071 8.20385 12.0733C8.11787 12.0441 8.11787 11.9873 8.11787 11.9873Z" fill="#2D2815"/>
<path fill-rule="evenodd" clip-rule="evenodd" d="M8.80205 12.0104C8.80205 12.0027 8.71907 11.9459 8.63147 11.9274C8.61605 11.9244 8.61293 11.9351 8.60105 11.9351C8.59337 11.932 8.59031 11.9089 8.59031 11.9089L8.54051 11.9352C8.54051 11.9352 8.53283 11.9459 8.55893 11.9656C8.58191 11.984 8.62043 11.9994 8.63117 12.0301C8.64191 12.0607 8.64191 12.0715 8.64659 12.0762C8.64959 12.0792 8.70341 12.0762 8.72951 12.0607C8.75567 12.0454 8.80517 12.0205 8.80205 12.0104Z" fill="#82764F"/>
<path fill-rule="evenodd" clip-rule="evenodd" d="M8.0262 12.3225C8.0262 12.3225 8.04144 12.2165 8.14452 12.2118C8.25048 12.2041 8.27052 12.3071 8.27052 12.3071L8.20902 12.3686C8.20902 12.3671 8.16246 12.3025 8.0262 12.3225Z" fill="#2D2816"/>
<path fill-rule="evenodd" clip-rule="evenodd" d="M8.69461 11.8659C8.69461 11.8659 8.63767 11.9274 8.51179 11.9459C8.50105 11.9304 8.47795 11.8998 8.51179 11.8506C8.54563 11.8014 8.58403 11.786 8.62237 11.8013C8.63935 11.8041 8.65513 11.8116 8.66797 11.823C8.68075 11.8345 8.68999 11.8494 8.69461 11.8659Z" fill="#574F35"/>
<path fill-rule="evenodd" clip-rule="evenodd" d="M8.92645 11.9412C8.92957 11.9258 8.91883 11.9228 8.92645 11.9151C8.93401 11.9074 8.97565 11.8921 8.98339 11.8997C8.98639 11.9028 8.98339 11.9151 8.98339 11.9301C8.98339 11.9451 8.98339 11.9605 8.97565 11.9715C8.96491 11.9869 8.93425 11.9946 8.91883 11.99C8.90341 11.9855 8.90041 11.9639 8.90041 11.9597C8.90797 11.9566 8.92645 11.9489 8.92645 11.9412ZM9.18883 11.7753C9.18883 11.7676 9.21499 11.7522 9.23035 11.7522C9.25339 11.7522 9.25339 11.7706 9.25651 11.7753C9.26413 11.7784 9.26413 11.7722 9.27181 11.786C9.27949 11.7999 9.29035 11.8244 9.28255 11.8398C9.27475 11.8552 9.24415 11.8658 9.23653 11.8628C9.22579 11.8551 9.19195 11.786 9.18883 11.7753Z" fill="#82764F"/>
<path fill-rule="evenodd" clip-rule="evenodd" d="M8.66046 11.9767C8.66046 11.9767 8.69424 11.9842 8.7402 12.0227C8.72484 12.0334 8.7018 12.0456 8.7018 12.0456C8.7018 12.0456 8.69874 12.0105 8.66046 11.9767Z" fill="#6E6342"/>
<path fill-rule="evenodd" clip-rule="evenodd" d="M8.58523 11.6386C8.57749 11.631 8.60821 11.6125 8.62663 11.6156C8.64511 11.6187 8.65279 11.631 8.67277 11.634C8.69269 11.6371 8.69587 11.6263 8.70313 11.6187C8.71045 11.6109 8.73697 11.6156 8.74153 11.6187C8.74435 11.622 8.74693 11.6256 8.74921 11.6294C8.74957 11.6235 8.75107 11.6178 8.75371 11.6126C8.75635 11.6074 8.76001 11.6027 8.76451 11.599C8.77045 11.5947 8.77723 11.5917 8.78443 11.5904C8.79163 11.589 8.79901 11.5893 8.80609 11.5913C8.80909 11.602 8.82451 11.6404 8.82145 11.6481C8.81845 11.6558 8.77231 11.6667 8.76451 11.6589C8.77225 11.6774 8.80609 11.7158 8.81065 11.7234C8.81521 11.731 8.77681 11.7495 8.76151 11.7465C8.74003 11.745 8.60821 11.6678 8.58523 11.6386ZM8.78653 11.3835C8.78365 11.3757 8.77825 11.3692 8.77111 11.365C8.76037 11.362 8.72503 11.365 8.72503 11.3835C8.72503 11.4019 8.75539 11.5051 8.78953 11.5588C8.82805 11.6125 8.85409 11.6571 8.88025 11.6694C8.88847 11.6731 8.89777 11.6736 8.90629 11.6707C8.91487 11.6679 8.92201 11.6619 8.92633 11.654C8.92939 11.6463 8.93707 11.5894 8.93401 11.4557C8.93101 11.322 8.92633 11.1929 8.91865 11.1852C8.91091 11.1775 8.88025 11.1776 8.86951 11.1929C8.85877 11.2082 8.78965 11.3605 8.78653 11.3835Z" fill="#585136"/>
<path fill-rule="evenodd" clip-rule="evenodd" d="M8.65007 12.1704C8.65007 12.1704 8.59625 12.1366 8.54399 12.1597C8.49485 12.1828 8.49785 12.2734 8.49785 12.2734C8.50895 12.2777 8.52089 12.2793 8.53265 12.278C8.54447 12.2766 8.55575 12.2724 8.56559 12.2657C8.59943 12.2428 8.64239 12.2042 8.65007 12.1704Z" fill="#574F35"/>
<path fill-rule="evenodd" clip-rule="evenodd" d="M8.75119 12.2917C8.74819 12.2613 8.72083 12.2613 8.72083 12.2455C8.72269 12.238 8.72706 12.2314 8.73318 12.2266C8.73924 12.2219 8.74681 12.2194 8.75455 12.2194C8.76997 12.2194 8.78491 12.2379 8.80381 12.2498C8.82223 12.2605 8.84988 12.2802 8.85288 12.3036C8.85594 12.327 8.82253 12.3912 8.78533 12.3912C8.74819 12.3912 8.75893 12.3223 8.75119 12.2917ZM9.04783 12.2501C9.04783 12.2501 8.98633 12.2686 8.99089 12.2501C8.99545 12.2317 9.00942 12.2271 9.0294 12.2271C9.03954 12.2165 9.05316 12.2099 9.0678 12.2086C9.07614 12.2082 9.08437 12.2109 9.09079 12.2163C9.09079 12.2163 9.13231 12.1978 9.14461 12.2086C9.15685 12.2193 9.14772 12.2193 9.15534 12.2317C9.165 12.2454 9.17136 12.2612 9.17388 12.2778C9.17388 12.2901 9.12775 12.3162 9.09079 12.3116C9.04783 12.3024 9.05545 12.2578 9.04783 12.2501ZM9.40585 12.1809C9.40585 12.1809 9.42432 12.1917 9.40902 12.204C9.39828 12.2148 9.34446 12.2344 9.29826 12.2379C9.25218 12.2379 9.21072 12.2455 9.21072 12.2302C9.21072 12.2149 9.24912 12.184 9.2721 12.1764C9.27672 12.1706 9.2826 12.1659 9.28926 12.1627C9.29592 12.1596 9.30325 12.1579 9.31063 12.1579C9.32905 12.1579 9.40122 12.1502 9.42126 12.1472C9.43968 12.144 9.45511 12.1548 9.44425 12.1702C9.43969 12.1809 9.40585 12.1809 9.40585 12.1809ZM9.51192 11.7064C9.51192 11.7064 9.48883 11.7555 9.46279 11.7555C9.43669 11.7525 9.43669 11.7448 9.43669 11.737C9.43669 11.7263 9.46278 11.6986 9.45966 11.691C9.45204 11.691 9.43351 11.691 9.43669 11.6725C9.43669 11.6571 9.46278 11.6387 9.48582 11.6421C9.50316 11.6278 9.52482 11.6197 9.54726 11.6191C9.57342 11.6191 9.59641 11.6268 9.59641 11.6421C9.59641 11.6575 9.56604 11.6913 9.55488 11.6991C9.54264 11.7114 9.52722 11.719 9.51192 11.7064ZM9.16153 12.6147C9.16153 12.6147 9.13111 12.6178 9.13111 12.6331C9.13111 12.6408 9.13872 12.6408 9.14952 12.6362C9.15576 12.6359 9.162 12.6348 9.168 12.6331C9.171 12.6362 9.171 12.6515 9.1941 12.6515C9.21306 12.649 9.23137 12.6427 9.24793 12.6331C9.26635 12.6255 9.28176 12.6177 9.28176 12.6027C9.27408 12.5766 9.25867 12.5642 9.23569 12.5642C9.22387 12.5634 9.2121 12.5661 9.20184 12.5719C9.20184 12.5719 9.1941 12.5565 9.168 12.5719C9.14184 12.5873 9.14491 12.5873 9.15259 12.595C9.16639 12.6072 9.16182 12.6153 9.16182 12.6153L9.16153 12.6147ZM8.98789 12.7745C8.98789 12.7668 9.02622 12.7514 9.03696 12.7561C9.0477 12.7591 9.07843 12.8175 9.07843 12.8236C9.07843 12.8314 9.04003 12.8498 9.02461 12.8498C9.00925 12.8498 8.98321 12.8236 8.98321 12.8194C8.98321 12.8164 9.00162 12.8118 9.00162 12.8086C9.00618 12.8011 8.98789 12.7822 8.98789 12.7745ZM8.86626 12.5501C8.874 12.547 8.87401 12.5394 8.88475 12.5317C8.88811 12.5295 8.89194 12.528 8.8959 12.5275C8.89992 12.5269 8.90401 12.5274 8.90785 12.5286C8.91055 12.5238 8.91427 12.5196 8.91883 12.5164C8.92333 12.5132 8.92849 12.511 8.93395 12.5101C8.95243 12.507 8.96779 12.5101 8.96437 12.5178C8.96437 12.5409 8.97972 12.5562 8.97972 12.5746C8.97972 12.5931 8.96899 12.6162 8.93065 12.6316C8.89225 12.6423 8.83992 12.6423 8.83224 12.6393C8.82456 12.6362 8.81682 12.6054 8.82456 12.59C8.83224 12.5746 8.8539 12.5578 8.86626 12.5501Z" fill="#82764F"/>
<path fill-rule="evenodd" clip-rule="evenodd" d="M8.91505 12.5605C8.91505 12.5605 8.88913 12.5758 8.88913 12.5835C8.88679 12.5908 8.88577 12.5985 8.88607 12.6063C8.88607 12.6108 8.91967 12.6033 8.92417 12.5986C8.92573 12.5956 8.91505 12.5685 8.91505 12.5605Z" fill="#6E6342"/>
<path fill-rule="evenodd" clip-rule="evenodd" d="M8.68656 12.4885C8.7018 12.4916 8.7279 12.4885 8.74782 12.4962C8.76318 12.5039 8.77386 12.5192 8.7585 12.5376C8.74314 12.556 8.7282 12.5836 8.69412 12.5789C8.65578 12.5759 8.619 12.556 8.619 12.5406C8.61834 12.5309 8.61966 12.5211 8.62284 12.512C8.62596 12.5027 8.63094 12.4943 8.63742 12.4869C8.65278 12.4748 8.66046 12.4824 8.68656 12.4885Z" fill="#585136"/>
<path fill-rule="evenodd" clip-rule="evenodd" d="M8.66826 12.5039C8.66826 12.5039 8.61912 12.5423 8.60676 12.5608C8.5914 12.5793 8.5161 12.6745 8.49312 12.6945C8.50074 12.681 8.50944 12.6681 8.51916 12.6561C8.48874 12.6755 8.46594 12.7048 8.4546 12.739C8.43618 12.796 8.55762 12.8266 8.63748 12.8497C8.71734 12.8728 8.74824 12.8802 8.74824 12.8802C8.71884 12.8359 8.69358 12.7891 8.67282 12.7404C8.64246 12.6681 8.62674 12.6604 8.64672 12.6265C8.66208 12.5927 8.68518 12.5697 8.68518 12.5436C8.676 12.5193 8.66826 12.5039 8.66826 12.5039Z" fill="#574F35"/>
<path fill-rule="evenodd" clip-rule="evenodd" d="M6.91602 12.6252C6.92718 12.6272 6.9387 12.6272 6.94986 12.6252C6.97284 12.622 7.21266 12.534 7.46322 12.5497C7.65072 12.5611 7.83666 12.5916 8.01798 12.6409C8.33304 12.7239 8.7249 12.8884 8.97846 12.9822C9.04602 13.0082 9.1122 13.0544 9.16086 13.0728C9.35454 13.1481 9.36216 13.1481 9.47592 13.1681C9.6096 13.1865 9.7464 13.1419 9.88932 13.1112C10.0645 13.0728 10.3642 13.0543 10.627 13.0159C10.712 13.0041 10.7958 12.9851 10.8775 12.9591C10.8775 12.9591 10.6685 13.1681 10.1674 13.2433C9.96492 13.2741 9.75906 13.2767 9.55584 13.2511C9.39594 13.2357 9.28998 13.2126 9.21006 13.1896C9.1194 13.1634 8.9334 13.0942 8.70444 13.0376C8.54454 12.9961 8.36628 12.9654 8.16192 12.927C7.6578 12.8347 7.11072 12.7287 6.91584 12.6258L6.91602 12.6252Z" fill="#252211"/>
<path fill-rule="evenodd" clip-rule="evenodd" d="M6.3504 11.6755C6.22884 11.7785 6.09984 11.8768 5.97392 11.9721L5.59431 12.2637C5.46524 12.359 5.33921 12.4573 5.21005 12.5527C5.08088 12.648 4.95192 12.7386 4.81494 12.8262C4.93651 12.7233 5.06548 12.628 5.19455 12.5343C5.32362 12.4405 5.45745 12.3486 5.58195 12.2536L5.96156 11.9616C6.09216 11.8663 6.21816 11.7678 6.3504 11.6755ZM5.6788 12.7513C5.6788 12.7513 5.81557 12.6376 5.98618 12.4778C6.19824 12.2797 6.45798 12.026 6.54096 11.98L5.6788 12.7513Z" fill="#CFB66C"/>
<path fill-rule="evenodd" clip-rule="evenodd" d="M5.6789 12.7512C5.74658 12.6836 5.81882 12.6175 5.89104 12.5529L6.00168 12.4577C6.03552 12.4273 6.07404 12.3931 6.10776 12.3594C6.17532 12.2917 6.2415 12.2194 6.30906 12.1503C6.34254 12.1156 6.37794 12.0828 6.41514 12.052C6.43368 12.0355 6.45432 12.0216 6.47652 12.0104C6.49506 11.9997 6.51504 11.98 6.54108 11.9766C6.52578 11.9997 6.5073 12.0104 6.49194 12.0304C6.47346 12.0458 6.4581 12.0642 6.4428 12.0795C6.40896 12.1134 6.37056 12.144 6.33672 12.1749C6.26448 12.2364 6.18918 12.2964 6.11694 12.3607C6.04476 12.4251 5.97716 12.4945 5.90483 12.559C5.82651 12.6252 5.75428 12.6894 5.6789 12.7512ZM6.59796 12.1365C6.59796 12.1365 6.09702 12.6268 5.99398 12.7066L6.59796 12.1365Z" fill="#CFB66C"/>
<path fill-rule="evenodd" clip-rule="evenodd" d="M6.59814 12.1365C6.55308 12.1887 6.50478 12.2379 6.45348 12.284L6.3015 12.4284C6.25236 12.4776 6.20616 12.5268 6.15402 12.576C6.1002 12.6221 6.05106 12.6672 5.99414 12.7097L6.14166 12.5652C6.19086 12.5161 6.24468 12.4746 6.29694 12.4254L6.44448 12.281C6.49512 12.2303 6.54438 12.1811 6.59814 12.1365ZM6.62112 12.4023C6.57498 12.5312 6.52056 12.657 6.45822 12.7789C6.32916 13.0371 6.13554 13.3598 6.051 13.5243L6.62112 12.4023Z" fill="#CFB66C"/>
<path fill-rule="evenodd" clip-rule="evenodd" d="M6.62112 12.4023C6.62112 12.4592 6.6057 12.5084 6.58728 12.5576C6.56928 12.6067 6.54882 12.6549 6.52584 12.702C6.50274 12.7481 6.47664 12.7973 6.45048 12.8419C6.42432 12.8865 6.39366 12.9325 6.37056 12.9787L6.21534 13.2522C6.16158 13.3434 6.10926 13.4351 6.05244 13.5227C6.09084 13.4243 6.1431 13.3322 6.19236 13.2415C6.24612 13.1503 6.29526 13.0591 6.34434 12.9648C6.36828 12.9178 6.38982 12.8696 6.40884 12.8204C6.43182 12.7712 6.45486 12.7251 6.4734 12.6806C6.49638 12.6314 6.5148 12.5852 6.5379 12.5407C6.56394 12.493 6.58578 12.4469 6.62112 12.4023Z" fill="#CFB66C"/>
<path fill-rule="evenodd" clip-rule="evenodd" d="M7.1682 13.6626C7.1682 13.6626 7.01622 13.8639 7.03146 14.119C7.07286 13.9854 7.12512 13.781 7.1682 13.6626ZM7.31268 13.8644C7.31268 13.8644 7.25886 14.4115 7.21428 14.6805C7.27734 14.3696 7.28958 14.3957 7.31268 13.8644ZM8.3193 14.7128C8.3193 14.7128 8.09184 15.3814 8.08716 15.5672C8.13642 15.3762 8.23164 14.9863 8.3193 14.7128Z" fill="#DEC270"/>
<path fill-rule="evenodd" clip-rule="evenodd" d="M8.8512 13.6211C8.8512 13.6211 9.22002 14.2297 9.49674 14.7491C9.42186 14.4877 9.2496 14.0083 8.8512 13.6211Z" fill="#CBAF59"/>
<path fill-rule="evenodd" clip-rule="evenodd" d="M9.84258 14.5171C10.0451 14.8751 10.2277 15.244 10.3897 15.6221C10.3589 15.3608 10.2759 14.9136 9.84258 14.5171Z" fill="#E3C677"/>
<path fill-rule="evenodd" clip-rule="evenodd" d="M12.7563 15.4143C12.8177 15.3759 12.9391 15.1668 13.0452 15.1146C13.1512 15.0608 13.2311 15.0501 13.3264 14.944C13.4217 14.8333 13.448 14.7657 13.6568 14.6782C13.9489 14.552 13.748 14.3891 13.748 14.3891C13.7801 14.3575 13.8146 14.3283 13.8509 14.3016C13.9263 14.2448 14.0138 14.1755 14.0062 14.0541C13.9955 13.8497 13.9571 13.5531 13.7895 13.381C13.9525 13.3472 14.2643 13.3241 14.4581 13.275C14.6825 13.2181 14.7855 13.1381 14.7855 13.1381C14.7855 13.1381 14.6564 12.9184 14.8654 12.6971C15.0744 12.4759 15.245 12.3437 15.371 12.0962C15.2266 12.0778 15.0064 12.001 14.4443 12.2145C14.4746 12.2288 14.5039 12.2452 14.5319 12.2636C14.5319 12.2636 14.1862 12.359 14.0601 12.4651C13.8403 12.6509 13.8126 12.8031 13.5745 12.9169C13.3363 13.0307 13.0965 12.9998 12.8983 13.0921C12.7001 13.1842 12.6709 13.2626 12.5986 13.2965C12.6139 13.315 12.5955 13.3456 12.6247 13.3718C12.6062 13.3979 12.4987 13.5731 12.3895 13.5731C12.4003 13.6146 12.4925 13.6453 12.4925 13.6453C12.4925 13.6453 12.4249 13.6945 12.2528 13.7068C12.3403 13.798 12.4234 13.8974 12.6523 14.0419C12.6339 14.0803 12.557 14.1371 12.5878 14.2094C12.6217 14.2816 12.7094 14.38 13.0596 14.4599C12.8813 14.4676 12.6724 14.5091 12.391 14.4707C12.1097 14.4368 12.0636 14.4169 11.89 14.4599C11.9084 14.4784 11.9576 14.4784 12.0006 14.5275C11.9545 14.5306 11.6656 14.4937 11.5672 14.6228C11.4643 14.7565 11.4197 14.9763 11.4274 15.1238C11.3736 15.1499 11.3213 15.1961 11.3475 15.2914C11.3736 15.3867 11.5104 15.4174 11.598 15.4773C11.6855 15.5418 11.6932 15.5648 11.7763 15.5495C11.8639 15.5311 11.9929 15.4436 12.0683 15.4436C12.1436 15.4436 12.1973 15.5004 12.1973 15.5004C12.1973 15.5004 12.4018 15.402 12.4217 15.4205C12.4402 15.4389 12.4248 15.5572 12.4447 15.5756C12.465 15.5896 12.6948 15.4528 12.7563 15.4143Z" fill="#ECD592"/>
<path fill-rule="evenodd" clip-rule="evenodd" d="M17.2241 9.26422C16.2635 6.78376 13.889 6.32422 13.889 6.32422H7.11456L7.14072 8.85082H8.48982V14.4926H7.11444V17.0147H13.7015C15.289 17.0147 16.5616 15.4193 16.5616 15.4193C18.5995 12.527 17.2241 9.26422 17.2241 9.26422ZM13.7369 13.7195C13.7369 13.7195 13.2202 14.465 12.658 14.465H11.5335L11.5069 8.857H12.95C12.95 8.857 13.6186 8.9968 14.0858 10.32C14.0858 10.32 14.7051 12.2145 13.7369 13.7195Z" fill="white" fill-opacity="0.8"/>
</g>
<defs>
<clipPath id="clip0_22_3536">
<rect width="24" height="24" fill="white"/>
</clipPath>
</defs>
</svg>
