<svg width="85" height="81" viewBox="0 0 85 81" fill="none" xmlns="http://www.w3.org/2000/svg">
<path d="M44.3004 2.27131L52.8382 28.5479C53.1729 29.578 54.1327 30.2754 55.2158 30.2754H82.8447C84.2977 30.2754 84.9019 32.1348 83.7263 32.9889L61.3741 49.2287C60.4979 49.8653 60.1313 50.9938 60.466 52.0238L69.0037 78.3004C69.4528 79.6824 67.871 80.8316 66.6955 79.9775L44.3433 63.7376C43.467 63.101 42.2806 63.101 41.4043 63.7376L19.0521 79.9775C17.8765 80.8316 16.2948 79.6824 16.7439 78.3004L25.2816 52.0238C25.6163 50.9938 25.2497 49.8653 24.3735 49.2287L2.02125 32.9889C0.845678 32.1348 1.44984 30.2754 2.90293 30.2754H30.5318C31.6148 30.2754 32.5747 29.578 32.9094 28.5479L41.4472 2.27131C41.8962 0.889341 43.8514 0.889342 44.3004 2.27131Z" stroke="#FF788D"/>
</svg>
