<svg width="24" height="24" viewBox="0 0 24 24" fill="none" xmlns="http://www.w3.org/2000/svg">
<path d="M23.9348 12.0002C23.9348 18.5927 18.5906 23.937 11.9982 23.937C5.40564 23.937 0.0614014 18.5927 0.0614014 12.0002C0.0614014 5.40772 5.40564 0.0634766 11.9982 0.0634766C18.5906 0.0634766 23.9348 5.40772 23.9348 12.0002Z" fill="#758FE5"/>
<path d="M12.7493 7.45798C12.11 7.82854 11.7315 8.49771 11.7315 9.20336C11.7315 9.57392 11.8823 9.94736 12.0711 10.2805C12.2219 10.5781 12.2959 11.0975 11.7695 11.3577C11.3939 11.5795 10.9025 11.4316 10.6777 11.0601C10.4529 10.7625 10.1892 10.4649 9.84961 10.2431C9.21032 9.87253 8.45617 9.87253 7.81683 10.2431C7.17749 10.6137 6.79993 11.2845 6.79993 11.9903C6.79993 12.6962 7.17554 13.3651 7.81668 13.7367C8.45598 14.1072 9.21013 14.1072 9.84947 13.7367C10.1891 13.5504 10.4527 13.2548 10.6396 12.9197C10.7904 12.6595 11.205 12.3245 11.7314 12.6221C12.107 12.8438 12.2199 13.3287 12.033 13.6992C11.8443 14.0343 11.7314 14.4058 11.7314 14.7764C11.7314 15.483 12.107 16.1512 12.7492 16.5218C13.3885 16.8923 14.1427 16.8923 14.782 16.5218C15.4213 16.1512 15.7999 15.4821 15.7999 14.7764C15.7999 14.0708 15.4233 13.4016 14.7821 13.0301C14.4425 12.8438 14.0659 12.7699 13.6523 12.7699C13.3127 12.7699 12.8622 12.5482 12.8622 11.9903C12.8622 11.5439 13.2018 11.2108 13.6523 11.2108C14.0279 11.2108 14.4425 11.1369 14.7821 10.9506C15.4214 10.5801 15.7999 9.91088 15.7999 9.20528C15.7999 8.49968 15.4233 7.83051 14.7821 7.4599C14.4805 7.27366 14.1048 7.19974 13.7653 7.19974C13.4277 7.19782 13.0491 7.27366 12.7495 7.45798" fill="white"/>
</svg>
