<svg width="24" height="24" viewBox="0 0 24 24" fill="none" xmlns="http://www.w3.org/2000/svg">
<g clip-path="url(#clip0_22_3530)">
<path d="M24 12C24 5.37258 18.6274 0 12 0C5.37258 0 0 5.37258 0 12C0 18.6274 5.37258 24 12 24C18.6274 24 24 18.6274 24 12Z" fill="#EF0027"/>
<path d="M16.2741 7.64213L5.45007 5.65015L11.1463 19.9841L19.0836 10.3136L16.2741 7.64213ZM16.1001 8.51963L17.7561 10.0939L13.2276 10.9136L16.1001 8.51963ZM12.2436 10.7494L7.47057 6.79091L15.2721 8.22641L12.2436 10.7494ZM11.9038 11.4499L11.1253 17.8849L6.92907 7.32263L11.9038 11.4491V11.4499ZM12.6238 11.7911L17.6391 10.8836L11.8866 17.8909L12.6238 11.7911Z" fill="white"/>
</g>
<defs>
<clipPath id="clip0_22_3530">
<rect width="24" height="24" fill="white"/>
</clipPath>
</defs>
</svg>
