<svg width="20" height="20" viewBox="0 0 20 20" fill="none" xmlns="http://www.w3.org/2000/svg">
<path opacity="0.4" d="M17.5 18.9585H2.5C2.15833 18.9585 1.875 18.6752 1.875 18.3335C1.875 17.9918 2.15833 17.7085 2.5 17.7085H17.5C17.8417 17.7085 18.125 17.9918 18.125 18.3335C18.125 18.6752 17.8417 18.9585 17.5 18.9585Z" fill="#F2F2F2"/>
<path d="M4.66667 6.98234H3.33333C2.875 6.98234 2.5 7.35734 2.5 7.81567V14.999C2.5 15.4573 2.875 15.8323 3.33333 15.8323H4.66667C5.125 15.8323 5.5 15.4573 5.5 14.999V7.81567C5.5 7.349 5.125 6.98234 4.66667 6.98234ZM10.6667 4.32567H9.33333C8.875 4.32567 8.5 4.70067 8.5 5.159V15.0007C8.5 15.459 8.875 15.834 9.33333 15.834H10.6667C11.125 15.834 11.5 15.459 11.5 15.0007V5.159C11.5 4.70067 11.125 4.32567 10.6667 4.32567ZM16.6667 1.6665H15.3333C14.875 1.6665 14.5 2.0415 14.5 2.49984V14.9998C14.5 15.4582 14.875 15.8332 15.3333 15.8332H16.6667C17.125 15.8332 17.5 15.4582 17.5 14.9998V2.49984C17.5 2.0415 17.125 1.6665 16.6667 1.6665Z" fill="#F2F2F2"/>
</svg>
