<svg width="24" height="24" viewBox="0 0 24 24" fill="none" xmlns="http://www.w3.org/2000/svg">
<path opacity="0.4" d="M10.9608 2.0591L5.46078 4.1191C4.41078 4.5191 3.55078 5.7591 3.55078 6.8891V14.9891C3.55078 15.7991 4.08078 16.8691 4.73078 17.3491L10.2308 21.4591C11.2008 22.1891 12.7908 22.1891 13.7608 21.4591L19.2608 17.3491C19.9108 16.8591 20.4408 15.7991 20.4408 14.9891V6.8891C20.4408 5.7691 19.5808 4.5191 18.5308 4.1291L13.0308 2.0691C12.4708 1.8491 11.5308 1.8491 10.9608 2.0591Z" fill="white"/>
<path d="M10.6585 14.2311C10.4685 14.2311 10.2785 14.1611 10.1285 14.0111L8.51848 12.4011C8.379 12.26 8.30078 12.0695 8.30078 11.8711C8.30078 11.6727 8.379 11.4822 8.51848 11.3411C8.80848 11.0511 9.28848 11.0511 9.57848 11.3411L10.6585 12.4211L14.4285 8.65109C14.7185 8.36109 15.1985 8.36109 15.4885 8.65109C15.7785 8.94109 15.7785 9.42109 15.4885 9.71109L11.1885 14.0111C11.0385 14.1611 10.8485 14.2311 10.6585 14.2311Z" fill="white"/>
</svg>
